<svg width="717" height="80" viewBox="0 0 717 80" fill="none" xmlns="http://www.w3.org/2000/svg">
<rect width="716.009" height="76.6333" transform="translate(0.863281 0.597168)" fill="white"/>
<line x1="6.12796" y1="-6.12796" x2="31.9279" y2="-6.12796" transform="matrix(0.849972 -0.526828 0.620393 0.784291 8.75781 46.6045)" stroke="#DB4437" stroke-width="12.2559" stroke-linecap="round"/>
<line x1="6.12796" y1="-6.12796" x2="31.9094" y2="-6.12796" transform="matrix(-0.84773 0.530428 -0.623996 -0.781427 72.6016 31.9019)" stroke="#F4B400" stroke-width="12.2559" stroke-linecap="round"/>
<line x1="6.12796" y1="-6.12796" x2="31.9279" y2="-6.12796" transform="matrix(0.849972 0.526828 -0.620393 0.784291 0.863281 40.3408)" stroke="#4285F4" stroke-width="12.2559" stroke-linecap="round"/>
<line x1="6.12796" y1="-6.12796" x2="31.9279" y2="-6.12796" transform="matrix(-0.849972 -0.526828 0.620393 -0.784291 80.8711 37.4873)" stroke="#0F9D58" stroke-width="12.2559" stroke-linecap="round"/>
<path d="M110.145 18.4062H120.809V32.7422C119.311 33.237 117.762 33.6211 116.16 33.8945C114.559 34.168 112.762 34.3047 110.77 34.3047C107.866 34.3047 105.405 33.7318 103.387 32.5859C101.382 31.4271 99.8581 29.7539 98.8164 27.5664C97.7747 25.3659 97.2539 22.7161 97.2539 19.6172C97.2539 16.6354 97.8333 14.0508 98.9922 11.8633C100.151 9.66276 101.837 7.96354 104.051 6.76562C106.264 5.55469 108.947 4.94922 112.098 4.94922C113.647 4.94922 115.145 5.10547 116.59 5.41797C118.048 5.71745 119.383 6.13411 120.594 6.66797L118.953 10.5352C117.99 10.0794 116.909 9.69531 115.711 9.38281C114.513 9.07031 113.27 8.91406 111.98 8.91406C109.936 8.91406 108.172 9.35677 106.688 10.2422C105.216 11.1276 104.083 12.3776 103.289 13.9922C102.495 15.5938 102.098 17.4883 102.098 19.6758C102.098 21.7982 102.417 23.6602 103.055 25.2617C103.693 26.8633 104.689 28.1133 106.043 29.0117C107.41 29.8971 109.174 30.3398 111.336 30.3398C112.417 30.3398 113.335 30.2812 114.09 30.1641C114.845 30.0469 115.542 29.9167 116.18 29.7734V22.4102H110.145V18.4062ZM146.316 23.0547C146.316 24.8516 146.082 26.4466 145.613 27.8398C145.145 29.2331 144.461 30.4115 143.562 31.375C142.664 32.3255 141.583 33.0547 140.32 33.5625C139.057 34.0573 137.632 34.3047 136.043 34.3047C134.559 34.3047 133.198 34.0573 131.961 33.5625C130.724 33.0547 129.65 32.3255 128.738 31.375C127.84 30.4115 127.143 29.2331 126.648 27.8398C126.154 26.4466 125.906 24.8516 125.906 23.0547C125.906 20.6719 126.316 18.6536 127.137 17C127.97 15.3333 129.155 14.0638 130.691 13.1914C132.228 12.319 134.057 11.8828 136.18 11.8828C138.172 11.8828 139.93 12.319 141.453 13.1914C142.977 14.0638 144.168 15.3333 145.027 17C145.887 18.6667 146.316 20.6849 146.316 23.0547ZM130.633 23.0547C130.633 24.6302 130.822 25.9779 131.199 27.0977C131.59 28.2174 132.189 29.0768 132.996 29.6758C133.803 30.2617 134.845 30.5547 136.121 30.5547C137.397 30.5547 138.439 30.2617 139.246 29.6758C140.053 29.0768 140.646 28.2174 141.023 27.0977C141.401 25.9779 141.59 24.6302 141.59 23.0547C141.59 21.4792 141.401 20.1445 141.023 19.0508C140.646 17.944 140.053 17.1042 139.246 16.5312C138.439 15.9453 137.391 15.6523 136.102 15.6523C134.201 15.6523 132.814 16.2904 131.941 17.5664C131.069 18.8424 130.633 20.6719 130.633 23.0547ZM170.73 23.0547C170.73 24.8516 170.496 26.4466 170.027 27.8398C169.559 29.2331 168.875 30.4115 167.977 31.375C167.078 32.3255 165.997 33.0547 164.734 33.5625C163.471 34.0573 162.046 34.3047 160.457 34.3047C158.973 34.3047 157.612 34.0573 156.375 33.5625C155.138 33.0547 154.064 32.3255 153.152 31.375C152.254 30.4115 151.557 29.2331 151.062 27.8398C150.568 26.4466 150.32 24.8516 150.32 23.0547C150.32 20.6719 150.73 18.6536 151.551 17C152.384 15.3333 153.569 14.0638 155.105 13.1914C156.642 12.319 158.471 11.8828 160.594 11.8828C162.586 11.8828 164.344 12.319 165.867 13.1914C167.391 14.0638 168.582 15.3333 169.441 17C170.301 18.6667 170.73 20.6849 170.73 23.0547ZM155.047 23.0547C155.047 24.6302 155.236 25.9779 155.613 27.0977C156.004 28.2174 156.603 29.0768 157.41 29.6758C158.217 30.2617 159.259 30.5547 160.535 30.5547C161.811 30.5547 162.853 30.2617 163.66 29.6758C164.467 29.0768 165.06 28.2174 165.438 27.0977C165.815 25.9779 166.004 24.6302 166.004 23.0547C166.004 21.4792 165.815 20.1445 165.438 19.0508C165.06 17.944 164.467 17.1042 163.66 16.5312C162.853 15.9453 161.805 15.6523 160.516 15.6523C158.615 15.6523 157.228 16.2904 156.355 17.5664C155.483 18.8424 155.047 20.6719 155.047 23.0547ZM182.176 43.5234C179.246 43.5234 177 42.9961 175.438 41.9414C173.875 40.8867 173.094 39.4089 173.094 37.5078C173.094 36.1797 173.51 35.0534 174.344 34.1289C175.177 33.2174 176.368 32.5859 177.918 32.2344C177.332 31.974 176.824 31.5703 176.395 31.0234C175.978 30.4635 175.77 29.8451 175.77 29.168C175.77 28.3607 175.997 27.6706 176.453 27.0977C176.909 26.5247 177.592 25.9714 178.504 25.4375C177.371 24.9557 176.46 24.1745 175.77 23.0938C175.092 22 174.754 20.7174 174.754 19.2461C174.754 17.6836 175.086 16.3555 175.75 15.2617C176.414 14.1549 177.384 13.3151 178.66 12.7422C179.936 12.1562 181.479 11.8633 183.289 11.8633C183.68 11.8633 184.103 11.8893 184.559 11.9414C185.027 11.9805 185.457 12.0326 185.848 12.0977C186.251 12.1497 186.557 12.2083 186.766 12.2734H194.246V14.832L190.574 15.5156C190.926 16.0104 191.206 16.5768 191.414 17.2148C191.622 17.8398 191.727 18.5234 191.727 19.2656C191.727 21.5052 190.952 23.2695 189.402 24.5586C187.866 25.8346 185.743 26.4727 183.035 26.4727C182.384 26.4466 181.753 26.3945 181.141 26.3164C180.672 26.6029 180.314 26.9219 180.066 27.2734C179.819 27.612 179.695 27.9961 179.695 28.4258C179.695 28.7773 179.819 29.0638 180.066 29.2852C180.314 29.4935 180.678 29.6497 181.16 29.7539C181.655 29.8581 182.254 29.9102 182.957 29.9102H186.688C189.057 29.9102 190.867 30.4115 192.117 31.4141C193.367 32.4167 193.992 33.888 193.992 35.8281C193.992 38.2891 192.977 40.1836 190.945 41.5117C188.914 42.8529 185.991 43.5234 182.176 43.5234ZM182.352 40.3008C183.953 40.3008 185.301 40.1445 186.395 39.832C187.488 39.5195 188.315 39.0703 188.875 38.4844C189.435 37.9115 189.715 37.2279 189.715 36.4336C189.715 35.7305 189.539 35.1901 189.188 34.8125C188.836 34.4349 188.309 34.1745 187.605 34.0312C186.902 33.888 186.03 33.8164 184.988 33.8164H181.59C180.743 33.8164 179.995 33.9466 179.344 34.207C178.693 34.4805 178.185 34.8711 177.82 35.3789C177.469 35.8867 177.293 36.4987 177.293 37.2148C177.293 38.2044 177.729 38.9661 178.602 39.5C179.487 40.0339 180.737 40.3008 182.352 40.3008ZM183.25 23.4648C184.591 23.4648 185.587 23.1003 186.238 22.3711C186.889 21.6289 187.215 20.5872 187.215 19.2461C187.215 17.7878 186.876 16.694 186.199 15.9648C185.535 15.2357 184.546 14.8711 183.23 14.8711C181.941 14.8711 180.958 15.2422 180.281 15.9844C179.617 16.7266 179.285 17.8268 179.285 19.2852C179.285 20.6003 179.617 21.6289 180.281 22.3711C180.958 23.1003 181.948 23.4648 183.25 23.4648ZM202.801 33.9141H198.191V3.52344H202.801V33.9141ZM217.977 11.8828C219.904 11.8828 221.557 12.2799 222.938 13.0742C224.318 13.8685 225.379 14.9948 226.121 16.4531C226.863 17.9115 227.234 19.6562 227.234 21.6875V24.1484H212.801C212.853 26.2448 213.413 27.8594 214.48 28.9922C215.561 30.125 217.072 30.6914 219.012 30.6914C220.392 30.6914 221.629 30.5612 222.723 30.3008C223.829 30.0273 224.969 29.6302 226.141 29.1094V32.8398C225.06 33.3477 223.96 33.7188 222.84 33.9531C221.72 34.1875 220.379 34.3047 218.816 34.3047C216.694 34.3047 214.826 33.8945 213.211 33.0742C211.609 32.2409 210.353 31.0039 209.441 29.3633C208.543 27.7227 208.094 25.6849 208.094 23.25C208.094 20.8281 208.504 18.7708 209.324 17.0781C210.145 15.3854 211.297 14.0964 212.781 13.2109C214.266 12.3255 215.997 11.8828 217.977 11.8828ZM217.977 15.3398C216.531 15.3398 215.359 15.8086 214.461 16.7461C213.576 17.6836 213.055 19.0573 212.898 20.8672H222.742C222.729 19.7865 222.547 18.8294 222.195 17.9961C221.857 17.1628 221.336 16.5117 220.633 16.043C219.943 15.5742 219.057 15.3398 217.977 15.3398ZM266.453 19.3633C266.453 22.5794 265.854 25.2682 264.656 27.4297C263.458 29.5781 261.72 31.1992 259.441 32.293C257.163 33.3737 254.415 33.9141 251.199 33.9141H243.27V5.35938H252.059C255.014 5.35938 257.566 5.89323 259.715 6.96094C261.863 8.01562 263.523 9.58464 264.695 11.668C265.867 13.7383 266.453 16.3034 266.453 19.3633ZM261.57 19.5C261.57 17.1562 261.199 15.2292 260.457 13.7188C259.728 12.2083 258.647 11.0885 257.215 10.3594C255.796 9.61719 254.044 9.24609 251.961 9.24609H247.957V29.9883H251.277C254.728 29.9883 257.306 29.1094 259.012 27.3516C260.717 25.5938 261.57 22.9766 261.57 19.5ZM280.75 11.8828C282.677 11.8828 284.331 12.2799 285.711 13.0742C287.091 13.8685 288.152 14.9948 288.895 16.4531C289.637 17.9115 290.008 19.6562 290.008 21.6875V24.1484H275.574C275.626 26.2448 276.186 27.8594 277.254 28.9922C278.335 30.125 279.845 30.6914 281.785 30.6914C283.165 30.6914 284.402 30.5612 285.496 30.3008C286.603 30.0273 287.742 29.6302 288.914 29.1094V32.8398C287.833 33.3477 286.733 33.7188 285.613 33.9531C284.493 34.1875 283.152 34.3047 281.59 34.3047C279.467 34.3047 277.599 33.8945 275.984 33.0742C274.383 32.2409 273.126 31.0039 272.215 29.3633C271.316 27.7227 270.867 25.6849 270.867 23.25C270.867 20.8281 271.277 18.7708 272.098 17.0781C272.918 15.3854 274.07 14.0964 275.555 13.2109C277.039 12.3255 278.771 11.8828 280.75 11.8828ZM280.75 15.3398C279.305 15.3398 278.133 15.8086 277.234 16.7461C276.349 17.6836 275.828 19.0573 275.672 20.8672H285.516C285.503 19.7865 285.32 18.8294 284.969 17.9961C284.63 17.1628 284.109 16.5117 283.406 16.043C282.716 15.5742 281.831 15.3398 280.75 15.3398ZM300.125 33.9141L291.902 12.293H296.766L301.219 24.9883C301.505 25.7956 301.766 26.668 302 27.6055C302.234 28.543 302.397 29.3307 302.488 29.9688H302.645C302.736 29.3047 302.911 28.5104 303.172 27.5859C303.432 26.6484 303.699 25.7826 303.973 24.9883L308.426 12.293H313.27L305.047 33.9141H300.125ZM325.164 11.8828C327.091 11.8828 328.745 12.2799 330.125 13.0742C331.505 13.8685 332.566 14.9948 333.309 16.4531C334.051 17.9115 334.422 19.6562 334.422 21.6875V24.1484H319.988C320.04 26.2448 320.6 27.8594 321.668 28.9922C322.749 30.125 324.259 30.6914 326.199 30.6914C327.579 30.6914 328.816 30.5612 329.91 30.3008C331.017 30.0273 332.156 29.6302 333.328 29.1094V32.8398C332.247 33.3477 331.147 33.7188 330.027 33.9531C328.908 34.1875 327.566 34.3047 326.004 34.3047C323.882 34.3047 322.013 33.8945 320.398 33.0742C318.797 32.2409 317.54 31.0039 316.629 29.3633C315.73 27.7227 315.281 25.6849 315.281 23.25C315.281 20.8281 315.691 18.7708 316.512 17.0781C317.332 15.3854 318.484 14.0964 319.969 13.2109C321.453 12.3255 323.185 11.8828 325.164 11.8828ZM325.164 15.3398C323.719 15.3398 322.547 15.8086 321.648 16.7461C320.763 17.6836 320.242 19.0573 320.086 20.8672H329.93C329.917 19.7865 329.734 18.8294 329.383 17.9961C329.044 17.1628 328.523 16.5117 327.82 16.043C327.13 15.5742 326.245 15.3398 325.164 15.3398ZM344.207 33.9141H339.598V3.52344H344.207V33.9141ZM369.91 23.0547C369.91 24.8516 369.676 26.4466 369.207 27.8398C368.738 29.2331 368.055 30.4115 367.156 31.375C366.258 32.3255 365.177 33.0547 363.914 33.5625C362.651 34.0573 361.225 34.3047 359.637 34.3047C358.152 34.3047 356.792 34.0573 355.555 33.5625C354.318 33.0547 353.243 32.3255 352.332 31.375C351.434 30.4115 350.737 29.2331 350.242 27.8398C349.747 26.4466 349.5 24.8516 349.5 23.0547C349.5 20.6719 349.91 18.6536 350.73 17C351.564 15.3333 352.749 14.0638 354.285 13.1914C355.822 12.319 357.651 11.8828 359.773 11.8828C361.766 11.8828 363.523 12.319 365.047 13.1914C366.57 14.0638 367.762 15.3333 368.621 17C369.48 18.6667 369.91 20.6849 369.91 23.0547ZM354.227 23.0547C354.227 24.6302 354.415 25.9779 354.793 27.0977C355.184 28.2174 355.783 29.0768 356.59 29.6758C357.397 30.2617 358.439 30.5547 359.715 30.5547C360.991 30.5547 362.033 30.2617 362.84 29.6758C363.647 29.0768 364.24 28.2174 364.617 27.0977C364.995 25.9779 365.184 24.6302 365.184 23.0547C365.184 21.4792 364.995 20.1445 364.617 19.0508C364.24 17.944 363.647 17.1042 362.84 16.5312C362.033 15.9453 360.984 15.6523 359.695 15.6523C357.794 15.6523 356.408 16.2904 355.535 17.5664C354.663 18.8424 354.227 20.6719 354.227 23.0547ZM386.277 11.8828C388.842 11.8828 390.9 12.8203 392.449 14.6953C394.012 16.5703 394.793 19.3568 394.793 23.0547C394.793 25.5026 394.428 27.5664 393.699 29.2461C392.983 30.9128 391.974 32.1758 390.672 33.0352C389.383 33.8815 387.879 34.3047 386.16 34.3047C385.066 34.3047 384.116 34.1615 383.309 33.875C382.501 33.5885 381.811 33.2174 381.238 32.7617C380.665 32.293 380.184 31.7852 379.793 31.2383H379.52C379.585 31.7591 379.643 32.3385 379.695 32.9766C379.76 33.6016 379.793 34.1745 379.793 34.6953V43.5039H375.184V12.293H378.934L379.578 15.2812H379.793C380.197 14.6693 380.685 14.1029 381.258 13.582C381.844 13.0612 382.547 12.651 383.367 12.3516C384.201 12.0391 385.171 11.8828 386.277 11.8828ZM385.047 15.6328C383.784 15.6328 382.768 15.8867 382 16.3945C381.245 16.8893 380.691 17.638 380.34 18.6406C380.001 19.6432 379.819 20.8997 379.793 22.4102V23.0547C379.793 24.6562 379.956 26.0169 380.281 27.1367C380.62 28.2435 381.173 29.0898 381.941 29.6758C382.723 30.2487 383.777 30.5352 385.105 30.5352C386.225 30.5352 387.15 30.2292 387.879 29.6172C388.621 29.0052 389.174 28.1328 389.539 27C389.904 25.8672 390.086 24.5326 390.086 22.9961C390.086 20.6654 389.669 18.8555 388.836 17.5664C388.016 16.2773 386.753 15.6328 385.047 15.6328ZM408.719 11.8828C410.646 11.8828 412.299 12.2799 413.68 13.0742C415.06 13.8685 416.121 14.9948 416.863 16.4531C417.605 17.9115 417.977 19.6562 417.977 21.6875V24.1484H403.543C403.595 26.2448 404.155 27.8594 405.223 28.9922C406.303 30.125 407.814 30.6914 409.754 30.6914C411.134 30.6914 412.371 30.5612 413.465 30.3008C414.572 30.0273 415.711 29.6302 416.883 29.1094V32.8398C415.802 33.3477 414.702 33.7188 413.582 33.9531C412.462 34.1875 411.121 34.3047 409.559 34.3047C407.436 34.3047 405.568 33.8945 403.953 33.0742C402.352 32.2409 401.095 31.0039 400.184 29.3633C399.285 27.7227 398.836 25.6849 398.836 23.25C398.836 20.8281 399.246 18.7708 400.066 17.0781C400.887 15.3854 402.039 14.0964 403.523 13.2109C405.008 12.3255 406.74 11.8828 408.719 11.8828ZM408.719 15.3398C407.273 15.3398 406.102 15.8086 405.203 16.7461C404.318 17.6836 403.797 19.0573 403.641 20.8672H413.484C413.471 19.7865 413.289 18.8294 412.938 17.9961C412.599 17.1628 412.078 16.5117 411.375 16.043C410.685 15.5742 409.799 15.3398 408.719 15.3398ZM434.109 11.8828C434.474 11.8828 434.871 11.9023 435.301 11.9414C435.73 11.9805 436.102 12.0326 436.414 12.0977L435.984 16.3945C435.711 16.3164 435.372 16.2578 434.969 16.2188C434.578 16.1797 434.227 16.1602 433.914 16.1602C433.094 16.1602 432.312 16.2969 431.57 16.5703C430.828 16.8307 430.171 17.2344 429.598 17.7812C429.025 18.3151 428.576 18.9857 428.25 19.793C427.924 20.6003 427.762 21.5378 427.762 22.6055V33.9141H423.152V12.293H426.746L427.371 16.1016H427.586C428.016 15.3333 428.549 14.6302 429.188 13.9922C429.826 13.3542 430.555 12.8464 431.375 12.4688C432.208 12.0781 433.12 11.8828 434.109 11.8828ZM467.762 26.1406C467.762 27.8333 467.345 29.2917 466.512 30.5156C465.691 31.7396 464.507 32.6771 462.957 33.3281C461.421 33.9792 459.585 34.3047 457.449 34.3047C456.408 34.3047 455.411 34.2461 454.461 34.1289C453.51 34.0117 452.612 33.8424 451.766 33.6211C450.932 33.3867 450.171 33.1068 449.48 32.7812V28.3672C450.639 28.875 451.935 29.3372 453.367 29.7539C454.799 30.1576 456.258 30.3594 457.742 30.3594C458.953 30.3594 459.956 30.2031 460.75 29.8906C461.557 29.5651 462.156 29.1094 462.547 28.5234C462.938 27.9245 463.133 27.2279 463.133 26.4336C463.133 25.5872 462.905 24.8711 462.449 24.2852C461.993 23.6992 461.303 23.1654 460.379 22.6836C459.467 22.1888 458.322 21.6615 456.941 21.1016C456.004 20.724 455.105 20.2943 454.246 19.8125C453.4 19.3307 452.645 18.7643 451.98 18.1133C451.316 17.4622 450.789 16.694 450.398 15.8086C450.021 14.9102 449.832 13.8555 449.832 12.6445C449.832 11.0299 450.216 9.64974 450.984 8.50391C451.766 7.35807 452.859 6.47917 454.266 5.86719C455.685 5.25521 457.339 4.94922 459.227 4.94922C460.724 4.94922 462.13 5.10547 463.445 5.41797C464.773 5.73047 466.076 6.17318 467.352 6.74609L465.867 10.5156C464.695 10.0339 463.556 9.64974 462.449 9.36328C461.355 9.07682 460.236 8.93359 459.09 8.93359C458.1 8.93359 457.26 9.08333 456.57 9.38281C455.88 9.68229 455.353 10.1055 454.988 10.6523C454.637 11.1862 454.461 11.8242 454.461 12.5664C454.461 13.3997 454.663 14.1029 455.066 14.6758C455.483 15.2357 456.121 15.75 456.98 16.2188C457.853 16.6875 458.973 17.2083 460.34 17.7812C461.915 18.4323 463.25 19.1159 464.344 19.832C465.451 20.5482 466.297 21.4076 466.883 22.4102C467.469 23.3997 467.762 24.6432 467.762 26.1406ZM480.848 30.5938C481.447 30.5938 482.039 30.5417 482.625 30.4375C483.211 30.3203 483.745 30.1836 484.227 30.0273V33.5039C483.719 33.7253 483.061 33.9141 482.254 34.0703C481.447 34.2266 480.607 34.3047 479.734 34.3047C478.51 34.3047 477.41 34.1029 476.434 33.6992C475.457 33.2826 474.682 32.5729 474.109 31.5703C473.536 30.5677 473.25 29.181 473.25 27.4102V15.7891H470.301V13.7383L473.465 12.1172L474.969 7.48828H477.859V12.293H484.051V15.7891H477.859V27.3516C477.859 28.4453 478.133 29.2591 478.68 29.793C479.227 30.3268 479.949 30.5938 480.848 30.5938ZM507.469 12.293V33.9141H503.855L503.23 31.0039H502.977C502.521 31.7461 501.941 32.3646 501.238 32.8594C500.535 33.3411 499.754 33.6992 498.895 33.9336C498.035 34.181 497.13 34.3047 496.18 34.3047C494.552 34.3047 493.159 34.0312 492 33.4844C490.854 32.9245 489.975 32.0651 489.363 30.9062C488.751 29.7474 488.445 28.25 488.445 26.4141V12.293H493.055V25.5547C493.055 27.2344 493.393 28.4909 494.07 29.3242C494.76 30.1576 495.828 30.5742 497.273 30.5742C498.667 30.5742 499.773 30.2878 500.594 29.7148C501.414 29.1419 501.993 28.2956 502.332 27.1758C502.684 26.056 502.859 24.6823 502.859 23.0547V12.293H507.469ZM521.316 34.3047C518.738 34.3047 516.668 33.3672 515.105 31.4922C513.556 29.6042 512.781 26.8242 512.781 23.1523C512.781 19.4414 513.569 16.6354 515.145 14.7344C516.733 12.8333 518.823 11.8828 521.414 11.8828C522.508 11.8828 523.465 12.0326 524.285 12.332C525.105 12.6185 525.809 13.0091 526.395 13.5039C526.993 13.9987 527.501 14.5521 527.918 15.1641H528.133C528.068 14.7604 527.99 14.181 527.898 13.4258C527.82 12.6576 527.781 11.9479 527.781 11.2969V3.52344H532.391V33.9141H528.797L527.977 30.9648H527.781C527.391 31.5898 526.896 32.1562 526.297 32.6641C525.711 33.1589 525.008 33.556 524.188 33.8555C523.38 34.1549 522.423 34.3047 521.316 34.3047ZM522.605 30.5742C524.572 30.5742 525.958 30.0078 526.766 28.875C527.573 27.7422 527.99 26.043 528.016 23.7773V23.1719C528.016 20.75 527.625 18.8945 526.844 17.6055C526.062 16.3034 524.637 15.6523 522.566 15.6523C520.913 15.6523 519.65 16.3229 518.777 17.6641C517.918 18.9922 517.488 20.8477 517.488 23.2305C517.488 25.6133 517.918 27.4362 518.777 28.6992C519.65 29.9492 520.926 30.5742 522.605 30.5742ZM547.586 11.8828C549.513 11.8828 551.167 12.2799 552.547 13.0742C553.927 13.8685 554.988 14.9948 555.73 16.4531C556.473 17.9115 556.844 19.6562 556.844 21.6875V24.1484H542.41C542.462 26.2448 543.022 27.8594 544.09 28.9922C545.171 30.125 546.681 30.6914 548.621 30.6914C550.001 30.6914 551.238 30.5612 552.332 30.3008C553.439 30.0273 554.578 29.6302 555.75 29.1094V32.8398C554.669 33.3477 553.569 33.7188 552.449 33.9531C551.329 34.1875 549.988 34.3047 548.426 34.3047C546.303 34.3047 544.435 33.8945 542.82 33.0742C541.219 32.2409 539.962 31.0039 539.051 29.3633C538.152 27.7227 537.703 25.6849 537.703 23.25C537.703 20.8281 538.113 18.7708 538.934 17.0781C539.754 15.3854 540.906 14.0964 542.391 13.2109C543.875 12.3255 545.607 11.8828 547.586 11.8828ZM547.586 15.3398C546.141 15.3398 544.969 15.8086 544.07 16.7461C543.185 17.6836 542.664 19.0573 542.508 20.8672H552.352C552.339 19.7865 552.156 18.8294 551.805 17.9961C551.466 17.1628 550.945 16.5117 550.242 16.043C549.552 15.5742 548.667 15.3398 547.586 15.3398ZM573.289 11.8828C575.724 11.8828 577.618 12.5143 578.973 13.7773C580.34 15.0273 581.023 17.0391 581.023 19.8125V33.9141H576.434V20.6719C576.434 18.9922 576.089 17.7357 575.398 16.9023C574.708 16.056 573.641 15.6328 572.195 15.6328C570.099 15.6328 568.641 16.2773 567.82 17.5664C567.013 18.8555 566.609 20.724 566.609 23.1719V33.9141H562.02V12.293H565.594L566.238 15.2227H566.492C566.961 14.4674 567.54 13.849 568.23 13.3672C568.934 12.8724 569.715 12.5013 570.574 12.2539C571.447 12.0065 572.352 11.8828 573.289 11.8828ZM595.496 30.5938C596.095 30.5938 596.688 30.5417 597.273 30.4375C597.859 30.3203 598.393 30.1836 598.875 30.0273V33.5039C598.367 33.7253 597.71 33.9141 596.902 34.0703C596.095 34.2266 595.255 34.3047 594.383 34.3047C593.159 34.3047 592.059 34.1029 591.082 33.6992C590.105 33.2826 589.331 32.5729 588.758 31.5703C588.185 30.5677 587.898 29.181 587.898 27.4102V15.7891H584.949V13.7383L588.113 12.1172L589.617 7.48828H592.508V12.293H598.699V15.7891H592.508V27.3516C592.508 28.4453 592.781 29.2591 593.328 29.793C593.875 30.3268 594.598 30.5938 595.496 30.5938ZM626.297 8.93359C624.93 8.93359 623.706 9.18099 622.625 9.67578C621.557 10.1706 620.652 10.8867 619.91 11.8242C619.168 12.7487 618.602 13.875 618.211 15.2031C617.82 16.5182 617.625 18.0026 617.625 19.6562C617.625 21.8698 617.938 23.7773 618.562 25.3789C619.188 26.9674 620.138 28.1914 621.414 29.0508C622.69 29.8971 624.305 30.3203 626.258 30.3203C627.469 30.3203 628.647 30.2031 629.793 29.9688C630.939 29.7344 632.124 29.4154 633.348 29.0117V32.9961C632.189 33.4518 631.017 33.7839 629.832 33.9922C628.647 34.2005 627.28 34.3047 625.73 34.3047C622.814 34.3047 620.392 33.6992 618.465 32.4883C616.551 31.2773 615.118 29.5716 614.168 27.3711C613.23 25.1706 612.762 22.5924 612.762 19.6367C612.762 17.4753 613.061 15.4961 613.66 13.6992C614.259 11.9023 615.132 10.3529 616.277 9.05078C617.423 7.73568 618.836 6.72656 620.516 6.02344C622.208 5.30729 624.142 4.94922 626.316 4.94922C627.749 4.94922 629.155 5.11198 630.535 5.4375C631.928 5.75 633.217 6.19922 634.402 6.78516L632.762 10.6523C631.772 10.1836 630.737 9.77995 629.656 9.44141C628.576 9.10286 627.456 8.93359 626.297 8.93359ZM643.621 33.9141H639.012V3.52344H643.621V33.9141ZM669.031 12.293V33.9141H665.418L664.793 31.0039H664.539C664.083 31.7461 663.504 32.3646 662.801 32.8594C662.098 33.3411 661.316 33.6992 660.457 33.9336C659.598 34.181 658.693 34.3047 657.742 34.3047C656.115 34.3047 654.721 34.0312 653.562 33.4844C652.417 32.9245 651.538 32.0651 650.926 30.9062C650.314 29.7474 650.008 28.25 650.008 26.4141V12.293H654.617V25.5547C654.617 27.2344 654.956 28.4909 655.633 29.3242C656.323 30.1576 657.391 30.5742 658.836 30.5742C660.229 30.5742 661.336 30.2878 662.156 29.7148C662.977 29.1419 663.556 28.2956 663.895 27.1758C664.246 26.056 664.422 24.6823 664.422 23.0547V12.293H669.031ZM680.203 3.52344V10.8477C680.203 11.694 680.177 12.5273 680.125 13.3477C680.086 14.1549 680.047 14.7865 680.008 15.2422H680.203C680.789 14.3047 681.603 13.5169 682.645 12.8789C683.699 12.2279 685.047 11.9023 686.688 11.9023C689.253 11.9023 691.316 12.8464 692.879 14.7344C694.441 16.6094 695.223 19.3893 695.223 23.0742C695.223 25.5221 694.865 27.5794 694.148 29.2461C693.432 30.9128 692.423 32.1758 691.121 33.0352C689.832 33.8815 688.315 34.3047 686.57 34.3047C684.93 34.3047 683.602 34.0052 682.586 33.4062C681.583 32.7943 680.796 32.0846 680.223 31.2773H679.891L679.051 33.9141H675.613V3.52344H680.203ZM685.477 15.6328C684.174 15.6328 683.139 15.8932 682.371 16.4141C681.616 16.9349 681.069 17.7161 680.73 18.7578C680.392 19.7865 680.216 21.0951 680.203 22.6836V23.0938C680.203 25.5026 680.581 27.3451 681.336 28.6211C682.104 29.8971 683.497 30.5352 685.516 30.5352C687.117 30.5352 688.348 29.8906 689.207 28.6016C690.066 27.2995 690.496 25.4375 690.496 23.0156C690.496 20.5677 690.066 18.7253 689.207 17.4883C688.361 16.2513 687.117 15.6328 685.477 15.6328ZM715.066 27.7422C715.066 29.1615 714.721 30.3594 714.031 31.3359C713.341 32.3125 712.332 33.0547 711.004 33.5625C709.689 34.0573 708.074 34.3047 706.16 34.3047C704.65 34.3047 703.348 34.194 702.254 33.9727C701.173 33.7643 700.151 33.4388 699.188 32.9961V29.0312C700.216 29.513 701.368 29.9297 702.645 30.2812C703.934 30.6328 705.151 30.8086 706.297 30.8086C707.807 30.8086 708.895 30.5742 709.559 30.1055C710.223 29.6237 710.555 28.9857 710.555 28.1914C710.555 27.7227 710.418 27.306 710.145 26.9414C709.884 26.5638 709.389 26.1797 708.66 25.7891C707.944 25.3854 706.889 24.9036 705.496 24.3438C704.129 23.7969 702.977 23.25 702.039 22.7031C701.102 22.1562 700.392 21.4987 699.91 20.7305C699.428 19.9492 699.188 18.9531 699.188 17.7422C699.188 15.8281 699.943 14.3763 701.453 13.3867C702.977 12.3841 704.988 11.8828 707.488 11.8828C708.816 11.8828 710.066 12.0195 711.238 12.293C712.423 12.5534 713.582 12.9375 714.715 13.4453L713.27 16.9023C712.293 16.4727 711.31 16.1211 710.32 15.8477C709.344 15.5612 708.348 15.418 707.332 15.418C706.147 15.418 705.242 15.6003 704.617 15.9648C704.005 16.3294 703.699 16.8503 703.699 17.5273C703.699 18.0352 703.849 18.4648 704.148 18.8164C704.448 19.168 704.962 19.5195 705.691 19.8711C706.434 20.2227 707.462 20.6589 708.777 21.1797C710.066 21.6745 711.18 22.1953 712.117 22.7422C713.068 23.276 713.797 23.9336 714.305 24.7148C714.812 25.4961 715.066 26.5052 715.066 27.7422ZM109.886 66.2158C109.886 67.4854 109.568 68.5693 108.934 69.4678C108.309 70.3564 107.43 71.0352 106.297 71.5039C105.164 71.9727 103.831 72.207 102.298 72.207C101.487 72.207 100.721 72.168 99.998 72.0898C99.2754 72.0117 98.6113 71.8994 98.0059 71.7529C97.4004 71.6064 96.8682 71.4258 96.4092 71.2109V68.8232C97.1416 69.126 98.0352 69.4092 99.0898 69.6729C100.145 69.9268 101.248 70.0537 102.4 70.0537C103.475 70.0537 104.383 69.9121 105.125 69.6289C105.867 69.3359 106.429 68.9209 106.81 68.3838C107.2 67.8369 107.396 67.1826 107.396 66.4209C107.396 65.6885 107.234 65.0781 106.912 64.5898C106.59 64.0918 106.053 63.6426 105.301 63.2422C104.559 62.832 103.543 62.3975 102.254 61.9385C101.346 61.6162 100.545 61.2646 99.8516 60.8838C99.1582 60.4932 98.5771 60.0537 98.1084 59.5654C97.6396 59.0771 97.2832 58.5107 97.0391 57.8662C96.8047 57.2217 96.6875 56.4844 96.6875 55.6543C96.6875 54.5117 96.9756 53.5352 97.5518 52.7246C98.1377 51.9043 98.9434 51.2793 99.9688 50.8496C101.004 50.4102 102.19 50.1904 103.528 50.1904C104.671 50.1904 105.726 50.2979 106.692 50.5127C107.669 50.7275 108.562 51.0156 109.373 51.377L108.597 53.5156C107.825 53.1934 107.005 52.9248 106.136 52.71C105.276 52.4951 104.388 52.3877 103.47 52.3877C102.552 52.3877 101.775 52.5244 101.141 52.7979C100.516 53.0615 100.037 53.4375 99.7051 53.9258C99.373 54.4141 99.207 54.9951 99.207 55.6689C99.207 56.4209 99.3633 57.0459 99.6758 57.5439C99.998 58.042 100.506 58.4863 101.199 58.877C101.902 59.2578 102.83 59.6582 103.982 60.0781C105.242 60.5371 106.312 61.0254 107.19 61.543C108.069 62.0508 108.738 62.6758 109.197 63.418C109.656 64.1504 109.886 65.083 109.886 66.2158ZM120.594 55.5664C120.917 55.5664 121.254 55.5859 121.605 55.625C121.957 55.6543 122.269 55.6982 122.543 55.7568L122.235 58.0127C121.971 57.9443 121.678 57.8906 121.356 57.8516C121.034 57.8125 120.731 57.793 120.448 57.793C119.803 57.793 119.193 57.9248 118.617 58.1885C118.05 58.4424 117.552 58.8135 117.123 59.3018C116.693 59.7803 116.356 60.3613 116.112 61.0449C115.868 61.7188 115.746 62.4707 115.746 63.3008V71.9141H113.299V55.8594H115.321L115.585 58.8184H115.687C116.019 58.2227 116.42 57.6807 116.888 57.1924C117.357 56.6943 117.899 56.2988 118.514 56.0059C119.139 55.7129 119.833 55.5664 120.594 55.5664ZM127.406 55.8594V71.9141H124.975V55.8594H127.406ZM126.22 49.8535C126.62 49.8535 126.962 49.9854 127.245 50.249C127.538 50.5029 127.685 50.9033 127.685 51.4502C127.685 51.9873 127.538 52.3877 127.245 52.6514C126.962 52.915 126.62 53.0469 126.22 53.0469C125.8 53.0469 125.448 52.915 125.165 52.6514C124.892 52.3877 124.755 51.9873 124.755 51.4502C124.755 50.9033 124.892 50.5029 125.165 50.249C125.448 49.9854 125.8 49.8535 126.22 49.8535ZM139.565 55.5664C141.47 55.5664 142.91 56.0352 143.887 56.9727C144.863 57.9004 145.351 59.3945 145.351 61.4551V71.9141H142.949V61.6162C142.949 60.2783 142.641 59.2773 142.026 58.6133C141.421 57.9492 140.488 57.6172 139.228 57.6172C137.451 57.6172 136.201 58.1201 135.478 59.126C134.756 60.1318 134.394 61.5918 134.394 63.5059V71.9141H131.963V55.8594H133.926L134.292 58.1738H134.424C134.765 57.6074 135.2 57.1338 135.727 56.7529C136.255 56.3623 136.846 56.0693 137.5 55.874C138.154 55.6689 138.843 55.5664 139.565 55.5664ZM152.193 55.8594V71.9141H149.761V55.8594H152.193ZM151.006 49.8535C151.407 49.8535 151.748 49.9854 152.032 50.249C152.325 50.5029 152.471 50.9033 152.471 51.4502C152.471 51.9873 152.325 52.3877 152.032 52.6514C151.748 52.915 151.407 53.0469 151.006 53.0469C150.586 53.0469 150.235 52.915 149.952 52.6514C149.678 52.3877 149.541 51.9873 149.541 51.4502C149.541 50.9033 149.678 50.5029 149.952 50.249C150.235 49.9854 150.586 49.8535 151.006 49.8535ZM160.572 63.6963L155.021 55.8594H157.804L162.037 62.041L166.256 55.8594H169.01L163.458 63.6963L169.317 71.9141H166.534L162.037 65.3662L157.511 71.9141H154.757L160.572 63.6963ZM188.567 52.3877C187.385 52.3877 186.321 52.5928 185.373 53.0029C184.436 53.4033 183.635 53.9893 182.971 54.7607C182.317 55.5225 181.814 56.4453 181.462 57.5293C181.111 58.6133 180.935 59.834 180.935 61.1914C180.935 62.9883 181.213 64.5508 181.77 65.8789C182.336 67.1973 183.176 68.2178 184.289 68.9404C185.412 69.6631 186.814 70.0244 188.493 70.0244C189.45 70.0244 190.349 69.9463 191.189 69.79C192.038 69.624 192.863 69.4189 193.664 69.1748V71.3428C192.883 71.6357 192.063 71.8506 191.203 71.9873C190.344 72.1338 189.323 72.207 188.142 72.207C185.964 72.207 184.143 71.7578 182.678 70.8594C181.223 69.9512 180.129 68.6719 179.397 67.0215C178.674 65.3711 178.313 63.4229 178.313 61.1768C178.313 59.5557 178.537 58.0762 178.987 56.7383C179.446 55.3906 180.11 54.2285 180.979 53.252C181.858 52.2754 182.932 51.5234 184.201 50.9961C185.481 50.459 186.946 50.1904 188.596 50.1904C189.68 50.1904 190.725 50.2979 191.731 50.5127C192.737 50.7275 193.645 51.0352 194.455 51.4355L193.459 53.5449C192.776 53.2324 192.024 52.9639 191.203 52.7393C190.393 52.5049 189.514 52.3877 188.567 52.3877ZM211.184 63.8574C211.184 65.1758 211.013 66.3525 210.672 67.3877C210.33 68.4229 209.837 69.2969 209.192 70.0098C208.548 70.7227 207.766 71.2695 206.848 71.6504C205.94 72.0215 204.91 72.207 203.758 72.207C202.683 72.207 201.697 72.0215 200.799 71.6504C199.91 71.2695 199.138 70.7227 198.484 70.0098C197.84 69.2969 197.337 68.4229 196.975 67.3877C196.624 66.3525 196.448 65.1758 196.448 63.8574C196.448 62.0996 196.746 60.6055 197.342 59.375C197.937 58.1348 198.787 57.1924 199.89 56.5479C201.004 55.8936 202.327 55.5664 203.86 55.5664C205.325 55.5664 206.604 55.8936 207.698 56.5479C208.802 57.2021 209.656 58.1494 210.262 59.3896C210.877 60.6201 211.184 62.1094 211.184 63.8574ZM198.968 63.8574C198.968 65.1465 199.138 66.2646 199.48 67.2119C199.822 68.1592 200.349 68.8916 201.062 69.4092C201.775 69.9268 202.693 70.1855 203.816 70.1855C204.929 70.1855 205.843 69.9268 206.555 69.4092C207.278 68.8916 207.81 68.1592 208.152 67.2119C208.494 66.2646 208.665 65.1465 208.665 63.8574C208.665 62.5781 208.494 61.4746 208.152 60.5469C207.81 59.6094 207.283 58.8867 206.57 58.3789C205.857 57.8711 204.934 57.6172 203.802 57.6172C202.132 57.6172 200.906 58.1689 200.125 59.2725C199.353 60.376 198.968 61.9043 198.968 63.8574ZM217.235 71.9141H214.788V49.1211H217.235V71.9141ZM224.223 71.9141H221.776V49.1211H224.223V71.9141ZM234.946 55.5664C236.313 55.5664 237.485 55.8691 238.462 56.4746C239.438 57.0801 240.185 57.9297 240.703 59.0234C241.22 60.1074 241.479 61.377 241.479 62.832V64.3408H230.39C230.42 66.2256 230.888 67.6611 231.796 68.6475C232.705 69.6338 233.984 70.127 235.634 70.127C236.65 70.127 237.548 70.0342 238.33 69.8486C239.111 69.6631 239.921 69.3896 240.761 69.0283V71.167C239.951 71.5283 239.145 71.792 238.344 71.958C237.553 72.124 236.616 72.207 235.532 72.207C233.989 72.207 232.641 71.8945 231.489 71.2695C230.346 70.6348 229.458 69.707 228.823 68.4863C228.188 67.2656 227.871 65.7715 227.871 64.0039C227.871 62.2754 228.159 60.7812 228.735 59.5215C229.321 58.252 230.141 57.2754 231.196 56.5918C232.26 55.9082 233.51 55.5664 234.946 55.5664ZM234.917 57.5586C233.618 57.5586 232.583 57.9834 231.811 58.833C231.04 59.6826 230.581 60.8691 230.434 62.3926H238.93C238.921 61.4355 238.769 60.5957 238.476 59.873C238.193 59.1406 237.758 58.5742 237.172 58.1738C236.587 57.7637 235.835 57.5586 234.917 57.5586ZM249.492 79.1211C247.383 79.1211 245.757 78.7256 244.614 77.9346C243.472 77.1533 242.901 76.0547 242.901 74.6387C242.901 73.6328 243.218 72.7734 243.853 72.0605C244.497 71.3477 245.386 70.874 246.519 70.6396C246.099 70.4443 245.738 70.1514 245.435 69.7607C245.142 69.3701 244.995 68.9209 244.995 68.4131C244.995 67.8271 245.156 67.3145 245.479 66.875C245.811 66.4258 246.314 65.9961 246.988 65.5859C246.148 65.2441 245.464 64.668 244.937 63.8574C244.419 63.0371 244.16 62.085 244.16 61.001C244.16 59.8486 244.4 58.8672 244.878 58.0566C245.357 57.2363 246.05 56.6113 246.958 56.1816C247.866 55.752 248.965 55.5371 250.254 55.5371C250.537 55.5371 250.821 55.5518 251.104 55.5811C251.397 55.6006 251.675 55.6348 251.939 55.6836C252.202 55.7227 252.432 55.7715 252.627 55.8301H258.135V57.3975L255.176 57.7637C255.469 58.1445 255.713 58.6035 255.908 59.1406C256.104 59.6777 256.201 60.2734 256.201 60.9277C256.201 62.5293 255.659 63.8037 254.575 64.751C253.491 65.6885 252.002 66.1572 250.108 66.1572C249.658 66.1572 249.199 66.1182 248.731 66.04C248.252 66.3037 247.886 66.5967 247.632 66.9189C247.388 67.2412 247.266 67.6123 247.266 68.0322C247.266 68.3447 247.359 68.5938 247.544 68.7793C247.739 68.9648 248.018 69.1016 248.379 69.1895C248.74 69.2676 249.175 69.3066 249.683 69.3066H252.51C254.258 69.3066 255.596 69.6729 256.524 70.4053C257.461 71.1377 257.93 72.207 257.93 73.6133C257.93 75.3906 257.207 76.7529 255.762 77.7002C254.317 78.6475 252.227 79.1211 249.492 79.1211ZM249.566 77.2168C250.894 77.2168 251.992 77.0801 252.862 76.8066C253.74 76.543 254.395 76.1572 254.824 75.6494C255.264 75.1514 255.484 74.5557 255.484 73.8623C255.484 73.2178 255.337 72.7295 255.044 72.3975C254.751 72.0752 254.321 71.8604 253.755 71.7529C253.189 71.6357 252.495 71.5771 251.675 71.5771H248.892C248.169 71.5771 247.539 71.6895 247.002 71.9141C246.465 72.1387 246.05 72.4707 245.757 72.9102C245.474 73.3496 245.332 73.8965 245.332 74.5508C245.332 75.4199 245.698 76.0791 246.431 76.5283C247.163 76.9873 248.208 77.2168 249.566 77.2168ZM250.196 64.3848C251.358 64.3848 252.232 64.0918 252.818 63.5059C253.404 62.9199 253.696 62.0654 253.696 60.9424C253.696 59.7412 253.399 58.8428 252.803 58.2471C252.207 57.6416 251.328 57.3389 250.166 57.3389C249.053 57.3389 248.194 57.6514 247.588 58.2764C246.992 58.8916 246.695 59.7949 246.695 60.9863C246.695 62.0801 246.997 62.9199 247.603 63.5059C248.208 64.0918 249.072 64.3848 250.196 64.3848ZM266.881 55.5664C268.248 55.5664 269.42 55.8691 270.396 56.4746C271.373 57.0801 272.12 57.9297 272.637 59.0234C273.155 60.1074 273.414 61.377 273.414 62.832V64.3408H262.325C262.354 66.2256 262.823 67.6611 263.731 68.6475C264.639 69.6338 265.919 70.127 267.569 70.127C268.585 70.127 269.483 70.0342 270.264 69.8486C271.046 69.6631 271.856 69.3896 272.696 69.0283V71.167C271.886 71.5283 271.08 71.792 270.279 71.958C269.488 72.124 268.551 72.207 267.467 72.207C265.924 72.207 264.576 71.8945 263.424 71.2695C262.281 70.6348 261.392 69.707 260.758 68.4863C260.123 67.2656 259.805 65.7715 259.805 64.0039C259.805 62.2754 260.094 60.7812 260.67 59.5215C261.256 58.252 262.076 57.2754 263.131 56.5918C264.195 55.9082 265.445 55.5664 266.881 55.5664ZM266.851 57.5586C265.553 57.5586 264.517 57.9834 263.746 58.833C262.974 59.6826 262.515 60.8691 262.369 62.3926H270.865C270.855 61.4355 270.704 60.5957 270.411 59.873C270.128 59.1406 269.693 58.5742 269.107 58.1738C268.521 57.7637 267.769 57.5586 266.851 57.5586ZM303.078 61.1768C303.078 62.8271 302.868 64.3311 302.448 65.6885C302.028 67.0361 301.403 68.1982 300.573 69.1748C299.753 70.1416 298.732 70.8887 297.512 71.416C296.291 71.9434 294.875 72.207 293.264 72.207C291.604 72.207 290.153 71.9434 288.913 71.416C287.683 70.8887 286.657 70.1367 285.837 69.1602C285.026 68.1836 284.416 67.0166 284.006 65.6592C283.605 64.3018 283.405 62.7979 283.405 61.1475C283.405 58.96 283.767 57.041 284.489 55.3906C285.212 53.7402 286.306 52.4561 287.771 51.5381C289.245 50.6201 291.091 50.1611 293.308 50.1611C295.427 50.1611 297.209 50.6152 298.654 51.5234C300.109 52.4316 301.208 53.7109 301.95 55.3613C302.702 57.002 303.078 58.9404 303.078 61.1768ZM286.027 61.1768C286.027 62.9932 286.286 64.5654 286.804 65.8936C287.321 67.2217 288.112 68.2471 289.177 68.9697C290.251 69.6924 291.613 70.0537 293.264 70.0537C294.924 70.0537 296.281 69.6924 297.336 68.9697C298.4 68.2471 299.187 67.2217 299.694 65.8936C300.202 64.5654 300.456 62.9932 300.456 61.1768C300.456 58.4131 299.875 56.2549 298.713 54.7021C297.561 53.1396 295.759 52.3584 293.308 52.3584C291.647 52.3584 290.28 52.7148 289.206 53.4277C288.132 54.1406 287.331 55.1562 286.804 56.4746C286.286 57.7832 286.027 59.3506 286.027 61.1768ZM314.036 57.7637H310.037V71.9141H307.605V57.7637H304.763V56.5918L307.605 55.7861V54.7168C307.605 53.3691 307.805 52.2754 308.206 51.4355C308.606 50.5859 309.187 49.9609 309.949 49.5605C310.711 49.1602 311.638 48.96 312.732 48.96C313.347 48.96 313.909 49.0137 314.417 49.1211C314.934 49.2285 315.388 49.3506 315.779 49.4873L315.149 51.4062C314.817 51.2988 314.441 51.2012 314.021 51.1133C313.611 51.0156 313.191 50.9668 312.761 50.9668C311.834 50.9668 311.145 51.2695 310.696 51.875C310.256 52.4707 310.037 53.4082 310.037 54.6875V55.8594H314.036V57.7637ZM335.878 71.9141H323.954V50.498H335.878V52.6953H326.444V59.624H335.336V61.792H326.444V69.7168H335.878V71.9141ZM347.26 55.5664C349.164 55.5664 350.605 56.0352 351.581 56.9727C352.558 57.9004 353.046 59.3945 353.046 61.4551V71.9141H350.644V61.6162C350.644 60.2783 350.336 59.2773 349.721 58.6133C349.116 57.9492 348.183 57.6172 346.923 57.6172C345.146 57.6172 343.896 58.1201 343.173 59.126C342.451 60.1318 342.089 61.5918 342.089 63.5059V71.9141H339.658V55.8594H341.621L341.987 58.1738H342.119C342.46 57.6074 342.895 57.1338 343.422 56.7529C343.95 56.3623 344.54 56.0693 345.195 55.874C345.849 55.6689 346.538 55.5664 347.26 55.5664ZM361.938 79.1211C359.829 79.1211 358.203 78.7256 357.061 77.9346C355.918 77.1533 355.347 76.0547 355.347 74.6387C355.347 73.6328 355.664 72.7734 356.299 72.0605C356.943 71.3477 357.832 70.874 358.965 70.6396C358.545 70.4443 358.184 70.1514 357.881 69.7607C357.588 69.3701 357.441 68.9209 357.441 68.4131C357.441 67.8271 357.603 67.3145 357.925 66.875C358.257 66.4258 358.76 65.9961 359.434 65.5859C358.594 65.2441 357.91 64.668 357.383 63.8574C356.865 63.0371 356.606 62.085 356.606 61.001C356.606 59.8486 356.846 58.8672 357.324 58.0566C357.803 57.2363 358.496 56.6113 359.404 56.1816C360.312 55.752 361.411 55.5371 362.7 55.5371C362.983 55.5371 363.267 55.5518 363.55 55.5811C363.843 55.6006 364.121 55.6348 364.385 55.6836C364.648 55.7227 364.878 55.7715 365.073 55.8301H370.581V57.3975L367.622 57.7637C367.915 58.1445 368.159 58.6035 368.354 59.1406C368.55 59.6777 368.647 60.2734 368.647 60.9277C368.647 62.5293 368.105 63.8037 367.021 64.751C365.938 65.6885 364.448 66.1572 362.554 66.1572C362.104 66.1572 361.646 66.1182 361.177 66.04C360.698 66.3037 360.332 66.5967 360.078 66.9189C359.834 67.2412 359.712 67.6123 359.712 68.0322C359.712 68.3447 359.805 68.5938 359.99 68.7793C360.186 68.9648 360.464 69.1016 360.825 69.1895C361.187 69.2676 361.621 69.3066 362.129 69.3066H364.956C366.704 69.3066 368.042 69.6729 368.97 70.4053C369.907 71.1377 370.376 72.207 370.376 73.6133C370.376 75.3906 369.653 76.7529 368.208 77.7002C366.763 78.6475 364.673 79.1211 361.938 79.1211ZM362.012 77.2168C363.34 77.2168 364.438 77.0801 365.308 76.8066C366.187 76.543 366.841 76.1572 367.271 75.6494C367.71 75.1514 367.93 74.5557 367.93 73.8623C367.93 73.2178 367.783 72.7295 367.49 72.3975C367.197 72.0752 366.768 71.8604 366.201 71.7529C365.635 71.6357 364.941 71.5771 364.121 71.5771H361.338C360.615 71.5771 359.985 71.6895 359.448 71.9141C358.911 72.1387 358.496 72.4707 358.203 72.9102C357.92 73.3496 357.778 73.8965 357.778 74.5508C357.778 75.4199 358.145 76.0791 358.877 76.5283C359.609 76.9873 360.654 77.2168 362.012 77.2168ZM362.642 64.3848C363.804 64.3848 364.678 64.0918 365.264 63.5059C365.85 62.9199 366.143 62.0654 366.143 60.9424C366.143 59.7412 365.845 58.8428 365.249 58.2471C364.653 57.6416 363.774 57.3389 362.612 57.3389C361.499 57.3389 360.64 57.6514 360.034 58.2764C359.438 58.8916 359.141 59.7949 359.141 60.9863C359.141 62.0801 359.443 62.9199 360.049 63.5059C360.654 64.0918 361.519 64.3848 362.642 64.3848ZM375.577 55.8594V71.9141H373.145V55.8594H375.577ZM374.39 49.8535C374.791 49.8535 375.132 49.9854 375.416 50.249C375.709 50.5029 375.855 50.9033 375.855 51.4502C375.855 51.9873 375.709 52.3877 375.416 52.6514C375.132 52.915 374.791 53.0469 374.39 53.0469C373.97 53.0469 373.619 52.915 373.336 52.6514C373.062 52.3877 372.925 51.9873 372.925 51.4502C372.925 50.9033 373.062 50.5029 373.336 50.249C373.619 49.9854 373.97 49.8535 374.39 49.8535ZM387.736 55.5664C389.64 55.5664 391.08 56.0352 392.057 56.9727C393.033 57.9004 393.522 59.3945 393.522 61.4551V71.9141H391.119V61.6162C391.119 60.2783 390.812 59.2773 390.196 58.6133C389.591 57.9492 388.658 57.6172 387.399 57.6172C385.621 57.6172 384.371 58.1201 383.649 59.126C382.926 60.1318 382.565 61.5918 382.565 63.5059V71.9141H380.133V55.8594H382.096L382.462 58.1738H382.594C382.936 57.6074 383.37 57.1338 383.898 56.7529C384.425 56.3623 385.016 56.0693 385.67 55.874C386.324 55.6689 387.013 55.5664 387.736 55.5664ZM404.113 55.5664C405.48 55.5664 406.652 55.8691 407.629 56.4746C408.605 57.0801 409.352 57.9297 409.87 59.0234C410.388 60.1074 410.646 61.377 410.646 62.832V64.3408H399.557C399.587 66.2256 400.055 67.6611 400.964 68.6475C401.872 69.6338 403.151 70.127 404.802 70.127C405.817 70.127 406.716 70.0342 407.497 69.8486C408.278 69.6631 409.089 69.3896 409.929 69.0283V71.167C409.118 71.5283 408.312 71.792 407.512 71.958C406.721 72.124 405.783 72.207 404.699 72.207C403.156 72.207 401.808 71.8945 400.656 71.2695C399.513 70.6348 398.625 69.707 397.99 68.4863C397.355 67.2656 397.038 65.7715 397.038 64.0039C397.038 62.2754 397.326 60.7812 397.902 59.5215C398.488 58.252 399.308 57.2754 400.363 56.5918C401.428 55.9082 402.678 55.5664 404.113 55.5664ZM404.084 57.5586C402.785 57.5586 401.75 57.9834 400.978 58.833C400.207 59.6826 399.748 60.8691 399.601 62.3926H408.097C408.088 61.4355 407.936 60.5957 407.643 59.873C407.36 59.1406 406.926 58.5742 406.34 58.1738C405.754 57.7637 405.002 57.5586 404.084 57.5586ZM420.359 55.5664C421.726 55.5664 422.898 55.8691 423.874 56.4746C424.851 57.0801 425.598 57.9297 426.116 59.0234C426.633 60.1074 426.892 61.377 426.892 62.832V64.3408H415.803C415.832 66.2256 416.301 67.6611 417.209 68.6475C418.118 69.6338 419.397 70.127 421.047 70.127C422.063 70.127 422.961 70.0342 423.743 69.8486C424.524 69.6631 425.334 69.3896 426.174 69.0283V71.167C425.364 71.5283 424.558 71.792 423.757 71.958C422.966 72.124 422.029 72.207 420.945 72.207C419.402 72.207 418.054 71.8945 416.902 71.2695C415.759 70.6348 414.871 69.707 414.236 68.4863C413.601 67.2656 413.284 65.7715 413.284 64.0039C413.284 62.2754 413.572 60.7812 414.148 59.5215C414.734 58.252 415.554 57.2754 416.609 56.5918C417.673 55.9082 418.923 55.5664 420.359 55.5664ZM420.329 57.5586C419.031 57.5586 417.996 57.9834 417.224 58.833C416.453 59.6826 415.994 60.8691 415.847 62.3926H424.343C424.333 61.4355 424.182 60.5957 423.889 59.873C423.606 59.1406 423.171 58.5742 422.585 58.1738C421.999 57.7637 421.247 57.5586 420.329 57.5586ZM437.718 55.5664C438.04 55.5664 438.377 55.5859 438.729 55.625C439.08 55.6543 439.393 55.6982 439.666 55.7568L439.358 58.0127C439.095 57.9443 438.802 57.8906 438.479 57.8516C438.157 57.8125 437.854 57.793 437.571 57.793C436.927 57.793 436.316 57.9248 435.74 58.1885C435.174 58.4424 434.676 58.8135 434.246 59.3018C433.816 59.7803 433.479 60.3613 433.235 61.0449C432.991 61.7188 432.869 62.4707 432.869 63.3008V71.9141H430.423V55.8594H432.444L432.708 58.8184H432.811C433.143 58.2227 433.543 57.6807 434.012 57.1924C434.48 56.6943 435.022 56.2988 435.638 56.0059C436.263 55.7129 436.956 55.5664 437.718 55.5664ZM444.53 55.8594V71.9141H442.098V55.8594H444.53ZM443.343 49.8535C443.744 49.8535 444.086 49.9854 444.369 50.249C444.662 50.5029 444.808 50.9033 444.808 51.4502C444.808 51.9873 444.662 52.3877 444.369 52.6514C444.086 52.915 443.744 53.0469 443.343 53.0469C442.923 53.0469 442.572 52.915 442.289 52.6514C442.015 52.3877 441.879 51.9873 441.879 51.4502C441.879 50.9033 442.015 50.5029 442.289 50.249C442.572 49.9854 442.923 49.8535 443.343 49.8535ZM456.689 55.5664C458.593 55.5664 460.033 56.0352 461.01 56.9727C461.987 57.9004 462.475 59.3945 462.475 61.4551V71.9141H460.072V61.6162C460.072 60.2783 459.765 59.2773 459.15 58.6133C458.544 57.9492 457.612 57.6172 456.352 57.6172C454.574 57.6172 453.324 58.1201 452.602 59.126C451.879 60.1318 451.518 61.5918 451.518 63.5059V71.9141H449.086V55.8594H451.049L451.415 58.1738H451.547C451.889 57.6074 452.323 57.1338 452.851 56.7529C453.378 56.3623 453.969 56.0693 454.623 55.874C455.278 55.6689 455.966 55.5664 456.689 55.5664ZM471.367 79.1211C469.258 79.1211 467.632 78.7256 466.489 77.9346C465.346 77.1533 464.775 76.0547 464.775 74.6387C464.775 73.6328 465.093 72.7734 465.727 72.0605C466.372 71.3477 467.261 70.874 468.393 70.6396C467.973 70.4443 467.612 70.1514 467.309 69.7607C467.016 69.3701 466.87 68.9209 466.87 68.4131C466.87 67.8271 467.031 67.3145 467.353 66.875C467.685 66.4258 468.188 65.9961 468.862 65.5859C468.022 65.2441 467.339 64.668 466.811 63.8574C466.294 63.0371 466.035 62.085 466.035 61.001C466.035 59.8486 466.274 58.8672 466.753 58.0566C467.231 57.2363 467.925 56.6113 468.833 56.1816C469.741 55.752 470.84 55.5371 472.129 55.5371C472.412 55.5371 472.695 55.5518 472.978 55.5811C473.271 55.6006 473.55 55.6348 473.813 55.6836C474.077 55.7227 474.306 55.7715 474.502 55.8301H480.01V57.3975L477.051 57.7637C477.344 58.1445 477.588 58.6035 477.783 59.1406C477.978 59.6777 478.076 60.2734 478.076 60.9277C478.076 62.5293 477.534 63.8037 476.45 64.751C475.366 65.6885 473.877 66.1572 471.982 66.1572C471.533 66.1572 471.074 66.1182 470.605 66.04C470.127 66.3037 469.761 66.5967 469.507 66.9189C469.263 67.2412 469.14 67.6123 469.14 68.0322C469.14 68.3447 469.233 68.5938 469.419 68.7793C469.614 68.9648 469.892 69.1016 470.254 69.1895C470.615 69.2676 471.05 69.3066 471.557 69.3066H474.385C476.133 69.3066 477.471 69.6729 478.398 70.4053C479.336 71.1377 479.805 72.207 479.805 73.6133C479.805 75.3906 479.082 76.7529 477.637 77.7002C476.191 78.6475 474.101 79.1211 471.367 79.1211ZM471.44 77.2168C472.768 77.2168 473.867 77.0801 474.736 76.8066C475.615 76.543 476.269 76.1572 476.699 75.6494C477.138 75.1514 477.358 74.5557 477.358 73.8623C477.358 73.2178 477.212 72.7295 476.919 72.3975C476.626 72.0752 476.196 71.8604 475.63 71.7529C475.063 71.6357 474.37 71.5771 473.55 71.5771H470.766C470.044 71.5771 469.414 71.6895 468.877 71.9141C468.34 72.1387 467.925 72.4707 467.632 72.9102C467.348 73.3496 467.207 73.8965 467.207 74.5508C467.207 75.4199 467.573 76.0791 468.305 76.5283C469.038 76.9873 470.083 77.2168 471.44 77.2168ZM472.07 64.3848C473.232 64.3848 474.106 64.0918 474.692 63.5059C475.278 62.9199 475.571 62.0654 475.571 60.9424C475.571 59.7412 475.273 58.8428 474.678 58.2471C474.082 57.6416 473.203 57.3389 472.041 57.3389C470.928 57.3389 470.068 57.6514 469.463 58.2764C468.867 58.8916 468.569 59.7949 468.569 60.9863C468.569 62.0801 468.872 62.9199 469.477 63.5059C470.083 64.0918 470.947 64.3848 472.07 64.3848Z" fill="black" fill-opacity="0.6"/>
</svg>
