<svg width="710" height="78" viewBox="0 0 710 78" fill="none" xmlns="http://www.w3.org/2000/svg">
<rect width="405.009" height="76.6333" transform="translate(152.363 0.5)" fill="white"/>
<line x1="6.12796" y1="-6.12796" x2="31.9279" y2="-6.12796" transform="matrix(0.849972 -0.526828 0.620393 0.784291 160.258 46.5073)" stroke="#DB4437" stroke-width="12.2559" stroke-linecap="round"/>
<line x1="6.12796" y1="-6.12796" x2="31.9094" y2="-6.12796" transform="matrix(-0.84773 0.530428 -0.623996 -0.781427 224.102 31.8047)" stroke="#F4B400" stroke-width="12.2559" stroke-linecap="round"/>
<line x1="6.12796" y1="-6.12796" x2="31.9279" y2="-6.12796" transform="matrix(0.849972 0.526828 -0.620393 0.784291 152.363 40.2437)" stroke="#4285F4" stroke-width="12.2559" stroke-linecap="round"/>
<line x1="6.12796" y1="-6.12796" x2="31.9279" y2="-6.12796" transform="matrix(-0.849972 -0.526828 0.620393 -0.784291 232.371 37.3901)" stroke="#0F9D58" stroke-width="12.2559" stroke-linecap="round"/>
<path d="M262.484 39.8555H272.465V53.7031C270.967 54.2109 269.424 54.5885 267.836 54.8359C266.26 55.0833 264.496 55.207 262.543 55.207C259.574 55.207 257.068 54.6146 255.023 53.4297C252.992 52.2448 251.449 50.5586 250.395 48.3711C249.34 46.1706 248.812 43.5599 248.812 40.5391C248.812 37.5833 249.392 35.0052 250.551 32.8047C251.723 30.6042 253.409 28.8984 255.609 27.6875C257.823 26.4635 260.479 25.8516 263.578 25.8516C265.167 25.8516 266.671 26.0013 268.09 26.3008C269.522 26.5872 270.85 26.9974 272.074 27.5312L270.805 30.4219C269.75 29.9661 268.585 29.5755 267.309 29.25C266.046 28.9245 264.737 28.7617 263.383 28.7617C261.052 28.7617 259.053 29.2435 257.387 30.207C255.733 31.1706 254.464 32.5312 253.578 34.2891C252.706 36.0469 252.27 38.1302 252.27 40.5391C252.27 42.9219 252.654 44.9987 253.422 46.7695C254.19 48.5273 255.388 49.8945 257.016 50.8711C258.643 51.8477 260.74 52.3359 263.305 52.3359C264.594 52.3359 265.701 52.2643 266.625 52.1211C267.549 51.9648 268.389 51.7826 269.145 51.5742V42.8242H262.484V39.8555ZM302.055 40.2656C302.055 43.4818 301.469 46.1706 300.297 48.332C299.125 50.4805 297.426 52.1016 295.199 53.1953C292.986 54.276 290.297 54.8164 287.133 54.8164H279.379V26.2617H287.992C290.896 26.2617 293.396 26.7956 295.492 27.8633C297.589 28.918 299.203 30.487 300.336 32.5703C301.482 34.6406 302.055 37.2057 302.055 40.2656ZM298.559 40.3828C298.559 37.8177 298.129 35.7018 297.27 34.0352C296.423 32.3685 295.173 31.1315 293.52 30.3242C291.879 29.5039 289.867 29.0938 287.484 29.0938H282.699V51.9648H286.742C290.674 51.9648 293.624 50.9948 295.59 49.0547C297.569 47.1146 298.559 44.224 298.559 40.3828ZM324.516 47.2188C324.516 48.9115 324.092 50.3568 323.246 51.5547C322.413 52.7396 321.241 53.6445 319.73 54.2695C318.22 54.8945 316.443 55.207 314.398 55.207C313.318 55.207 312.296 55.1549 311.332 55.0508C310.368 54.9466 309.483 54.7969 308.676 54.6016C307.868 54.4062 307.159 54.1654 306.547 53.8789V50.6953C307.523 51.099 308.715 51.4766 310.121 51.8281C311.527 52.1667 312.999 52.3359 314.535 52.3359C315.967 52.3359 317.178 52.1471 318.168 51.7695C319.158 51.3789 319.906 50.8255 320.414 50.1094C320.935 49.3802 321.195 48.5078 321.195 47.4922C321.195 46.5156 320.98 45.7018 320.551 45.0508C320.121 44.3867 319.405 43.7878 318.402 43.2539C317.413 42.707 316.059 42.1276 314.34 41.5156C313.129 41.0859 312.061 40.6172 311.137 40.1094C310.212 39.5885 309.438 39.0026 308.812 38.3516C308.188 37.7005 307.712 36.9453 307.387 36.0859C307.074 35.2266 306.918 34.2435 306.918 33.1367C306.918 31.6133 307.302 30.3112 308.07 29.2305C308.852 28.1367 309.926 27.3034 311.293 26.7305C312.673 26.1445 314.255 25.8516 316.039 25.8516C317.562 25.8516 318.969 25.9948 320.258 26.2812C321.56 26.5677 322.751 26.9518 323.832 27.4336L322.797 30.2852C321.768 29.8555 320.674 29.4974 319.516 29.2109C318.37 28.9245 317.185 28.7812 315.961 28.7812C314.737 28.7812 313.702 28.9635 312.855 29.3281C312.022 29.6797 311.384 30.181 310.941 30.832C310.499 31.4831 310.277 32.2578 310.277 33.1562C310.277 34.1589 310.486 34.9922 310.902 35.6562C311.332 36.3203 312.009 36.9128 312.934 37.4336C313.871 37.9414 315.108 38.4753 316.645 39.0352C318.324 39.6471 319.75 40.2982 320.922 40.9883C322.094 41.6654 322.986 42.4987 323.598 43.4883C324.21 44.4648 324.516 45.7083 324.516 47.2188ZM342.562 28.7812C340.987 28.7812 339.568 29.0547 338.305 29.6016C337.055 30.1354 335.987 30.9167 335.102 31.9453C334.229 32.9609 333.559 34.1914 333.09 35.6367C332.621 37.082 332.387 38.7096 332.387 40.5195C332.387 42.9154 332.758 44.9987 333.5 46.7695C334.255 48.5273 335.375 49.888 336.859 50.8516C338.357 51.8151 340.225 52.2969 342.465 52.2969C343.741 52.2969 344.939 52.1927 346.059 51.9844C347.191 51.763 348.292 51.4896 349.359 51.1641V54.0547C348.318 54.4453 347.224 54.7318 346.078 54.9141C344.932 55.1094 343.572 55.207 341.996 55.207C339.092 55.207 336.664 54.6081 334.711 53.4102C332.771 52.1992 331.312 50.4935 330.336 48.293C329.372 46.0924 328.891 43.4948 328.891 40.5C328.891 38.3385 329.19 36.3659 329.789 34.582C330.401 32.7852 331.286 31.2357 332.445 29.9336C333.617 28.6315 335.049 27.6289 336.742 26.9258C338.448 26.2096 340.401 25.8516 342.602 25.8516C344.047 25.8516 345.44 25.9948 346.781 26.2812C348.122 26.5677 349.333 26.9779 350.414 27.5117L349.086 30.3242C348.174 29.9076 347.172 29.5495 346.078 29.25C344.997 28.9375 343.826 28.7812 342.562 28.7812ZM386.527 54.8164H382.602L372.309 40.9297L369.262 43.6641V54.8164H365.941V26.2617H369.262V40.5C370.004 39.6536 370.766 38.8138 371.547 37.9805C372.328 37.1341 373.103 36.2812 373.871 35.4219L382.211 26.2617H386.098L374.73 38.6445L386.527 54.8164ZM397.953 33.0586C400.505 33.0586 402.4 33.6315 403.637 34.7773C404.874 35.9232 405.492 37.7526 405.492 40.2656V54.8164H403.129L402.504 51.6523H402.348C401.749 52.4336 401.124 53.0911 400.473 53.625C399.822 54.1458 399.066 54.543 398.207 54.8164C397.361 55.0768 396.319 55.207 395.082 55.207C393.78 55.207 392.621 54.9792 391.605 54.5234C390.603 54.0677 389.809 53.3776 389.223 52.4531C388.65 51.5286 388.363 50.3568 388.363 48.9375C388.363 46.8021 389.21 45.1615 390.902 44.0156C392.595 42.8698 395.173 42.2448 398.637 42.1406L402.328 41.9844V40.6758C402.328 38.8268 401.931 37.5312 401.137 36.7891C400.342 36.0469 399.223 35.6758 397.777 35.6758C396.658 35.6758 395.59 35.8385 394.574 36.1641C393.559 36.4896 392.595 36.8737 391.684 37.3164L390.688 34.8555C391.651 34.3607 392.758 33.9375 394.008 33.5859C395.258 33.2344 396.573 33.0586 397.953 33.0586ZM402.289 44.2695L399.027 44.4062C396.358 44.5104 394.477 44.9466 393.383 45.7148C392.289 46.4831 391.742 47.5703 391.742 48.9766C391.742 50.2005 392.113 51.1055 392.855 51.6914C393.598 52.2773 394.581 52.5703 395.805 52.5703C397.706 52.5703 399.262 52.043 400.473 50.9883C401.684 49.9336 402.289 48.3516 402.289 46.2422V44.2695ZM415.434 54.8164H412.172V24.4258H415.434V54.8164ZM425.531 33.4102V54.8164H422.289V33.4102H425.531ZM423.949 25.4023C424.483 25.4023 424.939 25.5781 425.316 25.9297C425.707 26.2682 425.902 26.8021 425.902 27.5312C425.902 28.2474 425.707 28.7812 425.316 29.1328C424.939 29.4844 424.483 29.6602 423.949 29.6602C423.389 29.6602 422.921 29.4844 422.543 29.1328C422.178 28.7812 421.996 28.2474 421.996 27.5312C421.996 26.8021 422.178 26.2682 422.543 25.9297C422.921 25.5781 423.389 25.4023 423.949 25.4023ZM442.543 33.0195C445.082 33.0195 447.003 33.6445 448.305 34.8945C449.607 36.1315 450.258 38.1237 450.258 40.8711V54.8164H447.055V41.0859C447.055 39.3021 446.645 37.9674 445.824 37.082C445.017 36.1966 443.773 35.7539 442.094 35.7539C439.724 35.7539 438.057 36.4245 437.094 37.7656C436.13 39.1068 435.648 41.0534 435.648 43.6055V54.8164H432.406V33.4102H435.023L435.512 36.4961H435.688C436.143 35.7409 436.723 35.1094 437.426 34.6016C438.129 34.0807 438.917 33.6901 439.789 33.4297C440.661 33.1562 441.579 33.0195 442.543 33.0195ZM464.555 55.207C461.846 55.207 459.698 54.2826 458.109 52.4336C456.534 50.5846 455.746 47.8372 455.746 44.1914C455.746 40.5065 456.553 37.7266 458.168 35.8516C459.783 33.9635 461.931 33.0195 464.613 33.0195C465.746 33.0195 466.736 33.1693 467.582 33.4688C468.428 33.7682 469.158 34.1719 469.77 34.6797C470.382 35.1745 470.896 35.7409 471.312 36.3789H471.547C471.495 35.9753 471.443 35.4219 471.391 34.7188C471.339 34.0156 471.312 33.4427 471.312 33V24.4258H474.555V54.8164H471.938L471.449 51.7695H471.312C470.909 52.4076 470.395 52.987 469.77 53.5078C469.158 54.0286 468.422 54.4453 467.562 54.7578C466.716 55.0573 465.714 55.207 464.555 55.207ZM465.062 52.5117C467.354 52.5117 468.975 51.8607 469.926 50.5586C470.876 49.2565 471.352 47.3229 471.352 44.7578V44.1719C471.352 41.4505 470.896 39.3607 469.984 37.9023C469.086 36.444 467.445 35.7148 465.062 35.7148C463.07 35.7148 461.579 36.4831 460.59 38.0195C459.6 39.543 459.105 41.6263 459.105 44.2695C459.105 46.8997 459.594 48.931 460.57 50.3633C461.56 51.7956 463.057 52.5117 465.062 52.5117ZM484.672 33.4102V54.8164H481.43V33.4102H484.672ZM483.09 25.4023C483.624 25.4023 484.079 25.5781 484.457 25.9297C484.848 26.2682 485.043 26.8021 485.043 27.5312C485.043 28.2474 484.848 28.7812 484.457 29.1328C484.079 29.4844 483.624 29.6602 483.09 29.6602C482.53 29.6602 482.061 29.4844 481.684 29.1328C481.319 28.7812 481.137 28.2474 481.137 27.5312C481.137 26.8021 481.319 26.2682 481.684 25.9297C482.061 25.5781 482.53 25.4023 483.09 25.4023ZM525.102 40.2656C525.102 43.4818 524.516 46.1706 523.344 48.332C522.172 50.4805 520.473 52.1016 518.246 53.1953C516.033 54.276 513.344 54.8164 510.18 54.8164H502.426V26.2617H511.039C513.943 26.2617 516.443 26.7956 518.539 27.8633C520.635 28.918 522.25 30.487 523.383 32.5703C524.529 34.6406 525.102 37.2057 525.102 40.2656ZM521.605 40.3828C521.605 37.8177 521.176 35.7018 520.316 34.0352C519.47 32.3685 518.22 31.1315 516.566 30.3242C514.926 29.5039 512.914 29.0938 510.531 29.0938H505.746V51.9648H509.789C513.721 51.9648 516.671 50.9948 518.637 49.0547C520.616 47.1146 521.605 44.224 521.605 40.3828ZM553.051 26.2617V44.7383C553.051 46.7565 552.641 48.5534 551.82 50.1289C551.013 51.7044 549.789 52.9479 548.148 53.8594C546.508 54.7578 544.451 55.207 541.977 55.207C538.448 55.207 535.759 54.25 533.91 52.3359C532.074 50.4219 531.156 47.8633 531.156 44.6602V26.2617H534.496V44.7578C534.496 47.1797 535.134 49.0482 536.41 50.3633C537.699 51.6784 539.62 52.3359 542.172 52.3359C543.917 52.3359 545.342 52.0234 546.449 51.3984C547.569 50.7604 548.396 49.875 548.93 48.7422C549.477 47.5964 549.75 46.2747 549.75 44.7773V26.2617H553.051Z" fill="black" fill-opacity="0.6"/>
</svg>
