<svg width="717" height="79" viewBox="0 0 717 79" fill="none" xmlns="http://www.w3.org/2000/svg">
<rect width="716.009" height="76.6333" transform="translate(0.863281)" fill="white"/>
<line x1="6.12796" y1="-6.12796" x2="31.9279" y2="-6.12796" transform="matrix(0.849972 -0.526828 0.620393 0.784291 8.75781 46.0073)" stroke="#DB4437" stroke-width="12.2559" stroke-linecap="round"/>
<line x1="6.12796" y1="-6.12796" x2="31.9094" y2="-6.12796" transform="matrix(-0.84773 0.530428 -0.623996 -0.781427 72.6016 31.3047)" stroke="#F4B400" stroke-width="12.2559" stroke-linecap="round"/>
<line x1="6.12796" y1="-6.12796" x2="31.9279" y2="-6.12796" transform="matrix(0.849972 0.526828 -0.620393 0.784291 0.863281 39.7437)" stroke="#4285F4" stroke-width="12.2559" stroke-linecap="round"/>
<line x1="6.12796" y1="-6.12796" x2="31.9279" y2="-6.12796" transform="matrix(-0.849972 -0.526828 0.620393 -0.784291 80.8711 36.8901)" stroke="#0F9D58" stroke-width="12.2559" stroke-linecap="round"/>
<path d="M110.145 17.8086H120.809V32.1445C119.311 32.6393 117.762 33.0234 116.16 33.2969C114.559 33.5703 112.762 33.707 110.77 33.707C107.866 33.707 105.405 33.1341 103.387 31.9883C101.382 30.8294 99.8581 29.1562 98.8164 26.9688C97.7747 24.7682 97.2539 22.1185 97.2539 19.0195C97.2539 16.0378 97.8333 13.4531 98.9922 11.2656C100.151 9.0651 101.837 7.36589 104.051 6.16797C106.264 4.95703 108.947 4.35156 112.098 4.35156C113.647 4.35156 115.145 4.50781 116.59 4.82031C118.048 5.11979 119.383 5.53646 120.594 6.07031L118.953 9.9375C117.99 9.48177 116.909 9.09766 115.711 8.78516C114.513 8.47266 113.27 8.31641 111.98 8.31641C109.936 8.31641 108.172 8.75911 106.688 9.64453C105.216 10.5299 104.083 11.7799 103.289 13.3945C102.495 14.9961 102.098 16.8906 102.098 19.0781C102.098 21.2005 102.417 23.0625 103.055 24.6641C103.693 26.2656 104.689 27.5156 106.043 28.4141C107.41 29.2995 109.174 29.7422 111.336 29.7422C112.417 29.7422 113.335 29.6836 114.09 29.5664C114.845 29.4492 115.542 29.319 116.18 29.1758V21.8125H110.145V17.8086ZM146.316 22.457C146.316 24.2539 146.082 25.849 145.613 27.2422C145.145 28.6354 144.461 29.8138 143.562 30.7773C142.664 31.7279 141.583 32.457 140.32 32.9648C139.057 33.4596 137.632 33.707 136.043 33.707C134.559 33.707 133.198 33.4596 131.961 32.9648C130.724 32.457 129.65 31.7279 128.738 30.7773C127.84 29.8138 127.143 28.6354 126.648 27.2422C126.154 25.849 125.906 24.2539 125.906 22.457C125.906 20.0742 126.316 18.056 127.137 16.4023C127.97 14.7357 129.155 13.4661 130.691 12.5938C132.228 11.7214 134.057 11.2852 136.18 11.2852C138.172 11.2852 139.93 11.7214 141.453 12.5938C142.977 13.4661 144.168 14.7357 145.027 16.4023C145.887 18.069 146.316 20.0872 146.316 22.457ZM130.633 22.457C130.633 24.0326 130.822 25.3802 131.199 26.5C131.59 27.6198 132.189 28.4792 132.996 29.0781C133.803 29.6641 134.845 29.957 136.121 29.957C137.397 29.957 138.439 29.6641 139.246 29.0781C140.053 28.4792 140.646 27.6198 141.023 26.5C141.401 25.3802 141.59 24.0326 141.59 22.457C141.59 20.8815 141.401 19.5469 141.023 18.4531C140.646 17.3464 140.053 16.5065 139.246 15.9336C138.439 15.3477 137.391 15.0547 136.102 15.0547C134.201 15.0547 132.814 15.6927 131.941 16.9688C131.069 18.2448 130.633 20.0742 130.633 22.457ZM170.73 22.457C170.73 24.2539 170.496 25.849 170.027 27.2422C169.559 28.6354 168.875 29.8138 167.977 30.7773C167.078 31.7279 165.997 32.457 164.734 32.9648C163.471 33.4596 162.046 33.707 160.457 33.707C158.973 33.707 157.612 33.4596 156.375 32.9648C155.138 32.457 154.064 31.7279 153.152 30.7773C152.254 29.8138 151.557 28.6354 151.062 27.2422C150.568 25.849 150.32 24.2539 150.32 22.457C150.32 20.0742 150.73 18.056 151.551 16.4023C152.384 14.7357 153.569 13.4661 155.105 12.5938C156.642 11.7214 158.471 11.2852 160.594 11.2852C162.586 11.2852 164.344 11.7214 165.867 12.5938C167.391 13.4661 168.582 14.7357 169.441 16.4023C170.301 18.069 170.73 20.0872 170.73 22.457ZM155.047 22.457C155.047 24.0326 155.236 25.3802 155.613 26.5C156.004 27.6198 156.603 28.4792 157.41 29.0781C158.217 29.6641 159.259 29.957 160.535 29.957C161.811 29.957 162.853 29.6641 163.66 29.0781C164.467 28.4792 165.06 27.6198 165.438 26.5C165.815 25.3802 166.004 24.0326 166.004 22.457C166.004 20.8815 165.815 19.5469 165.438 18.4531C165.06 17.3464 164.467 16.5065 163.66 15.9336C162.853 15.3477 161.805 15.0547 160.516 15.0547C158.615 15.0547 157.228 15.6927 156.355 16.9688C155.483 18.2448 155.047 20.0742 155.047 22.457ZM182.176 42.9258C179.246 42.9258 177 42.3984 175.438 41.3438C173.875 40.2891 173.094 38.8112 173.094 36.9102C173.094 35.582 173.51 34.4557 174.344 33.5312C175.177 32.6198 176.368 31.9883 177.918 31.6367C177.332 31.3763 176.824 30.9727 176.395 30.4258C175.978 29.8659 175.77 29.2474 175.77 28.5703C175.77 27.763 175.997 27.0729 176.453 26.5C176.909 25.9271 177.592 25.3737 178.504 24.8398C177.371 24.3581 176.46 23.5768 175.77 22.4961C175.092 21.4023 174.754 20.1198 174.754 18.6484C174.754 17.0859 175.086 15.7578 175.75 14.6641C176.414 13.5573 177.384 12.7174 178.66 12.1445C179.936 11.5586 181.479 11.2656 183.289 11.2656C183.68 11.2656 184.103 11.2917 184.559 11.3438C185.027 11.3828 185.457 11.4349 185.848 11.5C186.251 11.5521 186.557 11.6107 186.766 11.6758H194.246V14.2344L190.574 14.918C190.926 15.4128 191.206 15.9792 191.414 16.6172C191.622 17.2422 191.727 17.9258 191.727 18.668C191.727 20.9076 190.952 22.6719 189.402 23.9609C187.866 25.237 185.743 25.875 183.035 25.875C182.384 25.849 181.753 25.7969 181.141 25.7188C180.672 26.0052 180.314 26.3242 180.066 26.6758C179.819 27.0143 179.695 27.3984 179.695 27.8281C179.695 28.1797 179.819 28.4661 180.066 28.6875C180.314 28.8958 180.678 29.0521 181.16 29.1562C181.655 29.2604 182.254 29.3125 182.957 29.3125H186.688C189.057 29.3125 190.867 29.8138 192.117 30.8164C193.367 31.819 193.992 33.2904 193.992 35.2305C193.992 37.6914 192.977 39.5859 190.945 40.9141C188.914 42.2552 185.991 42.9258 182.176 42.9258ZM182.352 39.7031C183.953 39.7031 185.301 39.5469 186.395 39.2344C187.488 38.9219 188.315 38.4727 188.875 37.8867C189.435 37.3138 189.715 36.6302 189.715 35.8359C189.715 35.1328 189.539 34.5924 189.188 34.2148C188.836 33.8372 188.309 33.5768 187.605 33.4336C186.902 33.2904 186.03 33.2188 184.988 33.2188H181.59C180.743 33.2188 179.995 33.349 179.344 33.6094C178.693 33.8828 178.185 34.2734 177.82 34.7812C177.469 35.2891 177.293 35.901 177.293 36.6172C177.293 37.6068 177.729 38.3685 178.602 38.9023C179.487 39.4362 180.737 39.7031 182.352 39.7031ZM183.25 22.8672C184.591 22.8672 185.587 22.5026 186.238 21.7734C186.889 21.0312 187.215 19.9896 187.215 18.6484C187.215 17.1901 186.876 16.0964 186.199 15.3672C185.535 14.638 184.546 14.2734 183.23 14.2734C181.941 14.2734 180.958 14.6445 180.281 15.3867C179.617 16.1289 179.285 17.2292 179.285 18.6875C179.285 20.0026 179.617 21.0312 180.281 21.7734C180.958 22.5026 181.948 22.8672 183.25 22.8672ZM202.801 33.3164H198.191V2.92578H202.801V33.3164ZM217.977 11.2852C219.904 11.2852 221.557 11.6823 222.938 12.4766C224.318 13.2708 225.379 14.3971 226.121 15.8555C226.863 17.3138 227.234 19.0586 227.234 21.0898V23.5508H212.801C212.853 25.6471 213.413 27.2617 214.48 28.3945C215.561 29.5273 217.072 30.0938 219.012 30.0938C220.392 30.0938 221.629 29.9635 222.723 29.7031C223.829 29.4297 224.969 29.0326 226.141 28.5117V32.2422C225.06 32.75 223.96 33.1211 222.84 33.3555C221.72 33.5898 220.379 33.707 218.816 33.707C216.694 33.707 214.826 33.2969 213.211 32.4766C211.609 31.6432 210.353 30.4062 209.441 28.7656C208.543 27.125 208.094 25.0872 208.094 22.6523C208.094 20.2305 208.504 18.1732 209.324 16.4805C210.145 14.7878 211.297 13.4987 212.781 12.6133C214.266 11.7279 215.997 11.2852 217.977 11.2852ZM217.977 14.7422C216.531 14.7422 215.359 15.2109 214.461 16.1484C213.576 17.0859 213.055 18.4596 212.898 20.2695H222.742C222.729 19.1888 222.547 18.2318 222.195 17.3984C221.857 16.5651 221.336 15.9141 220.633 15.4453C219.943 14.9766 219.057 14.7422 217.977 14.7422ZM266.453 18.7656C266.453 21.9818 265.854 24.6706 264.656 26.832C263.458 28.9805 261.72 30.6016 259.441 31.6953C257.163 32.776 254.415 33.3164 251.199 33.3164H243.27V4.76172H252.059C255.014 4.76172 257.566 5.29557 259.715 6.36328C261.863 7.41797 263.523 8.98698 264.695 11.0703C265.867 13.1406 266.453 15.7057 266.453 18.7656ZM261.57 18.9023C261.57 16.5586 261.199 14.6315 260.457 13.1211C259.728 11.6107 258.647 10.4909 257.215 9.76172C255.796 9.01953 254.044 8.64844 251.961 8.64844H247.957V29.3906H251.277C254.728 29.3906 257.306 28.5117 259.012 26.7539C260.717 24.9961 261.57 22.3789 261.57 18.9023ZM280.75 11.2852C282.677 11.2852 284.331 11.6823 285.711 12.4766C287.091 13.2708 288.152 14.3971 288.895 15.8555C289.637 17.3138 290.008 19.0586 290.008 21.0898V23.5508H275.574C275.626 25.6471 276.186 27.2617 277.254 28.3945C278.335 29.5273 279.845 30.0938 281.785 30.0938C283.165 30.0938 284.402 29.9635 285.496 29.7031C286.603 29.4297 287.742 29.0326 288.914 28.5117V32.2422C287.833 32.75 286.733 33.1211 285.613 33.3555C284.493 33.5898 283.152 33.707 281.59 33.707C279.467 33.707 277.599 33.2969 275.984 32.4766C274.383 31.6432 273.126 30.4062 272.215 28.7656C271.316 27.125 270.867 25.0872 270.867 22.6523C270.867 20.2305 271.277 18.1732 272.098 16.4805C272.918 14.7878 274.07 13.4987 275.555 12.6133C277.039 11.7279 278.771 11.2852 280.75 11.2852ZM280.75 14.7422C279.305 14.7422 278.133 15.2109 277.234 16.1484C276.349 17.0859 275.828 18.4596 275.672 20.2695H285.516C285.503 19.1888 285.32 18.2318 284.969 17.3984C284.63 16.5651 284.109 15.9141 283.406 15.4453C282.716 14.9766 281.831 14.7422 280.75 14.7422ZM300.125 33.3164L291.902 11.6953H296.766L301.219 24.3906C301.505 25.1979 301.766 26.0703 302 27.0078C302.234 27.9453 302.397 28.7331 302.488 29.3711H302.645C302.736 28.707 302.911 27.9128 303.172 26.9883C303.432 26.0508 303.699 25.1849 303.973 24.3906L308.426 11.6953H313.27L305.047 33.3164H300.125ZM325.164 11.2852C327.091 11.2852 328.745 11.6823 330.125 12.4766C331.505 13.2708 332.566 14.3971 333.309 15.8555C334.051 17.3138 334.422 19.0586 334.422 21.0898V23.5508H319.988C320.04 25.6471 320.6 27.2617 321.668 28.3945C322.749 29.5273 324.259 30.0938 326.199 30.0938C327.579 30.0938 328.816 29.9635 329.91 29.7031C331.017 29.4297 332.156 29.0326 333.328 28.5117V32.2422C332.247 32.75 331.147 33.1211 330.027 33.3555C328.908 33.5898 327.566 33.707 326.004 33.707C323.882 33.707 322.013 33.2969 320.398 32.4766C318.797 31.6432 317.54 30.4062 316.629 28.7656C315.73 27.125 315.281 25.0872 315.281 22.6523C315.281 20.2305 315.691 18.1732 316.512 16.4805C317.332 14.7878 318.484 13.4987 319.969 12.6133C321.453 11.7279 323.185 11.2852 325.164 11.2852ZM325.164 14.7422C323.719 14.7422 322.547 15.2109 321.648 16.1484C320.763 17.0859 320.242 18.4596 320.086 20.2695H329.93C329.917 19.1888 329.734 18.2318 329.383 17.3984C329.044 16.5651 328.523 15.9141 327.82 15.4453C327.13 14.9766 326.245 14.7422 325.164 14.7422ZM344.207 33.3164H339.598V2.92578H344.207V33.3164ZM369.91 22.457C369.91 24.2539 369.676 25.849 369.207 27.2422C368.738 28.6354 368.055 29.8138 367.156 30.7773C366.258 31.7279 365.177 32.457 363.914 32.9648C362.651 33.4596 361.225 33.707 359.637 33.707C358.152 33.707 356.792 33.4596 355.555 32.9648C354.318 32.457 353.243 31.7279 352.332 30.7773C351.434 29.8138 350.737 28.6354 350.242 27.2422C349.747 25.849 349.5 24.2539 349.5 22.457C349.5 20.0742 349.91 18.056 350.73 16.4023C351.564 14.7357 352.749 13.4661 354.285 12.5938C355.822 11.7214 357.651 11.2852 359.773 11.2852C361.766 11.2852 363.523 11.7214 365.047 12.5938C366.57 13.4661 367.762 14.7357 368.621 16.4023C369.48 18.069 369.91 20.0872 369.91 22.457ZM354.227 22.457C354.227 24.0326 354.415 25.3802 354.793 26.5C355.184 27.6198 355.783 28.4792 356.59 29.0781C357.397 29.6641 358.439 29.957 359.715 29.957C360.991 29.957 362.033 29.6641 362.84 29.0781C363.647 28.4792 364.24 27.6198 364.617 26.5C364.995 25.3802 365.184 24.0326 365.184 22.457C365.184 20.8815 364.995 19.5469 364.617 18.4531C364.24 17.3464 363.647 16.5065 362.84 15.9336C362.033 15.3477 360.984 15.0547 359.695 15.0547C357.794 15.0547 356.408 15.6927 355.535 16.9688C354.663 18.2448 354.227 20.0742 354.227 22.457ZM386.277 11.2852C388.842 11.2852 390.9 12.2227 392.449 14.0977C394.012 15.9727 394.793 18.7591 394.793 22.457C394.793 24.9049 394.428 26.9688 393.699 28.6484C392.983 30.3151 391.974 31.5781 390.672 32.4375C389.383 33.2839 387.879 33.707 386.16 33.707C385.066 33.707 384.116 33.5638 383.309 33.2773C382.501 32.9909 381.811 32.6198 381.238 32.1641C380.665 31.6953 380.184 31.1875 379.793 30.6406H379.52C379.585 31.1615 379.643 31.7409 379.695 32.3789C379.76 33.0039 379.793 33.5768 379.793 34.0977V42.9062H375.184V11.6953H378.934L379.578 14.6836H379.793C380.197 14.0716 380.685 13.5052 381.258 12.9844C381.844 12.4635 382.547 12.0534 383.367 11.7539C384.201 11.4414 385.171 11.2852 386.277 11.2852ZM385.047 15.0352C383.784 15.0352 382.768 15.2891 382 15.7969C381.245 16.2917 380.691 17.0404 380.34 18.043C380.001 19.0456 379.819 20.3021 379.793 21.8125V22.457C379.793 24.0586 379.956 25.4193 380.281 26.5391C380.62 27.6458 381.173 28.4922 381.941 29.0781C382.723 29.651 383.777 29.9375 385.105 29.9375C386.225 29.9375 387.15 29.6315 387.879 29.0195C388.621 28.4076 389.174 27.5352 389.539 26.4023C389.904 25.2695 390.086 23.9349 390.086 22.3984C390.086 20.0677 389.669 18.2578 388.836 16.9688C388.016 15.6797 386.753 15.0352 385.047 15.0352ZM408.719 11.2852C410.646 11.2852 412.299 11.6823 413.68 12.4766C415.06 13.2708 416.121 14.3971 416.863 15.8555C417.605 17.3138 417.977 19.0586 417.977 21.0898V23.5508H403.543C403.595 25.6471 404.155 27.2617 405.223 28.3945C406.303 29.5273 407.814 30.0938 409.754 30.0938C411.134 30.0938 412.371 29.9635 413.465 29.7031C414.572 29.4297 415.711 29.0326 416.883 28.5117V32.2422C415.802 32.75 414.702 33.1211 413.582 33.3555C412.462 33.5898 411.121 33.707 409.559 33.707C407.436 33.707 405.568 33.2969 403.953 32.4766C402.352 31.6432 401.095 30.4062 400.184 28.7656C399.285 27.125 398.836 25.0872 398.836 22.6523C398.836 20.2305 399.246 18.1732 400.066 16.4805C400.887 14.7878 402.039 13.4987 403.523 12.6133C405.008 11.7279 406.74 11.2852 408.719 11.2852ZM408.719 14.7422C407.273 14.7422 406.102 15.2109 405.203 16.1484C404.318 17.0859 403.797 18.4596 403.641 20.2695H413.484C413.471 19.1888 413.289 18.2318 412.938 17.3984C412.599 16.5651 412.078 15.9141 411.375 15.4453C410.685 14.9766 409.799 14.7422 408.719 14.7422ZM434.109 11.2852C434.474 11.2852 434.871 11.3047 435.301 11.3438C435.73 11.3828 436.102 11.4349 436.414 11.5L435.984 15.7969C435.711 15.7188 435.372 15.6602 434.969 15.6211C434.578 15.582 434.227 15.5625 433.914 15.5625C433.094 15.5625 432.312 15.6992 431.57 15.9727C430.828 16.2331 430.171 16.6367 429.598 17.1836C429.025 17.7174 428.576 18.388 428.25 19.1953C427.924 20.0026 427.762 20.9401 427.762 22.0078V33.3164H423.152V11.6953H426.746L427.371 15.5039H427.586C428.016 14.7357 428.549 14.0326 429.188 13.3945C429.826 12.7565 430.555 12.2487 431.375 11.8711C432.208 11.4805 433.12 11.2852 434.109 11.2852ZM467.762 25.543C467.762 27.2357 467.345 28.694 466.512 29.918C465.691 31.1419 464.507 32.0794 462.957 32.7305C461.421 33.3815 459.585 33.707 457.449 33.707C456.408 33.707 455.411 33.6484 454.461 33.5312C453.51 33.4141 452.612 33.2448 451.766 33.0234C450.932 32.7891 450.171 32.5091 449.48 32.1836V27.7695C450.639 28.2773 451.935 28.7396 453.367 29.1562C454.799 29.5599 456.258 29.7617 457.742 29.7617C458.953 29.7617 459.956 29.6055 460.75 29.293C461.557 28.9674 462.156 28.5117 462.547 27.9258C462.938 27.3268 463.133 26.6302 463.133 25.8359C463.133 24.9896 462.905 24.2734 462.449 23.6875C461.993 23.1016 461.303 22.5677 460.379 22.0859C459.467 21.5911 458.322 21.0638 456.941 20.5039C456.004 20.1263 455.105 19.6966 454.246 19.2148C453.4 18.7331 452.645 18.1667 451.98 17.5156C451.316 16.8646 450.789 16.0964 450.398 15.2109C450.021 14.3125 449.832 13.2578 449.832 12.0469C449.832 10.4323 450.216 9.05208 450.984 7.90625C451.766 6.76042 452.859 5.88151 454.266 5.26953C455.685 4.65755 457.339 4.35156 459.227 4.35156C460.724 4.35156 462.13 4.50781 463.445 4.82031C464.773 5.13281 466.076 5.57552 467.352 6.14844L465.867 9.91797C464.695 9.4362 463.556 9.05208 462.449 8.76562C461.355 8.47917 460.236 8.33594 459.09 8.33594C458.1 8.33594 457.26 8.48568 456.57 8.78516C455.88 9.08464 455.353 9.50781 454.988 10.0547C454.637 10.5885 454.461 11.2266 454.461 11.9688C454.461 12.8021 454.663 13.5052 455.066 14.0781C455.483 14.638 456.121 15.1523 456.98 15.6211C457.853 16.0898 458.973 16.6107 460.34 17.1836C461.915 17.8346 463.25 18.5182 464.344 19.2344C465.451 19.9505 466.297 20.8099 466.883 21.8125C467.469 22.8021 467.762 24.0456 467.762 25.543ZM480.848 29.9961C481.447 29.9961 482.039 29.944 482.625 29.8398C483.211 29.7227 483.745 29.5859 484.227 29.4297V32.9062C483.719 33.1276 483.061 33.3164 482.254 33.4727C481.447 33.6289 480.607 33.707 479.734 33.707C478.51 33.707 477.41 33.5052 476.434 33.1016C475.457 32.6849 474.682 31.9753 474.109 30.9727C473.536 29.9701 473.25 28.5833 473.25 26.8125V15.1914H470.301V13.1406L473.465 11.5195L474.969 6.89062H477.859V11.6953H484.051V15.1914H477.859V26.7539C477.859 27.8477 478.133 28.6615 478.68 29.1953C479.227 29.7292 479.949 29.9961 480.848 29.9961ZM507.469 11.6953V33.3164H503.855L503.23 30.4062H502.977C502.521 31.1484 501.941 31.7669 501.238 32.2617C500.535 32.7435 499.754 33.1016 498.895 33.3359C498.035 33.5833 497.13 33.707 496.18 33.707C494.552 33.707 493.159 33.4336 492 32.8867C490.854 32.3268 489.975 31.4674 489.363 30.3086C488.751 29.1497 488.445 27.6523 488.445 25.8164V11.6953H493.055V24.957C493.055 26.6367 493.393 27.8932 494.07 28.7266C494.76 29.5599 495.828 29.9766 497.273 29.9766C498.667 29.9766 499.773 29.6901 500.594 29.1172C501.414 28.5443 501.993 27.6979 502.332 26.5781C502.684 25.4583 502.859 24.0846 502.859 22.457V11.6953H507.469ZM521.316 33.707C518.738 33.707 516.668 32.7695 515.105 30.8945C513.556 29.0065 512.781 26.2266 512.781 22.5547C512.781 18.8438 513.569 16.0378 515.145 14.1367C516.733 12.2357 518.823 11.2852 521.414 11.2852C522.508 11.2852 523.465 11.4349 524.285 11.7344C525.105 12.0208 525.809 12.4115 526.395 12.9062C526.993 13.401 527.501 13.9544 527.918 14.5664H528.133C528.068 14.1628 527.99 13.5833 527.898 12.8281C527.82 12.0599 527.781 11.3503 527.781 10.6992V2.92578H532.391V33.3164H528.797L527.977 30.3672H527.781C527.391 30.9922 526.896 31.5586 526.297 32.0664C525.711 32.5612 525.008 32.9583 524.188 33.2578C523.38 33.5573 522.423 33.707 521.316 33.707ZM522.605 29.9766C524.572 29.9766 525.958 29.4102 526.766 28.2773C527.573 27.1445 527.99 25.4453 528.016 23.1797V22.5742C528.016 20.1523 527.625 18.2969 526.844 17.0078C526.062 15.7057 524.637 15.0547 522.566 15.0547C520.913 15.0547 519.65 15.7253 518.777 17.0664C517.918 18.3945 517.488 20.25 517.488 22.6328C517.488 25.0156 517.918 26.8385 518.777 28.1016C519.65 29.3516 520.926 29.9766 522.605 29.9766ZM547.586 11.2852C549.513 11.2852 551.167 11.6823 552.547 12.4766C553.927 13.2708 554.988 14.3971 555.73 15.8555C556.473 17.3138 556.844 19.0586 556.844 21.0898V23.5508H542.41C542.462 25.6471 543.022 27.2617 544.09 28.3945C545.171 29.5273 546.681 30.0938 548.621 30.0938C550.001 30.0938 551.238 29.9635 552.332 29.7031C553.439 29.4297 554.578 29.0326 555.75 28.5117V32.2422C554.669 32.75 553.569 33.1211 552.449 33.3555C551.329 33.5898 549.988 33.707 548.426 33.707C546.303 33.707 544.435 33.2969 542.82 32.4766C541.219 31.6432 539.962 30.4062 539.051 28.7656C538.152 27.125 537.703 25.0872 537.703 22.6523C537.703 20.2305 538.113 18.1732 538.934 16.4805C539.754 14.7878 540.906 13.4987 542.391 12.6133C543.875 11.7279 545.607 11.2852 547.586 11.2852ZM547.586 14.7422C546.141 14.7422 544.969 15.2109 544.07 16.1484C543.185 17.0859 542.664 18.4596 542.508 20.2695H552.352C552.339 19.1888 552.156 18.2318 551.805 17.3984C551.466 16.5651 550.945 15.9141 550.242 15.4453C549.552 14.9766 548.667 14.7422 547.586 14.7422ZM573.289 11.2852C575.724 11.2852 577.618 11.9167 578.973 13.1797C580.34 14.4297 581.023 16.4414 581.023 19.2148V33.3164H576.434V20.0742C576.434 18.3945 576.089 17.138 575.398 16.3047C574.708 15.4583 573.641 15.0352 572.195 15.0352C570.099 15.0352 568.641 15.6797 567.82 16.9688C567.013 18.2578 566.609 20.1263 566.609 22.5742V33.3164H562.02V11.6953H565.594L566.238 14.625H566.492C566.961 13.8698 567.54 13.2513 568.23 12.7695C568.934 12.2747 569.715 11.9036 570.574 11.6562C571.447 11.4089 572.352 11.2852 573.289 11.2852ZM595.496 29.9961C596.095 29.9961 596.688 29.944 597.273 29.8398C597.859 29.7227 598.393 29.5859 598.875 29.4297V32.9062C598.367 33.1276 597.71 33.3164 596.902 33.4727C596.095 33.6289 595.255 33.707 594.383 33.707C593.159 33.707 592.059 33.5052 591.082 33.1016C590.105 32.6849 589.331 31.9753 588.758 30.9727C588.185 29.9701 587.898 28.5833 587.898 26.8125V15.1914H584.949V13.1406L588.113 11.5195L589.617 6.89062H592.508V11.6953H598.699V15.1914H592.508V26.7539C592.508 27.8477 592.781 28.6615 593.328 29.1953C593.875 29.7292 594.598 29.9961 595.496 29.9961ZM626.297 8.33594C624.93 8.33594 623.706 8.58333 622.625 9.07812C621.557 9.57292 620.652 10.2891 619.91 11.2266C619.168 12.151 618.602 13.2773 618.211 14.6055C617.82 15.9206 617.625 17.4049 617.625 19.0586C617.625 21.2721 617.938 23.1797 618.562 24.7812C619.188 26.3698 620.138 27.5938 621.414 28.4531C622.69 29.2995 624.305 29.7227 626.258 29.7227C627.469 29.7227 628.647 29.6055 629.793 29.3711C630.939 29.1367 632.124 28.8177 633.348 28.4141V32.3984C632.189 32.8542 631.017 33.1862 629.832 33.3945C628.647 33.6029 627.28 33.707 625.73 33.707C622.814 33.707 620.392 33.1016 618.465 31.8906C616.551 30.6797 615.118 28.974 614.168 26.7734C613.23 24.5729 612.762 21.9948 612.762 19.0391C612.762 16.8776 613.061 14.8984 613.66 13.1016C614.259 11.3047 615.132 9.75521 616.277 8.45312C617.423 7.13802 618.836 6.12891 620.516 5.42578C622.208 4.70964 624.142 4.35156 626.316 4.35156C627.749 4.35156 629.155 4.51432 630.535 4.83984C631.928 5.15234 633.217 5.60156 634.402 6.1875L632.762 10.0547C631.772 9.58594 630.737 9.18229 629.656 8.84375C628.576 8.50521 627.456 8.33594 626.297 8.33594ZM643.621 33.3164H639.012V2.92578H643.621V33.3164ZM669.031 11.6953V33.3164H665.418L664.793 30.4062H664.539C664.083 31.1484 663.504 31.7669 662.801 32.2617C662.098 32.7435 661.316 33.1016 660.457 33.3359C659.598 33.5833 658.693 33.707 657.742 33.707C656.115 33.707 654.721 33.4336 653.562 32.8867C652.417 32.3268 651.538 31.4674 650.926 30.3086C650.314 29.1497 650.008 27.6523 650.008 25.8164V11.6953H654.617V24.957C654.617 26.6367 654.956 27.8932 655.633 28.7266C656.323 29.5599 657.391 29.9766 658.836 29.9766C660.229 29.9766 661.336 29.6901 662.156 29.1172C662.977 28.5443 663.556 27.6979 663.895 26.5781C664.246 25.4583 664.422 24.0846 664.422 22.457V11.6953H669.031ZM680.203 2.92578V10.25C680.203 11.0964 680.177 11.9297 680.125 12.75C680.086 13.5573 680.047 14.1888 680.008 14.6445H680.203C680.789 13.707 681.603 12.9193 682.645 12.2812C683.699 11.6302 685.047 11.3047 686.688 11.3047C689.253 11.3047 691.316 12.2487 692.879 14.1367C694.441 16.0117 695.223 18.7917 695.223 22.4766C695.223 24.9245 694.865 26.9818 694.148 28.6484C693.432 30.3151 692.423 31.5781 691.121 32.4375C689.832 33.2839 688.315 33.707 686.57 33.707C684.93 33.707 683.602 33.4076 682.586 32.8086C681.583 32.1966 680.796 31.487 680.223 30.6797H679.891L679.051 33.3164H675.613V2.92578H680.203ZM685.477 15.0352C684.174 15.0352 683.139 15.2956 682.371 15.8164C681.616 16.3372 681.069 17.1185 680.73 18.1602C680.392 19.1888 680.216 20.4974 680.203 22.0859V22.4961C680.203 24.9049 680.581 26.7474 681.336 28.0234C682.104 29.2995 683.497 29.9375 685.516 29.9375C687.117 29.9375 688.348 29.293 689.207 28.0039C690.066 26.7018 690.496 24.8398 690.496 22.418C690.496 19.9701 690.066 18.1276 689.207 16.8906C688.361 15.6536 687.117 15.0352 685.477 15.0352ZM715.066 27.1445C715.066 28.5638 714.721 29.7617 714.031 30.7383C713.341 31.7148 712.332 32.457 711.004 32.9648C709.689 33.4596 708.074 33.707 706.16 33.707C704.65 33.707 703.348 33.5964 702.254 33.375C701.173 33.1667 700.151 32.8411 699.188 32.3984V28.4336C700.216 28.9154 701.368 29.332 702.645 29.6836C703.934 30.0352 705.151 30.2109 706.297 30.2109C707.807 30.2109 708.895 29.9766 709.559 29.5078C710.223 29.026 710.555 28.388 710.555 27.5938C710.555 27.125 710.418 26.7083 710.145 26.3438C709.884 25.9661 709.389 25.582 708.66 25.1914C707.944 24.7878 706.889 24.306 705.496 23.7461C704.129 23.1992 702.977 22.6523 702.039 22.1055C701.102 21.5586 700.392 20.901 699.91 20.1328C699.428 19.3516 699.188 18.3555 699.188 17.1445C699.188 15.2305 699.943 13.7786 701.453 12.7891C702.977 11.7865 704.988 11.2852 707.488 11.2852C708.816 11.2852 710.066 11.4219 711.238 11.6953C712.423 11.9557 713.582 12.3398 714.715 12.8477L713.27 16.3047C712.293 15.875 711.31 15.5234 710.32 15.25C709.344 14.9635 708.348 14.8203 707.332 14.8203C706.147 14.8203 705.242 15.0026 704.617 15.3672C704.005 15.7318 703.699 16.2526 703.699 16.9297C703.699 17.4375 703.849 17.8672 704.148 18.2188C704.448 18.5703 704.962 18.9219 705.691 19.2734C706.434 19.625 707.462 20.0612 708.777 20.582C710.066 21.0768 711.18 21.5977 712.117 22.1445C713.068 22.6784 713.797 23.3359 714.305 24.1172C714.812 24.8984 715.066 25.9076 715.066 27.1445ZM97.8008 71.3164V49.9004H100.291V71.3164H97.8008ZM112.816 54.9688C114.72 54.9688 116.161 55.4375 117.137 56.375C118.114 57.3027 118.602 58.7969 118.602 60.8574V71.3164H116.2V61.0186C116.2 59.6807 115.892 58.6797 115.277 58.0156C114.671 57.3516 113.739 57.0195 112.479 57.0195C110.702 57.0195 109.452 57.5225 108.729 58.5283C108.006 59.5342 107.645 60.9941 107.645 62.9082V71.3164H105.213V55.2617H107.176L107.543 57.5762H107.674C108.016 57.0098 108.451 56.5361 108.978 56.1553C109.505 55.7646 110.096 55.4717 110.751 55.2764C111.405 55.0713 112.093 54.9688 112.816 54.9688ZM128.725 71.6094C126.694 71.6094 125.082 70.916 123.891 69.5293C122.709 68.1426 122.118 66.082 122.118 63.3477C122.118 60.584 122.724 58.499 123.935 57.0928C125.146 55.6768 126.757 54.9688 128.769 54.9688C129.618 54.9688 130.361 55.0811 130.995 55.3057C131.63 55.5303 132.177 55.833 132.636 56.2139C133.095 56.585 133.481 57.0098 133.793 57.4883H133.969C133.93 57.1855 133.891 56.7705 133.852 56.2432C133.813 55.7158 133.793 55.2861 133.793 54.9541V48.5234H136.225V71.3164H134.262L133.896 69.0312H133.793C133.49 69.5098 133.105 69.9443 132.636 70.335C132.177 70.7256 131.625 71.0381 130.981 71.2725C130.346 71.4971 129.594 71.6094 128.725 71.6094ZM129.106 69.5879C130.824 69.5879 132.04 69.0996 132.753 68.123C133.466 67.1465 133.822 65.6963 133.822 63.7725V63.333C133.822 61.292 133.481 59.7246 132.797 58.6309C132.123 57.5371 130.893 56.9902 129.106 56.9902C127.612 56.9902 126.493 57.5664 125.751 58.7188C125.009 59.8613 124.638 61.4238 124.638 63.4062C124.638 65.3789 125.004 66.9023 125.737 67.9766C126.479 69.0508 127.602 69.5879 129.106 69.5879ZM143.213 55.2617V71.3164H140.781V55.2617H143.213ZM142.026 49.2559C142.427 49.2559 142.768 49.3877 143.052 49.6514C143.345 49.9053 143.491 50.3057 143.491 50.8525C143.491 51.3896 143.345 51.79 143.052 52.0537C142.768 52.3174 142.427 52.4492 142.026 52.4492C141.606 52.4492 141.255 52.3174 140.971 52.0537C140.698 51.79 140.561 51.3896 140.561 50.8525C140.561 50.3057 140.698 49.9053 140.971 49.6514C141.255 49.3877 141.606 49.2559 142.026 49.2559ZM153.775 54.998C155.689 54.998 157.11 55.4277 158.037 56.2871C158.965 57.1465 159.429 58.5186 159.429 60.4033V71.3164H157.657L157.188 68.9434H157.071C156.621 69.5293 156.153 70.0225 155.664 70.4229C155.176 70.8135 154.61 71.1113 153.965 71.3164C153.33 71.5117 152.549 71.6094 151.621 71.6094C150.645 71.6094 149.776 71.4385 149.014 71.0967C148.262 70.7549 147.666 70.2373 147.227 69.5439C146.797 68.8506 146.582 67.9717 146.582 66.9072C146.582 65.3057 147.217 64.0752 148.487 63.2158C149.756 62.3564 151.69 61.8877 154.287 61.8096L157.056 61.6924V60.7109C157.056 59.3242 156.758 58.3525 156.162 57.7959C155.567 57.2393 154.727 56.9609 153.643 56.9609C152.803 56.9609 152.002 57.083 151.241 57.3271C150.479 57.5713 149.756 57.8594 149.073 58.1914L148.326 56.3457C149.048 55.9746 149.878 55.6572 150.816 55.3936C151.753 55.1299 152.74 54.998 153.775 54.998ZM157.027 63.4062L154.58 63.5088C152.579 63.5869 151.167 63.9141 150.347 64.4902C149.527 65.0664 149.117 65.8818 149.117 66.9365C149.117 67.8545 149.395 68.5332 149.952 68.9727C150.508 69.4121 151.246 69.6318 152.163 69.6318C153.589 69.6318 154.756 69.2363 155.664 68.4453C156.573 67.6543 157.027 66.4678 157.027 64.8857V63.4062ZM171.441 54.9688C173.346 54.9688 174.786 55.4375 175.763 56.375C176.739 57.3027 177.228 58.7969 177.228 60.8574V71.3164H174.825V61.0186C174.825 59.6807 174.518 58.6797 173.902 58.0156C173.297 57.3516 172.364 57.0195 171.104 57.0195C169.327 57.0195 168.077 57.5225 167.354 58.5283C166.632 59.5342 166.271 60.9941 166.271 62.9082V71.3164H163.839V55.2617H165.802L166.168 57.5762H166.3C166.642 57.0098 167.076 56.5361 167.604 56.1553C168.131 55.7646 168.722 55.4717 169.376 55.2764C170.03 55.0713 170.719 54.9688 171.441 54.9688ZM189.196 71.3164V49.9004H191.687V71.3164H189.196ZM204.212 54.9688C206.116 54.9688 207.556 55.4375 208.533 56.375C209.51 57.3027 209.998 58.7969 209.998 60.8574V71.3164H207.596V61.0186C207.596 59.6807 207.288 58.6797 206.673 58.0156C206.067 57.3516 205.135 57.0195 203.875 57.0195C202.097 57.0195 200.847 57.5225 200.125 58.5283C199.402 59.5342 199.041 60.9941 199.041 62.9082V71.3164H196.609V55.2617H198.572L198.938 57.5762H199.07C199.412 57.0098 199.846 56.5361 200.374 56.1553C200.901 55.7646 201.492 55.4717 202.146 55.2764C202.801 55.0713 203.489 54.9688 204.212 54.9688ZM224.793 66.9219C224.793 67.9473 224.535 68.8115 224.017 69.5146C223.509 70.208 222.777 70.7305 221.82 71.082C220.872 71.4336 219.74 71.6094 218.421 71.6094C217.298 71.6094 216.327 71.5215 215.506 71.3457C214.686 71.1699 213.968 70.9209 213.353 70.5986V68.3574C214.007 68.6797 214.788 68.9727 215.697 69.2363C216.605 69.5 217.533 69.6318 218.48 69.6318C219.867 69.6318 220.872 69.4072 221.497 68.958C222.122 68.5088 222.435 67.8984 222.435 67.127C222.435 66.6875 222.308 66.3018 222.054 65.9697C221.81 65.6279 221.395 65.3008 220.809 64.9883C220.223 64.666 219.412 64.3145 218.377 63.9336C217.352 63.543 216.463 63.1572 215.711 62.7764C214.969 62.3857 214.393 61.9121 213.983 61.3555C213.582 60.7988 213.382 60.0762 213.382 59.1875C213.382 57.8301 213.929 56.79 215.023 56.0674C216.126 55.335 217.572 54.9688 219.359 54.9688C220.326 54.9688 221.229 55.0664 222.069 55.2617C222.918 55.4473 223.709 55.7012 224.442 56.0234L223.621 57.9717C222.957 57.6885 222.249 57.4492 221.497 57.2539C220.746 57.0586 219.979 56.9609 219.198 56.9609C218.075 56.9609 217.21 57.1465 216.605 57.5176C216.009 57.8887 215.711 58.3965 215.711 59.041C215.711 59.5391 215.848 59.9492 216.121 60.2715C216.405 60.5938 216.854 60.8965 217.469 61.1797C218.084 61.4629 218.895 61.7949 219.901 62.1758C220.907 62.5469 221.776 62.9326 222.508 63.333C223.241 63.7236 223.802 64.2021 224.193 64.7686C224.593 65.3252 224.793 66.043 224.793 66.9219ZM233.29 69.6172C233.69 69.6172 234.101 69.583 234.521 69.5146C234.94 69.4463 235.282 69.3633 235.546 69.2656V71.1553C235.263 71.2822 234.867 71.3896 234.359 71.4775C233.861 71.5654 233.373 71.6094 232.895 71.6094C232.045 71.6094 231.273 71.4629 230.58 71.1699C229.887 70.8672 229.33 70.3594 228.91 69.6465C228.5 68.9336 228.295 67.9473 228.295 66.6875V57.166H226.01V55.9795L228.31 55.0273L229.276 51.541H230.741V55.2617H235.443V57.166H230.741V66.6143C230.741 67.6201 230.971 68.3721 231.43 68.8701C231.898 69.3682 232.519 69.6172 233.29 69.6172ZM240.629 55.2617V71.3164H238.198V55.2617H240.629ZM239.443 49.2559C239.843 49.2559 240.185 49.3877 240.468 49.6514C240.761 49.9053 240.908 50.3057 240.908 50.8525C240.908 51.3896 240.761 51.79 240.468 52.0537C240.185 52.3174 239.843 52.4492 239.443 52.4492C239.023 52.4492 238.671 52.3174 238.388 52.0537C238.115 51.79 237.978 51.3896 237.978 50.8525C237.978 50.3057 238.115 49.9053 238.388 49.6514C238.671 49.3877 239.023 49.2559 239.443 49.2559ZM250.371 69.6172C250.772 69.6172 251.182 69.583 251.602 69.5146C252.022 69.4463 252.363 69.3633 252.627 69.2656V71.1553C252.344 71.2822 251.948 71.3896 251.441 71.4775C250.943 71.5654 250.454 71.6094 249.976 71.6094C249.126 71.6094 248.355 71.4629 247.661 71.1699C246.968 70.8672 246.411 70.3594 245.991 69.6465C245.581 68.9336 245.376 67.9473 245.376 66.6875V57.166H243.091V55.9795L245.391 55.0273L246.358 51.541H247.822V55.2617H252.525V57.166H247.822V66.6143C247.822 67.6201 248.052 68.3721 248.511 68.8701C248.98 69.3682 249.6 69.6172 250.371 69.6172ZM268.536 55.2617V71.3164H266.544L266.192 69.0605H266.06C265.728 69.6172 265.299 70.0859 264.771 70.4668C264.244 70.8477 263.648 71.1309 262.984 71.3164C262.33 71.5117 261.632 71.6094 260.889 71.6094C259.62 71.6094 258.555 71.4043 257.696 70.9941C256.837 70.584 256.187 69.9492 255.748 69.0898C255.318 68.2305 255.103 67.127 255.103 65.7793V55.2617H257.564V65.6035C257.564 66.9414 257.867 67.9424 258.472 68.6064C259.078 69.2607 260.001 69.5879 261.241 69.5879C262.432 69.5879 263.38 69.3633 264.083 68.9141C264.796 68.4648 265.308 67.8057 265.621 66.9365C265.933 66.0576 266.09 64.9834 266.09 63.7139V55.2617H268.536ZM278.263 69.6172C278.663 69.6172 279.074 69.583 279.494 69.5146C279.913 69.4463 280.255 69.3633 280.519 69.2656V71.1553C280.236 71.2822 279.84 71.3896 279.332 71.4775C278.834 71.5654 278.346 71.6094 277.868 71.6094C277.018 71.6094 276.246 71.4629 275.553 71.1699C274.86 70.8672 274.303 70.3594 273.883 69.6465C273.473 68.9336 273.268 67.9473 273.268 66.6875V57.166H270.983V55.9795L273.283 55.0273L274.249 51.541H275.714V55.2617H280.416V57.166H275.714V66.6143C275.714 67.6201 275.944 68.3721 276.403 68.8701C276.871 69.3682 277.492 69.6172 278.263 69.6172ZM289.353 54.9688C290.72 54.9688 291.892 55.2715 292.868 55.877C293.845 56.4824 294.592 57.332 295.109 58.4258C295.627 59.5098 295.886 60.7793 295.886 62.2344V63.7432H284.797C284.826 65.6279 285.295 67.0635 286.203 68.0498C287.111 69.0361 288.391 69.5293 290.041 69.5293C291.057 69.5293 291.955 69.4365 292.736 69.251C293.518 69.0654 294.328 68.792 295.168 68.4307V70.5693C294.357 70.9307 293.552 71.1943 292.751 71.3604C291.96 71.5264 291.022 71.6094 289.938 71.6094C288.396 71.6094 287.048 71.2969 285.896 70.6719C284.753 70.0371 283.864 69.1094 283.229 67.8887C282.595 66.668 282.277 65.1738 282.277 63.4062C282.277 61.6777 282.565 60.1836 283.142 58.9238C283.728 57.6543 284.548 56.6777 285.603 55.9941C286.667 55.3105 287.917 54.9688 289.353 54.9688ZM289.323 56.9609C288.024 56.9609 286.989 57.3857 286.218 58.2354C285.446 59.085 284.987 60.2715 284.841 61.7949H293.337C293.327 60.8379 293.176 59.998 292.883 59.2754C292.6 58.543 292.165 57.9766 291.579 57.5762C290.993 57.166 290.241 56.9609 289.323 56.9609ZM320.452 63.2598C320.452 64.5781 320.281 65.7549 319.94 66.79C319.598 67.8252 319.105 68.6992 318.46 69.4121C317.816 70.125 317.034 70.6719 316.116 71.0527C315.208 71.4238 314.178 71.6094 313.026 71.6094C311.951 71.6094 310.965 71.4238 310.067 71.0527C309.178 70.6719 308.406 70.125 307.752 69.4121C307.108 68.6992 306.605 67.8252 306.243 66.79C305.892 65.7549 305.716 64.5781 305.716 63.2598C305.716 61.502 306.014 60.0078 306.61 58.7773C307.205 57.5371 308.055 56.5947 309.158 55.9502C310.272 55.2959 311.595 54.9688 313.128 54.9688C314.593 54.9688 315.872 55.2959 316.966 55.9502C318.07 56.6045 318.924 57.5518 319.529 58.792C320.145 60.0225 320.452 61.5117 320.452 63.2598ZM308.236 63.2598C308.236 64.5488 308.406 65.667 308.748 66.6143C309.09 67.5615 309.617 68.2939 310.33 68.8115C311.043 69.3291 311.961 69.5879 313.084 69.5879C314.197 69.5879 315.111 69.3291 315.823 68.8115C316.546 68.2939 317.078 67.5615 317.42 66.6143C317.762 65.667 317.933 64.5488 317.933 63.2598C317.933 61.9805 317.762 60.877 317.42 59.9492C317.078 59.0117 316.551 58.2891 315.838 57.7812C315.125 57.2734 314.202 57.0195 313.07 57.0195C311.4 57.0195 310.174 57.5713 309.393 58.6748C308.621 59.7783 308.236 61.3066 308.236 63.2598ZM331.205 57.166H327.206V71.3164H324.774V57.166H321.932V55.9941L324.774 55.1885V54.1191C324.774 52.7715 324.974 51.6777 325.375 50.8379C325.775 49.9883 326.356 49.3633 327.118 48.9629C327.88 48.5625 328.807 48.3623 329.901 48.3623C330.516 48.3623 331.078 48.416 331.586 48.5234C332.103 48.6309 332.557 48.7529 332.948 48.8896L332.318 50.8086C331.986 50.7012 331.61 50.6035 331.19 50.5156C330.78 50.418 330.36 50.3691 329.93 50.3691C329.003 50.3691 328.314 50.6719 327.865 51.2773C327.426 51.873 327.206 52.8105 327.206 54.0898V55.2617H331.205V57.166ZM347.7 71.3164H345.195V52.0977H338.457V49.9004H354.409V52.0977H347.7V71.3164ZM362.862 54.9688C364.229 54.9688 365.401 55.2715 366.378 55.877C367.354 56.4824 368.101 57.332 368.619 58.4258C369.136 59.5098 369.395 60.7793 369.395 62.2344V63.7432H358.306C358.336 65.6279 358.804 67.0635 359.712 68.0498C360.621 69.0361 361.9 69.5293 363.55 69.5293C364.566 69.5293 365.464 69.4365 366.246 69.251C367.027 69.0654 367.837 68.792 368.677 68.4307V70.5693C367.867 70.9307 367.061 71.1943 366.26 71.3604C365.469 71.5264 364.532 71.6094 363.448 71.6094C361.905 71.6094 360.557 71.2969 359.405 70.6719C358.262 70.0371 357.374 69.1094 356.739 67.8887C356.104 66.668 355.787 65.1738 355.787 63.4062C355.787 61.6777 356.075 60.1836 356.651 58.9238C357.237 57.6543 358.057 56.6777 359.112 55.9941C360.176 55.3105 361.426 54.9688 362.862 54.9688ZM362.833 56.9609C361.534 56.9609 360.499 57.3857 359.727 58.2354C358.956 59.085 358.497 60.2715 358.35 61.7949H366.846C366.837 60.8379 366.685 59.998 366.392 59.2754C366.109 58.543 365.674 57.9766 365.088 57.5762C364.503 57.166 363.751 56.9609 362.833 56.9609ZM379.357 71.6094C377.911 71.6094 376.637 71.3115 375.533 70.7158C374.43 70.1201 373.57 69.2119 372.955 67.9912C372.34 66.7705 372.032 65.2324 372.032 63.377C372.032 61.4336 372.355 59.8467 372.999 58.6162C373.654 57.376 374.552 56.458 375.695 55.8623C376.837 55.2666 378.136 54.9688 379.591 54.9688C380.392 54.9688 381.163 55.0518 381.905 55.2178C382.657 55.374 383.273 55.5742 383.751 55.8184L383.019 57.8545C382.53 57.6592 381.964 57.4834 381.32 57.3271C380.685 57.1709 380.089 57.0928 379.532 57.0928C378.419 57.0928 377.491 57.332 376.749 57.8105C376.017 58.2891 375.465 58.9922 375.094 59.9199C374.733 60.8477 374.552 61.9902 374.552 63.3477C374.552 64.6465 374.728 65.7549 375.079 66.6729C375.441 67.5908 375.973 68.2939 376.676 68.7822C377.389 69.2607 378.278 69.5 379.342 69.5C380.192 69.5 380.958 69.4121 381.642 69.2363C382.325 69.0508 382.945 68.8359 383.502 68.5918V70.7598C382.965 71.0332 382.364 71.2432 381.7 71.3896C381.046 71.5361 380.265 71.6094 379.357 71.6094ZM389.142 48.5234V55.335C389.142 55.7256 389.133 56.1211 389.113 56.5215C389.094 56.9121 389.059 57.2734 389.011 57.6055H389.172C389.504 57.0391 389.924 56.5654 390.431 56.1846C390.949 55.7939 391.535 55.501 392.189 55.3057C392.844 55.1006 393.537 54.998 394.269 54.998C395.558 54.998 396.633 55.2031 397.492 55.6133C398.361 56.0234 399.011 56.6582 399.44 57.5176C399.88 58.377 400.099 59.4902 400.099 60.8574V71.3164H397.697V61.0186C397.697 59.6807 397.389 58.6797 396.774 58.0156C396.169 57.3516 395.236 57.0195 393.976 57.0195C392.785 57.0195 391.833 57.249 391.12 57.708C390.417 58.1572 389.909 58.8213 389.596 59.7002C389.294 60.5791 389.142 61.6533 389.142 62.9229V71.3164H386.711V48.5234H389.142ZM412.112 54.9688C414.016 54.9688 415.456 55.4375 416.433 56.375C417.41 57.3027 417.898 58.7969 417.898 60.8574V71.3164H415.496V61.0186C415.496 59.6807 415.188 58.6797 414.573 58.0156C413.967 57.3516 413.035 57.0195 411.775 57.0195C409.997 57.0195 408.747 57.5225 408.025 58.5283C407.302 59.5342 406.941 60.9941 406.941 62.9082V71.3164H404.509V55.2617H406.472L406.838 57.5762H406.97C407.312 57.0098 407.746 56.5361 408.274 56.1553C408.801 55.7646 409.392 55.4717 410.046 55.2764C410.701 55.0713 411.389 54.9688 412.112 54.9688ZM436.15 63.2598C436.15 64.5781 435.979 65.7549 435.638 66.79C435.296 67.8252 434.803 68.6992 434.158 69.4121C433.514 70.125 432.732 70.6719 431.814 71.0527C430.906 71.4238 429.876 71.6094 428.724 71.6094C427.649 71.6094 426.663 71.4238 425.765 71.0527C424.876 70.6719 424.104 70.125 423.45 69.4121C422.806 68.6992 422.303 67.8252 421.941 66.79C421.59 65.7549 421.414 64.5781 421.414 63.2598C421.414 61.502 421.712 60.0078 422.308 58.7773C422.903 57.5371 423.753 56.5947 424.856 55.9502C425.97 55.2959 427.293 54.9688 428.826 54.9688C430.291 54.9688 431.57 55.2959 432.664 55.9502C433.768 56.6045 434.622 57.5518 435.228 58.792C435.843 60.0225 436.15 61.5117 436.15 63.2598ZM423.934 63.2598C423.934 64.5488 424.104 65.667 424.446 66.6143C424.788 67.5615 425.315 68.2939 426.028 68.8115C426.741 69.3291 427.659 69.5879 428.782 69.5879C429.896 69.5879 430.809 69.3291 431.521 68.8115C432.244 68.2939 432.776 67.5615 433.118 66.6143C433.46 65.667 433.631 64.5488 433.631 63.2598C433.631 61.9805 433.46 60.877 433.118 59.9492C432.776 59.0117 432.249 58.2891 431.536 57.7812C430.823 57.2734 429.9 57.0195 428.768 57.0195C427.098 57.0195 425.872 57.5713 425.091 58.6748C424.319 59.7783 423.934 61.3066 423.934 63.2598ZM442.201 71.3164H439.754V48.5234H442.201V71.3164ZM460.585 63.2598C460.585 64.5781 460.414 65.7549 460.072 66.79C459.731 67.8252 459.237 68.6992 458.593 69.4121C457.948 70.125 457.167 70.6719 456.249 71.0527C455.341 71.4238 454.311 71.6094 453.158 71.6094C452.084 71.6094 451.098 71.4238 450.199 71.0527C449.311 70.6719 448.539 70.125 447.885 69.4121C447.24 68.6992 446.737 67.8252 446.376 66.79C446.025 65.7549 445.849 64.5781 445.849 63.2598C445.849 61.502 446.147 60.0078 446.742 58.7773C447.338 57.5371 448.188 56.5947 449.291 55.9502C450.404 55.2959 451.728 54.9688 453.261 54.9688C454.726 54.9688 456.005 55.2959 457.099 55.9502C458.202 56.6045 459.057 57.5518 459.662 58.792C460.278 60.0225 460.585 61.5117 460.585 63.2598ZM448.368 63.2598C448.368 64.5488 448.539 65.667 448.881 66.6143C449.223 67.5615 449.75 68.2939 450.463 68.8115C451.176 69.3291 452.094 69.5879 453.217 69.5879C454.33 69.5879 455.243 69.3291 455.956 68.8115C456.679 68.2939 457.211 67.5615 457.553 66.6143C457.895 65.667 458.066 64.5488 458.066 63.2598C458.066 61.9805 457.895 60.877 457.553 59.9492C457.211 59.0117 456.684 58.2891 455.971 57.7812C455.258 57.2734 454.335 57.0195 453.202 57.0195C451.532 57.0195 450.307 57.5713 449.526 58.6748C448.754 59.7783 448.368 61.3066 448.368 63.2598ZM468.672 78.5234C466.562 78.5234 464.936 78.1279 463.794 77.3369C462.651 76.5557 462.08 75.457 462.08 74.041C462.08 73.0352 462.397 72.1758 463.032 71.4629C463.677 70.75 464.565 70.2764 465.698 70.042C465.278 69.8467 464.917 69.5537 464.614 69.1631C464.321 68.7725 464.175 68.3232 464.175 67.8154C464.175 67.2295 464.336 66.7168 464.658 66.2773C464.99 65.8281 465.493 65.3984 466.167 64.9883C465.327 64.6465 464.643 64.0703 464.116 63.2598C463.598 62.4395 463.34 61.4873 463.34 60.4033C463.34 59.251 463.579 58.2695 464.057 57.459C464.536 56.6387 465.229 56.0137 466.138 55.584C467.046 55.1543 468.144 54.9395 469.433 54.9395C469.717 54.9395 470 54.9541 470.283 54.9834C470.576 55.0029 470.854 55.0371 471.118 55.0859C471.382 55.125 471.611 55.1738 471.806 55.2324H477.314V56.7998L474.355 57.166C474.648 57.5469 474.892 58.0059 475.088 58.543C475.283 59.0801 475.381 59.6758 475.381 60.3301C475.381 61.9316 474.839 63.2061 473.755 64.1533C472.671 65.0908 471.181 65.5596 469.287 65.5596C468.838 65.5596 468.379 65.5205 467.91 65.4424C467.431 65.7061 467.065 65.999 466.811 66.3213C466.567 66.6436 466.445 67.0146 466.445 67.4346C466.445 67.7471 466.538 67.9961 466.723 68.1816C466.919 68.3672 467.197 68.5039 467.558 68.5918C467.92 68.6699 468.354 68.709 468.862 68.709H471.689C473.437 68.709 474.775 69.0752 475.703 69.8076C476.64 70.54 477.109 71.6094 477.109 73.0156C477.109 74.793 476.387 76.1553 474.941 77.1025C473.496 78.0498 471.406 78.5234 468.672 78.5234ZM468.745 76.6191C470.073 76.6191 471.172 76.4824 472.041 76.209C472.92 75.9453 473.574 75.5596 474.004 75.0518C474.443 74.5537 474.663 73.958 474.663 73.2646C474.663 72.6201 474.516 72.1318 474.223 71.7998C473.93 71.4775 473.501 71.2627 472.934 71.1553C472.368 71.0381 471.675 70.9795 470.854 70.9795H468.071C467.348 70.9795 466.719 71.0918 466.181 71.3164C465.644 71.541 465.229 71.873 464.936 72.3125C464.653 72.752 464.512 73.2988 464.512 73.9531C464.512 74.8223 464.878 75.4814 465.61 75.9307C466.343 76.3896 467.388 76.6191 468.745 76.6191ZM469.375 63.7871C470.537 63.7871 471.411 63.4941 471.997 62.9082C472.583 62.3223 472.876 61.4678 472.876 60.3447C472.876 59.1436 472.578 58.2451 471.982 57.6494C471.387 57.0439 470.508 56.7412 469.346 56.7412C468.232 56.7412 467.373 57.0537 466.767 57.6787C466.172 58.2939 465.874 59.1973 465.874 60.3887C465.874 61.4824 466.177 62.3223 466.782 62.9082C467.388 63.4941 468.252 63.7871 469.375 63.7871ZM477.344 55.2617H479.952L483.496 64.5781C483.702 65.125 483.892 65.6523 484.068 66.1602C484.244 66.6582 484.4 67.1367 484.537 67.5957C484.673 68.0547 484.781 68.499 484.859 68.9287H484.961C485.098 68.4404 485.293 67.8008 485.547 67.0098C485.801 66.209 486.075 65.3936 486.368 64.5635L489.722 55.2617H492.344L485.357 73.6748C484.986 74.6611 484.551 75.5205 484.053 76.2529C483.565 76.9854 482.969 77.5469 482.266 77.9375C481.563 78.3379 480.713 78.5381 479.717 78.5381C479.258 78.5381 478.853 78.5088 478.501 78.4502C478.15 78.4014 477.847 78.3428 477.593 78.2744V76.3262C477.808 76.375 478.067 76.4189 478.37 76.458C478.682 76.4971 479.004 76.5166 479.336 76.5166C479.942 76.5166 480.464 76.3994 480.904 76.165C481.353 75.9404 481.739 75.6084 482.061 75.1689C482.383 74.7295 482.662 74.207 482.896 73.6016L483.775 71.3457L477.344 55.2617ZM497.091 67.8301L497.281 68.167C497.105 68.8799 496.881 69.6416 496.607 70.4521C496.344 71.2627 496.051 72.0732 495.729 72.8838C495.416 73.7041 495.099 74.4707 494.776 75.1836H492.96C493.165 74.4023 493.365 73.5771 493.561 72.708C493.756 71.8486 493.932 70.999 494.088 70.1592C494.254 69.3096 494.386 68.5332 494.483 67.8301H497.091ZM514.817 49.9004C516.574 49.9004 518.025 50.1201 519.167 50.5596C520.32 50.9893 521.179 51.6484 521.745 52.5371C522.312 53.4258 522.595 54.5586 522.595 55.9355C522.595 57.0684 522.39 58.0156 521.98 58.7773C521.57 59.5293 521.032 60.1396 520.368 60.6084C519.704 61.0771 518.996 61.4385 518.244 61.6924L524.118 71.3164H521.218L515.974 62.3809H511.521V71.3164H509.03V49.9004H514.817ZM514.67 52.0537H511.521V60.2715H514.919C516.667 60.2715 517.951 59.915 518.772 59.2021C519.602 58.4893 520.017 57.4395 520.017 56.0527C520.017 54.5977 519.577 53.5674 518.698 52.9619C517.829 52.3564 516.487 52.0537 514.67 52.0537ZM540.423 63.2598C540.423 64.5781 540.252 65.7549 539.91 66.79C539.568 67.8252 539.075 68.6992 538.43 69.4121C537.786 70.125 537.005 70.6719 536.087 71.0527C535.179 71.4238 534.148 71.6094 532.996 71.6094C531.922 71.6094 530.935 71.4238 530.037 71.0527C529.148 70.6719 528.377 70.125 527.722 69.4121C527.078 68.6992 526.575 67.8252 526.214 66.79C525.862 65.7549 525.686 64.5781 525.686 63.2598C525.686 61.502 525.984 60.0078 526.58 58.7773C527.176 57.5371 528.025 56.5947 529.129 55.9502C530.242 55.2959 531.565 54.9688 533.098 54.9688C534.563 54.9688 535.843 55.2959 536.936 55.9502C538.04 56.6045 538.894 57.5518 539.5 58.792C540.115 60.0225 540.423 61.5117 540.423 63.2598ZM528.206 63.2598C528.206 64.5488 528.377 65.667 528.719 66.6143C529.06 67.5615 529.588 68.2939 530.301 68.8115C531.013 69.3291 531.931 69.5879 533.055 69.5879C534.168 69.5879 535.081 69.3291 535.794 68.8115C536.516 68.2939 537.049 67.5615 537.39 66.6143C537.732 65.667 537.903 64.5488 537.903 63.2598C537.903 61.9805 537.732 60.877 537.39 59.9492C537.049 59.0117 536.521 58.2891 535.808 57.7812C535.096 57.2734 534.173 57.0195 533.04 57.0195C531.37 57.0195 530.144 57.5713 529.363 58.6748C528.592 59.7783 528.206 61.3066 528.206 63.2598ZM551.571 54.9688C553.573 54.9688 555.169 55.6572 556.361 57.0342C557.552 58.4111 558.148 60.4814 558.148 63.2451C558.148 65.0713 557.874 66.6045 557.328 67.8447C556.781 69.085 556.009 70.0225 555.013 70.6572C554.027 71.292 552.86 71.6094 551.512 71.6094C550.663 71.6094 549.915 71.4971 549.271 71.2725C548.626 71.0479 548.075 70.7451 547.616 70.3643C547.157 69.9834 546.776 69.5684 546.473 69.1191H546.297C546.327 69.5 546.361 69.959 546.4 70.4961C546.449 71.0332 546.473 71.502 546.473 71.9023V78.4941H544.027V55.2617H546.034L546.356 57.6348H546.473C546.786 57.1465 547.166 56.7021 547.616 56.3018C548.065 55.8916 548.612 55.5693 549.256 55.335C549.911 55.0908 550.682 54.9688 551.571 54.9688ZM551.146 57.0195C550.033 57.0195 549.134 57.2344 548.451 57.6641C547.777 58.0938 547.284 58.7383 546.971 59.5977C546.659 60.4473 546.493 61.5166 546.473 62.8057V63.2744C546.473 64.6318 546.62 65.7793 546.913 66.7168C547.215 67.6543 547.708 68.3672 548.392 68.8555C549.085 69.3438 550.013 69.5879 551.175 69.5879C552.171 69.5879 553.001 69.3193 553.665 68.7822C554.329 68.2451 554.823 67.498 555.145 66.541C555.477 65.5742 555.643 64.4658 555.643 63.2158C555.643 61.3213 555.272 59.8174 554.53 58.7041C553.797 57.5811 552.669 57.0195 551.146 57.0195ZM567.802 54.998C569.716 54.998 571.137 55.4277 572.064 56.2871C572.992 57.1465 573.456 58.5186 573.456 60.4033V71.3164H571.684L571.215 68.9434H571.098C570.648 69.5293 570.18 70.0225 569.691 70.4229C569.203 70.8135 568.637 71.1113 567.992 71.3164C567.357 71.5117 566.576 71.6094 565.648 71.6094C564.672 71.6094 563.803 71.4385 563.041 71.0967C562.289 70.7549 561.693 70.2373 561.254 69.5439C560.824 68.8506 560.609 67.9717 560.609 66.9072C560.609 65.3057 561.244 64.0752 562.514 63.2158C563.783 62.3564 565.717 61.8877 568.314 61.8096L571.083 61.6924V60.7109C571.083 59.3242 570.785 58.3525 570.189 57.7959C569.594 57.2393 568.754 56.9609 567.67 56.9609C566.83 56.9609 566.029 57.083 565.268 57.3271C564.506 57.5713 563.783 57.8594 563.1 58.1914L562.353 56.3457C563.075 55.9746 563.905 55.6572 564.843 55.3936C565.78 55.1299 566.767 54.998 567.802 54.998ZM571.054 63.4062L568.607 63.5088C566.605 63.5869 565.194 63.9141 564.374 64.4902C563.554 65.0664 563.144 65.8818 563.144 66.9365C563.144 67.8545 563.422 68.5332 563.979 68.9727C564.535 69.4121 565.272 69.6318 566.19 69.6318C567.616 69.6318 568.783 69.2363 569.691 68.4453C570.6 67.6543 571.054 66.4678 571.054 64.8857V63.4062ZM585.161 54.9688C585.483 54.9688 585.82 54.9883 586.171 55.0273C586.523 55.0566 586.836 55.1006 587.109 55.1592L586.801 57.415C586.538 57.3467 586.245 57.293 585.922 57.2539C585.6 57.2148 585.297 57.1953 585.014 57.1953C584.37 57.1953 583.759 57.3271 583.183 57.5908C582.617 57.8447 582.119 58.2158 581.689 58.7041C581.259 59.1826 580.922 59.7637 580.678 60.4473C580.434 61.1211 580.312 61.873 580.312 62.7031V71.3164H577.866V55.2617H579.887L580.151 58.2207H580.254C580.586 57.625 580.986 57.083 581.455 56.5947C581.923 56.0967 582.465 55.7012 583.081 55.4082C583.706 55.1152 584.399 54.9688 585.161 54.9688Z" fill="black" fill-opacity="0.6"/>
</svg>
