<svg width="710" height="77" viewBox="0 0 710 77" fill="none" xmlns="http://www.w3.org/2000/svg">
<rect width="370.009" height="76.6333" transform="translate(169.863)" fill="white"/>
<line x1="6.12796" y1="-6.12796" x2="31.9279" y2="-6.12796" transform="matrix(0.849972 -0.526828 0.620393 0.784291 177.758 46.0073)" stroke="#DB4437" stroke-width="12.2559" stroke-linecap="round"/>
<line x1="6.12796" y1="-6.12796" x2="31.9094" y2="-6.12796" transform="matrix(-0.84773 0.530428 -0.623996 -0.781427 241.602 31.3047)" stroke="#F4B400" stroke-width="12.2559" stroke-linecap="round"/>
<line x1="6.12796" y1="-6.12796" x2="31.9279" y2="-6.12796" transform="matrix(0.849972 0.526828 -0.620393 0.784291 169.863 39.7437)" stroke="#4285F4" stroke-width="12.2559" stroke-linecap="round"/>
<line x1="6.12796" y1="-6.12796" x2="31.9279" y2="-6.12796" transform="matrix(-0.849972 -0.526828 0.620393 -0.784291 249.871 36.8901)" stroke="#0F9D58" stroke-width="12.2559" stroke-linecap="round"/>
<path d="M279.984 39.3555H289.965V53.2031C288.467 53.7109 286.924 54.0885 285.336 54.3359C283.76 54.5833 281.996 54.707 280.043 54.707C277.074 54.707 274.568 54.1146 272.523 52.9297C270.492 51.7448 268.949 50.0586 267.895 47.8711C266.84 45.6706 266.312 43.0599 266.312 40.0391C266.312 37.0833 266.892 34.5052 268.051 32.3047C269.223 30.1042 270.909 28.3984 273.109 27.1875C275.323 25.9635 277.979 25.3516 281.078 25.3516C282.667 25.3516 284.171 25.5013 285.59 25.8008C287.022 26.0872 288.35 26.4974 289.574 27.0312L288.305 29.9219C287.25 29.4661 286.085 29.0755 284.809 28.75C283.546 28.4245 282.237 28.2617 280.883 28.2617C278.552 28.2617 276.553 28.7435 274.887 29.707C273.233 30.6706 271.964 32.0312 271.078 33.7891C270.206 35.5469 269.77 37.6302 269.77 40.0391C269.77 42.4219 270.154 44.4987 270.922 46.2695C271.69 48.0273 272.888 49.3945 274.516 50.3711C276.143 51.3477 278.24 51.8359 280.805 51.8359C282.094 51.8359 283.201 51.7643 284.125 51.6211C285.049 51.4648 285.889 51.2826 286.645 51.0742V42.3242H279.984V39.3555ZM319.555 39.7656C319.555 42.9818 318.969 45.6706 317.797 47.832C316.625 49.9805 314.926 51.6016 312.699 52.6953C310.486 53.776 307.797 54.3164 304.633 54.3164H296.879V25.7617H305.492C308.396 25.7617 310.896 26.2956 312.992 27.3633C315.089 28.418 316.703 29.987 317.836 32.0703C318.982 34.1406 319.555 36.7057 319.555 39.7656ZM316.059 39.8828C316.059 37.3177 315.629 35.2018 314.77 33.5352C313.923 31.8685 312.673 30.6315 311.02 29.8242C309.379 29.0039 307.367 28.5938 304.984 28.5938H300.199V51.4648H304.242C308.174 51.4648 311.124 50.4948 313.09 48.5547C315.069 46.6146 316.059 43.724 316.059 39.8828ZM338.109 39.3555H348.09V53.2031C346.592 53.7109 345.049 54.0885 343.461 54.3359C341.885 54.5833 340.121 54.707 338.168 54.707C335.199 54.707 332.693 54.1146 330.648 52.9297C328.617 51.7448 327.074 50.0586 326.02 47.8711C324.965 45.6706 324.438 43.0599 324.438 40.0391C324.438 37.0833 325.017 34.5052 326.176 32.3047C327.348 30.1042 329.034 28.3984 331.234 27.1875C333.448 25.9635 336.104 25.3516 339.203 25.3516C340.792 25.3516 342.296 25.5013 343.715 25.8008C345.147 26.0872 346.475 26.4974 347.699 27.0312L346.43 29.9219C345.375 29.4661 344.21 29.0755 342.934 28.75C341.671 28.4245 340.362 28.2617 339.008 28.2617C336.677 28.2617 334.678 28.7435 333.012 29.707C331.358 30.6706 330.089 32.0312 329.203 33.7891C328.331 35.5469 327.895 37.6302 327.895 40.0391C327.895 42.4219 328.279 44.4987 329.047 46.2695C329.815 48.0273 331.013 49.3945 332.641 50.3711C334.268 51.3477 336.365 51.8359 338.93 51.8359C340.219 51.8359 341.326 51.7643 342.25 51.6211C343.174 51.4648 344.014 51.2826 344.77 51.0742V42.3242H338.109V39.3555ZM361.273 61.8359C360.622 61.8359 360.049 61.7904 359.555 61.6992C359.06 61.6081 358.637 61.4844 358.285 61.3281V58.4961C358.702 58.6263 359.151 58.724 359.633 58.7891C360.115 58.8672 360.635 58.9062 361.195 58.9062C361.924 58.9062 362.595 58.763 363.207 58.4766C363.819 58.1901 364.307 57.7018 364.672 57.0117C365.036 56.3216 365.219 55.3711 365.219 54.1602V25.7617H368.559V53.9062C368.559 55.6901 368.259 57.168 367.66 58.3398C367.074 59.5117 366.234 60.3841 365.141 60.957C364.06 61.543 362.771 61.8359 361.273 61.8359ZM383.656 32.5586C386.208 32.5586 388.103 33.1315 389.34 34.2773C390.577 35.4232 391.195 37.2526 391.195 39.7656V54.3164H388.832L388.207 51.1523H388.051C387.452 51.9336 386.827 52.5911 386.176 53.125C385.525 53.6458 384.77 54.043 383.91 54.3164C383.064 54.5768 382.022 54.707 380.785 54.707C379.483 54.707 378.324 54.4792 377.309 54.0234C376.306 53.5677 375.512 52.8776 374.926 51.9531C374.353 51.0286 374.066 49.8568 374.066 48.4375C374.066 46.3021 374.913 44.6615 376.605 43.5156C378.298 42.3698 380.876 41.7448 384.34 41.6406L388.031 41.4844V40.1758C388.031 38.3268 387.634 37.0312 386.84 36.2891C386.046 35.5469 384.926 35.1758 383.48 35.1758C382.361 35.1758 381.293 35.3385 380.277 35.6641C379.262 35.9896 378.298 36.3737 377.387 36.8164L376.391 34.3555C377.354 33.8607 378.461 33.4375 379.711 33.0859C380.961 32.7344 382.276 32.5586 383.656 32.5586ZM387.992 43.7695L384.73 43.9062C382.061 44.0104 380.18 44.4466 379.086 45.2148C377.992 45.9831 377.445 47.0703 377.445 48.4766C377.445 49.7005 377.816 50.6055 378.559 51.1914C379.301 51.7773 380.284 52.0703 381.508 52.0703C383.409 52.0703 384.965 51.543 386.176 50.4883C387.387 49.4336 387.992 47.8516 387.992 45.7422V43.7695ZM401.137 54.3164H397.875V23.9258H401.137V54.3164ZM416 32.5586C418.552 32.5586 420.447 33.1315 421.684 34.2773C422.921 35.4232 423.539 37.2526 423.539 39.7656V54.3164H421.176L420.551 51.1523H420.395C419.796 51.9336 419.171 52.5911 418.52 53.125C417.868 53.6458 417.113 54.043 416.254 54.3164C415.408 54.5768 414.366 54.707 413.129 54.707C411.827 54.707 410.668 54.4792 409.652 54.0234C408.65 53.5677 407.855 52.8776 407.27 51.9531C406.697 51.0286 406.41 49.8568 406.41 48.4375C406.41 46.3021 407.257 44.6615 408.949 43.5156C410.642 42.3698 413.22 41.7448 416.684 41.6406L420.375 41.4844V40.1758C420.375 38.3268 419.978 37.0312 419.184 36.2891C418.389 35.5469 417.27 35.1758 415.824 35.1758C414.704 35.1758 413.637 35.3385 412.621 35.6641C411.605 35.9896 410.642 36.3737 409.73 36.8164L408.734 34.3555C409.698 33.8607 410.805 33.4375 412.055 33.0859C413.305 32.7344 414.62 32.5586 416 32.5586ZM420.336 43.7695L417.074 43.9062C414.405 44.0104 412.523 44.4466 411.43 45.2148C410.336 45.9831 409.789 47.0703 409.789 48.4766C409.789 49.7005 410.16 50.6055 410.902 51.1914C411.645 51.7773 412.628 52.0703 413.852 52.0703C415.753 52.0703 417.309 51.543 418.52 50.4883C419.73 49.4336 420.336 47.8516 420.336 45.7422V43.7695ZM440.355 32.5195C442.895 32.5195 444.815 33.1445 446.117 34.3945C447.419 35.6315 448.07 37.6237 448.07 40.3711V54.3164H444.867V40.5859C444.867 38.8021 444.457 37.4674 443.637 36.582C442.829 35.6966 441.586 35.2539 439.906 35.2539C437.536 35.2539 435.87 35.9245 434.906 37.2656C433.943 38.6068 433.461 40.5534 433.461 43.1055V54.3164H430.219V32.9102H432.836L433.324 35.9961H433.5C433.956 35.2409 434.535 34.6094 435.238 34.1016C435.941 33.5807 436.729 33.1901 437.602 32.9297C438.474 32.6562 439.392 32.5195 440.355 32.5195ZM462.367 54.707C459.659 54.707 457.51 53.7826 455.922 51.9336C454.346 50.0846 453.559 47.3372 453.559 43.6914C453.559 40.0065 454.366 37.2266 455.98 35.3516C457.595 33.4635 459.743 32.5195 462.426 32.5195C463.559 32.5195 464.548 32.6693 465.395 32.9688C466.241 33.2682 466.97 33.6719 467.582 34.1797C468.194 34.6745 468.708 35.2409 469.125 35.8789H469.359C469.307 35.4753 469.255 34.9219 469.203 34.2188C469.151 33.5156 469.125 32.9427 469.125 32.5V23.9258H472.367V54.3164H469.75L469.262 51.2695H469.125C468.721 51.9076 468.207 52.487 467.582 53.0078C466.97 53.5286 466.234 53.9453 465.375 54.2578C464.529 54.5573 463.526 54.707 462.367 54.707ZM462.875 52.0117C465.167 52.0117 466.788 51.3607 467.738 50.0586C468.689 48.7565 469.164 46.8229 469.164 44.2578V43.6719C469.164 40.9505 468.708 38.8607 467.797 37.4023C466.898 35.944 465.258 35.2148 462.875 35.2148C460.883 35.2148 459.392 35.9831 458.402 37.5195C457.413 39.043 456.918 41.1263 456.918 43.7695C456.918 46.3997 457.406 48.431 458.383 49.8633C459.372 51.2956 460.87 52.0117 462.875 52.0117ZM482.484 23.9258V33.0078C482.484 33.5286 482.471 34.056 482.445 34.5898C482.419 35.1107 482.374 35.5924 482.309 36.0352H482.523C482.966 35.2799 483.526 34.6484 484.203 34.1406C484.893 33.6198 485.674 33.2292 486.547 32.9688C487.419 32.6953 488.344 32.5586 489.32 32.5586C491.039 32.5586 492.471 32.832 493.617 33.3789C494.776 33.9258 495.642 34.7721 496.215 35.918C496.801 37.0638 497.094 38.5482 497.094 40.3711V54.3164H493.891V40.5859C493.891 38.8021 493.48 37.4674 492.66 36.582C491.853 35.6966 490.609 35.2539 488.93 35.2539C487.341 35.2539 486.072 35.5599 485.121 36.1719C484.184 36.7708 483.507 37.6562 483.09 38.8281C482.686 40 482.484 41.4323 482.484 43.125V54.3164H479.242V23.9258H482.484ZM511.781 32.5586C514.333 32.5586 516.228 33.1315 517.465 34.2773C518.702 35.4232 519.32 37.2526 519.32 39.7656V54.3164H516.957L516.332 51.1523H516.176C515.577 51.9336 514.952 52.5911 514.301 53.125C513.65 53.6458 512.895 54.043 512.035 54.3164C511.189 54.5768 510.147 54.707 508.91 54.707C507.608 54.707 506.449 54.4792 505.434 54.0234C504.431 53.5677 503.637 52.8776 503.051 51.9531C502.478 51.0286 502.191 49.8568 502.191 48.4375C502.191 46.3021 503.038 44.6615 504.73 43.5156C506.423 42.3698 509.001 41.7448 512.465 41.6406L516.156 41.4844V40.1758C516.156 38.3268 515.759 37.0312 514.965 36.2891C514.171 35.5469 513.051 35.1758 511.605 35.1758C510.486 35.1758 509.418 35.3385 508.402 35.6641C507.387 35.9896 506.423 36.3737 505.512 36.8164L504.516 34.3555C505.479 33.8607 506.586 33.4375 507.836 33.0859C509.086 32.7344 510.401 32.5586 511.781 32.5586ZM516.117 43.7695L512.855 43.9062C510.186 44.0104 508.305 44.4466 507.211 45.2148C506.117 45.9831 505.57 47.0703 505.57 48.4766C505.57 49.7005 505.941 50.6055 506.684 51.1914C507.426 51.7773 508.409 52.0703 509.633 52.0703C511.534 52.0703 513.09 51.543 514.301 50.4883C515.512 49.4336 516.117 47.8516 516.117 45.7422V43.7695ZM535.727 32.5195C536.156 32.5195 536.605 32.5456 537.074 32.5977C537.543 32.6367 537.96 32.6953 538.324 32.7734L537.914 35.7812C537.562 35.6901 537.172 35.6185 536.742 35.5664C536.312 35.5143 535.909 35.4883 535.531 35.4883C534.672 35.4883 533.858 35.6641 533.09 36.0156C532.335 36.3542 531.671 36.849 531.098 37.5C530.525 38.138 530.076 38.9128 529.75 39.8242C529.424 40.7227 529.262 41.7253 529.262 42.832V54.3164H526V32.9102H528.695L529.047 36.8555H529.184C529.626 36.0612 530.16 35.3385 530.785 34.6875C531.41 34.0234 532.133 33.4961 532.953 33.1055C533.786 32.7148 534.711 32.5195 535.727 32.5195Z" fill="black" fill-opacity="0.6"/>
</svg>
