<svg width="719" height="78" viewBox="0 0 719 78" fill="none" xmlns="http://www.w3.org/2000/svg">
<rect width="718.009" height="76.6333" transform="translate(0.5 0.402832)" fill="white"/>
<line x1="6.12796" y1="-6.12796" x2="31.9279" y2="-6.12796" transform="matrix(0.849972 -0.526828 0.620393 0.784291 8.39453 46.4102)" stroke="#DB4437" stroke-width="12.2559" stroke-linecap="round"/>
<line x1="6.12796" y1="-6.12796" x2="31.9094" y2="-6.12796" transform="matrix(-0.84773 0.530428 -0.623996 -0.781427 72.2383 31.7075)" stroke="#F4B400" stroke-width="12.2559" stroke-linecap="round"/>
<line x1="6.12796" y1="-6.12796" x2="31.9279" y2="-6.12796" transform="matrix(0.849972 0.526828 -0.620393 0.784291 0.5 40.1465)" stroke="#4285F4" stroke-width="12.2559" stroke-linecap="round"/>
<line x1="6.12796" y1="-6.12796" x2="31.9279" y2="-6.12796" transform="matrix(-0.849972 -0.526828 0.620393 -0.784291 80.5078 37.293)" stroke="#0F9D58" stroke-width="12.2559" stroke-linecap="round"/>
<path d="M109.781 16.7119H120.445V31.0479C118.948 31.5426 117.398 31.9268 115.797 32.2002C114.195 32.4736 112.398 32.6104 110.406 32.6104C107.503 32.6104 105.042 32.0374 103.023 30.8916C101.018 29.7327 99.4948 28.0596 98.4531 25.8721C97.4115 23.6715 96.8906 21.0218 96.8906 17.9229C96.8906 14.9411 97.4701 12.3564 98.6289 10.1689C99.7878 7.96842 101.474 6.26921 103.688 5.07129C105.901 3.86035 108.583 3.25488 111.734 3.25488C113.284 3.25488 114.781 3.41113 116.227 3.72363C117.685 4.02311 119.02 4.43978 120.23 4.97363L118.59 8.84082C117.626 8.38509 116.546 8.00098 115.348 7.68848C114.15 7.37598 112.906 7.21973 111.617 7.21973C109.573 7.21973 107.809 7.66243 106.324 8.54785C104.853 9.43327 103.72 10.6833 102.926 12.2979C102.132 13.8994 101.734 15.7939 101.734 17.9814C101.734 20.1038 102.053 21.9658 102.691 23.5674C103.329 25.1689 104.326 26.4189 105.68 27.3174C107.047 28.2028 108.811 28.6455 110.973 28.6455C112.053 28.6455 112.971 28.5869 113.727 28.4697C114.482 28.3525 115.178 28.2223 115.816 28.0791V20.7158H109.781V16.7119ZM145.953 21.3604C145.953 23.1572 145.719 24.7523 145.25 26.1455C144.781 27.5387 144.098 28.7171 143.199 29.6807C142.301 30.6312 141.22 31.3604 139.957 31.8682C138.694 32.363 137.268 32.6104 135.68 32.6104C134.195 32.6104 132.835 32.363 131.598 31.8682C130.361 31.3604 129.286 30.6312 128.375 29.6807C127.477 28.7171 126.78 27.5387 126.285 26.1455C125.79 24.7523 125.543 23.1572 125.543 21.3604C125.543 18.9775 125.953 16.9593 126.773 15.3057C127.607 13.639 128.792 12.3695 130.328 11.4971C131.865 10.6247 133.694 10.1885 135.816 10.1885C137.809 10.1885 139.566 10.6247 141.09 11.4971C142.613 12.3695 143.805 13.639 144.664 15.3057C145.523 16.9723 145.953 18.9906 145.953 21.3604ZM130.27 21.3604C130.27 22.9359 130.458 24.2835 130.836 25.4033C131.227 26.5231 131.826 27.3825 132.633 27.9814C133.44 28.5674 134.482 28.8604 135.758 28.8604C137.034 28.8604 138.076 28.5674 138.883 27.9814C139.69 27.3825 140.283 26.5231 140.66 25.4033C141.038 24.2835 141.227 22.9359 141.227 21.3604C141.227 19.7848 141.038 18.4502 140.66 17.3564C140.283 16.2497 139.69 15.4098 138.883 14.8369C138.076 14.251 137.027 13.958 135.738 13.958C133.837 13.958 132.451 14.596 131.578 15.8721C130.706 17.1481 130.27 18.9775 130.27 21.3604ZM170.367 21.3604C170.367 23.1572 170.133 24.7523 169.664 26.1455C169.195 27.5387 168.512 28.7171 167.613 29.6807C166.715 30.6312 165.634 31.3604 164.371 31.8682C163.108 32.363 161.682 32.6104 160.094 32.6104C158.609 32.6104 157.249 32.363 156.012 31.8682C154.775 31.3604 153.701 30.6312 152.789 29.6807C151.891 28.7171 151.194 27.5387 150.699 26.1455C150.204 24.7523 149.957 23.1572 149.957 21.3604C149.957 18.9775 150.367 16.9593 151.188 15.3057C152.021 13.639 153.206 12.3695 154.742 11.4971C156.279 10.6247 158.108 10.1885 160.23 10.1885C162.223 10.1885 163.98 10.6247 165.504 11.4971C167.027 12.3695 168.219 13.639 169.078 15.3057C169.938 16.9723 170.367 18.9906 170.367 21.3604ZM154.684 21.3604C154.684 22.9359 154.872 24.2835 155.25 25.4033C155.641 26.5231 156.24 27.3825 157.047 27.9814C157.854 28.5674 158.896 28.8604 160.172 28.8604C161.448 28.8604 162.49 28.5674 163.297 27.9814C164.104 27.3825 164.697 26.5231 165.074 25.4033C165.452 24.2835 165.641 22.9359 165.641 21.3604C165.641 19.7848 165.452 18.4502 165.074 17.3564C164.697 16.2497 164.104 15.4098 163.297 14.8369C162.49 14.251 161.441 13.958 160.152 13.958C158.251 13.958 156.865 14.596 155.992 15.8721C155.12 17.1481 154.684 18.9775 154.684 21.3604ZM181.812 41.8291C178.883 41.8291 176.637 41.3018 175.074 40.2471C173.512 39.1924 172.73 37.7145 172.73 35.8135C172.73 34.4854 173.147 33.359 173.98 32.4346C174.814 31.5231 176.005 30.8916 177.555 30.54C176.969 30.2796 176.461 29.876 176.031 29.3291C175.615 28.7692 175.406 28.1507 175.406 27.4736C175.406 26.6663 175.634 25.9762 176.09 25.4033C176.546 24.8304 177.229 24.277 178.141 23.7432C177.008 23.2614 176.096 22.4801 175.406 21.3994C174.729 20.3057 174.391 19.0231 174.391 17.5518C174.391 15.9893 174.723 14.6611 175.387 13.5674C176.051 12.4606 177.021 11.6208 178.297 11.0479C179.573 10.4619 181.116 10.1689 182.926 10.1689C183.316 10.1689 183.74 10.195 184.195 10.2471C184.664 10.2861 185.094 10.3382 185.484 10.4033C185.888 10.4554 186.194 10.514 186.402 10.5791H193.883V13.1377L190.211 13.8213C190.562 14.3161 190.842 14.8825 191.051 15.5205C191.259 16.1455 191.363 16.8291 191.363 17.5713C191.363 19.8109 190.589 21.5752 189.039 22.8643C187.503 24.1403 185.38 24.7783 182.672 24.7783C182.021 24.7523 181.389 24.7002 180.777 24.6221C180.309 24.9085 179.951 25.2275 179.703 25.5791C179.456 25.9176 179.332 26.3018 179.332 26.7314C179.332 27.083 179.456 27.3695 179.703 27.5908C179.951 27.7992 180.315 27.9554 180.797 28.0596C181.292 28.1637 181.891 28.2158 182.594 28.2158H186.324C188.694 28.2158 190.504 28.7171 191.754 29.7197C193.004 30.7223 193.629 32.1937 193.629 34.1338C193.629 36.5947 192.613 38.4893 190.582 39.8174C188.551 41.1585 185.628 41.8291 181.812 41.8291ZM181.988 38.6064C183.59 38.6064 184.938 38.4502 186.031 38.1377C187.125 37.8252 187.952 37.376 188.512 36.79C189.072 36.2171 189.352 35.5335 189.352 34.7393C189.352 34.0361 189.176 33.4958 188.824 33.1182C188.473 32.7406 187.945 32.4801 187.242 32.3369C186.539 32.1937 185.667 32.1221 184.625 32.1221H181.227C180.38 32.1221 179.632 32.2523 178.98 32.5127C178.329 32.7861 177.822 33.1768 177.457 33.6846C177.105 34.1924 176.93 34.8044 176.93 35.5205C176.93 36.5101 177.366 37.2718 178.238 37.8057C179.124 38.3395 180.374 38.6064 181.988 38.6064ZM182.887 21.7705C184.228 21.7705 185.224 21.4059 185.875 20.6768C186.526 19.9346 186.852 18.8929 186.852 17.5518C186.852 16.0934 186.513 14.9997 185.836 14.2705C185.172 13.5413 184.182 13.1768 182.867 13.1768C181.578 13.1768 180.595 13.5479 179.918 14.29C179.254 15.0322 178.922 16.1325 178.922 17.5908C178.922 18.9059 179.254 19.9346 179.918 20.6768C180.595 21.4059 181.585 21.7705 182.887 21.7705ZM202.438 32.2197H197.828V1.8291H202.438V32.2197ZM217.613 10.1885C219.54 10.1885 221.194 10.5856 222.574 11.3799C223.954 12.1742 225.016 13.3005 225.758 14.7588C226.5 16.2171 226.871 17.9619 226.871 19.9932V22.4541H212.438C212.49 24.5505 213.049 26.165 214.117 27.2979C215.198 28.4307 216.708 28.9971 218.648 28.9971C220.029 28.9971 221.266 28.8669 222.359 28.6064C223.466 28.333 224.605 27.9359 225.777 27.415V31.1455C224.697 31.6533 223.596 32.0244 222.477 32.2588C221.357 32.4932 220.016 32.6104 218.453 32.6104C216.331 32.6104 214.462 32.2002 212.848 31.3799C211.246 30.5465 209.99 29.3096 209.078 27.6689C208.18 26.0283 207.73 23.9906 207.73 21.5557C207.73 19.1338 208.141 17.0765 208.961 15.3838C209.781 13.6911 210.934 12.402 212.418 11.5166C213.902 10.6312 215.634 10.1885 217.613 10.1885ZM217.613 13.6455C216.168 13.6455 214.996 14.1143 214.098 15.0518C213.212 15.9893 212.691 17.363 212.535 19.1729H222.379C222.366 18.0921 222.184 17.1351 221.832 16.3018C221.493 15.4684 220.973 14.8174 220.27 14.3486C219.579 13.8799 218.694 13.6455 217.613 13.6455ZM266.09 17.6689C266.09 20.8851 265.491 23.5739 264.293 25.7354C263.095 27.8838 261.357 29.5049 259.078 30.5986C256.799 31.6794 254.052 32.2197 250.836 32.2197H242.906V3.66504H251.695C254.651 3.66504 257.203 4.19889 259.352 5.2666C261.5 6.32129 263.16 7.8903 264.332 9.97363C265.504 12.0439 266.09 14.609 266.09 17.6689ZM261.207 17.8057C261.207 15.4619 260.836 13.5348 260.094 12.0244C259.365 10.514 258.284 9.39421 256.852 8.66504C255.432 7.92285 253.681 7.55176 251.598 7.55176H247.594V28.2939H250.914C254.365 28.2939 256.943 27.415 258.648 25.6572C260.354 23.8994 261.207 21.2822 261.207 17.8057ZM280.387 10.1885C282.314 10.1885 283.967 10.5856 285.348 11.3799C286.728 12.1742 287.789 13.3005 288.531 14.7588C289.273 16.2171 289.645 17.9619 289.645 19.9932V22.4541H275.211C275.263 24.5505 275.823 26.165 276.891 27.2979C277.971 28.4307 279.482 28.9971 281.422 28.9971C282.802 28.9971 284.039 28.8669 285.133 28.6064C286.24 28.333 287.379 27.9359 288.551 27.415V31.1455C287.47 31.6533 286.37 32.0244 285.25 32.2588C284.13 32.4932 282.789 32.6104 281.227 32.6104C279.104 32.6104 277.236 32.2002 275.621 31.3799C274.02 30.5465 272.763 29.3096 271.852 27.6689C270.953 26.0283 270.504 23.9906 270.504 21.5557C270.504 19.1338 270.914 17.0765 271.734 15.3838C272.555 13.6911 273.707 12.402 275.191 11.5166C276.676 10.6312 278.408 10.1885 280.387 10.1885ZM280.387 13.6455C278.941 13.6455 277.77 14.1143 276.871 15.0518C275.986 15.9893 275.465 17.363 275.309 19.1729H285.152C285.139 18.0921 284.957 17.1351 284.605 16.3018C284.267 15.4684 283.746 14.8174 283.043 14.3486C282.353 13.8799 281.467 13.6455 280.387 13.6455ZM299.762 32.2197L291.539 10.5986H296.402L300.855 23.2939C301.142 24.1012 301.402 24.9736 301.637 25.9111C301.871 26.8486 302.034 27.6364 302.125 28.2744H302.281C302.372 27.6104 302.548 26.8161 302.809 25.8916C303.069 24.9541 303.336 24.0882 303.609 23.2939L308.062 10.5986H312.906L304.684 32.2197H299.762ZM324.801 10.1885C326.728 10.1885 328.382 10.5856 329.762 11.3799C331.142 12.1742 332.203 13.3005 332.945 14.7588C333.688 16.2171 334.059 17.9619 334.059 19.9932V22.4541H319.625C319.677 24.5505 320.237 26.165 321.305 27.2979C322.385 28.4307 323.896 28.9971 325.836 28.9971C327.216 28.9971 328.453 28.8669 329.547 28.6064C330.654 28.333 331.793 27.9359 332.965 27.415V31.1455C331.884 31.6533 330.784 32.0244 329.664 32.2588C328.544 32.4932 327.203 32.6104 325.641 32.6104C323.518 32.6104 321.65 32.2002 320.035 31.3799C318.434 30.5465 317.177 29.3096 316.266 27.6689C315.367 26.0283 314.918 23.9906 314.918 21.5557C314.918 19.1338 315.328 17.0765 316.148 15.3838C316.969 13.6911 318.121 12.402 319.605 11.5166C321.09 10.6312 322.822 10.1885 324.801 10.1885ZM324.801 13.6455C323.355 13.6455 322.184 14.1143 321.285 15.0518C320.4 15.9893 319.879 17.363 319.723 19.1729H329.566C329.553 18.0921 329.371 17.1351 329.02 16.3018C328.681 15.4684 328.16 14.8174 327.457 14.3486C326.767 13.8799 325.882 13.6455 324.801 13.6455ZM343.844 32.2197H339.234V1.8291H343.844V32.2197ZM369.547 21.3604C369.547 23.1572 369.312 24.7523 368.844 26.1455C368.375 27.5387 367.691 28.7171 366.793 29.6807C365.895 30.6312 364.814 31.3604 363.551 31.8682C362.288 32.363 360.862 32.6104 359.273 32.6104C357.789 32.6104 356.428 32.363 355.191 31.8682C353.954 31.3604 352.88 30.6312 351.969 29.6807C351.07 28.7171 350.374 27.5387 349.879 26.1455C349.384 24.7523 349.137 23.1572 349.137 21.3604C349.137 18.9775 349.547 16.9593 350.367 15.3057C351.201 13.639 352.385 12.3695 353.922 11.4971C355.458 10.6247 357.288 10.1885 359.41 10.1885C361.402 10.1885 363.16 10.6247 364.684 11.4971C366.207 12.3695 367.398 13.639 368.258 15.3057C369.117 16.9723 369.547 18.9906 369.547 21.3604ZM353.863 21.3604C353.863 22.9359 354.052 24.2835 354.43 25.4033C354.82 26.5231 355.419 27.3825 356.227 27.9814C357.034 28.5674 358.076 28.8604 359.352 28.8604C360.628 28.8604 361.669 28.5674 362.477 27.9814C363.284 27.3825 363.876 26.5231 364.254 25.4033C364.632 24.2835 364.82 22.9359 364.82 21.3604C364.82 19.7848 364.632 18.4502 364.254 17.3564C363.876 16.2497 363.284 15.4098 362.477 14.8369C361.669 14.251 360.621 13.958 359.332 13.958C357.431 13.958 356.044 14.596 355.172 15.8721C354.299 17.1481 353.863 18.9775 353.863 21.3604ZM385.914 10.1885C388.479 10.1885 390.536 11.126 392.086 13.001C393.648 14.876 394.43 17.6624 394.43 21.3604C394.43 23.8083 394.065 25.8721 393.336 27.5518C392.62 29.2184 391.611 30.4814 390.309 31.3408C389.02 32.1872 387.516 32.6104 385.797 32.6104C384.703 32.6104 383.753 32.4671 382.945 32.1807C382.138 31.8942 381.448 31.5231 380.875 31.0674C380.302 30.5986 379.82 30.0908 379.43 29.5439H379.156C379.221 30.0648 379.28 30.6442 379.332 31.2822C379.397 31.9072 379.43 32.4801 379.43 33.001V41.8096H374.82V10.5986H378.57L379.215 13.5869H379.43C379.833 12.9749 380.322 12.4085 380.895 11.8877C381.48 11.3669 382.184 10.9567 383.004 10.6572C383.837 10.3447 384.807 10.1885 385.914 10.1885ZM384.684 13.9385C383.421 13.9385 382.405 14.1924 381.637 14.7002C380.882 15.195 380.328 15.9437 379.977 16.9463C379.638 17.9489 379.456 19.2054 379.43 20.7158V21.3604C379.43 22.9619 379.592 24.3226 379.918 25.4424C380.257 26.5492 380.81 27.3955 381.578 27.9814C382.359 28.5544 383.414 28.8408 384.742 28.8408C385.862 28.8408 386.786 28.5348 387.516 27.9229C388.258 27.3109 388.811 26.4385 389.176 25.3057C389.54 24.1729 389.723 22.8382 389.723 21.3018C389.723 18.971 389.306 17.1611 388.473 15.8721C387.652 14.583 386.389 13.9385 384.684 13.9385ZM408.355 10.1885C410.283 10.1885 411.936 10.5856 413.316 11.3799C414.697 12.1742 415.758 13.3005 416.5 14.7588C417.242 16.2171 417.613 17.9619 417.613 19.9932V22.4541H403.18C403.232 24.5505 403.792 26.165 404.859 27.2979C405.94 28.4307 407.451 28.9971 409.391 28.9971C410.771 28.9971 412.008 28.8669 413.102 28.6064C414.208 28.333 415.348 27.9359 416.52 27.415V31.1455C415.439 31.6533 414.339 32.0244 413.219 32.2588C412.099 32.4932 410.758 32.6104 409.195 32.6104C407.073 32.6104 405.204 32.2002 403.59 31.3799C401.988 30.5465 400.732 29.3096 399.82 27.6689C398.922 26.0283 398.473 23.9906 398.473 21.5557C398.473 19.1338 398.883 17.0765 399.703 15.3838C400.523 13.6911 401.676 12.402 403.16 11.5166C404.645 10.6312 406.376 10.1885 408.355 10.1885ZM408.355 13.6455C406.91 13.6455 405.738 14.1143 404.84 15.0518C403.954 15.9893 403.434 17.363 403.277 19.1729H413.121C413.108 18.0921 412.926 17.1351 412.574 16.3018C412.236 15.4684 411.715 14.8174 411.012 14.3486C410.322 13.8799 409.436 13.6455 408.355 13.6455ZM433.746 10.1885C434.111 10.1885 434.508 10.208 434.938 10.2471C435.367 10.2861 435.738 10.3382 436.051 10.4033L435.621 14.7002C435.348 14.6221 435.009 14.5635 434.605 14.5244C434.215 14.4854 433.863 14.4658 433.551 14.4658C432.73 14.4658 431.949 14.6025 431.207 14.876C430.465 15.1364 429.807 15.54 429.234 16.0869C428.661 16.6208 428.212 17.2913 427.887 18.0986C427.561 18.9059 427.398 19.8434 427.398 20.9111V32.2197H422.789V10.5986H426.383L427.008 14.4072H427.223C427.652 13.639 428.186 12.9359 428.824 12.2979C429.462 11.6598 430.191 11.152 431.012 10.7744C431.845 10.3838 432.757 10.1885 433.746 10.1885ZM467.398 24.4463C467.398 26.139 466.982 27.5973 466.148 28.8213C465.328 30.0452 464.143 30.9827 462.594 31.6338C461.057 32.2848 459.221 32.6104 457.086 32.6104C456.044 32.6104 455.048 32.5518 454.098 32.4346C453.147 32.3174 452.249 32.1481 451.402 31.9268C450.569 31.6924 449.807 31.4124 449.117 31.0869V26.6729C450.276 27.1807 451.572 27.6429 453.004 28.0596C454.436 28.4632 455.895 28.665 457.379 28.665C458.59 28.665 459.592 28.5088 460.387 28.1963C461.194 27.8708 461.793 27.415 462.184 26.8291C462.574 26.2301 462.77 25.5335 462.77 24.7393C462.77 23.8929 462.542 23.1768 462.086 22.5908C461.63 22.0049 460.94 21.471 460.016 20.9893C459.104 20.4945 457.958 19.9671 456.578 19.4072C455.641 19.0296 454.742 18.5999 453.883 18.1182C453.036 17.6364 452.281 17.07 451.617 16.4189C450.953 15.7679 450.426 14.9997 450.035 14.1143C449.658 13.2158 449.469 12.1611 449.469 10.9502C449.469 9.33561 449.853 7.9554 450.621 6.80957C451.402 5.66374 452.496 4.78483 453.902 4.17285C455.322 3.56087 456.975 3.25488 458.863 3.25488C460.361 3.25488 461.767 3.41113 463.082 3.72363C464.41 4.03613 465.712 4.47884 466.988 5.05176L465.504 8.82129C464.332 8.33952 463.193 7.9554 462.086 7.66895C460.992 7.38249 459.872 7.23926 458.727 7.23926C457.737 7.23926 456.897 7.389 456.207 7.68848C455.517 7.98796 454.99 8.41113 454.625 8.95801C454.273 9.49186 454.098 10.1299 454.098 10.8721C454.098 11.7054 454.299 12.4085 454.703 12.9814C455.12 13.5413 455.758 14.0557 456.617 14.5244C457.49 14.9932 458.609 15.514 459.977 16.0869C461.552 16.738 462.887 17.4215 463.98 18.1377C465.087 18.8538 465.934 19.7132 466.52 20.7158C467.105 21.7054 467.398 22.9489 467.398 24.4463ZM480.484 28.8994C481.083 28.8994 481.676 28.8473 482.262 28.7432C482.848 28.626 483.382 28.4893 483.863 28.333V31.8096C483.355 32.0309 482.698 32.2197 481.891 32.376C481.083 32.5322 480.243 32.6104 479.371 32.6104C478.147 32.6104 477.047 32.4085 476.07 32.0049C475.094 31.5882 474.319 30.8786 473.746 29.876C473.173 28.8734 472.887 27.4867 472.887 25.7158V14.0947H469.938V12.0439L473.102 10.4229L474.605 5.79395H477.496V10.5986H483.688V14.0947H477.496V25.6572C477.496 26.751 477.77 27.5648 478.316 28.0986C478.863 28.6325 479.586 28.8994 480.484 28.8994ZM507.105 10.5986V32.2197H503.492L502.867 29.3096H502.613C502.158 30.0518 501.578 30.6702 500.875 31.165C500.172 31.6468 499.391 32.0049 498.531 32.2393C497.672 32.4867 496.767 32.6104 495.816 32.6104C494.189 32.6104 492.796 32.3369 491.637 31.79C490.491 31.2301 489.612 30.3708 489 29.2119C488.388 28.0531 488.082 26.5557 488.082 24.7197V10.5986H492.691V23.8604C492.691 25.54 493.03 26.7965 493.707 27.6299C494.397 28.4632 495.465 28.8799 496.91 28.8799C498.303 28.8799 499.41 28.5934 500.23 28.0205C501.051 27.4476 501.63 26.6012 501.969 25.4814C502.32 24.3617 502.496 22.988 502.496 21.3604V10.5986H507.105ZM520.953 32.6104C518.375 32.6104 516.305 31.6729 514.742 29.7979C513.193 27.9098 512.418 25.1299 512.418 21.458C512.418 17.7471 513.206 14.9411 514.781 13.04C516.37 11.139 518.46 10.1885 521.051 10.1885C522.145 10.1885 523.102 10.3382 523.922 10.6377C524.742 10.9242 525.445 11.3148 526.031 11.8096C526.63 12.3044 527.138 12.8577 527.555 13.4697H527.77C527.704 13.0661 527.626 12.4867 527.535 11.7314C527.457 10.9632 527.418 10.2536 527.418 9.60254V1.8291H532.027V32.2197H528.434L527.613 29.2705H527.418C527.027 29.8955 526.533 30.4619 525.934 30.9697C525.348 31.4645 524.645 31.8617 523.824 32.1611C523.017 32.4606 522.06 32.6104 520.953 32.6104ZM522.242 28.8799C524.208 28.8799 525.595 28.3135 526.402 27.1807C527.21 26.0479 527.626 24.3486 527.652 22.083V21.4775C527.652 19.0557 527.262 17.2002 526.48 15.9111C525.699 14.609 524.273 13.958 522.203 13.958C520.549 13.958 519.286 14.6286 518.414 15.9697C517.555 17.2979 517.125 19.1533 517.125 21.5361C517.125 23.9189 517.555 25.7419 518.414 27.0049C519.286 28.2549 520.562 28.8799 522.242 28.8799ZM547.223 10.1885C549.15 10.1885 550.803 10.5856 552.184 11.3799C553.564 12.1742 554.625 13.3005 555.367 14.7588C556.109 16.2171 556.48 17.9619 556.48 19.9932V22.4541H542.047C542.099 24.5505 542.659 26.165 543.727 27.2979C544.807 28.4307 546.318 28.9971 548.258 28.9971C549.638 28.9971 550.875 28.8669 551.969 28.6064C553.076 28.333 554.215 27.9359 555.387 27.415V31.1455C554.306 31.6533 553.206 32.0244 552.086 32.2588C550.966 32.4932 549.625 32.6104 548.062 32.6104C545.94 32.6104 544.072 32.2002 542.457 31.3799C540.855 30.5465 539.599 29.3096 538.688 27.6689C537.789 26.0283 537.34 23.9906 537.34 21.5557C537.34 19.1338 537.75 17.0765 538.57 15.3838C539.391 13.6911 540.543 12.402 542.027 11.5166C543.512 10.6312 545.243 10.1885 547.223 10.1885ZM547.223 13.6455C545.777 13.6455 544.605 14.1143 543.707 15.0518C542.822 15.9893 542.301 17.363 542.145 19.1729H551.988C551.975 18.0921 551.793 17.1351 551.441 16.3018C551.103 15.4684 550.582 14.8174 549.879 14.3486C549.189 13.8799 548.303 13.6455 547.223 13.6455ZM572.926 10.1885C575.361 10.1885 577.255 10.82 578.609 12.083C579.977 13.333 580.66 15.3447 580.66 18.1182V32.2197H576.07V18.9775C576.07 17.2979 575.725 16.0413 575.035 15.208C574.345 14.3617 573.277 13.9385 571.832 13.9385C569.736 13.9385 568.277 14.583 567.457 15.8721C566.65 17.1611 566.246 19.0296 566.246 21.4775V32.2197H561.656V10.5986H565.23L565.875 13.5283H566.129C566.598 12.7731 567.177 12.1546 567.867 11.6729C568.57 11.1781 569.352 10.807 570.211 10.5596C571.083 10.3122 571.988 10.1885 572.926 10.1885ZM595.133 28.8994C595.732 28.8994 596.324 28.8473 596.91 28.7432C597.496 28.626 598.03 28.4893 598.512 28.333V31.8096C598.004 32.0309 597.346 32.2197 596.539 32.376C595.732 32.5322 594.892 32.6104 594.02 32.6104C592.796 32.6104 591.695 32.4085 590.719 32.0049C589.742 31.5882 588.967 30.8786 588.395 29.876C587.822 28.8734 587.535 27.4867 587.535 25.7158V14.0947H584.586V12.0439L587.75 10.4229L589.254 5.79395H592.145V10.5986H598.336V14.0947H592.145V25.6572C592.145 26.751 592.418 27.5648 592.965 28.0986C593.512 28.6325 594.234 28.8994 595.133 28.8994ZM625.934 7.23926C624.566 7.23926 623.342 7.48665 622.262 7.98145C621.194 8.47624 620.289 9.19238 619.547 10.1299C618.805 11.0544 618.238 12.1807 617.848 13.5088C617.457 14.8239 617.262 16.3083 617.262 17.9619C617.262 20.1755 617.574 22.083 618.199 23.6846C618.824 25.2731 619.775 26.4971 621.051 27.3564C622.327 28.2028 623.941 28.626 625.895 28.626C627.105 28.626 628.284 28.5088 629.43 28.2744C630.576 28.04 631.76 27.721 632.984 27.3174V31.3018C631.826 31.7575 630.654 32.0895 629.469 32.2979C628.284 32.5062 626.917 32.6104 625.367 32.6104C622.451 32.6104 620.029 32.0049 618.102 30.7939C616.188 29.583 614.755 27.8773 613.805 25.6768C612.867 23.4762 612.398 20.8981 612.398 17.9424C612.398 15.7809 612.698 13.8018 613.297 12.0049C613.896 10.208 614.768 8.65853 615.914 7.35645C617.06 6.04134 618.473 5.03223 620.152 4.3291C621.845 3.61296 623.779 3.25488 625.953 3.25488C627.385 3.25488 628.792 3.41764 630.172 3.74316C631.565 4.05566 632.854 4.50488 634.039 5.09082L632.398 8.95801C631.409 8.48926 630.374 8.08561 629.293 7.74707C628.212 7.40853 627.092 7.23926 625.934 7.23926ZM643.258 32.2197H638.648V1.8291H643.258V32.2197ZM668.668 10.5986V32.2197H665.055L664.43 29.3096H664.176C663.72 30.0518 663.141 30.6702 662.438 31.165C661.734 31.6468 660.953 32.0049 660.094 32.2393C659.234 32.4867 658.329 32.6104 657.379 32.6104C655.751 32.6104 654.358 32.3369 653.199 31.79C652.053 31.2301 651.174 30.3708 650.562 29.2119C649.951 28.0531 649.645 26.5557 649.645 24.7197V10.5986H654.254V23.8604C654.254 25.54 654.592 26.7965 655.27 27.6299C655.96 28.4632 657.027 28.8799 658.473 28.8799C659.866 28.8799 660.973 28.5934 661.793 28.0205C662.613 27.4476 663.193 26.6012 663.531 25.4814C663.883 24.3617 664.059 22.988 664.059 21.3604V10.5986H668.668ZM679.84 1.8291V9.15332C679.84 9.99967 679.814 10.833 679.762 11.6533C679.723 12.4606 679.684 13.0921 679.645 13.5479H679.84C680.426 12.6104 681.24 11.8226 682.281 11.1846C683.336 10.5335 684.684 10.208 686.324 10.208C688.889 10.208 690.953 11.152 692.516 13.04C694.078 14.915 694.859 17.695 694.859 21.3799C694.859 23.8278 694.501 25.8851 693.785 27.5518C693.069 29.2184 692.06 30.4814 690.758 31.3408C689.469 32.1872 687.952 32.6104 686.207 32.6104C684.566 32.6104 683.238 32.3109 682.223 31.7119C681.22 31.0999 680.432 30.3903 679.859 29.583H679.527L678.688 32.2197H675.25V1.8291H679.84ZM685.113 13.9385C683.811 13.9385 682.776 14.1989 682.008 14.7197C681.253 15.2406 680.706 16.0218 680.367 17.0635C680.029 18.0921 679.853 19.4007 679.84 20.9893V21.3994C679.84 23.8083 680.217 25.6507 680.973 26.9268C681.741 28.2028 683.134 28.8408 685.152 28.8408C686.754 28.8408 687.984 28.1963 688.844 26.9072C689.703 25.6051 690.133 23.7432 690.133 21.3213C690.133 18.8734 689.703 17.0309 688.844 15.7939C687.997 14.557 686.754 13.9385 685.113 13.9385ZM714.703 26.0479C714.703 27.4671 714.358 28.665 713.668 29.6416C712.978 30.6182 711.969 31.3604 710.641 31.8682C709.326 32.363 707.711 32.6104 705.797 32.6104C704.286 32.6104 702.984 32.4997 701.891 32.2783C700.81 32.07 699.788 31.7445 698.824 31.3018V27.3369C699.853 27.8187 701.005 28.2354 702.281 28.5869C703.57 28.9385 704.788 29.1143 705.934 29.1143C707.444 29.1143 708.531 28.8799 709.195 28.4111C709.859 27.9294 710.191 27.2913 710.191 26.4971C710.191 26.0283 710.055 25.6117 709.781 25.2471C709.521 24.8695 709.026 24.4854 708.297 24.0947C707.581 23.6911 706.526 23.2093 705.133 22.6494C703.766 22.1025 702.613 21.5557 701.676 21.0088C700.738 20.4619 700.029 19.8044 699.547 19.0361C699.065 18.2549 698.824 17.2588 698.824 16.0479C698.824 14.1338 699.579 12.682 701.09 11.6924C702.613 10.6898 704.625 10.1885 707.125 10.1885C708.453 10.1885 709.703 10.3252 710.875 10.5986C712.06 10.859 713.219 11.2432 714.352 11.751L712.906 15.208C711.93 14.7783 710.947 14.4268 709.957 14.1533C708.98 13.8669 707.984 13.7236 706.969 13.7236C705.784 13.7236 704.879 13.9059 704.254 14.2705C703.642 14.6351 703.336 15.1559 703.336 15.833C703.336 16.3408 703.486 16.7705 703.785 17.1221C704.085 17.4736 704.599 17.8252 705.328 18.1768C706.07 18.5283 707.099 18.9645 708.414 19.4854C709.703 19.9801 710.816 20.501 711.754 21.0479C712.704 21.5817 713.434 22.2393 713.941 23.0205C714.449 23.8018 714.703 24.8109 714.703 26.0479ZM97.4839 51.3799H99.9036L106.076 66.739L112.235 51.3799H114.667L107.007 70.2197H105.118L97.4839 51.3799ZM96.6946 51.3799H98.8296L99.179 62.8701V70.2197H96.6946V51.3799ZM113.309 51.3799H115.444V70.2197H112.959V62.8701L113.309 51.3799ZM127.723 67.8259V60.6187C127.723 60.0666 127.611 59.5878 127.387 59.1824C127.171 58.7683 126.844 58.4491 126.404 58.2249C125.964 58.0006 125.42 57.8884 124.773 57.8884C124.169 57.8884 123.639 57.9919 123.182 58.199C122.733 58.406 122.379 58.6777 122.121 59.0142C121.87 59.3506 121.745 59.7129 121.745 60.1011H119.352C119.352 59.6007 119.481 59.1047 119.74 58.613C119.999 58.1213 120.369 57.6771 120.853 57.2803C121.344 56.8748 121.931 56.5557 122.612 56.3228C123.302 56.0812 124.07 55.9604 124.916 55.9604C125.933 55.9604 126.831 56.133 127.607 56.478C128.392 56.8231 129.004 57.345 129.444 58.0437C129.893 58.7338 130.117 59.6007 130.117 60.6445V67.166C130.117 67.6318 130.156 68.1278 130.234 68.6541C130.32 69.1803 130.445 69.6331 130.609 70.0127V70.2197H128.112C127.991 69.9437 127.896 69.5771 127.827 69.1199C127.758 68.6541 127.723 68.2227 127.723 67.8259ZM128.137 61.7314L128.163 63.4136H125.744C125.062 63.4136 124.454 63.4696 123.919 63.5818C123.384 63.6853 122.936 63.8449 122.573 64.0605C122.211 64.2762 121.935 64.5479 121.745 64.8757C121.556 65.1949 121.461 65.5701 121.461 66.0015C121.461 66.4414 121.56 66.8425 121.758 67.2048C121.957 67.5671 122.254 67.8561 122.651 68.0718C123.057 68.2788 123.553 68.3823 124.139 68.3823C124.872 68.3823 125.519 68.2271 126.08 67.9165C126.641 67.606 127.085 67.2264 127.413 66.7778C127.749 66.3293 127.93 65.8936 127.956 65.4709L128.979 66.6226C128.918 66.9849 128.754 67.386 128.487 67.8259C128.219 68.2659 127.861 68.6886 127.413 69.094C126.973 69.4908 126.447 69.8229 125.834 70.0903C125.23 70.3491 124.549 70.4785 123.79 70.4785C122.841 70.4785 122.008 70.2931 121.292 69.9221C120.585 69.5512 120.033 69.0552 119.636 68.4341C119.248 67.8044 119.054 67.1013 119.054 66.325C119.054 65.5745 119.201 64.9146 119.494 64.3452C119.787 63.7673 120.21 63.2885 120.762 62.9089C121.314 62.5208 121.978 62.2275 122.755 62.0291C123.531 61.8306 124.398 61.7314 125.355 61.7314H128.137ZM136.276 50.3447V70.2197H133.883V50.3447H136.276ZM135.707 62.689L134.711 62.6501C134.719 61.6926 134.862 60.8084 135.138 59.9976C135.414 59.1781 135.802 58.4664 136.302 57.8625C136.803 57.2587 137.398 56.7929 138.088 56.4651C138.787 56.1287 139.559 55.9604 140.404 55.9604C141.094 55.9604 141.715 56.0553 142.267 56.2451C142.819 56.4263 143.29 56.7196 143.678 57.125C144.075 57.5304 144.376 58.0566 144.583 58.7036C144.791 59.342 144.894 60.1226 144.894 61.0457V70.2197H142.487V61.0198C142.487 60.2865 142.379 59.7 142.164 59.26C141.948 58.8114 141.633 58.488 141.219 58.2896C140.805 58.0825 140.296 57.979 139.692 57.979C139.097 57.979 138.554 58.1041 138.062 58.3542C137.579 58.6044 137.161 58.9495 136.807 59.3894C136.462 59.8293 136.19 60.334 135.992 60.9033C135.802 61.464 135.707 62.0592 135.707 62.689ZM156.734 67.8259V60.6187C156.734 60.0666 156.622 59.5878 156.397 59.1824C156.182 58.7683 155.854 58.4491 155.414 58.2249C154.974 58.0006 154.43 57.8884 153.783 57.8884C153.18 57.8884 152.649 57.9919 152.192 58.199C151.743 58.406 151.39 58.6777 151.131 59.0142C150.881 59.3506 150.756 59.7129 150.756 60.1011H148.362C148.362 59.6007 148.491 59.1047 148.75 58.613C149.009 58.1213 149.38 57.6771 149.863 57.2803C150.354 56.8748 150.941 56.5557 151.623 56.3228C152.313 56.0812 153.08 55.9604 153.926 55.9604C154.944 55.9604 155.841 56.133 156.617 56.478C157.402 56.8231 158.015 57.345 158.455 58.0437C158.903 58.7338 159.127 59.6007 159.127 60.6445V67.166C159.127 67.6318 159.166 68.1278 159.244 68.6541C159.33 69.1803 159.455 69.6331 159.619 70.0127V70.2197H157.122C157.001 69.9437 156.906 69.5771 156.837 69.1199C156.768 68.6541 156.734 68.2227 156.734 67.8259ZM157.148 61.7314L157.174 63.4136H154.754C154.072 63.4136 153.464 63.4696 152.929 63.5818C152.395 63.6853 151.946 63.8449 151.584 64.0605C151.221 64.2762 150.945 64.5479 150.756 64.8757C150.566 65.1949 150.471 65.5701 150.471 66.0015C150.471 66.4414 150.57 66.8425 150.769 67.2048C150.967 67.5671 151.265 67.8561 151.661 68.0718C152.067 68.2788 152.563 68.3823 153.149 68.3823C153.883 68.3823 154.53 68.2271 155.09 67.9165C155.651 67.606 156.095 67.2264 156.423 66.7778C156.76 66.3293 156.941 65.8936 156.967 65.4709L157.989 66.6226C157.928 66.9849 157.764 67.386 157.497 67.8259C157.23 68.2659 156.872 68.6886 156.423 69.094C155.983 69.4908 155.457 69.8229 154.844 70.0903C154.241 70.3491 153.559 70.4785 152.8 70.4785C151.851 70.4785 151.019 70.2931 150.303 69.9221C149.595 69.5512 149.043 69.0552 148.646 68.4341C148.258 67.8044 148.064 67.1013 148.064 66.325C148.064 65.5745 148.211 64.9146 148.504 64.3452C148.797 63.7673 149.22 63.2885 149.772 62.9089C150.324 62.5208 150.989 62.2275 151.765 62.0291C152.541 61.8306 153.408 61.7314 154.366 61.7314H157.148ZM165.287 58.4189V70.2197H162.893V56.2192H165.222L165.287 58.4189ZM169.66 56.1416L169.647 58.3672C169.449 58.3241 169.259 58.2982 169.078 58.2896C168.905 58.2723 168.707 58.2637 168.483 58.2637C167.931 58.2637 167.443 58.3499 167.021 58.5225C166.598 58.695 166.24 58.9365 165.947 59.2471C165.653 59.5576 165.42 59.9285 165.248 60.3599C165.084 60.7826 164.976 61.2484 164.924 61.7573L164.251 62.1455C164.251 61.3001 164.333 60.5065 164.497 59.7646C164.67 59.0228 164.933 58.3672 165.287 57.7979C165.64 57.2199 166.089 56.7713 166.632 56.4521C167.184 56.1243 167.84 55.9604 168.599 55.9604C168.772 55.9604 168.97 55.982 169.194 56.0251C169.419 56.0597 169.574 56.0985 169.66 56.1416ZM174.474 56.2192V70.2197H172.067V56.2192H174.474ZM171.886 52.5056C171.886 52.1174 172.002 51.7896 172.235 51.5222C172.477 51.2548 172.83 51.1211 173.296 51.1211C173.753 51.1211 174.103 51.2548 174.344 51.5222C174.594 51.7896 174.719 52.1174 174.719 52.5056C174.719 52.8765 174.594 53.1957 174.344 53.4631C174.103 53.7219 173.753 53.8513 173.296 53.8513C172.83 53.8513 172.477 53.7219 172.235 53.4631C172.002 53.1957 171.886 52.8765 171.886 52.5056ZM186.469 66.5061C186.469 66.1611 186.391 65.8419 186.236 65.5486C186.089 65.2467 185.783 64.9749 185.317 64.7334C184.86 64.4832 184.17 64.2676 183.247 64.0864C182.47 63.9225 181.767 63.7284 181.137 63.5042C180.516 63.2799 179.986 63.0081 179.546 62.689C179.115 62.3698 178.782 61.9945 178.55 61.5632C178.317 61.1319 178.2 60.6273 178.2 60.0493C178.2 59.4972 178.321 58.9753 178.562 58.4836C178.813 57.9919 179.162 57.5563 179.611 57.1768C180.068 56.7972 180.616 56.4996 181.254 56.2839C181.892 56.0683 182.604 55.9604 183.389 55.9604C184.51 55.9604 185.468 56.1589 186.261 56.5557C187.055 56.9525 187.663 57.483 188.086 58.1472C188.509 58.8028 188.72 59.5317 188.72 60.334H186.326C186.326 59.9458 186.21 59.5706 185.977 59.2083C185.753 58.8373 185.42 58.5311 184.98 58.2896C184.549 58.048 184.019 57.9272 183.389 57.9272C182.725 57.9272 182.186 58.0308 181.771 58.2378C181.366 58.4362 181.068 58.6907 180.879 59.0012C180.698 59.3118 180.607 59.6396 180.607 59.9846C180.607 60.2434 180.65 60.4763 180.736 60.6833C180.831 60.8818 180.995 61.0672 181.228 61.2397C181.461 61.4036 181.789 61.5589 182.211 61.7056C182.634 61.8522 183.173 61.9989 183.829 62.1455C184.976 62.4043 185.921 62.7148 186.663 63.0771C187.404 63.4395 187.957 63.8837 188.319 64.4099C188.681 64.9361 188.862 65.5745 188.862 66.325C188.862 66.9374 188.733 67.4981 188.474 68.0071C188.224 68.516 187.857 68.956 187.374 69.3269C186.9 69.6892 186.33 69.9739 185.666 70.1809C185.011 70.3793 184.273 70.4785 183.454 70.4785C182.22 70.4785 181.176 70.2585 180.322 69.8186C179.468 69.3787 178.821 68.8093 178.381 68.1106C177.941 67.4119 177.721 66.6743 177.721 65.8979H180.128C180.163 66.5535 180.352 67.0754 180.698 67.4636C181.043 67.8432 181.465 68.1149 181.966 68.2788C182.466 68.4341 182.962 68.5117 183.454 68.5117C184.109 68.5117 184.657 68.4255 185.097 68.2529C185.545 68.0804 185.886 67.8432 186.119 67.5413C186.352 67.2393 186.469 66.8943 186.469 66.5061ZM194.4 50.3447V70.2197H192.007V50.3447H194.4ZM193.831 62.689L192.835 62.6501C192.843 61.6926 192.986 60.8084 193.262 59.9976C193.538 59.1781 193.926 58.4664 194.426 57.8625C194.927 57.2587 195.522 56.7929 196.212 56.4651C196.911 56.1287 197.683 55.9604 198.528 55.9604C199.218 55.9604 199.839 56.0553 200.391 56.2451C200.943 56.4263 201.414 56.7196 201.802 57.125C202.199 57.5304 202.5 58.0566 202.708 58.7036C202.915 59.342 203.018 60.1226 203.018 61.0457V70.2197H200.611V61.0198C200.611 60.2865 200.503 59.7 200.288 59.26C200.072 58.8114 199.757 58.488 199.343 58.2896C198.929 58.0825 198.42 57.979 197.816 57.979C197.221 57.979 196.678 58.1041 196.186 58.3542C195.703 58.6044 195.285 58.9495 194.931 59.3894C194.586 59.8293 194.314 60.334 194.116 60.9033C193.926 61.464 193.831 62.0592 193.831 62.689ZM209.203 56.2192V70.2197H206.796V56.2192H209.203ZM206.615 52.5056C206.615 52.1174 206.732 51.7896 206.965 51.5222C207.206 51.2548 207.56 51.1211 208.026 51.1211C208.483 51.1211 208.832 51.2548 209.074 51.5222C209.324 51.7896 209.449 52.1174 209.449 52.5056C209.449 52.8765 209.324 53.1957 209.074 53.4631C208.832 53.7219 208.483 53.8513 208.026 53.8513C207.56 53.8513 207.206 53.7219 206.965 53.4631C206.732 53.1957 206.615 52.8765 206.615 52.5056ZM220.771 51.3799H223.191L229.363 66.739L235.522 51.3799H237.955L230.294 70.2197H228.405L220.771 51.3799ZM219.982 51.3799H222.117L222.466 62.8701V70.2197H219.982V51.3799ZM236.596 51.3799H238.731V70.2197H236.247V62.8701L236.596 51.3799ZM251.01 67.8259V60.6187C251.01 60.0666 250.898 59.5878 250.674 59.1824C250.458 58.7683 250.131 58.4491 249.691 58.2249C249.251 58.0006 248.707 57.8884 248.06 57.8884C247.456 57.8884 246.926 57.9919 246.469 58.199C246.02 58.406 245.667 58.6777 245.408 59.0142C245.158 59.3506 245.032 59.7129 245.032 60.1011H242.639C242.639 59.6007 242.768 59.1047 243.027 58.613C243.286 58.1213 243.657 57.6771 244.14 57.2803C244.631 56.8748 245.218 56.5557 245.899 56.3228C246.59 56.0812 247.357 55.9604 248.203 55.9604C249.221 55.9604 250.118 56.133 250.894 56.478C251.679 56.8231 252.292 57.345 252.731 58.0437C253.18 58.7338 253.404 59.6007 253.404 60.6445V67.166C253.404 67.6318 253.443 68.1278 253.521 68.6541C253.607 69.1803 253.732 69.6331 253.896 70.0127V70.2197H251.399C251.278 69.9437 251.183 69.5771 251.114 69.1199C251.045 68.6541 251.01 68.2227 251.01 67.8259ZM251.425 61.7314L251.45 63.4136H249.031C248.349 63.4136 247.741 63.4696 247.206 63.5818C246.671 63.6853 246.223 63.8449 245.861 64.0605C245.498 64.2762 245.222 64.5479 245.032 64.8757C244.843 65.1949 244.748 65.5701 244.748 66.0015C244.748 66.4414 244.847 66.8425 245.045 67.2048C245.244 67.5671 245.541 67.8561 245.938 68.0718C246.344 68.2788 246.84 68.3823 247.426 68.3823C248.16 68.3823 248.806 68.2271 249.367 67.9165C249.928 67.606 250.372 67.2264 250.7 66.7778C251.036 66.3293 251.218 65.8936 251.243 65.4709L252.266 66.6226C252.205 66.9849 252.041 67.386 251.774 67.8259C251.507 68.2659 251.149 68.6886 250.7 69.094C250.26 69.4908 249.734 69.8229 249.121 70.0903C248.517 70.3491 247.836 70.4785 247.077 70.4785C246.128 70.4785 245.296 70.2931 244.58 69.9221C243.872 69.5512 243.32 69.0552 242.923 68.4341C242.535 67.8044 242.341 67.1013 242.341 66.325C242.341 65.5745 242.488 64.9146 242.781 64.3452C243.074 63.7673 243.497 63.2885 244.049 62.9089C244.601 62.5208 245.265 62.2275 246.042 62.0291C246.818 61.8306 247.685 61.7314 248.643 61.7314H251.425ZM259.563 58.4189V70.2197H257.17V56.2192H259.499L259.563 58.4189ZM263.937 56.1416L263.924 58.3672C263.726 58.3241 263.536 58.2982 263.355 58.2896C263.182 58.2723 262.984 58.2637 262.76 58.2637C262.207 58.2637 261.72 58.3499 261.297 58.5225C260.875 58.695 260.517 58.9365 260.223 59.2471C259.93 59.5576 259.697 59.9285 259.525 60.3599C259.361 60.7826 259.253 61.2484 259.201 61.7573L258.528 62.1455C258.528 61.3001 258.61 60.5065 258.774 59.7646C258.947 59.0228 259.21 58.3672 259.563 57.7979C259.917 57.2199 260.366 56.7713 260.909 56.4521C261.461 56.1243 262.117 55.9604 262.876 55.9604C263.049 55.9604 263.247 55.982 263.471 56.0251C263.695 56.0597 263.851 56.0985 263.937 56.1416ZM268.556 50.3447V70.2197H266.15V50.3447H268.556ZM277.109 56.2192L271.002 62.7537L267.586 66.2991L267.392 63.75L269.837 60.8257L274.185 56.2192H277.109ZM274.923 70.2197L269.928 63.543L271.17 61.408L277.743 70.2197H274.923ZM287.836 67.8259V60.6187C287.836 60.0666 287.724 59.5878 287.5 59.1824C287.284 58.7683 286.956 58.4491 286.516 58.2249C286.076 58.0006 285.533 57.8884 284.886 57.8884C284.282 57.8884 283.752 57.9919 283.294 58.199C282.846 58.406 282.492 58.6777 282.233 59.0142C281.983 59.3506 281.858 59.7129 281.858 60.1011H279.464C279.464 59.6007 279.594 59.1047 279.853 58.613C280.111 58.1213 280.482 57.6771 280.965 57.2803C281.457 56.8748 282.044 56.5557 282.725 56.3228C283.415 56.0812 284.183 55.9604 285.028 55.9604C286.046 55.9604 286.943 56.133 287.72 56.478C288.505 56.8231 289.117 57.345 289.557 58.0437C290.006 58.7338 290.23 59.6007 290.23 60.6445V67.166C290.23 67.6318 290.269 68.1278 290.346 68.6541C290.433 69.1803 290.558 69.6331 290.722 70.0127V70.2197H288.224C288.104 69.9437 288.009 69.5771 287.94 69.1199C287.871 68.6541 287.836 68.2227 287.836 67.8259ZM288.25 61.7314L288.276 63.4136H285.856C285.175 63.4136 284.567 63.4696 284.032 63.5818C283.497 63.6853 283.049 63.8449 282.686 64.0605C282.324 64.2762 282.048 64.5479 281.858 64.8757C281.668 65.1949 281.573 65.5701 281.573 66.0015C281.573 66.4414 281.673 66.8425 281.871 67.2048C282.069 67.5671 282.367 67.8561 282.764 68.0718C283.169 68.2788 283.665 68.3823 284.252 68.3823C284.985 68.3823 285.632 68.2271 286.193 67.9165C286.754 67.606 287.198 67.2264 287.526 66.7778C287.862 66.3293 288.043 65.8936 288.069 65.4709L289.091 66.6226C289.031 66.9849 288.867 67.386 288.6 67.8259C288.332 68.2659 287.974 68.6886 287.526 69.094C287.086 69.4908 286.559 69.8229 285.947 70.0903C285.343 70.3491 284.662 70.4785 283.903 70.4785C282.954 70.4785 282.121 70.2931 281.405 69.9221C280.698 69.5512 280.146 69.0552 279.749 68.4341C279.361 67.8044 279.167 67.1013 279.167 66.325C279.167 65.5745 279.313 64.9146 279.607 64.3452C279.9 63.7673 280.323 63.2885 280.875 62.9089C281.427 62.5208 282.091 62.2275 282.867 62.0291C283.644 61.8306 284.511 61.7314 285.468 61.7314H288.25ZM296.389 59.2083V70.2197H293.995V56.2192H296.26L296.389 59.2083ZM295.82 62.689L294.823 62.6501C294.832 61.6926 294.974 60.8084 295.25 59.9976C295.527 59.1781 295.915 58.4664 296.415 57.8625C296.915 57.2587 297.511 56.7929 298.201 56.4651C298.899 56.1287 299.671 55.9604 300.517 55.9604C301.207 55.9604 301.828 56.0553 302.38 56.2451C302.932 56.4263 303.402 56.7196 303.791 57.125C304.187 57.5304 304.489 58.0566 304.696 58.7036C304.903 59.342 305.007 60.1226 305.007 61.0457V70.2197H302.6V61.0198C302.6 60.2865 302.492 59.7 302.277 59.26C302.061 58.8114 301.746 58.488 301.332 58.2896C300.918 58.0825 300.409 57.979 299.805 57.979C299.21 57.979 298.667 58.1041 298.175 58.3542C297.692 58.6044 297.273 58.9495 296.92 59.3894C296.575 59.8293 296.303 60.334 296.104 60.9033C295.915 61.464 295.82 62.0592 295.82 62.689ZM317.468 67.5024V50.3447H319.874V70.2197H317.675L317.468 67.5024ZM308.048 63.3748V63.103C308.048 62.0334 308.177 61.0629 308.436 60.1917C308.703 59.3118 309.078 58.557 309.562 57.9272C310.053 57.2975 310.635 56.8145 311.308 56.478C311.99 56.133 312.749 55.9604 313.586 55.9604C314.466 55.9604 315.233 56.1157 315.889 56.4263C316.553 56.7282 317.114 57.1724 317.571 57.759C318.037 58.337 318.403 59.0357 318.671 59.8552C318.938 60.6747 319.124 61.6021 319.227 62.6372V63.8276C319.132 64.8542 318.947 65.7772 318.671 66.5967C318.403 67.4162 318.037 68.1149 317.571 68.6929C317.114 69.2708 316.553 69.7151 315.889 70.0256C315.225 70.3276 314.448 70.4785 313.56 70.4785C312.74 70.4785 311.99 70.3017 311.308 69.948C310.635 69.5943 310.053 69.0983 309.562 68.46C309.078 67.8216 308.703 67.0711 308.436 66.2085C308.177 65.3372 308.048 64.3927 308.048 63.3748ZM310.454 63.103V63.3748C310.454 64.0735 310.523 64.7291 310.661 65.3416C310.808 65.954 311.032 66.4932 311.334 66.959C311.636 67.4248 312.02 67.7914 312.486 68.0588C312.952 68.3176 313.508 68.447 314.155 68.447C314.949 68.447 315.6 68.2788 316.109 67.9424C316.626 67.606 317.041 67.1617 317.351 66.6096C317.662 66.0575 317.903 65.458 318.076 64.811V61.6926C317.972 61.2182 317.821 60.761 317.623 60.321C317.433 59.8725 317.183 59.4757 316.872 59.1306C316.57 58.7769 316.195 58.4966 315.747 58.2896C315.307 58.0825 314.785 57.979 314.181 57.979C313.525 57.979 312.96 58.117 312.486 58.3931C312.02 58.6605 311.636 59.0314 311.334 59.5059C311.032 59.9717 310.808 60.5151 310.661 61.1362C310.523 61.7487 310.454 62.4043 310.454 63.103ZM329.411 70.4785C328.436 70.4785 327.552 70.3146 326.758 69.9868C325.973 69.6504 325.296 69.1803 324.727 68.5764C324.166 67.9726 323.735 67.2566 323.433 66.4285C323.131 65.6003 322.98 64.6946 322.98 63.7112V63.1677C322.98 62.0291 323.148 61.0155 323.484 60.127C323.821 59.2298 324.278 58.4707 324.856 57.8496C325.434 57.2285 326.09 56.7584 326.823 56.4392C327.556 56.12 328.315 55.9604 329.1 55.9604C330.101 55.9604 330.963 56.133 331.688 56.478C332.421 56.8231 333.021 57.3062 333.487 57.9272C333.952 58.5397 334.297 59.2643 334.522 60.1011C334.746 60.9292 334.858 61.835 334.858 62.8184V63.8923H324.403V61.9385H332.464V61.7573C332.43 61.1362 332.3 60.5324 332.076 59.9458C331.861 59.3592 331.515 58.8761 331.041 58.4966C330.567 58.117 329.92 57.9272 329.1 57.9272C328.557 57.9272 328.056 58.0437 327.599 58.2766C327.142 58.5009 326.749 58.8373 326.422 59.2859C326.094 59.7345 325.839 60.2822 325.658 60.9292C325.477 61.5762 325.386 62.3223 325.386 63.1677V63.7112C325.386 64.3754 325.477 65.0008 325.658 65.5874C325.848 66.1654 326.12 66.6743 326.473 67.1143C326.836 67.5542 327.271 67.8993 327.78 68.1494C328.298 68.3996 328.884 68.5247 329.54 68.5247C330.385 68.5247 331.101 68.3521 331.688 68.0071C332.275 67.662 332.788 67.2005 333.228 66.6226L334.677 67.7742C334.375 68.2314 333.991 68.667 333.525 69.0811C333.06 69.4951 332.486 69.8315 331.804 70.0903C331.132 70.3491 330.334 70.4785 329.411 70.4785ZM345.805 66.5061C345.805 66.1611 345.727 65.8419 345.572 65.5486C345.425 65.2467 345.119 64.9749 344.653 64.7334C344.196 64.4832 343.506 64.2676 342.583 64.0864C341.807 63.9225 341.104 63.7284 340.474 63.5042C339.853 63.2799 339.322 63.0081 338.882 62.689C338.451 62.3698 338.119 61.9945 337.886 61.5632C337.653 61.1319 337.537 60.6273 337.537 60.0493C337.537 59.4972 337.657 58.9753 337.899 58.4836C338.149 57.9919 338.498 57.5563 338.947 57.1768C339.404 56.7972 339.952 56.4996 340.59 56.2839C341.229 56.0683 341.94 55.9604 342.725 55.9604C343.847 55.9604 344.804 56.1589 345.598 56.5557C346.392 56.9525 347 57.483 347.422 58.1472C347.845 58.8028 348.056 59.5317 348.056 60.334H345.663C345.663 59.9458 345.546 59.5706 345.313 59.2083C345.089 58.8373 344.757 58.5311 344.317 58.2896C343.886 58.048 343.355 57.9272 342.725 57.9272C342.061 57.9272 341.522 58.0308 341.108 58.2378C340.702 58.4362 340.405 58.6907 340.215 59.0012C340.034 59.3118 339.943 59.6396 339.943 59.9846C339.943 60.2434 339.986 60.4763 340.073 60.6833C340.168 60.8818 340.332 61.0672 340.564 61.2397C340.797 61.4036 341.125 61.5589 341.548 61.7056C341.971 61.8522 342.51 61.9989 343.165 62.1455C344.313 62.4043 345.257 62.7148 345.999 63.0771C346.741 63.4395 347.293 63.8837 347.655 64.4099C348.018 64.9361 348.199 65.5745 348.199 66.325C348.199 66.9374 348.069 67.4981 347.811 68.0071C347.56 68.516 347.194 68.956 346.711 69.3269C346.236 69.6892 345.667 69.9739 345.003 70.1809C344.347 70.3793 343.61 70.4785 342.79 70.4785C341.556 70.4785 340.513 70.2585 339.659 69.8186C338.805 69.3787 338.158 68.8093 337.718 68.1106C337.278 67.4119 337.058 66.6743 337.058 65.8979H339.465C339.499 66.5535 339.689 67.0754 340.034 67.4636C340.379 67.8432 340.802 68.1149 341.302 68.2788C341.802 68.4341 342.298 68.5117 342.79 68.5117C343.446 68.5117 343.993 68.4255 344.433 68.2529C344.882 68.0804 345.223 67.8432 345.456 67.5413C345.688 67.2393 345.805 66.8943 345.805 66.5061ZM353.737 50.3447V70.2197H351.343V50.3447H353.737ZM353.167 62.689L352.171 62.6501C352.18 61.6926 352.322 60.8084 352.598 59.9976C352.874 59.1781 353.262 58.4664 353.763 57.8625C354.263 57.2587 354.858 56.7929 355.548 56.4651C356.247 56.1287 357.019 55.9604 357.865 55.9604C358.555 55.9604 359.176 56.0553 359.728 56.2451C360.28 56.4263 360.75 56.7196 361.138 57.125C361.535 57.5304 361.837 58.0566 362.044 58.7036C362.251 59.342 362.354 60.1226 362.354 61.0457V70.2197H359.948V61.0198C359.948 60.2865 359.84 59.7 359.624 59.26C359.409 58.8114 359.094 58.488 358.68 58.2896C358.266 58.0825 357.757 57.979 357.153 57.979C356.558 57.979 356.014 58.1041 355.522 58.3542C355.039 58.6044 354.621 58.9495 354.267 59.3894C353.922 59.8293 353.651 60.334 353.452 60.9033C353.262 61.464 353.167 62.0592 353.167 62.689ZM369.484 67.7354L373.081 56.2192H374.66L374.349 58.5095L370.688 70.2197H369.148L369.484 67.7354ZM367.064 56.2192L370.131 67.8647L370.351 70.2197H368.734L364.671 56.2192H367.064ZM378.102 67.7742L381.026 56.2192H383.407L379.344 70.2197H377.74L378.102 67.7742ZM375.009 56.2192L378.529 67.5413L378.93 70.2197H377.403L373.638 58.4836L373.327 56.2192H375.009ZM394.121 67.8259V60.6187C394.121 60.0666 394.009 59.5878 393.784 59.1824C393.569 58.7683 393.241 58.4491 392.801 58.2249C392.361 58.0006 391.818 57.8884 391.171 57.8884C390.567 57.8884 390.036 57.9919 389.579 58.199C389.131 58.406 388.777 58.6777 388.518 59.0142C388.268 59.3506 388.143 59.7129 388.143 60.1011H385.749C385.749 59.6007 385.878 59.1047 386.137 58.613C386.396 58.1213 386.767 57.6771 387.25 57.2803C387.742 56.8748 388.328 56.5557 389.01 56.3228C389.7 56.0812 390.468 55.9604 391.313 55.9604C392.331 55.9604 393.228 56.133 394.004 56.478C394.789 56.8231 395.402 57.345 395.842 58.0437C396.29 58.7338 396.515 59.6007 396.515 60.6445V67.166C396.515 67.6318 396.553 68.1278 396.631 68.6541C396.717 69.1803 396.842 69.6331 397.006 70.0127V70.2197H394.509C394.388 69.9437 394.293 69.5771 394.224 69.1199C394.155 68.6541 394.121 68.2227 394.121 67.8259ZM394.535 61.7314L394.561 63.4136H392.141C391.46 63.4136 390.851 63.4696 390.317 63.5818C389.782 63.6853 389.333 63.8449 388.971 64.0605C388.609 64.2762 388.333 64.5479 388.143 64.8757C387.953 65.1949 387.858 65.5701 387.858 66.0015C387.858 66.4414 387.957 66.8425 388.156 67.2048C388.354 67.5671 388.652 67.8561 389.049 68.0718C389.454 68.2788 389.95 68.3823 390.537 68.3823C391.27 68.3823 391.917 68.2271 392.478 67.9165C393.038 67.606 393.483 67.2264 393.81 66.7778C394.147 66.3293 394.328 65.8936 394.354 65.4709L395.376 66.6226C395.316 66.9849 395.152 67.386 394.884 67.8259C394.617 68.2659 394.259 68.6886 393.81 69.094C393.37 69.4908 392.844 69.8229 392.232 70.0903C391.628 70.3491 390.946 70.4785 390.187 70.4785C389.238 70.4785 388.406 70.2931 387.69 69.9221C386.983 69.5512 386.431 69.0552 386.034 68.4341C385.646 67.8044 385.451 67.1013 385.451 66.325C385.451 65.5745 385.598 64.9146 385.891 64.3452C386.185 63.7673 386.607 63.2885 387.159 62.9089C387.712 62.5208 388.376 62.2275 389.152 62.0291C389.928 61.8306 390.795 61.7314 391.753 61.7314H394.535ZM402.674 58.4189V70.2197H400.28V56.2192H402.609L402.674 58.4189ZM407.047 56.1416L407.034 58.3672C406.836 58.3241 406.646 58.2982 406.465 58.2896C406.293 58.2723 406.094 58.2637 405.87 58.2637C405.318 58.2637 404.83 58.3499 404.408 58.5225C403.985 58.695 403.627 58.9365 403.334 59.2471C403.04 59.5576 402.808 59.9285 402.635 60.3599C402.471 60.7826 402.363 61.2484 402.312 61.7573L401.639 62.1455C401.639 61.3001 401.721 60.5065 401.885 59.7646C402.057 59.0228 402.32 58.3672 402.674 57.7979C403.028 57.2199 403.476 56.7713 404.02 56.4521C404.572 56.1243 405.227 55.9604 405.986 55.9604C406.159 55.9604 406.357 55.982 406.582 56.0251C406.806 56.0597 406.961 56.0985 407.047 56.1416ZM415.743 62.689V62.5596C415.743 60.679 415.954 58.9797 416.377 57.4614C416.799 55.9346 417.339 54.5975 417.994 53.4502C418.65 52.3029 419.34 51.354 420.064 50.6035C420.789 49.8444 421.458 49.2966 422.07 48.9602L422.575 50.5388C422.066 50.927 421.548 51.4618 421.022 52.1433C420.504 52.8248 420.026 53.6615 419.586 54.6536C419.154 55.6456 418.805 56.7972 418.538 58.1084C418.27 59.4196 418.136 60.8947 418.136 62.5337V62.7148C418.136 64.3538 418.27 65.8333 418.538 67.1531C418.805 68.4643 419.154 69.6202 419.586 70.6208C420.026 71.6215 420.504 72.4712 421.022 73.1699C421.548 73.8773 422.066 74.438 422.575 74.8521L422.07 76.3013C421.458 75.9648 420.789 75.4171 420.064 74.658C419.34 73.9075 418.65 72.9586 417.994 71.8113C417.339 70.6726 416.799 69.3398 416.377 67.813C415.954 66.2861 415.743 64.5781 415.743 62.689ZM430.377 70.2197H426.444L426.469 68.1882H430.377C431.723 68.1882 432.844 67.9079 433.741 67.3472C434.639 66.7778 435.311 65.9842 435.76 64.9663C436.217 63.9398 436.446 62.7407 436.446 61.3691V60.2175C436.446 59.1392 436.316 58.1817 436.058 57.345C435.799 56.4996 435.419 55.7879 434.919 55.21C434.419 54.6234 433.806 54.1791 433.082 53.8772C432.366 53.5753 431.542 53.4243 430.61 53.4243H426.366V51.3799H430.61C431.844 51.3799 432.969 51.5869 433.987 52.001C435.005 52.4064 435.881 52.9973 436.614 53.7737C437.356 54.5414 437.925 55.4731 438.322 56.5686C438.719 57.6555 438.917 58.8805 438.917 60.2434V61.3691C438.917 62.7321 438.719 63.9613 438.322 65.0569C437.925 66.1438 437.352 67.0711 436.601 67.8389C435.859 68.6066 434.962 69.1975 433.91 69.6116C432.866 70.017 431.688 70.2197 430.377 70.2197ZM427.776 51.3799V70.2197H425.279V51.3799H427.776ZM448.117 70.4785C447.142 70.4785 446.258 70.3146 445.465 69.9868C444.68 69.6504 444.002 69.1803 443.433 68.5764C442.872 67.9726 442.441 67.2566 442.139 66.4285C441.837 65.6003 441.686 64.6946 441.686 63.7112V63.1677C441.686 62.0291 441.854 61.0155 442.191 60.127C442.527 59.2298 442.985 58.4707 443.562 57.8496C444.14 57.2285 444.796 56.7584 445.529 56.4392C446.263 56.12 447.022 55.9604 447.807 55.9604C448.807 55.9604 449.67 56.133 450.395 56.478C451.128 56.8231 451.727 57.3062 452.193 57.9272C452.659 58.5397 453.004 59.2643 453.228 60.1011C453.453 60.9292 453.565 61.835 453.565 62.8184V63.8923H443.11V61.9385H451.171V61.7573C451.136 61.1362 451.007 60.5324 450.783 59.9458C450.567 59.3592 450.222 58.8761 449.748 58.4966C449.273 58.117 448.626 57.9272 447.807 57.9272C447.263 57.9272 446.763 58.0437 446.306 58.2766C445.848 58.5009 445.456 58.8373 445.128 59.2859C444.8 59.7345 444.546 60.2822 444.365 60.9292C444.184 61.5762 444.093 62.3223 444.093 63.1677V63.7112C444.093 64.3754 444.184 65.0008 444.365 65.5874C444.555 66.1654 444.826 66.6743 445.18 67.1143C445.542 67.5542 445.978 67.8993 446.487 68.1494C447.004 68.3996 447.591 68.5247 448.247 68.5247C449.092 68.5247 449.808 68.3521 450.395 68.0071C450.981 67.662 451.494 67.2005 451.934 66.6226L453.384 67.7742C453.082 68.2314 452.698 68.667 452.232 69.0811C451.766 69.4951 451.192 69.8315 450.511 70.0903C449.838 70.3491 449.04 70.4785 448.117 70.4785ZM462.169 70.4785C461.195 70.4785 460.31 70.3146 459.517 69.9868C458.732 69.6504 458.055 69.1803 457.485 68.5764C456.925 67.9726 456.493 67.2566 456.191 66.4285C455.889 65.6003 455.739 64.6946 455.739 63.7112V63.1677C455.739 62.0291 455.907 61.0155 456.243 60.127C456.58 59.2298 457.037 58.4707 457.615 57.8496C458.193 57.2285 458.848 56.7584 459.582 56.4392C460.315 56.12 461.074 55.9604 461.859 55.9604C462.86 55.9604 463.722 56.133 464.447 56.478C465.18 56.8231 465.78 57.3062 466.245 57.9272C466.711 58.5397 467.056 59.2643 467.281 60.1011C467.505 60.9292 467.617 61.835 467.617 62.8184V63.8923H457.162V61.9385H465.223V61.7573C465.189 61.1362 465.059 60.5324 464.835 59.9458C464.619 59.3592 464.274 58.8761 463.8 58.4966C463.325 58.117 462.678 57.9272 461.859 57.9272C461.315 57.9272 460.815 58.0437 460.358 58.2766C459.901 58.5009 459.508 58.8373 459.18 59.2859C458.853 59.7345 458.598 60.2822 458.417 60.9292C458.236 61.5762 458.145 62.3223 458.145 63.1677V63.7112C458.145 64.3754 458.236 65.0008 458.417 65.5874C458.607 66.1654 458.878 66.6743 459.232 67.1143C459.594 67.5542 460.03 67.8993 460.539 68.1494C461.057 68.3996 461.643 68.5247 462.299 68.5247C463.144 68.5247 463.86 68.3521 464.447 68.0071C465.033 67.662 465.547 67.2005 465.987 66.6226L467.436 67.7742C467.134 68.2314 466.75 68.667 466.284 69.0811C465.818 69.4951 465.245 69.8315 464.563 70.0903C463.89 70.3491 463.092 70.4785 462.169 70.4785ZM472.793 59.0012V70.2197H470.386V56.2192H472.663L472.793 59.0012ZM472.301 62.689L471.188 62.6501C471.197 61.6926 471.322 60.8084 471.563 59.9976C471.805 59.1781 472.163 58.4664 472.637 57.8625C473.112 57.2587 473.703 56.7929 474.41 56.4651C475.118 56.1287 475.937 55.9604 476.869 55.9604C477.524 55.9604 478.128 56.0553 478.68 56.2451C479.232 56.4263 479.711 56.7153 480.116 57.1121C480.522 57.5089 480.837 58.0178 481.061 58.6389C481.285 59.26 481.397 60.0105 481.397 60.8904V70.2197H479.004V61.0068C479.004 60.2736 478.879 59.687 478.628 59.2471C478.387 58.8071 478.042 58.488 477.593 58.2896C477.145 58.0825 476.618 57.979 476.015 57.979C475.307 57.979 474.716 58.1041 474.242 58.3542C473.767 58.6044 473.388 58.9495 473.103 59.3894C472.819 59.8293 472.612 60.334 472.482 60.9033C472.361 61.464 472.301 62.0592 472.301 62.689ZM481.372 61.3691L479.767 61.8608C479.776 61.0931 479.901 60.3556 480.142 59.6482C480.392 58.9408 480.75 58.3111 481.216 57.759C481.691 57.2069 482.273 56.7713 482.963 56.4521C483.653 56.1243 484.443 55.9604 485.331 55.9604C486.082 55.9604 486.746 56.0597 487.324 56.2581C487.91 56.4565 488.402 56.7627 488.799 57.1768C489.204 57.5822 489.51 58.1041 489.718 58.7424C489.925 59.3808 490.028 60.1399 490.028 61.0198V70.2197H487.621V60.9939C487.621 60.2089 487.496 59.6007 487.246 59.1694C487.005 58.7295 486.66 58.4233 486.211 58.2507C485.771 58.0696 485.245 57.979 484.632 57.979C484.106 57.979 483.64 58.0696 483.235 58.2507C482.829 58.4319 482.489 58.682 482.213 59.0012C481.937 59.3118 481.725 59.6698 481.579 60.0752C481.441 60.4806 481.372 60.9119 481.372 61.3691ZM499.461 70.4785C498.486 70.4785 497.602 70.3146 496.808 69.9868C496.023 69.6504 495.346 69.1803 494.777 68.5764C494.216 67.9726 493.785 67.2566 493.483 66.4285C493.181 65.6003 493.03 64.6946 493.03 63.7112V63.1677C493.03 62.0291 493.198 61.0155 493.535 60.127C493.871 59.2298 494.328 58.4707 494.906 57.8496C495.484 57.2285 496.14 56.7584 496.873 56.4392C497.606 56.12 498.365 55.9604 499.15 55.9604C500.151 55.9604 501.014 56.133 501.738 56.478C502.472 56.8231 503.071 57.3062 503.537 57.9272C504.003 58.5397 504.348 59.2643 504.572 60.1011C504.796 60.9292 504.908 61.835 504.908 62.8184V63.8923H494.453V61.9385H502.515V61.7573C502.48 61.1362 502.351 60.5324 502.126 59.9458C501.911 59.3592 501.566 58.8761 501.091 58.4966C500.617 58.117 499.97 57.9272 499.15 57.9272C498.607 57.9272 498.107 58.0437 497.649 58.2766C497.192 58.5009 496.8 58.8373 496.472 59.2859C496.144 59.7345 495.89 60.2822 495.708 60.9292C495.527 61.5762 495.437 62.3223 495.437 63.1677V63.7112C495.437 64.3754 495.527 65.0008 495.708 65.5874C495.898 66.1654 496.17 66.6743 496.524 67.1143C496.886 67.5542 497.322 67.8993 497.831 68.1494C498.348 68.3996 498.935 68.5247 499.59 68.5247C500.436 68.5247 501.152 68.3521 501.738 68.0071C502.325 67.662 502.838 67.2005 503.278 66.6226L504.727 67.7742C504.425 68.2314 504.042 68.667 503.576 69.0811C503.11 69.4951 502.536 69.8315 501.855 70.0903C501.182 70.3491 500.384 70.4785 499.461 70.4785ZM516.528 67.5024V50.3447H518.935V70.2197H516.735L516.528 67.5024ZM507.108 63.3748V63.103C507.108 62.0334 507.238 61.0629 507.496 60.1917C507.764 59.3118 508.139 58.557 508.622 57.9272C509.114 57.2975 509.696 56.8145 510.369 56.478C511.05 56.133 511.809 55.9604 512.646 55.9604C513.526 55.9604 514.294 56.1157 514.949 56.4263C515.614 56.7282 516.174 57.1724 516.632 57.759C517.097 58.337 517.464 59.0357 517.731 59.8552C517.999 60.6747 518.184 61.6021 518.288 62.6372V63.8276C518.193 64.8542 518.007 65.7772 517.731 66.5967C517.464 67.4162 517.097 68.1149 516.632 68.6929C516.174 69.2708 515.614 69.7151 514.949 70.0256C514.285 70.3276 513.509 70.4785 512.62 70.4785C511.801 70.4785 511.05 70.3017 510.369 69.948C509.696 69.5943 509.114 69.0983 508.622 68.46C508.139 67.8216 507.764 67.0711 507.496 66.2085C507.238 65.3372 507.108 64.3927 507.108 63.3748ZM509.515 63.103V63.3748C509.515 64.0735 509.584 64.7291 509.722 65.3416C509.869 65.954 510.093 66.4932 510.395 66.959C510.697 67.4248 511.081 67.7914 511.546 68.0588C512.012 68.3176 512.569 68.447 513.216 68.447C514.009 68.447 514.66 68.2788 515.169 67.9424C515.687 67.606 516.101 67.1617 516.412 66.6096C516.722 66.0575 516.964 65.458 517.136 64.811V61.6926C517.033 61.2182 516.882 60.761 516.683 60.321C516.494 59.8725 516.243 59.4757 515.933 59.1306C515.631 58.7769 515.256 58.4966 514.807 58.2896C514.367 58.0825 513.845 57.979 513.241 57.979C512.586 57.979 512.021 58.117 511.546 58.3931C511.081 58.6605 510.697 59.0314 510.395 59.5059C510.093 59.9717 509.869 60.5151 509.722 61.1362C509.584 61.7487 509.515 62.4043 509.515 63.103ZM535.096 56.2192V58.0566H527.527V56.2192H535.096ZM530.089 52.8162H532.482V66.752C532.482 67.2264 532.556 67.5844 532.702 67.8259C532.849 68.0675 533.039 68.2271 533.272 68.3047C533.505 68.3823 533.755 68.4211 534.022 68.4211C534.221 68.4211 534.428 68.4039 534.643 68.3694C534.868 68.3263 535.036 68.2917 535.148 68.2659L535.161 70.2197C534.971 70.2801 534.721 70.3362 534.41 70.3879C534.108 70.4483 533.742 70.4785 533.311 70.4785C532.724 70.4785 532.185 70.3621 531.693 70.1292C531.201 69.8962 530.809 69.5081 530.516 68.9646C530.231 68.4125 530.089 67.6707 530.089 66.739V52.8162ZM537.011 63.3748V63.0771C537.011 62.0679 537.158 61.1319 537.451 60.2693C537.744 59.398 538.167 58.6432 538.719 58.0049C539.271 57.3579 539.94 56.8576 540.725 56.5039C541.51 56.1416 542.39 55.9604 543.365 55.9604C544.348 55.9604 545.232 56.1416 546.017 56.5039C546.811 56.8576 547.484 57.3579 548.036 58.0049C548.596 58.6432 549.023 59.398 549.317 60.2693C549.61 61.1319 549.757 62.0679 549.757 63.0771V63.3748C549.757 64.384 549.61 65.32 549.317 66.1826C549.023 67.0452 548.596 67.8 548.036 68.447C547.484 69.0854 546.815 69.5857 546.03 69.948C545.254 70.3017 544.374 70.4785 543.39 70.4785C542.407 70.4785 541.523 70.3017 540.738 69.948C539.953 69.5857 539.28 69.0854 538.719 68.447C538.167 67.8 537.744 67.0452 537.451 66.1826C537.158 65.32 537.011 64.384 537.011 63.3748ZM539.405 63.0771V63.3748C539.405 64.0735 539.487 64.7334 539.651 65.3545C539.815 65.967 540.061 66.5104 540.388 66.9849C540.725 67.4593 541.143 67.8346 541.644 68.1106C542.144 68.378 542.726 68.5117 543.39 68.5117C544.046 68.5117 544.62 68.378 545.111 68.1106C545.612 67.8346 546.026 67.4593 546.354 66.9849C546.681 66.5104 546.927 65.967 547.091 65.3545C547.264 64.7334 547.35 64.0735 547.35 63.3748V63.0771C547.35 62.387 547.264 61.7358 547.091 61.1233C546.927 60.5022 546.677 59.9544 546.341 59.48C546.013 58.9969 545.599 58.6174 545.098 58.3413C544.607 58.0653 544.029 57.9272 543.365 57.9272C542.709 57.9272 542.131 58.0653 541.631 58.3413C541.139 58.6174 540.725 58.9969 540.388 59.48C540.061 59.9544 539.815 60.5022 539.651 61.1233C539.487 61.7358 539.405 62.387 539.405 63.0771ZM559.319 50.3447H561.726V67.5024L561.519 70.2197H559.319V50.3447ZM571.184 63.103V63.3748C571.184 64.3927 571.064 65.3372 570.822 66.2085C570.58 67.0711 570.227 67.8216 569.761 68.46C569.295 69.0983 568.726 69.5943 568.053 69.948C567.38 70.3017 566.608 70.4785 565.737 70.4785C564.848 70.4785 564.068 70.3276 563.395 70.0256C562.731 69.7151 562.17 69.2708 561.713 68.6929C561.255 68.1149 560.889 67.4162 560.613 66.5967C560.345 65.7772 560.16 64.8542 560.056 63.8276V62.6372C560.16 61.6021 560.345 60.6747 560.613 59.8552C560.889 59.0357 561.255 58.337 561.713 57.759C562.17 57.1724 562.731 56.7282 563.395 56.4263C564.059 56.1157 564.831 55.9604 565.711 55.9604C566.591 55.9604 567.372 56.133 568.053 56.478C568.734 56.8145 569.304 57.2975 569.761 57.9272C570.227 58.557 570.58 59.3118 570.822 60.1917C571.064 61.0629 571.184 62.0334 571.184 63.103ZM568.778 63.3748V63.103C568.778 62.4043 568.713 61.7487 568.583 61.1362C568.454 60.5151 568.247 59.9717 567.962 59.5059C567.678 59.0314 567.302 58.6605 566.837 58.3931C566.371 58.117 565.797 57.979 565.116 57.979C564.512 57.979 563.986 58.0825 563.537 58.2896C563.097 58.4966 562.722 58.7769 562.411 59.1306C562.101 59.4757 561.846 59.8725 561.648 60.321C561.458 60.761 561.316 61.2182 561.221 61.6926V64.811C561.359 65.4149 561.583 65.9972 561.894 66.5579C562.213 67.1099 562.636 67.5628 563.162 67.9165C563.697 68.2702 564.357 68.447 565.142 68.447C565.789 68.447 566.341 68.3176 566.798 68.0588C567.264 67.7914 567.639 67.4248 567.924 66.959C568.217 66.4932 568.433 65.954 568.571 65.3416C568.709 64.7291 568.778 64.0735 568.778 63.3748ZM580.022 70.4785C579.047 70.4785 578.163 70.3146 577.369 69.9868C576.584 69.6504 575.907 69.1803 575.338 68.5764C574.777 67.9726 574.346 67.2566 574.044 66.4285C573.742 65.6003 573.591 64.6946 573.591 63.7112V63.1677C573.591 62.0291 573.759 61.0155 574.096 60.127C574.432 59.2298 574.889 58.4707 575.467 57.8496C576.045 57.2285 576.701 56.7584 577.434 56.4392C578.167 56.12 578.926 55.9604 579.711 55.9604C580.712 55.9604 581.575 56.133 582.299 56.478C583.033 56.8231 583.632 57.3062 584.098 57.9272C584.564 58.5397 584.909 59.2643 585.133 60.1011C585.357 60.9292 585.469 61.835 585.469 62.8184V63.8923H575.014V61.9385H583.076V61.7573C583.041 61.1362 582.912 60.5324 582.688 59.9458C582.472 59.3592 582.127 58.8761 581.652 58.4966C581.178 58.117 580.531 57.9272 579.711 57.9272C579.168 57.9272 578.668 58.0437 578.21 58.2766C577.753 58.5009 577.361 58.8373 577.033 59.2859C576.705 59.7345 576.451 60.2822 576.27 60.9292C576.088 61.5762 575.998 62.3223 575.998 63.1677V63.7112C575.998 64.3754 576.088 65.0008 576.27 65.5874C576.459 66.1654 576.731 66.6743 577.085 67.1143C577.447 67.5542 577.883 67.8993 578.392 68.1494C578.909 68.3996 579.496 68.5247 580.151 68.5247C580.997 68.5247 581.713 68.3521 582.299 68.0071C582.886 67.662 583.399 67.2005 583.839 66.6226L585.288 67.7742C584.986 68.2314 584.603 68.667 584.137 69.0811C583.671 69.4951 583.097 69.8315 582.416 70.0903C581.743 70.3491 580.945 70.4785 580.022 70.4785ZM605.979 51.3799H608.463V64.1252C608.463 65.54 608.148 66.7174 607.518 67.6577C606.889 68.598 606.052 69.3053 605.008 69.7798C603.973 70.2456 602.847 70.4785 601.631 70.4785C600.354 70.4785 599.198 70.2456 598.163 69.7798C597.137 69.3053 596.321 68.598 595.718 67.6577C595.122 66.7174 594.825 65.54 594.825 64.1252V51.3799H597.296V64.1252C597.296 65.1086 597.477 65.9195 597.84 66.5579C598.202 67.1962 598.707 67.6707 599.354 67.9812C600.009 68.2917 600.768 68.447 601.631 68.447C602.502 68.447 603.261 68.2917 603.908 67.9812C604.564 67.6707 605.073 67.1962 605.435 66.5579C605.797 65.9195 605.979 65.1086 605.979 64.1252V51.3799ZM614.415 59.2083V70.2197H612.021V56.2192H614.286L614.415 59.2083ZM613.846 62.689L612.849 62.6501C612.858 61.6926 613 60.8084 613.276 59.9976C613.552 59.1781 613.941 58.4664 614.441 57.8625C614.941 57.2587 615.536 56.7929 616.227 56.4651C616.925 56.1287 617.697 55.9604 618.543 55.9604C619.233 55.9604 619.854 56.0553 620.406 56.2451C620.958 56.4263 621.428 56.7196 621.816 57.125C622.213 57.5304 622.515 58.0566 622.722 58.7036C622.929 59.342 623.033 60.1226 623.033 61.0457V70.2197H620.626V61.0198C620.626 60.2865 620.518 59.7 620.302 59.26C620.087 58.8114 619.772 58.488 619.358 58.2896C618.944 58.0825 618.435 57.979 617.831 57.979C617.236 57.979 616.692 58.1041 616.201 58.3542C615.718 58.6044 615.299 58.9495 614.946 59.3894C614.601 59.8293 614.329 60.334 614.13 60.9033C613.941 61.464 613.846 62.0592 613.846 62.689ZM629.27 56.2192V70.2197H626.863V56.2192H629.27ZM626.682 52.5056C626.682 52.1174 626.798 51.7896 627.031 51.5222C627.273 51.2548 627.626 51.1211 628.092 51.1211C628.549 51.1211 628.899 51.2548 629.14 51.5222C629.39 51.7896 629.515 52.1174 629.515 52.5056C629.515 52.8765 629.39 53.1957 629.14 53.4631C628.899 53.7219 628.549 53.8513 628.092 53.8513C627.626 53.8513 627.273 53.7219 627.031 53.4631C626.798 53.1957 626.682 52.8765 626.682 52.5056ZM637.37 68.0588L641.2 56.2192H643.645L638.612 70.2197H637.007L637.37 68.0588ZM634.174 56.2192L638.12 68.1235L638.392 70.2197H636.787L631.715 56.2192H634.174ZM651.577 70.4785C650.602 70.4785 649.718 70.3146 648.925 69.9868C648.14 69.6504 647.462 69.1803 646.893 68.5764C646.332 67.9726 645.901 67.2566 645.599 66.4285C645.297 65.6003 645.146 64.6946 645.146 63.7112V63.1677C645.146 62.0291 645.314 61.0155 645.651 60.127C645.987 59.2298 646.444 58.4707 647.022 57.8496C647.6 57.2285 648.256 56.7584 648.989 56.4392C649.722 56.12 650.482 55.9604 651.267 55.9604C652.267 55.9604 653.13 56.133 653.854 56.478C654.588 56.8231 655.187 57.3062 655.653 57.9272C656.119 58.5397 656.464 59.2643 656.688 60.1011C656.913 60.9292 657.025 61.835 657.025 62.8184V63.8923H646.57V61.9385H654.631V61.7573C654.596 61.1362 654.467 60.5324 654.243 59.9458C654.027 59.3592 653.682 58.8761 653.208 58.4966C652.733 58.117 652.086 57.9272 651.267 57.9272C650.723 57.9272 650.223 58.0437 649.766 58.2766C649.308 58.5009 648.916 58.8373 648.588 59.2859C648.26 59.7345 648.006 60.2822 647.825 60.9292C647.644 61.5762 647.553 62.3223 647.553 63.1677V63.7112C647.553 64.3754 647.644 65.0008 647.825 65.5874C648.014 66.1654 648.286 66.6743 648.64 67.1143C649.002 67.5542 649.438 67.8993 649.947 68.1494C650.464 68.3996 651.051 68.5247 651.707 68.5247C652.552 68.5247 653.268 68.3521 653.854 68.0071C654.441 67.662 654.954 67.2005 655.394 66.6226L656.844 67.7742C656.542 68.2314 656.158 68.667 655.692 69.0811C655.226 69.4951 654.652 69.8315 653.971 70.0903C653.298 70.3491 652.5 70.4785 651.577 70.4785ZM662.213 58.4189V70.2197H659.82V56.2192H662.149L662.213 58.4189ZM666.587 56.1416L666.574 58.3672C666.376 58.3241 666.186 58.2982 666.005 58.2896C665.832 58.2723 665.634 58.2637 665.409 58.2637C664.857 58.2637 664.37 58.3499 663.947 58.5225C663.525 58.695 663.167 58.9365 662.873 59.2471C662.58 59.5576 662.347 59.9285 662.175 60.3599C662.011 60.7826 661.903 61.2484 661.851 61.7573L661.178 62.1455C661.178 61.3001 661.26 60.5065 661.424 59.7646C661.597 59.0228 661.86 58.3672 662.213 57.7979C662.567 57.2199 663.016 56.7713 663.559 56.4521C664.111 56.1243 664.767 55.9604 665.526 55.9604C665.698 55.9604 665.897 55.982 666.121 56.0251C666.345 56.0597 666.501 56.0985 666.587 56.1416ZM676.951 66.5061C676.951 66.1611 676.874 65.8419 676.719 65.5486C676.572 65.2467 676.266 64.9749 675.8 64.7334C675.343 64.4832 674.653 64.2676 673.729 64.0864C672.953 63.9225 672.25 63.7284 671.62 63.5042C670.999 63.2799 670.469 63.0081 670.029 62.689C669.597 62.3698 669.265 61.9945 669.032 61.5632C668.8 61.1319 668.683 60.6273 668.683 60.0493C668.683 59.4972 668.804 58.9753 669.045 58.4836C669.296 57.9919 669.645 57.5563 670.094 57.1768C670.551 56.7972 671.098 56.4996 671.737 56.2839C672.375 56.0683 673.087 55.9604 673.872 55.9604C674.993 55.9604 675.951 56.1589 676.744 56.5557C677.538 56.9525 678.146 57.483 678.569 58.1472C678.992 58.8028 679.203 59.5317 679.203 60.334H676.809C676.809 59.9458 676.693 59.5706 676.46 59.2083C676.235 58.8373 675.903 58.5311 675.463 58.2896C675.032 58.048 674.502 57.9272 673.872 57.9272C673.208 57.9272 672.668 58.0308 672.254 58.2378C671.849 58.4362 671.551 58.6907 671.362 59.0012C671.18 59.3118 671.09 59.6396 671.09 59.9846C671.09 60.2434 671.133 60.4763 671.219 60.6833C671.314 60.8818 671.478 61.0672 671.711 61.2397C671.944 61.4036 672.272 61.5589 672.694 61.7056C673.117 61.8522 673.656 61.9989 674.312 62.1455C675.459 62.4043 676.404 62.7148 677.146 63.0771C677.887 63.4395 678.439 63.8837 678.802 64.4099C679.164 64.9361 679.345 65.5745 679.345 66.325C679.345 66.9374 679.216 67.4981 678.957 68.0071C678.707 68.516 678.34 68.956 677.857 69.3269C677.383 69.6892 676.813 69.9739 676.149 70.1809C675.494 70.3793 674.756 70.4785 673.937 70.4785C672.703 70.4785 671.659 70.2585 670.805 69.8186C669.951 69.3787 669.304 68.8093 668.864 68.1106C668.424 67.4119 668.204 66.6743 668.204 65.8979H670.611C670.646 66.5535 670.835 67.0754 671.18 67.4636C671.525 67.8432 671.948 68.1149 672.448 68.2788C672.949 68.4341 673.445 68.5117 673.937 68.5117C674.592 68.5117 675.14 68.4255 675.58 68.2529C676.028 68.0804 676.369 67.8432 676.602 67.5413C676.835 67.2393 676.951 66.8943 676.951 66.5061ZM685.09 56.2192V70.2197H682.684V56.2192H685.09ZM682.502 52.5056C682.502 52.1174 682.619 51.7896 682.852 51.5222C683.093 51.2548 683.447 51.1211 683.913 51.1211C684.37 51.1211 684.719 51.2548 684.961 51.5222C685.211 51.7896 685.336 52.1174 685.336 52.5056C685.336 52.8765 685.211 53.1957 684.961 53.4631C684.719 53.7219 684.37 53.8513 683.913 53.8513C683.447 53.8513 683.093 53.7219 682.852 53.4631C682.619 53.1957 682.502 52.8765 682.502 52.5056ZM694.795 56.2192V58.0566H687.225V56.2192H694.795ZM689.787 52.8162H692.181V66.752C692.181 67.2264 692.254 67.5844 692.401 67.8259C692.548 68.0675 692.738 68.2271 692.97 68.3047C693.203 68.3823 693.454 68.4211 693.721 68.4211C693.919 68.4211 694.126 68.4039 694.342 68.3694C694.566 68.3263 694.735 68.2917 694.847 68.2659L694.86 70.2197C694.67 70.2801 694.42 70.3362 694.109 70.3879C693.807 70.4483 693.441 70.4785 693.009 70.4785C692.423 70.4785 691.884 70.3621 691.392 70.1292C690.9 69.8962 690.508 69.5081 690.214 68.9646C689.93 68.4125 689.787 67.6707 689.787 66.739V52.8162ZM701.536 68.7705L705.431 56.2192H707.993L702.377 72.3806C702.248 72.7257 702.076 73.0966 701.86 73.4934C701.653 73.8988 701.385 74.2827 701.058 74.645C700.73 75.0073 700.333 75.3006 699.867 75.5249C699.41 75.7578 698.862 75.8743 698.224 75.8743C698.034 75.8743 697.793 75.8484 697.499 75.7966C697.206 75.7449 696.999 75.7017 696.878 75.6672L696.865 73.7263C696.934 73.7349 697.042 73.7436 697.189 73.7522C697.344 73.7694 697.452 73.7781 697.512 73.7781C698.056 73.7781 698.517 73.7048 698.897 73.5581C699.276 73.4201 699.595 73.1829 699.854 72.8464C700.122 72.5186 700.35 72.0658 700.54 71.4878L701.536 68.7705ZM698.677 56.2192L702.313 67.0884L702.934 69.6116L701.213 70.4915L696.063 56.2192H698.677ZM715.666 62.5596V62.689C715.666 64.5781 715.455 66.2861 715.032 67.813C714.61 69.3398 714.07 70.6726 713.415 71.8113C712.759 72.9586 712.069 73.9075 711.344 74.658C710.62 75.4171 709.951 75.9648 709.339 76.3013L708.834 74.8521C709.343 74.4639 709.856 73.9204 710.374 73.2217C710.892 72.5316 711.37 71.6776 711.81 70.6597C712.25 69.6504 712.604 68.4858 712.871 67.166C713.139 65.8376 713.272 64.3538 713.272 62.7148V62.5337C713.272 60.8947 713.13 59.4153 712.845 58.0955C712.561 56.767 712.19 55.5981 711.733 54.5889C711.284 53.5796 710.801 52.7299 710.283 52.0398C709.774 51.3411 709.291 50.8019 708.834 50.4224L709.339 48.9602C709.951 49.2966 710.62 49.8444 711.344 50.6035C712.069 51.354 712.759 52.3029 713.415 53.4502C714.07 54.5975 714.61 55.9346 715.032 57.4614C715.455 58.9797 715.666 60.679 715.666 62.5596Z" fill="black" fill-opacity="0.6"/>
</svg>
