<svg width="710" height="77" viewBox="0 0 710 77" fill="none" xmlns="http://www.w3.org/2000/svg">
<rect width="295.009" height="76.6333" transform="translate(207.363 0.097168)" fill="white"/>
<line x1="6.12796" y1="-6.12796" x2="31.9279" y2="-6.12796" transform="matrix(0.849972 -0.526828 0.620393 0.784291 215.258 46.1045)" stroke="#DB4437" stroke-width="12.2559" stroke-linecap="round"/>
<line x1="6.12796" y1="-6.12796" x2="31.9094" y2="-6.12796" transform="matrix(-0.84773 0.530428 -0.623996 -0.781427 279.102 31.4019)" stroke="#F4B400" stroke-width="12.2559" stroke-linecap="round"/>
<line x1="6.12796" y1="-6.12796" x2="31.9279" y2="-6.12796" transform="matrix(0.849972 0.526828 -0.620393 0.784291 207.363 39.8408)" stroke="#4285F4" stroke-width="12.2559" stroke-linecap="round"/>
<line x1="6.12796" y1="-6.12796" x2="31.9279" y2="-6.12796" transform="matrix(-0.849972 -0.526828 0.620393 -0.784291 287.371 36.9873)" stroke="#0F9D58" stroke-width="12.2559" stroke-linecap="round"/>
<path d="M317.484 39.4531H327.465V53.3008C325.967 53.8086 324.424 54.1862 322.836 54.4336C321.26 54.681 319.496 54.8047 317.543 54.8047C314.574 54.8047 312.068 54.2122 310.023 53.0273C307.992 51.8424 306.449 50.1562 305.395 47.9688C304.34 45.7682 303.812 43.1576 303.812 40.1367C303.812 37.181 304.392 34.6029 305.551 32.4023C306.723 30.2018 308.409 28.4961 310.609 27.2852C312.823 26.0612 315.479 25.4492 318.578 25.4492C320.167 25.4492 321.671 25.599 323.09 25.8984C324.522 26.1849 325.85 26.5951 327.074 27.1289L325.805 30.0195C324.75 29.5638 323.585 29.1732 322.309 28.8477C321.046 28.5221 319.737 28.3594 318.383 28.3594C316.052 28.3594 314.053 28.8411 312.387 29.8047C310.733 30.7682 309.464 32.1289 308.578 33.8867C307.706 35.6445 307.27 37.7279 307.27 40.1367C307.27 42.5195 307.654 44.5964 308.422 46.3672C309.19 48.125 310.388 49.4922 312.016 50.4688C313.643 51.4453 315.74 51.9336 318.305 51.9336C319.594 51.9336 320.701 51.862 321.625 51.7188C322.549 51.5625 323.389 51.3802 324.145 51.1719V42.4219H317.484V39.4531ZM433.148 39.4531H443.129V53.3008C441.632 53.8086 440.089 54.1862 438.5 54.4336C436.924 54.681 435.16 54.8047 433.207 54.8047C430.238 54.8047 427.732 54.2122 425.688 53.0273C423.656 51.8424 422.113 50.1562 421.059 47.9688C420.004 45.7682 419.477 43.1576 419.477 40.1367C419.477 37.181 420.056 34.6029 421.215 32.4023C422.387 30.2018 424.073 28.4961 426.273 27.2852C428.487 26.0612 431.143 25.4492 434.242 25.4492C435.831 25.4492 437.335 25.599 438.754 25.8984C440.186 26.1849 441.514 26.5951 442.738 27.1289L441.469 30.0195C440.414 29.5638 439.249 29.1732 437.973 28.8477C436.71 28.5221 435.401 28.3594 434.047 28.3594C431.716 28.3594 429.717 28.8411 428.051 29.8047C426.397 30.7682 425.128 32.1289 424.242 33.8867C423.37 35.6445 422.934 37.7279 422.934 40.1367C422.934 42.5195 423.318 44.5964 424.086 46.3672C424.854 48.125 426.052 49.4922 427.68 50.4688C429.307 51.4453 431.404 51.9336 433.969 51.9336C435.258 51.9336 436.365 51.862 437.289 51.7188C438.214 51.5625 439.053 51.3802 439.809 51.1719V42.4219H433.148V39.4531Z" fill="#DB4437"/>
<path d="M357.055 39.8633C357.055 43.0794 356.469 45.7682 355.297 47.9297C354.125 50.0781 352.426 51.6992 350.199 52.793C347.986 53.8737 345.297 54.4141 342.133 54.4141H334.379V25.8594H342.992C345.896 25.8594 348.396 26.3932 350.492 27.4609C352.589 28.5156 354.203 30.0846 355.336 32.168C356.482 34.2383 357.055 36.8034 357.055 39.8633ZM353.559 39.9805C353.559 37.4154 353.129 35.2995 352.27 33.6328C351.423 31.9661 350.173 30.7292 348.52 29.9219C346.879 29.1016 344.867 28.6914 342.484 28.6914H337.699V51.5625H341.742C345.674 51.5625 348.624 50.5924 350.59 48.6523C352.569 46.7122 353.559 43.8216 353.559 39.9805Z" fill="#4285F4"/>
<path d="M379.516 46.8164C379.516 48.5091 379.092 49.9544 378.246 51.1523C377.413 52.3372 376.241 53.2422 374.73 53.8672C373.22 54.4922 371.443 54.8047 369.398 54.8047C368.318 54.8047 367.296 54.7526 366.332 54.6484C365.368 54.5443 364.483 54.3945 363.676 54.1992C362.868 54.0039 362.159 53.763 361.547 53.4766V50.293C362.523 50.6966 363.715 51.0742 365.121 51.4258C366.527 51.7643 367.999 51.9336 369.535 51.9336C370.967 51.9336 372.178 51.7448 373.168 51.3672C374.158 50.9766 374.906 50.4232 375.414 49.707C375.935 48.9779 376.195 48.1055 376.195 47.0898C376.195 46.1133 375.98 45.2995 375.551 44.6484C375.121 43.9844 374.405 43.3854 373.402 42.8516C372.413 42.3047 371.059 41.7253 369.34 41.1133C368.129 40.6836 367.061 40.2148 366.137 39.707C365.212 39.1862 364.438 38.6003 363.812 37.9492C363.188 37.2982 362.712 36.543 362.387 35.6836C362.074 34.8242 361.918 33.8411 361.918 32.7344C361.918 31.2109 362.302 29.9089 363.07 28.8281C363.852 27.7344 364.926 26.901 366.293 26.3281C367.673 25.7422 369.255 25.4492 371.039 25.4492C372.562 25.4492 373.969 25.5924 375.258 25.8789C376.56 26.1654 377.751 26.5495 378.832 27.0312L377.797 29.8828C376.768 29.4531 375.674 29.0951 374.516 28.8086C373.37 28.5221 372.185 28.3789 370.961 28.3789C369.737 28.3789 368.702 28.5612 367.855 28.9258C367.022 29.2773 366.384 29.7786 365.941 30.4297C365.499 31.0807 365.277 31.8555 365.277 32.7539C365.277 33.7565 365.486 34.5898 365.902 35.2539C366.332 35.918 367.009 36.5104 367.934 37.0312C368.871 37.5391 370.108 38.0729 371.645 38.6328C373.324 39.2448 374.75 39.8958 375.922 40.5859C377.094 41.263 377.986 42.0964 378.598 43.0859C379.21 44.0625 379.516 45.306 379.516 46.8164ZM477.113 54.4141H461.215V25.8594H477.113V28.7891H464.535V38.0273H476.391V40.918H464.535V51.4844H477.113V54.4141Z" fill="#109D59"/>
<path d="M397.562 28.3789C395.987 28.3789 394.568 28.6523 393.305 29.1992C392.055 29.7331 390.987 30.5143 390.102 31.543C389.229 32.5586 388.559 33.7891 388.09 35.2344C387.621 36.6797 387.387 38.3073 387.387 40.1172C387.387 42.513 387.758 44.5964 388.5 46.3672C389.255 48.125 390.375 49.4857 391.859 50.4492C393.357 51.4128 395.225 51.8945 397.465 51.8945C398.741 51.8945 399.939 51.7904 401.059 51.582C402.191 51.3607 403.292 51.0872 404.359 50.7617V53.6523C403.318 54.043 402.224 54.3294 401.078 54.5117C399.932 54.707 398.572 54.8047 396.996 54.8047C394.092 54.8047 391.664 54.2057 389.711 53.0078C387.771 51.7969 386.312 50.0911 385.336 47.8906C384.372 45.6901 383.891 43.0924 383.891 40.0977C383.891 37.9362 384.19 35.9635 384.789 34.1797C385.401 32.3828 386.286 30.8333 387.445 29.5312C388.617 28.2292 390.049 27.2266 391.742 26.5234C393.448 25.8073 395.401 25.4492 397.602 25.4492C399.047 25.4492 400.44 25.5924 401.781 25.8789C403.122 26.1654 404.333 26.5755 405.414 27.1094L404.086 29.9219C403.174 29.5052 402.172 29.1471 401.078 28.8477C399.997 28.5352 398.826 28.3789 397.562 28.3789ZM492.211 54.4141H488.871V28.7891H479.887V25.8594H501.156V28.7891H492.211V54.4141Z" fill="#F8BC04"/>
<path d="M450.043 54.4141V25.8594H453.363V54.4141H450.043Z" fill="#4187F6"/>
</svg>
