<svg width="717" height="79" viewBox="0 0 717 79" fill="none" xmlns="http://www.w3.org/2000/svg">
<rect width="716.009" height="76.6333" transform="translate(0.863281 0.402832)" fill="white"/>
<line x1="6.12796" y1="-6.12796" x2="31.9279" y2="-6.12796" transform="matrix(0.849972 -0.526828 0.620393 0.784291 8.75781 46.4102)" stroke="#DB4437" stroke-width="12.2559" stroke-linecap="round"/>
<line x1="6.12796" y1="-6.12796" x2="31.9094" y2="-6.12796" transform="matrix(-0.84773 0.530428 -0.623996 -0.781427 72.6016 31.7075)" stroke="#F4B400" stroke-width="12.2559" stroke-linecap="round"/>
<line x1="6.12796" y1="-6.12796" x2="31.9279" y2="-6.12796" transform="matrix(0.849972 0.526828 -0.620393 0.784291 0.863281 40.1465)" stroke="#4285F4" stroke-width="12.2559" stroke-linecap="round"/>
<line x1="6.12796" y1="-6.12796" x2="31.9279" y2="-6.12796" transform="matrix(-0.849972 -0.526828 0.620393 -0.784291 80.8711 37.293)" stroke="#0F9D58" stroke-width="12.2559" stroke-linecap="round"/>
<path d="M110.145 18.2119H120.809V32.5479C119.311 33.0426 117.762 33.4268 116.16 33.7002C114.559 33.9736 112.762 34.1104 110.77 34.1104C107.866 34.1104 105.405 33.5374 103.387 32.3916C101.382 31.2327 99.8581 29.5596 98.8164 27.3721C97.7747 25.1715 97.2539 22.5218 97.2539 19.4229C97.2539 16.4411 97.8333 13.8564 98.9922 11.6689C100.151 9.46842 101.837 7.76921 104.051 6.57129C106.264 5.36035 108.947 4.75488 112.098 4.75488C113.647 4.75488 115.145 4.91113 116.59 5.22363C118.048 5.52311 119.383 5.93978 120.594 6.47363L118.953 10.3408C117.99 9.88509 116.909 9.50098 115.711 9.18848C114.513 8.87598 113.27 8.71973 111.98 8.71973C109.936 8.71973 108.172 9.16243 106.688 10.0479C105.216 10.9333 104.083 12.1833 103.289 13.7979C102.495 15.3994 102.098 17.2939 102.098 19.4814C102.098 21.6038 102.417 23.4658 103.055 25.0674C103.693 26.6689 104.689 27.9189 106.043 28.8174C107.41 29.7028 109.174 30.1455 111.336 30.1455C112.417 30.1455 113.335 30.0869 114.09 29.9697C114.845 29.8525 115.542 29.7223 116.18 29.5791V22.2158H110.145V18.2119ZM146.316 22.8604C146.316 24.6572 146.082 26.2523 145.613 27.6455C145.145 29.0387 144.461 30.2171 143.562 31.1807C142.664 32.1312 141.583 32.8604 140.32 33.3682C139.057 33.863 137.632 34.1104 136.043 34.1104C134.559 34.1104 133.198 33.863 131.961 33.3682C130.724 32.8604 129.65 32.1312 128.738 31.1807C127.84 30.2171 127.143 29.0387 126.648 27.6455C126.154 26.2523 125.906 24.6572 125.906 22.8604C125.906 20.4775 126.316 18.4593 127.137 16.8057C127.97 15.139 129.155 13.8695 130.691 12.9971C132.228 12.1247 134.057 11.6885 136.18 11.6885C138.172 11.6885 139.93 12.1247 141.453 12.9971C142.977 13.8695 144.168 15.139 145.027 16.8057C145.887 18.4723 146.316 20.4906 146.316 22.8604ZM130.633 22.8604C130.633 24.4359 130.822 25.7835 131.199 26.9033C131.59 28.0231 132.189 28.8825 132.996 29.4814C133.803 30.0674 134.845 30.3604 136.121 30.3604C137.397 30.3604 138.439 30.0674 139.246 29.4814C140.053 28.8825 140.646 28.0231 141.023 26.9033C141.401 25.7835 141.59 24.4359 141.59 22.8604C141.59 21.2848 141.401 19.9502 141.023 18.8564C140.646 17.7497 140.053 16.9098 139.246 16.3369C138.439 15.751 137.391 15.458 136.102 15.458C134.201 15.458 132.814 16.096 131.941 17.3721C131.069 18.6481 130.633 20.4775 130.633 22.8604ZM170.73 22.8604C170.73 24.6572 170.496 26.2523 170.027 27.6455C169.559 29.0387 168.875 30.2171 167.977 31.1807C167.078 32.1312 165.997 32.8604 164.734 33.3682C163.471 33.863 162.046 34.1104 160.457 34.1104C158.973 34.1104 157.612 33.863 156.375 33.3682C155.138 32.8604 154.064 32.1312 153.152 31.1807C152.254 30.2171 151.557 29.0387 151.062 27.6455C150.568 26.2523 150.32 24.6572 150.32 22.8604C150.32 20.4775 150.73 18.4593 151.551 16.8057C152.384 15.139 153.569 13.8695 155.105 12.9971C156.642 12.1247 158.471 11.6885 160.594 11.6885C162.586 11.6885 164.344 12.1247 165.867 12.9971C167.391 13.8695 168.582 15.139 169.441 16.8057C170.301 18.4723 170.73 20.4906 170.73 22.8604ZM155.047 22.8604C155.047 24.4359 155.236 25.7835 155.613 26.9033C156.004 28.0231 156.603 28.8825 157.41 29.4814C158.217 30.0674 159.259 30.3604 160.535 30.3604C161.811 30.3604 162.853 30.0674 163.66 29.4814C164.467 28.8825 165.06 28.0231 165.438 26.9033C165.815 25.7835 166.004 24.4359 166.004 22.8604C166.004 21.2848 165.815 19.9502 165.438 18.8564C165.06 17.7497 164.467 16.9098 163.66 16.3369C162.853 15.751 161.805 15.458 160.516 15.458C158.615 15.458 157.228 16.096 156.355 17.3721C155.483 18.6481 155.047 20.4775 155.047 22.8604ZM182.176 43.3291C179.246 43.3291 177 42.8018 175.438 41.7471C173.875 40.6924 173.094 39.2145 173.094 37.3135C173.094 35.9854 173.51 34.859 174.344 33.9346C175.177 33.0231 176.368 32.3916 177.918 32.04C177.332 31.7796 176.824 31.376 176.395 30.8291C175.978 30.2692 175.77 29.6507 175.77 28.9736C175.77 28.1663 175.997 27.4762 176.453 26.9033C176.909 26.3304 177.592 25.777 178.504 25.2432C177.371 24.7614 176.46 23.9801 175.77 22.8994C175.092 21.8057 174.754 20.5231 174.754 19.0518C174.754 17.4893 175.086 16.1611 175.75 15.0674C176.414 13.9606 177.384 13.1208 178.66 12.5479C179.936 11.9619 181.479 11.6689 183.289 11.6689C183.68 11.6689 184.103 11.695 184.559 11.7471C185.027 11.7861 185.457 11.8382 185.848 11.9033C186.251 11.9554 186.557 12.014 186.766 12.0791H194.246V14.6377L190.574 15.3213C190.926 15.8161 191.206 16.3825 191.414 17.0205C191.622 17.6455 191.727 18.3291 191.727 19.0713C191.727 21.3109 190.952 23.0752 189.402 24.3643C187.866 25.6403 185.743 26.2783 183.035 26.2783C182.384 26.2523 181.753 26.2002 181.141 26.1221C180.672 26.4085 180.314 26.7275 180.066 27.0791C179.819 27.4176 179.695 27.8018 179.695 28.2314C179.695 28.583 179.819 28.8695 180.066 29.0908C180.314 29.2992 180.678 29.4554 181.16 29.5596C181.655 29.6637 182.254 29.7158 182.957 29.7158H186.688C189.057 29.7158 190.867 30.2171 192.117 31.2197C193.367 32.2223 193.992 33.6937 193.992 35.6338C193.992 38.0947 192.977 39.9893 190.945 41.3174C188.914 42.6585 185.991 43.3291 182.176 43.3291ZM182.352 40.1064C183.953 40.1064 185.301 39.9502 186.395 39.6377C187.488 39.3252 188.315 38.876 188.875 38.29C189.435 37.7171 189.715 37.0335 189.715 36.2393C189.715 35.5361 189.539 34.9958 189.188 34.6182C188.836 34.2406 188.309 33.9801 187.605 33.8369C186.902 33.6937 186.03 33.6221 184.988 33.6221H181.59C180.743 33.6221 179.995 33.7523 179.344 34.0127C178.693 34.2861 178.185 34.6768 177.82 35.1846C177.469 35.6924 177.293 36.3044 177.293 37.0205C177.293 38.0101 177.729 38.7718 178.602 39.3057C179.487 39.8395 180.737 40.1064 182.352 40.1064ZM183.25 23.2705C184.591 23.2705 185.587 22.9059 186.238 22.1768C186.889 21.4346 187.215 20.3929 187.215 19.0518C187.215 17.5934 186.876 16.4997 186.199 15.7705C185.535 15.0413 184.546 14.6768 183.23 14.6768C181.941 14.6768 180.958 15.0479 180.281 15.79C179.617 16.5322 179.285 17.6325 179.285 19.0908C179.285 20.4059 179.617 21.4346 180.281 22.1768C180.958 22.9059 181.948 23.2705 183.25 23.2705ZM202.801 33.7197H198.191V3.3291H202.801V33.7197ZM217.977 11.6885C219.904 11.6885 221.557 12.0856 222.938 12.8799C224.318 13.6742 225.379 14.8005 226.121 16.2588C226.863 17.7171 227.234 19.4619 227.234 21.4932V23.9541H212.801C212.853 26.0505 213.413 27.665 214.48 28.7979C215.561 29.9307 217.072 30.4971 219.012 30.4971C220.392 30.4971 221.629 30.3669 222.723 30.1064C223.829 29.833 224.969 29.4359 226.141 28.915V32.6455C225.06 33.1533 223.96 33.5244 222.84 33.7588C221.72 33.9932 220.379 34.1104 218.816 34.1104C216.694 34.1104 214.826 33.7002 213.211 32.8799C211.609 32.0465 210.353 30.8096 209.441 29.1689C208.543 27.5283 208.094 25.4906 208.094 23.0557C208.094 20.6338 208.504 18.5765 209.324 16.8838C210.145 15.1911 211.297 13.902 212.781 13.0166C214.266 12.1312 215.997 11.6885 217.977 11.6885ZM217.977 15.1455C216.531 15.1455 215.359 15.6143 214.461 16.5518C213.576 17.4893 213.055 18.863 212.898 20.6729H222.742C222.729 19.5921 222.547 18.6351 222.195 17.8018C221.857 16.9684 221.336 16.3174 220.633 15.8486C219.943 15.3799 219.057 15.1455 217.977 15.1455ZM266.453 19.1689C266.453 22.3851 265.854 25.0739 264.656 27.2354C263.458 29.3838 261.72 31.0049 259.441 32.0986C257.163 33.1794 254.415 33.7197 251.199 33.7197H243.27V5.16504H252.059C255.014 5.16504 257.566 5.69889 259.715 6.7666C261.863 7.82129 263.523 9.3903 264.695 11.4736C265.867 13.5439 266.453 16.109 266.453 19.1689ZM261.57 19.3057C261.57 16.9619 261.199 15.0348 260.457 13.5244C259.728 12.014 258.647 10.8942 257.215 10.165C255.796 9.42285 254.044 9.05176 251.961 9.05176H247.957V29.7939H251.277C254.728 29.7939 257.306 28.915 259.012 27.1572C260.717 25.3994 261.57 22.7822 261.57 19.3057ZM280.75 11.6885C282.677 11.6885 284.331 12.0856 285.711 12.8799C287.091 13.6742 288.152 14.8005 288.895 16.2588C289.637 17.7171 290.008 19.4619 290.008 21.4932V23.9541H275.574C275.626 26.0505 276.186 27.665 277.254 28.7979C278.335 29.9307 279.845 30.4971 281.785 30.4971C283.165 30.4971 284.402 30.3669 285.496 30.1064C286.603 29.833 287.742 29.4359 288.914 28.915V32.6455C287.833 33.1533 286.733 33.5244 285.613 33.7588C284.493 33.9932 283.152 34.1104 281.59 34.1104C279.467 34.1104 277.599 33.7002 275.984 32.8799C274.383 32.0465 273.126 30.8096 272.215 29.1689C271.316 27.5283 270.867 25.4906 270.867 23.0557C270.867 20.6338 271.277 18.5765 272.098 16.8838C272.918 15.1911 274.07 13.902 275.555 13.0166C277.039 12.1312 278.771 11.6885 280.75 11.6885ZM280.75 15.1455C279.305 15.1455 278.133 15.6143 277.234 16.5518C276.349 17.4893 275.828 18.863 275.672 20.6729H285.516C285.503 19.5921 285.32 18.6351 284.969 17.8018C284.63 16.9684 284.109 16.3174 283.406 15.8486C282.716 15.3799 281.831 15.1455 280.75 15.1455ZM300.125 33.7197L291.902 12.0986H296.766L301.219 24.7939C301.505 25.6012 301.766 26.4736 302 27.4111C302.234 28.3486 302.397 29.1364 302.488 29.7744H302.645C302.736 29.1104 302.911 28.3161 303.172 27.3916C303.432 26.4541 303.699 25.5882 303.973 24.7939L308.426 12.0986H313.27L305.047 33.7197H300.125ZM325.164 11.6885C327.091 11.6885 328.745 12.0856 330.125 12.8799C331.505 13.6742 332.566 14.8005 333.309 16.2588C334.051 17.7171 334.422 19.4619 334.422 21.4932V23.9541H319.988C320.04 26.0505 320.6 27.665 321.668 28.7979C322.749 29.9307 324.259 30.4971 326.199 30.4971C327.579 30.4971 328.816 30.3669 329.91 30.1064C331.017 29.833 332.156 29.4359 333.328 28.915V32.6455C332.247 33.1533 331.147 33.5244 330.027 33.7588C328.908 33.9932 327.566 34.1104 326.004 34.1104C323.882 34.1104 322.013 33.7002 320.398 32.8799C318.797 32.0465 317.54 30.8096 316.629 29.1689C315.73 27.5283 315.281 25.4906 315.281 23.0557C315.281 20.6338 315.691 18.5765 316.512 16.8838C317.332 15.1911 318.484 13.902 319.969 13.0166C321.453 12.1312 323.185 11.6885 325.164 11.6885ZM325.164 15.1455C323.719 15.1455 322.547 15.6143 321.648 16.5518C320.763 17.4893 320.242 18.863 320.086 20.6729H329.93C329.917 19.5921 329.734 18.6351 329.383 17.8018C329.044 16.9684 328.523 16.3174 327.82 15.8486C327.13 15.3799 326.245 15.1455 325.164 15.1455ZM344.207 33.7197H339.598V3.3291H344.207V33.7197ZM369.91 22.8604C369.91 24.6572 369.676 26.2523 369.207 27.6455C368.738 29.0387 368.055 30.2171 367.156 31.1807C366.258 32.1312 365.177 32.8604 363.914 33.3682C362.651 33.863 361.225 34.1104 359.637 34.1104C358.152 34.1104 356.792 33.863 355.555 33.3682C354.318 32.8604 353.243 32.1312 352.332 31.1807C351.434 30.2171 350.737 29.0387 350.242 27.6455C349.747 26.2523 349.5 24.6572 349.5 22.8604C349.5 20.4775 349.91 18.4593 350.73 16.8057C351.564 15.139 352.749 13.8695 354.285 12.9971C355.822 12.1247 357.651 11.6885 359.773 11.6885C361.766 11.6885 363.523 12.1247 365.047 12.9971C366.57 13.8695 367.762 15.139 368.621 16.8057C369.48 18.4723 369.91 20.4906 369.91 22.8604ZM354.227 22.8604C354.227 24.4359 354.415 25.7835 354.793 26.9033C355.184 28.0231 355.783 28.8825 356.59 29.4814C357.397 30.0674 358.439 30.3604 359.715 30.3604C360.991 30.3604 362.033 30.0674 362.84 29.4814C363.647 28.8825 364.24 28.0231 364.617 26.9033C364.995 25.7835 365.184 24.4359 365.184 22.8604C365.184 21.2848 364.995 19.9502 364.617 18.8564C364.24 17.7497 363.647 16.9098 362.84 16.3369C362.033 15.751 360.984 15.458 359.695 15.458C357.794 15.458 356.408 16.096 355.535 17.3721C354.663 18.6481 354.227 20.4775 354.227 22.8604ZM386.277 11.6885C388.842 11.6885 390.9 12.626 392.449 14.501C394.012 16.376 394.793 19.1624 394.793 22.8604C394.793 25.3083 394.428 27.3721 393.699 29.0518C392.983 30.7184 391.974 31.9814 390.672 32.8408C389.383 33.6872 387.879 34.1104 386.16 34.1104C385.066 34.1104 384.116 33.9671 383.309 33.6807C382.501 33.3942 381.811 33.0231 381.238 32.5674C380.665 32.0986 380.184 31.5908 379.793 31.0439H379.52C379.585 31.5648 379.643 32.1442 379.695 32.7822C379.76 33.4072 379.793 33.9801 379.793 34.501V43.3096H375.184V12.0986H378.934L379.578 15.0869H379.793C380.197 14.4749 380.685 13.9085 381.258 13.3877C381.844 12.8669 382.547 12.4567 383.367 12.1572C384.201 11.8447 385.171 11.6885 386.277 11.6885ZM385.047 15.4385C383.784 15.4385 382.768 15.6924 382 16.2002C381.245 16.695 380.691 17.4437 380.34 18.4463C380.001 19.4489 379.819 20.7054 379.793 22.2158V22.8604C379.793 24.4619 379.956 25.8226 380.281 26.9424C380.62 28.0492 381.173 28.8955 381.941 29.4814C382.723 30.0544 383.777 30.3408 385.105 30.3408C386.225 30.3408 387.15 30.0348 387.879 29.4229C388.621 28.8109 389.174 27.9385 389.539 26.8057C389.904 25.6729 390.086 24.3382 390.086 22.8018C390.086 20.471 389.669 18.6611 388.836 17.3721C388.016 16.083 386.753 15.4385 385.047 15.4385ZM408.719 11.6885C410.646 11.6885 412.299 12.0856 413.68 12.8799C415.06 13.6742 416.121 14.8005 416.863 16.2588C417.605 17.7171 417.977 19.4619 417.977 21.4932V23.9541H403.543C403.595 26.0505 404.155 27.665 405.223 28.7979C406.303 29.9307 407.814 30.4971 409.754 30.4971C411.134 30.4971 412.371 30.3669 413.465 30.1064C414.572 29.833 415.711 29.4359 416.883 28.915V32.6455C415.802 33.1533 414.702 33.5244 413.582 33.7588C412.462 33.9932 411.121 34.1104 409.559 34.1104C407.436 34.1104 405.568 33.7002 403.953 32.8799C402.352 32.0465 401.095 30.8096 400.184 29.1689C399.285 27.5283 398.836 25.4906 398.836 23.0557C398.836 20.6338 399.246 18.5765 400.066 16.8838C400.887 15.1911 402.039 13.902 403.523 13.0166C405.008 12.1312 406.74 11.6885 408.719 11.6885ZM408.719 15.1455C407.273 15.1455 406.102 15.6143 405.203 16.5518C404.318 17.4893 403.797 18.863 403.641 20.6729H413.484C413.471 19.5921 413.289 18.6351 412.938 17.8018C412.599 16.9684 412.078 16.3174 411.375 15.8486C410.685 15.3799 409.799 15.1455 408.719 15.1455ZM434.109 11.6885C434.474 11.6885 434.871 11.708 435.301 11.7471C435.73 11.7861 436.102 11.8382 436.414 11.9033L435.984 16.2002C435.711 16.1221 435.372 16.0635 434.969 16.0244C434.578 15.9854 434.227 15.9658 433.914 15.9658C433.094 15.9658 432.312 16.1025 431.57 16.376C430.828 16.6364 430.171 17.04 429.598 17.5869C429.025 18.1208 428.576 18.7913 428.25 19.5986C427.924 20.4059 427.762 21.3434 427.762 22.4111V33.7197H423.152V12.0986H426.746L427.371 15.9072H427.586C428.016 15.139 428.549 14.4359 429.188 13.7979C429.826 13.1598 430.555 12.652 431.375 12.2744C432.208 11.8838 433.12 11.6885 434.109 11.6885ZM467.762 25.9463C467.762 27.639 467.345 29.0973 466.512 30.3213C465.691 31.5452 464.507 32.4827 462.957 33.1338C461.421 33.7848 459.585 34.1104 457.449 34.1104C456.408 34.1104 455.411 34.0518 454.461 33.9346C453.51 33.8174 452.612 33.6481 451.766 33.4268C450.932 33.1924 450.171 32.9124 449.48 32.5869V28.1729C450.639 28.6807 451.935 29.1429 453.367 29.5596C454.799 29.9632 456.258 30.165 457.742 30.165C458.953 30.165 459.956 30.0088 460.75 29.6963C461.557 29.3708 462.156 28.915 462.547 28.3291C462.938 27.7301 463.133 27.0335 463.133 26.2393C463.133 25.3929 462.905 24.6768 462.449 24.0908C461.993 23.5049 461.303 22.971 460.379 22.4893C459.467 21.9945 458.322 21.4671 456.941 20.9072C456.004 20.5296 455.105 20.0999 454.246 19.6182C453.4 19.1364 452.645 18.57 451.98 17.9189C451.316 17.2679 450.789 16.4997 450.398 15.6143C450.021 14.7158 449.832 13.6611 449.832 12.4502C449.832 10.8356 450.216 9.4554 450.984 8.30957C451.766 7.16374 452.859 6.28483 454.266 5.67285C455.685 5.06087 457.339 4.75488 459.227 4.75488C460.724 4.75488 462.13 4.91113 463.445 5.22363C464.773 5.53613 466.076 5.97884 467.352 6.55176L465.867 10.3213C464.695 9.83952 463.556 9.4554 462.449 9.16895C461.355 8.88249 460.236 8.73926 459.09 8.73926C458.1 8.73926 457.26 8.889 456.57 9.18848C455.88 9.48796 455.353 9.91113 454.988 10.458C454.637 10.9919 454.461 11.6299 454.461 12.3721C454.461 13.2054 454.663 13.9085 455.066 14.4814C455.483 15.0413 456.121 15.5557 456.98 16.0244C457.853 16.4932 458.973 17.014 460.34 17.5869C461.915 18.238 463.25 18.9215 464.344 19.6377C465.451 20.3538 466.297 21.2132 466.883 22.2158C467.469 23.2054 467.762 24.4489 467.762 25.9463ZM480.848 30.3994C481.447 30.3994 482.039 30.3473 482.625 30.2432C483.211 30.126 483.745 29.9893 484.227 29.833V33.3096C483.719 33.5309 483.061 33.7197 482.254 33.876C481.447 34.0322 480.607 34.1104 479.734 34.1104C478.51 34.1104 477.41 33.9085 476.434 33.5049C475.457 33.0882 474.682 32.3786 474.109 31.376C473.536 30.3734 473.25 28.9867 473.25 27.2158V15.5947H470.301V13.5439L473.465 11.9229L474.969 7.29395H477.859V12.0986H484.051V15.5947H477.859V27.1572C477.859 28.251 478.133 29.0648 478.68 29.5986C479.227 30.1325 479.949 30.3994 480.848 30.3994ZM507.469 12.0986V33.7197H503.855L503.23 30.8096H502.977C502.521 31.5518 501.941 32.1702 501.238 32.665C500.535 33.1468 499.754 33.5049 498.895 33.7393C498.035 33.9867 497.13 34.1104 496.18 34.1104C494.552 34.1104 493.159 33.8369 492 33.29C490.854 32.7301 489.975 31.8708 489.363 30.7119C488.751 29.5531 488.445 28.0557 488.445 26.2197V12.0986H493.055V25.3604C493.055 27.04 493.393 28.2965 494.07 29.1299C494.76 29.9632 495.828 30.3799 497.273 30.3799C498.667 30.3799 499.773 30.0934 500.594 29.5205C501.414 28.9476 501.993 28.1012 502.332 26.9814C502.684 25.8617 502.859 24.488 502.859 22.8604V12.0986H507.469ZM521.316 34.1104C518.738 34.1104 516.668 33.1729 515.105 31.2979C513.556 29.4098 512.781 26.6299 512.781 22.958C512.781 19.2471 513.569 16.4411 515.145 14.54C516.733 12.639 518.823 11.6885 521.414 11.6885C522.508 11.6885 523.465 11.8382 524.285 12.1377C525.105 12.4242 525.809 12.8148 526.395 13.3096C526.993 13.8044 527.501 14.3577 527.918 14.9697H528.133C528.068 14.5661 527.99 13.9867 527.898 13.2314C527.82 12.4632 527.781 11.7536 527.781 11.1025V3.3291H532.391V33.7197H528.797L527.977 30.7705H527.781C527.391 31.3955 526.896 31.9619 526.297 32.4697C525.711 32.9645 525.008 33.3617 524.188 33.6611C523.38 33.9606 522.423 34.1104 521.316 34.1104ZM522.605 30.3799C524.572 30.3799 525.958 29.8135 526.766 28.6807C527.573 27.5479 527.99 25.8486 528.016 23.583V22.9775C528.016 20.5557 527.625 18.7002 526.844 17.4111C526.062 16.109 524.637 15.458 522.566 15.458C520.913 15.458 519.65 16.1286 518.777 17.4697C517.918 18.7979 517.488 20.6533 517.488 23.0361C517.488 25.4189 517.918 27.2419 518.777 28.5049C519.65 29.7549 520.926 30.3799 522.605 30.3799ZM547.586 11.6885C549.513 11.6885 551.167 12.0856 552.547 12.8799C553.927 13.6742 554.988 14.8005 555.73 16.2588C556.473 17.7171 556.844 19.4619 556.844 21.4932V23.9541H542.41C542.462 26.0505 543.022 27.665 544.09 28.7979C545.171 29.9307 546.681 30.4971 548.621 30.4971C550.001 30.4971 551.238 30.3669 552.332 30.1064C553.439 29.833 554.578 29.4359 555.75 28.915V32.6455C554.669 33.1533 553.569 33.5244 552.449 33.7588C551.329 33.9932 549.988 34.1104 548.426 34.1104C546.303 34.1104 544.435 33.7002 542.82 32.8799C541.219 32.0465 539.962 30.8096 539.051 29.1689C538.152 27.5283 537.703 25.4906 537.703 23.0557C537.703 20.6338 538.113 18.5765 538.934 16.8838C539.754 15.1911 540.906 13.902 542.391 13.0166C543.875 12.1312 545.607 11.6885 547.586 11.6885ZM547.586 15.1455C546.141 15.1455 544.969 15.6143 544.07 16.5518C543.185 17.4893 542.664 18.863 542.508 20.6729H552.352C552.339 19.5921 552.156 18.6351 551.805 17.8018C551.466 16.9684 550.945 16.3174 550.242 15.8486C549.552 15.3799 548.667 15.1455 547.586 15.1455ZM573.289 11.6885C575.724 11.6885 577.618 12.32 578.973 13.583C580.34 14.833 581.023 16.8447 581.023 19.6182V33.7197H576.434V20.4775C576.434 18.7979 576.089 17.5413 575.398 16.708C574.708 15.8617 573.641 15.4385 572.195 15.4385C570.099 15.4385 568.641 16.083 567.82 17.3721C567.013 18.6611 566.609 20.5296 566.609 22.9775V33.7197H562.02V12.0986H565.594L566.238 15.0283H566.492C566.961 14.2731 567.54 13.6546 568.23 13.1729C568.934 12.6781 569.715 12.307 570.574 12.0596C571.447 11.8122 572.352 11.6885 573.289 11.6885ZM595.496 30.3994C596.095 30.3994 596.688 30.3473 597.273 30.2432C597.859 30.126 598.393 29.9893 598.875 29.833V33.3096C598.367 33.5309 597.71 33.7197 596.902 33.876C596.095 34.0322 595.255 34.1104 594.383 34.1104C593.159 34.1104 592.059 33.9085 591.082 33.5049C590.105 33.0882 589.331 32.3786 588.758 31.376C588.185 30.3734 587.898 28.9867 587.898 27.2158V15.5947H584.949V13.5439L588.113 11.9229L589.617 7.29395H592.508V12.0986H598.699V15.5947H592.508V27.1572C592.508 28.251 592.781 29.0648 593.328 29.5986C593.875 30.1325 594.598 30.3994 595.496 30.3994ZM626.297 8.73926C624.93 8.73926 623.706 8.98665 622.625 9.48145C621.557 9.97624 620.652 10.6924 619.91 11.6299C619.168 12.5544 618.602 13.6807 618.211 15.0088C617.82 16.3239 617.625 17.8083 617.625 19.4619C617.625 21.6755 617.938 23.583 618.562 25.1846C619.188 26.7731 620.138 27.9971 621.414 28.8564C622.69 29.7028 624.305 30.126 626.258 30.126C627.469 30.126 628.647 30.0088 629.793 29.7744C630.939 29.54 632.124 29.221 633.348 28.8174V32.8018C632.189 33.2575 631.017 33.5895 629.832 33.7979C628.647 34.0062 627.28 34.1104 625.73 34.1104C622.814 34.1104 620.392 33.5049 618.465 32.2939C616.551 31.083 615.118 29.3773 614.168 27.1768C613.23 24.9762 612.762 22.3981 612.762 19.4424C612.762 17.2809 613.061 15.3018 613.66 13.5049C614.259 11.708 615.132 10.1585 616.277 8.85645C617.423 7.54134 618.836 6.53223 620.516 5.8291C622.208 5.11296 624.142 4.75488 626.316 4.75488C627.749 4.75488 629.155 4.91764 630.535 5.24316C631.928 5.55566 633.217 6.00488 634.402 6.59082L632.762 10.458C631.772 9.98926 630.737 9.58561 629.656 9.24707C628.576 8.90853 627.456 8.73926 626.297 8.73926ZM643.621 33.7197H639.012V3.3291H643.621V33.7197ZM669.031 12.0986V33.7197H665.418L664.793 30.8096H664.539C664.083 31.5518 663.504 32.1702 662.801 32.665C662.098 33.1468 661.316 33.5049 660.457 33.7393C659.598 33.9867 658.693 34.1104 657.742 34.1104C656.115 34.1104 654.721 33.8369 653.562 33.29C652.417 32.7301 651.538 31.8708 650.926 30.7119C650.314 29.5531 650.008 28.0557 650.008 26.2197V12.0986H654.617V25.3604C654.617 27.04 654.956 28.2965 655.633 29.1299C656.323 29.9632 657.391 30.3799 658.836 30.3799C660.229 30.3799 661.336 30.0934 662.156 29.5205C662.977 28.9476 663.556 28.1012 663.895 26.9814C664.246 25.8617 664.422 24.488 664.422 22.8604V12.0986H669.031ZM680.203 3.3291V10.6533C680.203 11.4997 680.177 12.333 680.125 13.1533C680.086 13.9606 680.047 14.5921 680.008 15.0479H680.203C680.789 14.1104 681.603 13.3226 682.645 12.6846C683.699 12.0335 685.047 11.708 686.688 11.708C689.253 11.708 691.316 12.652 692.879 14.54C694.441 16.415 695.223 19.195 695.223 22.8799C695.223 25.3278 694.865 27.3851 694.148 29.0518C693.432 30.7184 692.423 31.9814 691.121 32.8408C689.832 33.6872 688.315 34.1104 686.57 34.1104C684.93 34.1104 683.602 33.8109 682.586 33.2119C681.583 32.5999 680.796 31.8903 680.223 31.083H679.891L679.051 33.7197H675.613V3.3291H680.203ZM685.477 15.4385C684.174 15.4385 683.139 15.6989 682.371 16.2197C681.616 16.7406 681.069 17.5218 680.73 18.5635C680.392 19.5921 680.216 20.9007 680.203 22.4893V22.8994C680.203 25.3083 680.581 27.1507 681.336 28.4268C682.104 29.7028 683.497 30.3408 685.516 30.3408C687.117 30.3408 688.348 29.6963 689.207 28.4072C690.066 27.1051 690.496 25.2432 690.496 22.8213C690.496 20.3734 690.066 18.5309 689.207 17.2939C688.361 16.057 687.117 15.4385 685.477 15.4385ZM715.066 27.5479C715.066 28.9671 714.721 30.165 714.031 31.1416C713.341 32.1182 712.332 32.8604 711.004 33.3682C709.689 33.863 708.074 34.1104 706.16 34.1104C704.65 34.1104 703.348 33.9997 702.254 33.7783C701.173 33.57 700.151 33.2445 699.188 32.8018V28.8369C700.216 29.3187 701.368 29.7354 702.645 30.0869C703.934 30.4385 705.151 30.6143 706.297 30.6143C707.807 30.6143 708.895 30.3799 709.559 29.9111C710.223 29.4294 710.555 28.7913 710.555 27.9971C710.555 27.5283 710.418 27.1117 710.145 26.7471C709.884 26.3695 709.389 25.9854 708.66 25.5947C707.944 25.1911 706.889 24.7093 705.496 24.1494C704.129 23.6025 702.977 23.0557 702.039 22.5088C701.102 21.9619 700.392 21.3044 699.91 20.5361C699.428 19.7549 699.188 18.7588 699.188 17.5479C699.188 15.6338 699.943 14.182 701.453 13.1924C702.977 12.1898 704.988 11.6885 707.488 11.6885C708.816 11.6885 710.066 11.8252 711.238 12.0986C712.423 12.359 713.582 12.7432 714.715 13.251L713.27 16.708C712.293 16.2783 711.31 15.9268 710.32 15.6533C709.344 15.3669 708.348 15.2236 707.332 15.2236C706.147 15.2236 705.242 15.4059 704.617 15.7705C704.005 16.1351 703.699 16.6559 703.699 17.333C703.699 17.8408 703.849 18.2705 704.148 18.6221C704.448 18.9736 704.962 19.3252 705.691 19.6768C706.434 20.0283 707.462 20.4645 708.777 20.9854C710.066 21.4801 711.18 22.001 712.117 22.5479C713.068 23.0817 713.797 23.7393 714.305 24.5205C714.812 25.3018 715.066 26.3109 715.066 27.5479ZM114.031 71.7197H111.541V61.627H100.291V71.7197H97.8008V50.3037H100.291V59.4297H111.541V50.3037H114.031V71.7197ZM124.96 55.4014C126.874 55.4014 128.295 55.8311 129.222 56.6904C130.15 57.5498 130.614 58.9219 130.614 60.8066V71.7197H128.841L128.373 69.3467H128.255C127.806 69.9326 127.337 70.4258 126.849 70.8262C126.361 71.2168 125.795 71.5146 125.15 71.7197C124.515 71.915 123.734 72.0127 122.806 72.0127C121.83 72.0127 120.961 71.8418 120.199 71.5C119.447 71.1582 118.851 70.6406 118.412 69.9473C117.982 69.2539 117.767 68.375 117.767 67.3105C117.767 65.709 118.402 64.4785 119.671 63.6191C120.941 62.7598 122.875 62.291 125.472 62.2129L128.241 62.0957V61.1143C128.241 59.7275 127.943 58.7559 127.347 58.1992C126.752 57.6426 125.912 57.3643 124.828 57.3643C123.988 57.3643 123.187 57.4863 122.425 57.7305C121.664 57.9746 120.941 58.2627 120.257 58.5947L119.51 56.749C120.233 56.3779 121.063 56.0605 122.001 55.7969C122.938 55.5332 123.924 55.4014 124.96 55.4014ZM128.212 63.8096L125.765 63.9121C123.763 63.9902 122.352 64.3174 121.532 64.8936C120.712 65.4697 120.301 66.2852 120.301 67.3398C120.301 68.2578 120.58 68.9365 121.136 69.376C121.693 69.8154 122.43 70.0352 123.348 70.0352C124.774 70.0352 125.941 69.6396 126.849 68.8486C127.757 68.0576 128.212 66.8711 128.212 65.2891V63.8096ZM142.319 55.3721C142.641 55.3721 142.978 55.3916 143.329 55.4307C143.681 55.46 143.993 55.5039 144.267 55.5625L143.959 57.8184C143.696 57.75 143.403 57.6963 143.08 57.6572C142.758 57.6182 142.455 57.5986 142.172 57.5986C141.528 57.5986 140.917 57.7305 140.341 57.9941C139.775 58.248 139.277 58.6191 138.847 59.1074C138.417 59.5859 138.08 60.167 137.836 60.8506C137.592 61.5244 137.47 62.2764 137.47 63.1064V71.7197H135.024V55.665H137.045L137.309 58.624H137.411C137.743 58.0283 138.144 57.4863 138.612 56.998C139.081 56.5 139.623 56.1045 140.238 55.8115C140.863 55.5186 141.557 55.3721 142.319 55.3721ZM153.13 72.0127C151.684 72.0127 150.41 71.7148 149.306 71.1191C148.203 70.5234 147.344 69.6152 146.728 68.3945C146.113 67.1738 145.805 65.6357 145.805 63.7803C145.805 61.8369 146.128 60.25 146.772 59.0195C147.427 57.7793 148.325 56.8613 149.468 56.2656C150.61 55.6699 151.909 55.3721 153.364 55.3721C154.165 55.3721 154.936 55.4551 155.679 55.6211C156.43 55.7773 157.046 55.9775 157.524 56.2217L156.792 58.2578C156.304 58.0625 155.737 57.8867 155.093 57.7305C154.458 57.5742 153.862 57.4961 153.305 57.4961C152.192 57.4961 151.264 57.7354 150.522 58.2139C149.79 58.6924 149.238 59.3955 148.867 60.3232C148.506 61.251 148.325 62.3936 148.325 63.751C148.325 65.0498 148.501 66.1582 148.852 67.0762C149.214 67.9941 149.746 68.6973 150.449 69.1855C151.162 69.6641 152.051 69.9033 153.115 69.9033C153.965 69.9033 154.731 69.8154 155.415 69.6396C156.098 69.4541 156.719 69.2393 157.275 68.9951V71.1631C156.738 71.4365 156.138 71.6465 155.473 71.793C154.819 71.9395 154.038 72.0127 153.13 72.0127ZM174.327 63.6631C174.327 64.9814 174.156 66.1582 173.814 67.1934C173.472 68.2285 172.979 69.1025 172.334 69.8154C171.69 70.5283 170.909 71.0752 169.991 71.4561C169.082 71.8271 168.052 72.0127 166.9 72.0127C165.826 72.0127 164.839 71.8271 163.941 71.4561C163.052 71.0752 162.281 70.5283 161.626 69.8154C160.982 69.1025 160.479 68.2285 160.118 67.1934C159.766 66.1582 159.59 64.9814 159.59 63.6631C159.59 61.9053 159.888 60.4111 160.484 59.1807C161.079 57.9404 161.929 56.998 163.033 56.3535C164.146 55.6992 165.469 55.3721 167.002 55.3721C168.467 55.3721 169.746 55.6992 170.84 56.3535C171.944 57.0078 172.798 57.9551 173.404 59.1953C174.019 60.4258 174.327 61.915 174.327 63.6631ZM162.11 63.6631C162.11 64.9521 162.281 66.0703 162.622 67.0176C162.964 67.9648 163.492 68.6973 164.204 69.2148C164.917 69.7324 165.835 69.9912 166.958 69.9912C168.072 69.9912 168.985 69.7324 169.698 69.2148C170.42 68.6973 170.953 67.9648 171.294 67.0176C171.636 66.0703 171.807 64.9521 171.807 63.6631C171.807 62.3838 171.636 61.2803 171.294 60.3525C170.953 59.415 170.425 58.6924 169.712 58.1846C168.999 57.6768 168.077 57.4229 166.944 57.4229C165.274 57.4229 164.048 57.9746 163.267 59.0781C162.496 60.1816 162.11 61.71 162.11 63.6631ZM191.188 55.665V71.7197H189.195L188.844 69.4639H188.712C188.38 70.0205 187.95 70.4893 187.423 70.8701C186.896 71.251 186.3 71.5342 185.636 71.7197C184.981 71.915 184.283 72.0127 183.541 72.0127C182.271 72.0127 181.207 71.8076 180.348 71.3975C179.488 70.9873 178.839 70.3525 178.399 69.4932C177.97 68.6338 177.755 67.5303 177.755 66.1826V55.665H180.216V66.0068C180.216 67.3447 180.519 68.3457 181.124 69.0098C181.729 69.6641 182.652 69.9912 183.893 69.9912C185.084 69.9912 186.031 69.7666 186.734 69.3174C187.447 68.8682 187.96 68.209 188.272 67.3398C188.585 66.4609 188.741 65.3867 188.741 64.1172V55.665H191.188ZM203.024 55.3721C203.346 55.3721 203.683 55.3916 204.035 55.4307C204.386 55.46 204.699 55.5039 204.972 55.5625L204.665 57.8184C204.401 57.75 204.108 57.6963 203.786 57.6572C203.463 57.6182 203.161 57.5986 202.878 57.5986C202.233 57.5986 201.623 57.7305 201.046 57.9941C200.48 58.248 199.982 58.6191 199.552 59.1074C199.123 59.5859 198.786 60.167 198.542 60.8506C198.297 61.5244 198.175 62.2764 198.175 63.1064V71.7197H195.729V55.665H197.751L198.014 58.624H198.117C198.449 58.0283 198.849 57.4863 199.318 56.998C199.787 56.5 200.329 56.1045 200.944 55.8115C201.569 55.5186 202.262 55.3721 203.024 55.3721ZM212.59 70.0205C212.99 70.0205 213.401 69.9863 213.821 69.918C214.24 69.8496 214.582 69.7666 214.846 69.6689V71.5586C214.563 71.6855 214.167 71.793 213.659 71.8809C213.161 71.9688 212.673 72.0127 212.195 72.0127C211.345 72.0127 210.573 71.8662 209.88 71.5732C209.187 71.2705 208.63 70.7627 208.21 70.0498C207.8 69.3369 207.595 68.3506 207.595 67.0908V57.5693H205.31V56.3828L207.61 55.4307L208.576 51.9443H210.041V55.665H214.743V57.5693H210.041V67.0176C210.041 68.0234 210.271 68.7754 210.73 69.2734C211.198 69.7715 211.819 70.0205 212.59 70.0205ZM225.057 50.3037H231.121C233.797 50.3037 235.809 50.7041 237.157 51.5049C238.504 52.3057 239.178 53.668 239.178 55.5918C239.178 56.4219 239.017 57.1689 238.695 57.833C238.382 58.4873 237.923 59.0293 237.318 59.459C236.712 59.8887 235.965 60.1865 235.077 60.3525V60.499C236.014 60.6455 236.844 60.9141 237.567 61.3047C238.289 61.6953 238.856 62.2422 239.266 62.9453C239.676 63.6484 239.881 64.542 239.881 65.626C239.881 66.9443 239.574 68.0576 238.958 68.9658C238.353 69.874 237.494 70.5625 236.38 71.0312C235.267 71.4902 233.949 71.7197 232.425 71.7197H225.057V50.3037ZM227.547 59.4883H231.649C233.514 59.4883 234.803 59.1807 235.516 58.5654C236.239 57.9502 236.6 57.0518 236.6 55.8701C236.6 54.6494 236.17 53.7705 235.311 53.2334C234.461 52.6963 233.104 52.4277 231.239 52.4277H227.547V59.4883ZM227.547 61.583V69.5957H232C233.905 69.5957 235.252 69.2246 236.043 68.4824C236.834 67.7305 237.23 66.7197 237.23 65.4502C237.23 64.6396 237.049 63.9463 236.688 63.3701C236.336 62.7939 235.76 62.3545 234.959 62.0518C234.168 61.7393 233.109 61.583 231.781 61.583H227.547ZM256.742 55.665V71.7197H254.75L254.398 69.4639H254.267C253.935 70.0205 253.505 70.4893 252.978 70.8701C252.45 71.251 251.854 71.5342 251.19 71.7197C250.536 71.915 249.838 72.0127 249.096 72.0127C247.826 72.0127 246.762 71.8076 245.902 71.3975C245.043 70.9873 244.394 70.3525 243.954 69.4932C243.524 68.6338 243.31 67.5303 243.31 66.1826V55.665H245.771V66.0068C245.771 67.3447 246.073 68.3457 246.679 69.0098C247.284 69.6641 248.207 69.9912 249.447 69.9912C250.639 69.9912 251.586 69.7666 252.289 69.3174C253.002 68.8682 253.515 68.209 253.827 67.3398C254.14 66.4609 254.296 65.3867 254.296 64.1172V55.665H256.742ZM266.469 70.0205C266.87 70.0205 267.28 69.9863 267.7 69.918C268.12 69.8496 268.462 69.7666 268.725 69.6689V71.5586C268.442 71.6855 268.046 71.793 267.539 71.8809C267.041 71.9688 266.552 72.0127 266.074 72.0127C265.224 72.0127 264.453 71.8662 263.759 71.5732C263.066 71.2705 262.509 70.7627 262.089 70.0498C261.679 69.3369 261.474 68.3506 261.474 67.0908V57.5693H259.189V56.3828L261.489 55.4307L262.456 51.9443H263.921V55.665H268.623V57.5693H263.921V67.0176C263.921 68.0234 264.15 68.7754 264.609 69.2734C265.078 69.7715 265.698 70.0205 266.469 70.0205ZM273.823 71.7197H271.377V48.9268H273.823V71.7197ZM284.547 55.3721C285.914 55.3721 287.086 55.6748 288.062 56.2803C289.039 56.8857 289.786 57.7354 290.304 58.8291C290.821 59.9131 291.08 61.1826 291.08 62.6377V64.1465H279.991C280.02 66.0312 280.489 67.4668 281.397 68.4531C282.305 69.4395 283.585 69.9326 285.235 69.9326C286.251 69.9326 287.149 69.8398 287.93 69.6543C288.712 69.4688 289.522 69.1953 290.362 68.834V70.9727C289.552 71.334 288.746 71.5977 287.945 71.7637C287.154 71.9297 286.217 72.0127 285.133 72.0127C283.59 72.0127 282.242 71.7002 281.09 71.0752C279.947 70.4404 279.058 69.5127 278.424 68.292C277.789 67.0713 277.471 65.5771 277.471 63.8096C277.471 62.0811 277.76 60.5869 278.336 59.3271C278.922 58.0576 279.742 57.0811 280.797 56.3975C281.861 55.7139 283.111 55.3721 284.547 55.3721ZM284.517 57.3643C283.219 57.3643 282.183 57.7891 281.412 58.6387C280.64 59.4883 280.181 60.6748 280.035 62.1982H288.531C288.521 61.2412 288.37 60.4014 288.077 59.6787C287.794 58.9463 287.359 58.3799 286.773 57.9795C286.187 57.5693 285.435 57.3643 284.517 57.3643ZM301.906 55.3721C302.228 55.3721 302.565 55.3916 302.916 55.4307C303.268 55.46 303.58 55.5039 303.854 55.5625L303.546 57.8184C303.283 57.75 302.99 57.6963 302.667 57.6572C302.345 57.6182 302.042 57.5986 301.759 57.5986C301.115 57.5986 300.504 57.7305 299.928 57.9941C299.362 58.248 298.864 58.6191 298.434 59.1074C298.004 59.5859 297.667 60.167 297.423 60.8506C297.179 61.5244 297.057 62.2764 297.057 63.1064V71.7197H294.611V55.665H296.632L296.896 58.624H296.998C297.33 58.0283 297.731 57.4863 298.2 56.998C298.668 56.5 299.21 56.1045 299.826 55.8115C300.451 55.5186 301.144 55.3721 301.906 55.3721ZM320.422 71.7197H317.918V52.501H311.179V50.3037H327.131V52.501H320.422V71.7197ZM335.584 55.3721C336.951 55.3721 338.123 55.6748 339.1 56.2803C340.076 56.8857 340.823 57.7354 341.341 58.8291C341.859 59.9131 342.117 61.1826 342.117 62.6377V64.1465H331.029C331.058 66.0312 331.527 67.4668 332.435 68.4531C333.343 69.4395 334.622 69.9326 336.273 69.9326C337.288 69.9326 338.187 69.8398 338.968 69.6543C339.749 69.4688 340.56 69.1953 341.4 68.834V70.9727C340.589 71.334 339.783 71.5977 338.983 71.7637C338.192 71.9297 337.254 72.0127 336.17 72.0127C334.627 72.0127 333.279 71.7002 332.127 71.0752C330.985 70.4404 330.096 69.5127 329.461 68.292C328.826 67.0713 328.509 65.5771 328.509 63.8096C328.509 62.0811 328.797 60.5869 329.373 59.3271C329.959 58.0576 330.779 57.0811 331.834 56.3975C332.899 55.7139 334.149 55.3721 335.584 55.3721ZM335.555 57.3643C334.256 57.3643 333.221 57.7891 332.449 58.6387C331.678 59.4883 331.219 60.6748 331.072 62.1982H339.569C339.559 61.2412 339.407 60.4014 339.114 59.6787C338.831 58.9463 338.397 58.3799 337.811 57.9795C337.225 57.5693 336.473 57.3643 335.555 57.3643ZM352.079 72.0127C350.634 72.0127 349.359 71.7148 348.256 71.1191C347.152 70.5234 346.293 69.6152 345.678 68.3945C345.062 67.1738 344.755 65.6357 344.755 63.7803C344.755 61.8369 345.077 60.25 345.721 59.0195C346.376 57.7793 347.274 56.8613 348.417 56.2656C349.559 55.6699 350.858 55.3721 352.313 55.3721C353.114 55.3721 353.886 55.4551 354.628 55.6211C355.38 55.7773 355.995 55.9775 356.473 56.2217L355.741 58.2578C355.253 58.0625 354.686 57.8867 354.042 57.7305C353.407 57.5742 352.811 57.4961 352.255 57.4961C351.141 57.4961 350.214 57.7354 349.471 58.2139C348.739 58.6924 348.187 59.3955 347.816 60.3232C347.455 61.251 347.274 62.3936 347.274 63.751C347.274 65.0498 347.45 66.1582 347.802 67.0762C348.163 67.9941 348.695 68.6973 349.398 69.1855C350.111 69.6641 351 69.9033 352.064 69.9033C352.914 69.9033 353.68 69.8154 354.364 69.6396C355.048 69.4541 355.668 69.2393 356.224 68.9951V71.1631C355.687 71.4365 355.087 71.6465 354.423 71.793C353.768 71.9395 352.987 72.0127 352.079 72.0127ZM361.865 48.9268V55.7383C361.865 56.1289 361.855 56.5244 361.835 56.9248C361.816 57.3154 361.782 57.6768 361.733 58.0088H361.894C362.226 57.4424 362.646 56.9688 363.154 56.5879C363.671 56.1973 364.257 55.9043 364.912 55.709C365.566 55.5039 366.259 55.4014 366.992 55.4014C368.281 55.4014 369.355 55.6064 370.214 56.0166C371.083 56.4268 371.733 57.0615 372.163 57.9209C372.602 58.7803 372.822 59.8936 372.822 61.2607V71.7197H370.419V61.4219C370.419 60.084 370.112 59.083 369.496 58.4189C368.891 57.7549 367.958 57.4229 366.699 57.4229C365.507 57.4229 364.555 57.6523 363.842 58.1113C363.139 58.5605 362.631 59.2246 362.319 60.1035C362.016 60.9824 361.865 62.0566 361.865 63.3262V71.7197H359.433V48.9268H361.865ZM384.834 55.3721C386.738 55.3721 388.179 55.8408 389.155 56.7783C390.132 57.7061 390.62 59.2002 390.62 61.2607V71.7197H388.218V61.4219C388.218 60.084 387.91 59.083 387.295 58.4189C386.689 57.7549 385.757 57.4229 384.497 57.4229C382.72 57.4229 381.47 57.9258 380.747 58.9316C380.024 59.9375 379.663 61.3975 379.663 63.3115V71.7197H377.231V55.665H379.194L379.561 57.9795H379.692C380.034 57.4131 380.469 56.9395 380.996 56.5586C381.523 56.168 382.114 55.875 382.769 55.6797C383.423 55.4746 384.111 55.3721 384.834 55.3721ZM397.462 55.665V71.7197H395.03V55.665H397.462ZM396.275 49.6592C396.675 49.6592 397.017 49.791 397.3 50.0547C397.593 50.3086 397.74 50.709 397.74 51.2559C397.74 51.793 397.593 52.1934 397.3 52.457C397.017 52.7207 396.675 52.8525 396.275 52.8525C395.855 52.8525 395.504 52.7207 395.22 52.457C394.947 52.1934 394.81 51.793 394.81 51.2559C394.81 50.709 394.947 50.3086 395.22 50.0547C395.504 49.791 395.855 49.6592 396.275 49.6592ZM408.448 72.0127C407.003 72.0127 405.729 71.7148 404.625 71.1191C403.522 70.5234 402.662 69.6152 402.047 68.3945C401.432 67.1738 401.124 65.6357 401.124 63.7803C401.124 61.8369 401.446 60.25 402.091 59.0195C402.745 57.7793 403.644 56.8613 404.786 56.2656C405.929 55.6699 407.228 55.3721 408.683 55.3721C409.484 55.3721 410.255 55.4551 410.997 55.6211C411.749 55.7773 412.364 55.9775 412.843 56.2217L412.111 58.2578C411.622 58.0625 411.056 57.8867 410.411 57.7305C409.777 57.5742 409.181 57.4961 408.624 57.4961C407.511 57.4961 406.583 57.7354 405.841 58.2139C405.109 58.6924 404.557 59.3955 404.186 60.3232C403.824 61.251 403.644 62.3936 403.644 63.751C403.644 65.0498 403.82 66.1582 404.171 67.0762C404.532 67.9941 405.065 68.6973 405.768 69.1855C406.481 69.6641 407.369 69.9033 408.434 69.9033C409.283 69.9033 410.05 69.8154 410.734 69.6396C411.417 69.4541 412.037 69.2393 412.594 68.9951V71.1631C412.057 71.4365 411.456 71.6465 410.792 71.793C410.138 71.9395 409.357 72.0127 408.448 72.0127ZM421.808 55.4014C423.722 55.4014 425.143 55.8311 426.071 56.6904C426.999 57.5498 427.463 58.9219 427.463 60.8066V71.7197H425.69L425.221 69.3467H425.104C424.655 69.9326 424.186 70.4258 423.698 70.8262C423.21 71.2168 422.643 71.5146 421.999 71.7197C421.364 71.915 420.583 72.0127 419.655 72.0127C418.679 72.0127 417.809 71.8418 417.048 71.5C416.296 71.1582 415.7 70.6406 415.261 69.9473C414.831 69.2539 414.616 68.375 414.616 67.3105C414.616 65.709 415.251 64.4785 416.52 63.6191C417.79 62.7598 419.723 62.291 422.321 62.2129L425.09 62.0957V61.1143C425.09 59.7275 424.792 58.7559 424.196 58.1992C423.6 57.6426 422.761 57.3643 421.677 57.3643C420.837 57.3643 420.036 57.4863 419.274 57.7305C418.513 57.9746 417.79 58.2627 417.106 58.5947L416.359 56.749C417.082 56.3779 417.912 56.0605 418.849 55.7969C419.787 55.5332 420.773 55.4014 421.808 55.4014ZM425.06 63.8096L422.614 63.9121C420.612 63.9902 419.201 64.3174 418.381 64.8936C417.56 65.4697 417.15 66.2852 417.15 67.3398C417.15 68.2578 417.429 68.9365 417.985 69.376C418.542 69.8154 419.279 70.0352 420.197 70.0352C421.623 70.0352 422.79 69.6396 423.698 68.8486C424.606 68.0576 425.06 66.8711 425.06 65.2891V63.8096ZM434.319 71.7197H431.872V48.9268H434.319V71.7197ZM462.621 50.3037V64.1611C462.621 65.6748 462.313 67.0225 461.698 68.2041C461.092 69.3857 460.174 70.3184 458.944 71.002C457.713 71.6758 456.171 72.0127 454.315 72.0127C451.669 72.0127 449.652 71.2949 448.265 69.8594C446.888 68.4238 446.2 66.5049 446.2 64.1025V50.3037H448.705V64.1758C448.705 65.9922 449.183 67.3936 450.14 68.3799C451.107 69.3662 452.547 69.8594 454.462 69.8594C455.77 69.8594 456.839 69.625 457.67 69.1562C458.509 68.6777 459.129 68.0137 459.53 67.1641C459.94 66.3047 460.145 65.3135 460.145 64.1904V50.3037H462.621ZM474.941 55.3721C476.845 55.3721 478.285 55.8408 479.262 56.7783C480.238 57.7061 480.727 59.2002 480.727 61.2607V71.7197H478.324V61.4219C478.324 60.084 478.017 59.083 477.402 58.4189C476.796 57.7549 475.863 57.4229 474.604 57.4229C472.826 57.4229 471.576 57.9258 470.854 58.9316C470.131 59.9375 469.77 61.3975 469.77 63.3115V71.7197H467.338V55.665H469.301L469.667 57.9795H469.799C470.141 57.4131 470.575 56.9395 471.103 56.5586C471.63 56.168 472.221 55.875 472.875 55.6797C473.529 55.4746 474.218 55.3721 474.941 55.3721ZM487.568 55.665V71.7197H485.137V55.665H487.568ZM486.382 49.6592C486.782 49.6592 487.124 49.791 487.407 50.0547C487.7 50.3086 487.846 50.709 487.846 51.2559C487.846 51.793 487.7 52.1934 487.407 52.457C487.124 52.7207 486.782 52.8525 486.382 52.8525C485.962 52.8525 485.61 52.7207 485.327 52.457C485.054 52.1934 484.917 51.793 484.917 51.2559C484.917 50.709 485.054 50.3086 485.327 50.0547C485.61 49.791 485.962 49.6592 486.382 49.6592ZM495.655 71.7197L489.561 55.665H492.168L495.699 65.377C495.943 66.041 496.192 66.7734 496.446 67.5742C496.7 68.375 496.875 69.0195 496.973 69.5078H497.076C497.193 69.0195 497.388 68.375 497.662 67.5742C497.935 66.7637 498.184 66.0312 498.409 65.377L501.939 55.665H504.546L498.438 71.7197H495.655ZM512.706 55.3721C514.073 55.3721 515.245 55.6748 516.222 56.2803C517.198 56.8857 517.945 57.7354 518.463 58.8291C518.98 59.9131 519.239 61.1826 519.239 62.6377V64.1465H508.15C508.18 66.0312 508.648 67.4668 509.557 68.4531C510.465 69.4395 511.744 69.9326 513.395 69.9326C514.41 69.9326 515.309 69.8398 516.09 69.6543C516.871 69.4688 517.682 69.1953 518.521 68.834V70.9727C517.711 71.334 516.905 71.5977 516.104 71.7637C515.313 71.9297 514.376 72.0127 513.292 72.0127C511.749 72.0127 510.401 71.7002 509.249 71.0752C508.106 70.4404 507.218 69.5127 506.583 68.292C505.948 67.0713 505.631 65.5771 505.631 63.8096C505.631 62.0811 505.919 60.5869 506.495 59.3271C507.081 58.0576 507.901 57.0811 508.956 56.3975C510.021 55.7139 511.271 55.3721 512.706 55.3721ZM512.677 57.3643C511.378 57.3643 510.343 57.7891 509.571 58.6387C508.8 59.4883 508.341 60.6748 508.194 62.1982H516.69C516.681 61.2412 516.529 60.4014 516.236 59.6787C515.953 58.9463 515.519 58.3799 514.933 57.9795C514.347 57.5693 513.595 57.3643 512.677 57.3643ZM530.065 55.3721C530.387 55.3721 530.724 55.3916 531.076 55.4307C531.427 55.46 531.74 55.5039 532.013 55.5625L531.706 57.8184C531.442 57.75 531.149 57.6963 530.827 57.6572C530.504 57.6182 530.202 57.5986 529.919 57.5986C529.274 57.5986 528.664 57.7305 528.087 57.9941C527.521 58.248 527.023 58.6191 526.593 59.1074C526.164 59.5859 525.827 60.167 525.583 60.8506C525.338 61.5244 525.216 62.2764 525.216 63.1064V71.7197H522.77V55.665H524.792L525.055 58.624H525.158C525.49 58.0283 525.89 57.4863 526.359 56.998C526.828 56.5 527.37 56.1045 527.985 55.8115C528.61 55.5186 529.303 55.3721 530.065 55.3721ZM544.831 67.3252C544.831 68.3506 544.572 69.2148 544.055 69.918C543.547 70.6113 542.815 71.1338 541.858 71.4854C540.91 71.8369 539.778 72.0127 538.459 72.0127C537.336 72.0127 536.364 71.9248 535.544 71.749C534.724 71.5732 534.006 71.3242 533.391 71.002V68.7607C534.045 69.083 534.826 69.376 535.735 69.6396C536.643 69.9033 537.57 70.0352 538.518 70.0352C539.904 70.0352 540.91 69.8105 541.535 69.3613C542.16 68.9121 542.473 68.3018 542.473 67.5303C542.473 67.0908 542.346 66.7051 542.092 66.373C541.848 66.0312 541.433 65.7041 540.847 65.3916C540.261 65.0693 539.45 64.7178 538.415 64.3369C537.39 63.9463 536.501 63.5605 535.749 63.1797C535.007 62.7891 534.431 62.3154 534.021 61.7588C533.62 61.2021 533.42 60.4795 533.42 59.5908C533.42 58.2334 533.967 57.1934 535.061 56.4707C536.164 55.7383 537.61 55.3721 539.397 55.3721C540.363 55.3721 541.267 55.4697 542.107 55.665C542.956 55.8506 543.747 56.1045 544.48 56.4268L543.659 58.375C542.995 58.0918 542.287 57.8525 541.535 57.6572C540.783 57.4619 540.017 57.3643 539.236 57.3643C538.112 57.3643 537.248 57.5498 536.643 57.9209C536.047 58.292 535.749 58.7998 535.749 59.4443C535.749 59.9424 535.886 60.3525 536.159 60.6748C536.443 60.9971 536.892 61.2998 537.507 61.583C538.122 61.8662 538.933 62.1982 539.939 62.5791C540.945 62.9502 541.814 63.3359 542.546 63.7363C543.279 64.127 543.84 64.6055 544.231 65.1719C544.631 65.7285 544.831 66.4463 544.831 67.3252ZM550.574 55.665V71.7197H548.142V55.665H550.574ZM549.388 49.6592C549.788 49.6592 550.13 49.791 550.413 50.0547C550.706 50.3086 550.852 50.709 550.852 51.2559C550.852 51.793 550.706 52.1934 550.413 52.457C550.13 52.7207 549.788 52.8525 549.388 52.8525C548.968 52.8525 548.616 52.7207 548.333 52.457C548.059 52.1934 547.923 51.793 547.923 51.2559C547.923 50.709 548.059 50.3086 548.333 50.0547C548.616 49.791 548.968 49.6592 549.388 49.6592ZM560.316 70.0205C560.716 70.0205 561.126 69.9863 561.546 69.918C561.966 69.8496 562.308 69.7666 562.572 69.6689V71.5586C562.288 71.6855 561.893 71.793 561.385 71.8809C560.887 71.9688 560.399 72.0127 559.92 72.0127C559.071 72.0127 558.299 71.8662 557.606 71.5732C556.913 71.2705 556.356 70.7627 555.936 70.0498C555.526 69.3369 555.321 68.3506 555.321 67.0908V57.5693H553.036V56.3828L555.335 55.4307L556.302 51.9443H557.767V55.665H562.469V57.5693H557.767V67.0176C557.767 68.0234 557.996 68.7754 558.455 69.2734C558.924 69.7715 559.544 70.0205 560.316 70.0205ZM562.689 55.665H565.297L568.842 64.9814C569.047 65.5283 569.237 66.0557 569.413 66.5635C569.589 67.0615 569.745 67.54 569.882 67.999C570.019 68.458 570.126 68.9023 570.204 69.332H570.307C570.443 68.8438 570.639 68.2041 570.893 67.4131C571.146 66.6123 571.42 65.7969 571.713 64.9668L575.067 55.665H577.689L570.702 74.0781C570.331 75.0645 569.896 75.9238 569.398 76.6562C568.91 77.3887 568.314 77.9502 567.611 78.3408C566.908 78.7412 566.059 78.9414 565.062 78.9414C564.604 78.9414 564.198 78.9121 563.847 78.8535C563.495 78.8047 563.192 78.7461 562.938 78.6777V76.7295C563.153 76.7783 563.412 76.8223 563.715 76.8613C564.027 76.9004 564.35 76.9199 564.682 76.9199C565.287 76.9199 565.81 76.8027 566.249 76.5684C566.698 76.3438 567.084 76.0117 567.406 75.5723C567.729 75.1328 568.007 74.6104 568.241 74.0049L569.12 71.749L562.689 55.665ZM582.436 68.2334L582.627 68.5703C582.451 69.2832 582.226 70.0449 581.953 70.8555C581.689 71.666 581.396 72.4766 581.074 73.2871C580.761 74.1074 580.444 74.874 580.122 75.5869H578.305C578.51 74.8057 578.711 73.9805 578.906 73.1113C579.101 72.252 579.277 71.4023 579.433 70.5625C579.599 69.7129 579.731 68.9365 579.829 68.2334H582.436ZM609.815 71.7197H606.871L599.151 61.3047L596.866 63.3555V71.7197H594.376V50.3037H596.866V60.9824C597.423 60.3477 597.994 59.7178 598.58 59.0928C599.166 58.458 599.747 57.8184 600.323 57.1738L606.578 50.3037H609.493L600.968 59.5908L609.815 71.7197ZM617.785 55.4014C619.699 55.4014 621.12 55.8311 622.047 56.6904C622.975 57.5498 623.439 58.9219 623.439 60.8066V71.7197H621.666L621.198 69.3467H621.08C620.631 69.9326 620.162 70.4258 619.674 70.8262C619.186 71.2168 618.62 71.5146 617.975 71.7197C617.34 71.915 616.559 72.0127 615.631 72.0127C614.655 72.0127 613.786 71.8418 613.024 71.5C612.272 71.1582 611.676 70.6406 611.237 69.9473C610.807 69.2539 610.592 68.375 610.592 67.3105C610.592 65.709 611.227 64.4785 612.496 63.6191C613.766 62.7598 615.7 62.291 618.297 62.2129L621.066 62.0957V61.1143C621.066 59.7275 620.768 58.7559 620.172 58.1992C619.577 57.6426 618.737 57.3643 617.653 57.3643C616.813 57.3643 616.012 57.4863 615.25 57.7305C614.489 57.9746 613.766 58.2627 613.082 58.5947L612.335 56.749C613.058 56.3779 613.888 56.0605 614.826 55.7969C615.763 55.5332 616.749 55.4014 617.785 55.4014ZM621.036 63.8096L618.59 63.9121C616.588 63.9902 615.177 64.3174 614.357 64.8936C613.536 65.4697 613.126 66.2852 613.126 67.3398C613.126 68.2578 613.405 68.9365 613.961 69.376C614.518 69.8154 615.255 70.0352 616.173 70.0352C617.599 70.0352 618.766 69.6396 619.674 68.8486C620.582 68.0576 621.036 66.8711 621.036 65.2891V63.8096ZM635.451 55.3721C637.355 55.3721 638.796 55.8408 639.772 56.7783C640.749 57.7061 641.237 59.2002 641.237 61.2607V71.7197H638.835V61.4219C638.835 60.084 638.527 59.083 637.912 58.4189C637.307 57.7549 636.374 57.4229 635.114 57.4229C633.337 57.4229 632.087 57.9258 631.364 58.9316C630.642 59.9375 630.28 61.3975 630.28 63.3115V71.7197H627.849V55.665H629.812L630.178 57.9795H630.31C630.651 57.4131 631.086 56.9395 631.613 56.5586C632.141 56.168 632.731 55.875 633.386 55.6797C634.04 55.4746 634.729 55.3721 635.451 55.3721ZM653.191 55.3721C655.193 55.3721 656.79 56.0605 657.981 57.4375C659.172 58.8145 659.768 60.8848 659.768 63.6484C659.768 65.4746 659.495 67.0078 658.948 68.248C658.401 69.4883 657.63 70.4258 656.633 71.0605C655.647 71.6953 654.48 72.0127 653.132 72.0127C652.283 72.0127 651.536 71.9004 650.891 71.6758C650.247 71.4512 649.695 71.1484 649.236 70.7676C648.777 70.3867 648.396 69.9717 648.093 69.5225H647.918C647.947 69.9033 647.981 70.3623 648.02 70.8994C648.069 71.4365 648.093 71.9053 648.093 72.3057V78.8975H645.647V55.665H647.654L647.976 58.0381H648.093C648.406 57.5498 648.787 57.1055 649.236 56.7051C649.685 56.2949 650.232 55.9727 650.877 55.7383C651.531 55.4941 652.302 55.3721 653.191 55.3721ZM652.766 57.4229C651.653 57.4229 650.755 57.6377 650.071 58.0674C649.397 58.4971 648.904 59.1416 648.591 60.001C648.279 60.8506 648.113 61.9199 648.093 63.209V63.6777C648.093 65.0352 648.24 66.1826 648.533 67.1201C648.836 68.0576 649.329 68.7705 650.012 69.2588C650.706 69.7471 651.633 69.9912 652.796 69.9912C653.792 69.9912 654.622 69.7227 655.286 69.1855C655.95 68.6484 656.443 67.9014 656.765 66.9443C657.097 65.9775 657.263 64.8691 657.263 63.6191C657.263 61.7246 656.892 60.2207 656.15 59.1074C655.418 57.9844 654.29 57.4229 652.766 57.4229ZM676.673 55.665V71.7197H674.681L674.329 69.4639H674.197C673.865 70.0205 673.436 70.4893 672.908 70.8701C672.381 71.251 671.785 71.5342 671.121 71.7197C670.467 71.915 669.769 72.0127 669.027 72.0127C667.757 72.0127 666.693 71.8076 665.833 71.3975C664.974 70.9873 664.324 70.3525 663.885 69.4932C663.455 68.6338 663.24 67.5303 663.24 66.1826V55.665H665.701V66.0068C665.701 67.3447 666.004 68.3457 666.61 69.0098C667.215 69.6641 668.138 69.9912 669.378 69.9912C670.57 69.9912 671.517 69.7666 672.22 69.3174C672.933 68.8682 673.445 68.209 673.758 67.3398C674.07 66.4609 674.227 65.3867 674.227 64.1172V55.665H676.673ZM688.51 55.3721C688.832 55.3721 689.169 55.3916 689.52 55.4307C689.872 55.46 690.184 55.5039 690.458 55.5625L690.15 57.8184C689.887 57.75 689.594 57.6963 689.271 57.6572C688.949 57.6182 688.646 57.5986 688.363 57.5986C687.719 57.5986 687.108 57.7305 686.532 57.9941C685.966 58.248 685.468 58.6191 685.038 59.1074C684.608 59.5859 684.271 60.167 684.027 60.8506C683.783 61.5244 683.661 62.2764 683.661 63.1064V71.7197H681.215V55.665H683.236L683.5 58.624H683.602C683.934 58.0283 684.335 57.4863 684.804 56.998C685.272 56.5 685.814 56.1045 686.43 55.8115C687.055 55.5186 687.748 55.3721 688.51 55.3721Z" fill="black" fill-opacity="0.6"/>
</svg>
