<svg width="443" height="179" viewBox="0 0 443 179" fill="none" xmlns="http://www.w3.org/2000/svg">
<rect x="0.617188" y="0.37207" width="442.176" height="162.28" rx="21.7814" fill="#D9D9D9" fill-opacity="0.06"/>
<path d="M28.5372 42.708H22.0956V23.6988H28.6672C30.5545 23.6988 32.1757 24.0794 33.5308 24.8405C34.8922 25.5954 35.9379 26.6814 36.6681 28.0984C37.3983 29.5154 37.7634 31.2109 37.7634 33.1848C37.7634 35.165 37.3952 36.8666 36.6588 38.2899C35.9287 39.7131 34.8736 40.8052 33.4937 41.5663C32.12 42.3275 30.4678 42.708 28.5372 42.708ZM25.5392 39.7285H28.3702C29.6944 39.7285 30.7989 39.4872 31.6838 39.0046C32.5686 38.5157 33.2338 37.7886 33.6794 36.8233C34.1249 35.8518 34.3477 34.639 34.3477 33.1848C34.3477 31.7307 34.1249 30.5241 33.6794 29.5649C33.2338 28.5996 32.5748 27.8787 31.7023 27.4023C30.836 26.9196 29.7593 26.6783 28.4723 26.6783H25.5392V39.7285ZM47.1983 42.9865C45.7689 42.9865 44.5345 42.6894 43.4949 42.0954C42.4615 41.4952 41.6664 40.6474 41.1095 39.5522C40.5526 38.4507 40.2741 37.1544 40.2741 35.6631C40.2741 34.1966 40.5526 32.9095 41.1095 31.8019C41.6726 30.688 42.4584 29.8217 43.4671 29.2029C44.4757 28.578 45.6607 28.2655 47.022 28.2655C47.9007 28.2655 48.7298 28.4078 49.5095 28.6924C50.2954 28.9709 50.9884 29.404 51.5887 29.9919C52.1951 30.5797 52.6715 31.3285 53.0181 32.2381C53.3646 33.1415 53.5378 34.2182 53.5378 35.4682V36.4985H41.852V34.2337H50.317C50.3109 33.5902 50.1716 33.0178 49.8994 32.5166C49.6271 32.0092 49.2465 31.61 48.7577 31.3192C48.275 31.0284 47.7119 30.883 47.0684 30.883C46.3815 30.883 45.7782 31.05 45.2584 31.3842C44.7387 31.7121 44.3334 32.1453 44.0425 32.6836C43.7579 33.2158 43.6125 33.8005 43.6063 34.4379V36.4149C43.6063 37.2441 43.7579 37.9557 44.0611 38.5497C44.3643 39.1376 44.7882 39.5893 45.3327 39.9049C45.8772 40.2143 46.5146 40.369 47.2448 40.369C47.7336 40.369 48.176 40.3009 48.5721 40.1648C48.9681 40.0225 49.3115 39.8152 49.6023 39.5429C49.8932 39.2706 50.1128 38.9334 50.2614 38.5312L53.3986 38.8839C53.2006 39.7131 52.8231 40.4371 52.2662 41.0558C51.7155 41.6684 51.0101 42.1449 50.15 42.4852C49.2899 42.8194 48.306 42.9865 47.1983 42.9865ZM62.5992 42.9865C61.176 42.9865 59.9539 42.674 58.9329 42.049C57.9181 41.424 57.1353 40.5608 56.5846 39.4594C56.0401 38.3517 55.7678 37.077 55.7678 35.6353C55.7678 34.1873 56.0463 32.9095 56.6032 31.8019C57.1601 30.688 57.9459 29.8217 58.9607 29.2029C59.9817 28.578 61.1884 28.2655 62.5807 28.2655C63.7378 28.2655 64.7619 28.479 65.6529 28.9059C66.5502 29.3267 67.2649 29.9238 67.797 30.6973C68.3292 31.4646 68.6324 32.3619 68.7067 33.389H65.4952C65.3652 32.7022 65.0558 32.1298 64.567 31.6719C64.0843 31.2078 63.4377 30.9758 62.6271 30.9758C61.9402 30.9758 61.3369 31.1614 60.8171 31.5327C60.2973 31.8978 59.892 32.4237 59.6012 33.1106C59.3165 33.7974 59.1742 34.6204 59.1742 35.5796C59.1742 36.5511 59.3165 37.3864 59.6012 38.0857C59.8858 38.7787 60.285 39.314 60.7985 39.6914C61.3183 40.0627 61.9278 40.2483 62.6271 40.2483C63.1221 40.2483 63.5645 40.1555 63.9544 39.9699C64.3504 39.778 64.6814 39.5027 64.9475 39.1438C65.2136 38.7849 65.3961 38.3486 65.4952 37.835H68.7067C68.6262 38.8437 68.3292 39.7378 67.8156 40.5175C67.302 41.291 66.6028 41.8974 65.7179 42.3367C64.8331 42.7699 63.7935 42.9865 62.5992 42.9865ZM77.7773 42.9865C76.3479 42.9865 75.1135 42.6894 74.0739 42.0954C73.0405 41.4952 72.2454 40.6474 71.6885 39.5522C71.1315 38.4507 70.8531 37.1544 70.8531 35.6631C70.8531 34.1966 71.1315 32.9095 71.6885 31.8019C72.2516 30.688 73.0374 29.8217 74.046 29.2029C75.0547 28.578 76.2396 28.2655 77.601 28.2655C78.4797 28.2655 79.3088 28.4078 80.0885 28.6924C80.8744 28.9709 81.5674 29.404 82.1676 29.9919C82.7741 30.5797 83.2505 31.3285 83.597 32.2381C83.9436 33.1415 84.1168 34.2182 84.1168 35.4682V36.4985H72.431V34.2337H80.896C80.8898 33.5902 80.7506 33.0178 80.4784 32.5166C80.2061 32.0092 79.8255 31.61 79.3367 31.3192C78.854 31.0284 78.2909 30.883 77.6474 30.883C76.9605 30.883 76.3572 31.05 75.8374 31.3842C75.3177 31.7121 74.9123 32.1453 74.6215 32.6836C74.3369 33.2158 74.1915 33.8005 74.1853 34.4379V36.4149C74.1853 37.2441 74.3369 37.9557 74.6401 38.5497C74.9433 39.1376 75.3672 39.5893 75.9117 39.9049C76.4562 40.2143 77.0936 40.369 77.8237 40.369C78.3126 40.369 78.755 40.3009 79.1511 40.1648C79.5471 40.0225 79.8905 39.8152 80.1813 39.5429C80.4722 39.2706 80.6918 38.9334 80.8403 38.5312L83.9776 38.8839C83.7796 39.7131 83.4021 40.4371 82.8452 41.0558C82.2945 41.6684 81.5891 42.1449 80.729 42.4852C79.8688 42.8194 78.885 42.9865 77.7773 42.9865ZM86.9594 42.708V28.4511H90.1709V30.8737H90.338C90.635 30.0569 91.1269 29.4195 91.8138 28.9616C92.5006 28.4975 93.3205 28.2655 94.2735 28.2655C95.2388 28.2655 96.0525 28.5006 96.7146 28.9709C97.3829 29.435 97.8532 30.0692 98.1254 30.8737H98.2739C98.5895 30.0816 99.1217 29.4505 99.8704 28.9802C100.625 28.5037 101.519 28.2655 102.553 28.2655C103.865 28.2655 104.935 28.6801 105.764 29.5092C106.594 30.3384 107.008 31.5482 107.008 33.1384V42.708H103.639V33.6582C103.639 32.7734 103.404 32.1267 102.933 31.7183C102.463 31.3037 101.888 31.0964 101.207 31.0964C100.396 31.0964 99.7621 31.3501 99.3042 31.8575C98.8525 32.3588 98.6267 33.0116 98.6267 33.816V42.708H95.3316V33.519C95.3316 32.7826 95.1088 32.1948 94.6633 31.7554C94.224 31.3161 93.6485 31.0964 92.9369 31.0964C92.4542 31.0964 92.0149 31.2202 91.6189 31.4677C91.2228 31.709 90.9073 32.0525 90.6721 32.498C90.437 32.9373 90.3194 33.4509 90.3194 34.0388V42.708H86.9594ZM110.565 42.708V23.6988H113.925V30.8087H114.065C114.238 30.4622 114.482 30.094 114.798 29.7042C115.114 29.3081 115.54 28.9709 116.079 28.6924C116.617 28.4078 117.304 28.2655 118.139 28.2655C119.241 28.2655 120.234 28.547 121.119 29.1101C122.01 29.667 122.715 30.4931 123.235 31.5884C123.761 32.6774 124.024 34.014 124.024 35.5981C124.024 37.1637 123.767 38.4941 123.254 39.5893C122.74 40.6846 122.041 41.5199 121.156 42.0954C120.271 42.6709 119.269 42.9586 118.149 42.9586C117.332 42.9586 116.654 42.8225 116.116 42.5502C115.578 42.2779 115.144 41.95 114.816 41.5663C114.495 41.1765 114.244 40.8083 114.065 40.4618H113.87V42.708H110.565ZM113.86 35.5796C113.86 36.5016 113.99 37.3091 114.25 38.0021C114.516 38.6952 114.897 39.2366 115.392 39.6264C115.893 40.0101 116.5 40.2019 117.211 40.2019C117.954 40.2019 118.576 40.0039 119.077 39.6079C119.578 39.2057 119.956 38.658 120.209 37.965C120.469 37.2658 120.599 36.4706 120.599 35.5796C120.599 34.6947 120.472 33.9088 120.219 33.222C119.965 32.5351 119.587 31.9968 119.086 31.6069C118.585 31.2171 117.96 31.0222 117.211 31.0222C116.493 31.0222 115.884 31.2109 115.383 31.5884C114.881 31.9658 114.501 32.4949 114.241 33.1756C113.987 33.8562 113.86 34.6576 113.86 35.5796ZM133.192 42.9865C131.763 42.9865 130.528 42.6894 129.489 42.0954C128.455 41.4952 127.66 40.6474 127.103 39.5522C126.546 38.4507 126.268 37.1544 126.268 35.6631C126.268 34.1966 126.546 32.9095 127.103 31.8019C127.666 30.688 128.452 29.8217 129.461 29.2029C130.47 28.578 131.654 28.2655 133.016 28.2655C133.895 28.2655 134.724 28.4078 135.503 28.6924C136.289 28.9709 136.982 29.404 137.582 29.9919C138.189 30.5797 138.665 31.3285 139.012 32.2381C139.358 33.1415 139.532 34.2182 139.532 35.4682V36.4985H127.846V34.2337H136.311C136.305 33.5902 136.165 33.0178 135.893 32.5166C135.621 32.0092 135.24 31.61 134.752 31.3192C134.269 31.0284 133.706 30.883 133.062 30.883C132.375 30.883 131.772 31.05 131.252 31.3842C130.733 31.7121 130.327 32.1453 130.036 32.6836C129.752 33.2158 129.606 33.8005 129.6 34.4379V36.4149C129.6 37.2441 129.752 37.9557 130.055 38.5497C130.358 39.1376 130.782 39.5893 131.327 39.9049C131.871 40.2143 132.508 40.369 133.239 40.369C133.727 40.369 134.17 40.3009 134.566 40.1648C134.962 40.0225 135.305 39.8152 135.596 39.5429C135.887 39.2706 136.107 38.9334 136.255 38.5312L139.392 38.8839C139.194 39.7131 138.817 40.4371 138.26 41.0558C137.709 41.6684 137.004 42.1449 136.144 42.4852C135.284 42.8194 134.3 42.9865 133.192 42.9865ZM142.374 42.708V28.4511H145.632V30.8273H145.781C146.041 30.0043 146.486 29.37 147.117 28.9245C147.755 28.4728 148.482 28.2469 149.298 28.2469C149.484 28.2469 149.691 28.2562 149.92 28.2748C150.156 28.2871 150.35 28.3088 150.505 28.3397V31.4306C150.363 31.3811 150.137 31.3378 149.828 31.3006C149.524 31.2573 149.23 31.2357 148.946 31.2357C148.333 31.2357 147.782 31.3687 147.294 31.6348C146.811 31.8947 146.43 32.2567 146.152 32.7208C145.873 33.1848 145.734 33.7201 145.734 34.3265V42.708H142.374ZM155.049 40.1091L154.928 41.1301C154.841 41.9098 154.687 42.7018 154.464 43.5062C154.247 44.3169 154.018 45.0625 153.777 45.7432C153.536 46.4238 153.341 46.9591 153.192 47.3489H150.927C151.014 46.9715 151.132 46.4579 151.28 45.8081C151.435 45.1584 151.583 44.4282 151.726 43.6176C151.868 42.807 151.964 41.984 152.013 41.1487L152.078 40.1091H155.049ZM164.672 42.708V40.2205L171.271 33.751C171.902 33.1137 172.428 32.5475 172.849 32.0525C173.27 31.5574 173.585 31.0779 173.796 30.6138C174.006 30.1497 174.111 29.6547 174.111 29.1287C174.111 28.5285 173.975 28.0149 173.703 27.5879C173.43 27.1548 173.056 26.8206 172.58 26.5855C172.103 26.3503 171.562 26.2328 170.955 26.2328C170.33 26.2328 169.783 26.3627 169.312 26.6226C168.842 26.8763 168.477 27.2383 168.217 27.7086C167.963 28.1788 167.837 28.7389 167.837 29.3886H164.56C164.56 28.1819 164.835 27.1331 165.386 26.242C165.937 25.351 166.695 24.661 167.66 24.1722C168.632 23.6833 169.746 23.4389 171.002 23.4389C172.276 23.4389 173.396 23.6772 174.362 24.1536C175.327 24.6301 176.076 25.2829 176.608 26.1121C177.146 26.9413 177.415 27.888 177.415 28.9523C177.415 29.6639 177.279 30.3632 177.007 31.05C176.735 31.7369 176.255 32.498 175.568 33.3334C174.888 34.1687 173.932 35.1804 172.7 36.3685L169.424 39.7007V39.8306H177.703V42.708H164.672ZM187.932 43.07C186.403 43.07 185.092 42.6833 183.996 41.9098C182.907 41.1301 182.069 40.007 181.481 38.5405C180.899 37.0677 180.608 35.2949 180.608 33.222C180.615 31.149 180.909 29.3855 181.49 27.9313C182.078 26.471 182.917 25.3572 184.006 24.5899C185.101 23.8226 186.41 23.4389 187.932 23.4389C189.454 23.4389 190.763 23.8226 191.858 24.5899C192.953 25.3572 193.792 26.471 194.373 27.9313C194.961 29.3917 195.255 31.1552 195.255 33.222C195.255 35.3011 194.961 37.077 194.373 38.5497C193.792 40.0163 192.953 41.1363 191.858 41.9098C190.769 42.6833 189.46 43.07 187.932 43.07ZM187.932 40.1648C189.12 40.1648 190.057 39.58 190.744 38.4105C191.437 37.2348 191.784 35.5053 191.784 33.222C191.784 31.7121 191.626 30.4436 191.31 29.4164C190.995 28.3892 190.549 27.6158 189.974 27.096C189.398 26.57 188.718 26.307 187.932 26.307C186.75 26.307 185.816 26.8949 185.129 28.0706C184.442 29.2401 184.095 30.9572 184.089 33.222C184.083 34.738 184.235 36.0127 184.544 37.0461C184.86 38.0795 185.305 38.8591 185.881 39.3851C186.456 39.9049 187.14 40.1648 187.932 40.1648ZM198.339 42.708V40.2205L204.938 33.751C205.57 33.1137 206.096 32.5475 206.516 32.0525C206.937 31.5574 207.253 31.0779 207.463 30.6138C207.673 30.1497 207.779 29.6547 207.779 29.1287C207.779 28.5285 207.643 28.0149 207.37 27.5879C207.098 27.1548 206.724 26.8206 206.247 26.5855C205.771 26.3503 205.229 26.2328 204.623 26.2328C203.998 26.2328 203.45 26.3627 202.98 26.6226C202.51 26.8763 202.145 27.2383 201.885 27.7086C201.631 28.1788 201.504 28.7389 201.504 29.3886H198.228C198.228 28.1819 198.503 27.1331 199.054 26.242C199.604 25.351 200.362 24.661 201.328 24.1722C202.299 23.6833 203.413 23.4389 204.669 23.4389C205.944 23.4389 207.064 23.6772 208.029 24.1536C208.995 24.6301 209.743 25.2829 210.275 26.1121C210.814 26.9413 211.083 27.888 211.083 28.9523C211.083 29.6639 210.947 30.3632 210.675 31.05C210.402 31.7369 209.923 32.498 209.236 33.3334C208.555 34.1687 207.599 35.1804 206.368 36.3685L203.091 39.7007V39.8306H211.371V42.708H198.339ZM214.573 42.708V40.2205L221.172 33.751C221.804 33.1137 222.329 32.5475 222.75 32.0525C223.171 31.5574 223.487 31.0779 223.697 30.6138C223.907 30.1497 224.013 29.6547 224.013 29.1287C224.013 28.5285 223.876 28.0149 223.604 27.5879C223.332 27.1548 222.958 26.8206 222.481 26.5855C222.005 26.3503 221.463 26.2328 220.857 26.2328C220.232 26.2328 219.684 26.3627 219.214 26.6226C218.744 26.8763 218.379 27.2383 218.119 27.7086C217.865 28.1788 217.738 28.7389 217.738 29.3886H214.462C214.462 28.1819 214.737 27.1331 215.288 26.242C215.838 25.351 216.596 24.661 217.562 24.1722C218.533 23.6833 219.647 23.4389 220.903 23.4389C222.178 23.4389 223.298 23.6772 224.263 24.1536C225.229 24.6301 225.977 25.2829 226.509 26.1121C227.048 26.9413 227.317 27.888 227.317 28.9523C227.317 29.6639 227.181 30.3632 226.909 31.05C226.636 31.7369 226.157 32.498 225.47 33.3334C224.789 34.1687 223.833 35.1804 222.602 36.3685L219.325 39.7007V39.8306H227.605V42.708H214.573Z" fill="white"/>
<path d="M409.917 26.6182L417.536 32.708L409.917 38.7979" stroke="#D9D9D9" stroke-width="1.6336" stroke-linecap="round" stroke-linejoin="round"/>
<path d="M400.2 26.6182L392.581 32.708L400.2 38.7979" stroke="#D9D9D9" stroke-width="1.6336" stroke-linecap="round" stroke-linejoin="round"/>
<path d="M20.2202 56.2525L423.19 55.3309" stroke="#D9D9D9" stroke-opacity="0.53" stroke-width="1.08907"/>
<rect x="1.70626" y="1.46114" width="439.998" height="160.102" rx="20.6923" stroke="black" stroke-opacity="0.2" stroke-width="2.17814"/>
<rect x="20.8164" y="72.8457" width="71.6427" height="105.256" rx="16.336" fill="#D9D9D9" fill-opacity="0.06"/>
<path d="M52.3641 85.6278V101.469H49.4945V88.42H49.4017L45.6967 90.7869V88.1571L49.6337 85.6278H52.3641ZM61.8934 101.685C60.8621 101.685 59.9391 101.492 59.1244 101.105C58.3096 100.713 57.6625 100.177 57.1829 99.4964C56.7085 98.8157 56.4558 98.0371 56.4249 97.1604H59.2095C59.261 97.8102 59.5421 98.3413 60.0526 98.7538C60.5631 99.1612 61.1767 99.3649 61.8934 99.3649C62.4555 99.3649 62.9557 99.236 63.394 98.9781C63.8323 98.7203 64.1778 98.3619 64.4305 97.903C64.6832 97.444 64.8069 96.9207 64.8018 96.3328C64.8069 95.7346 64.6806 95.2035 64.4227 94.7394C64.1649 94.2753 63.8117 93.9118 63.3631 93.6488C62.9145 93.3807 62.3988 93.2466 61.8161 93.2466C61.3417 93.2414 60.875 93.3291 60.4161 93.5096C59.9572 93.6901 59.5936 93.9273 59.3255 94.2212L56.7343 93.7958L57.5619 85.6278H66.7509V88.0256H59.9365L59.4802 92.2256H59.573C59.8669 91.8801 60.282 91.5939 60.8183 91.367C61.3546 91.135 61.9424 91.019 62.5819 91.019C63.541 91.019 64.397 91.2458 65.1498 91.6996C65.9027 92.1482 66.4957 92.767 66.9288 93.556C67.362 94.3449 67.5786 95.2473 67.5786 96.2632C67.5786 97.31 67.3362 98.2433 66.8515 99.0632C66.3719 99.8779 65.7042 100.52 64.8482 100.989C63.9973 101.453 63.0124 101.685 61.8934 101.685Z" fill="white"/>
<path d="M48.6998 115.364H46.3793V107.444H48.839C49.5944 107.444 50.2403 107.601 50.7766 107.916C51.3154 108.23 51.728 108.681 52.0142 109.269C52.3003 109.857 52.4434 110.562 52.4434 111.385C52.4434 112.215 52.2965 112.928 52.0026 113.523C51.7112 114.116 51.2858 114.571 50.7263 114.889C50.1694 115.206 49.4939 115.364 48.6998 115.364ZM47.1025 114.715H48.6572C49.3379 114.715 49.9077 114.58 50.3666 114.312C50.8256 114.044 51.1698 113.661 51.3992 113.164C51.6287 112.666 51.7434 112.073 51.7434 111.385C51.7409 110.701 51.6274 110.114 51.4031 109.621C51.1814 109.129 50.8513 108.751 50.413 108.488C49.9773 108.225 49.4384 108.093 48.7965 108.093H47.1025V114.715ZM54.4142 115.364V107.444H59.0087V108.093H55.1374V111.075H58.765V111.725H55.1374V114.715H59.086V115.364H54.4142ZM67.3017 109.919H66.5746C66.5205 109.648 66.4225 109.398 66.2807 109.169C66.1415 108.937 65.9661 108.734 65.7547 108.561C65.5433 108.389 65.3035 108.255 65.0354 108.159C64.7672 108.064 64.4772 108.016 64.1652 108.016C63.665 108.016 63.2086 108.146 62.7961 108.407C62.3862 108.667 62.0574 109.05 61.8099 109.555C61.565 110.058 61.4425 110.674 61.4425 111.404C61.4425 112.139 61.565 112.758 61.8099 113.26C62.0574 113.763 62.3862 114.145 62.7961 114.405C63.2086 114.663 63.665 114.792 64.1652 114.792C64.4772 114.792 64.7672 114.744 65.0354 114.649C65.3035 114.553 65.5433 114.421 65.7547 114.25C65.9661 114.078 66.1415 113.875 66.2807 113.643C66.4225 113.411 66.5205 113.16 66.5746 112.889H67.3017C67.2372 113.253 67.116 113.592 66.9381 113.906C66.7628 114.218 66.5385 114.492 66.2652 114.726C65.9945 114.961 65.6825 115.144 65.3293 115.275C64.9761 115.407 64.588 115.473 64.1652 115.473C63.5 115.473 62.9096 115.306 62.3939 114.974C61.8783 114.638 61.4735 114.167 61.1795 113.558C60.8882 112.95 60.7425 112.232 60.7425 111.404C60.7425 110.576 60.8882 109.858 61.1795 109.25C61.4735 108.641 61.8783 108.171 62.3939 107.838C62.9096 107.503 63.5 107.335 64.1652 107.335C64.588 107.335 64.9761 107.401 65.3293 107.533C65.6825 107.662 65.9945 107.845 66.2652 108.082C66.5385 108.317 66.7628 108.59 66.9381 108.902C67.116 109.214 67.2372 109.553 67.3017 109.919Z" fill="white"/>
<path d="M34.688 143.289V141.746H43.8828V143.289H40.1759V153.627H38.3891V143.289H34.688ZM45.9147 153.627V141.746H47.7072V146.909H53.6302V141.746H55.4285V153.627H53.6302V148.447H47.7072V153.627H45.9147ZM65.6792 141.746H67.4775V149.56C67.4775 150.392 67.2822 151.129 66.8916 151.771C66.501 152.409 65.9518 152.911 65.2441 153.279C64.5363 153.642 63.7068 153.824 62.7554 153.824C61.8079 153.824 60.9802 153.642 60.2725 153.279C59.5648 152.911 59.0156 152.409 58.625 151.771C58.2344 151.129 58.0391 150.392 58.0391 149.56V141.746H59.8316V149.415C59.8316 149.953 59.9496 150.431 60.1855 150.848C60.4253 151.266 60.7637 151.595 61.2007 151.834C61.6377 152.07 62.1559 152.188 62.7554 152.188C63.3587 152.188 63.8789 152.07 64.3159 151.834C64.7568 151.595 65.0933 151.266 65.3253 150.848C65.5612 150.431 65.6792 149.953 65.6792 149.415V141.746ZM70.0837 153.627V141.746H74.3185C75.239 141.746 76.0028 141.905 76.61 142.222C77.221 142.539 77.6774 142.978 77.979 143.539C78.2807 144.096 78.4315 144.74 78.4315 145.471C78.4315 146.198 78.2788 146.838 77.9732 147.391C77.6716 147.94 77.2152 148.367 76.6042 148.673C75.997 148.978 75.2332 149.131 74.3127 149.131H71.1047V147.588H74.1503C74.7304 147.588 75.2022 147.505 75.5658 147.339C75.9332 147.172 76.202 146.93 76.3721 146.613C76.5423 146.296 76.6274 145.915 76.6274 145.471C76.6274 145.022 76.5404 144.633 76.3663 144.305C76.1962 143.976 75.9274 143.724 75.56 143.55C75.1964 143.372 74.7188 143.284 74.1271 143.284H71.8762V153.627H70.0837ZM75.9486 148.267L78.884 153.627H76.842L73.9647 148.267H75.9486Z" fill="white"/>
<rect x="21.9055" y="73.9348" width="69.4645" height="103.078" rx="15.247" stroke="black" stroke-opacity="0.2" stroke-width="2.17814"/>
<rect x="103.35" y="72.8457" width="71.6427" height="105.256" rx="16.336" fill="#D9D9D9" fill-opacity="0.06"/>
<path d="M134.727 85.6278V101.469H131.858V88.42H131.765L128.06 90.7869V88.1571L131.997 85.6278H134.727ZM144.55 101.685C143.792 101.68 143.052 101.549 142.331 101.291C141.609 101.028 140.959 100.602 140.381 100.015C139.804 99.4216 139.345 98.6352 139.005 97.6555C138.664 96.6706 138.497 95.451 138.502 93.9969C138.502 92.6407 138.646 91.4315 138.935 90.3692C139.224 89.307 139.639 88.4097 140.18 87.6775C140.722 86.9401 141.374 86.378 142.137 85.9913C142.905 85.6046 143.764 85.4112 144.713 85.4112C145.708 85.4112 146.59 85.6071 147.358 85.999C148.132 86.3909 148.756 86.9272 149.23 87.6079C149.704 88.2834 149.998 89.0466 150.112 89.8974H147.289C147.144 89.2889 146.848 88.8042 146.399 88.4432C145.956 88.0771 145.394 87.8941 144.713 87.8941C143.614 87.8941 142.769 88.3711 142.176 89.325C141.588 90.279 141.291 91.5888 141.286 93.2543H141.395C141.647 92.8006 141.975 92.4112 142.377 92.0864C142.779 91.7615 143.233 91.5114 143.738 91.3361C144.249 91.1556 144.788 91.0654 145.355 91.0654C146.283 91.0654 147.116 91.2871 147.853 91.7306C148.596 92.174 149.184 92.7851 149.617 93.5637C150.05 94.3372 150.264 95.2241 150.259 96.2245C150.264 97.2661 150.027 98.2021 149.547 99.0323C149.068 99.8573 148.4 100.507 147.544 100.981C146.688 101.456 145.69 101.69 144.55 101.685ZM144.535 99.3649C145.097 99.3649 145.6 99.2282 146.043 98.9549C146.487 98.6816 146.837 98.3129 147.095 97.8488C147.353 97.3847 147.479 96.8639 147.474 96.2864C147.479 95.7192 147.356 95.2061 147.103 94.7472C146.855 94.2882 146.512 93.9247 146.074 93.6565C145.636 93.3884 145.136 93.2543 144.574 93.2543C144.156 93.2543 143.767 93.3343 143.406 93.4941C143.045 93.654 142.73 93.8757 142.462 94.1593C142.194 94.4378 141.982 94.7626 141.828 95.1339C141.678 95.5 141.601 95.8919 141.596 96.3096C141.601 96.8614 141.73 97.3693 141.982 97.8334C142.235 98.2975 142.583 98.6687 143.027 98.9472C143.47 99.2256 143.973 99.3649 144.535 99.3649Z" fill="white"/>
<path d="M131.233 115.364H128.913V107.444H131.372C132.128 107.444 132.773 107.601 133.31 107.916C133.849 108.23 134.261 108.681 134.547 109.269C134.834 109.857 134.977 110.562 134.977 111.385C134.977 112.215 134.83 112.928 134.536 113.523C134.244 114.116 133.819 114.571 133.26 114.889C132.703 115.206 132.027 115.364 131.233 115.364ZM129.636 114.715H131.19C131.871 114.715 132.441 114.58 132.9 114.312C133.359 114.044 133.703 113.661 133.932 113.164C134.162 112.666 134.277 112.073 134.277 111.385C134.274 110.701 134.161 110.114 133.936 109.621C133.715 109.129 133.385 108.751 132.946 108.488C132.511 108.225 131.972 108.093 131.33 108.093H129.636V114.715ZM136.947 115.364V107.444H141.542V108.093H137.671V111.075H141.298V111.725H137.671V114.715H141.619V115.364H136.947ZM149.835 109.919H149.108C149.054 109.648 148.956 109.398 148.814 109.169C148.675 108.937 148.499 108.734 148.288 108.561C148.076 108.389 147.837 108.255 147.569 108.159C147.3 108.064 147.01 108.016 146.698 108.016C146.198 108.016 145.742 108.146 145.329 108.407C144.919 108.667 144.591 109.05 144.343 109.555C144.098 110.058 143.976 110.674 143.976 111.404C143.976 112.139 144.098 112.758 144.343 113.26C144.591 113.763 144.919 114.145 145.329 114.405C145.742 114.663 146.198 114.792 146.698 114.792C147.01 114.792 147.3 114.744 147.569 114.649C147.837 114.553 148.076 114.421 148.288 114.25C148.499 114.078 148.675 113.875 148.814 113.643C148.956 113.411 149.054 113.16 149.108 112.889H149.835C149.77 113.253 149.649 113.592 149.471 113.906C149.296 114.218 149.072 114.492 148.798 114.726C148.528 114.961 148.216 115.144 147.862 115.275C147.509 115.407 147.121 115.473 146.698 115.473C146.033 115.473 145.443 115.306 144.927 114.974C144.411 114.638 144.007 114.167 143.713 113.558C143.421 112.95 143.276 112.232 143.276 111.404C143.276 110.576 143.421 109.858 143.713 109.25C144.007 108.641 144.411 108.171 144.927 107.838C145.443 107.503 146.033 107.335 146.698 107.335C147.121 107.335 147.509 107.401 147.862 107.533C148.216 107.662 148.528 107.845 148.798 108.082C149.072 108.317 149.296 108.59 149.471 108.902C149.649 109.214 149.77 109.553 149.835 109.919Z" fill="white"/>
<path d="M128.225 153.627V141.746H135.592V143.289H130.017V146.909H135.064V148.447H130.017V153.627H128.225ZM137.796 153.627V141.746H142.031C142.952 141.746 143.716 141.905 144.323 142.222C144.934 142.539 145.39 142.978 145.692 143.539C145.993 144.096 146.144 144.74 146.144 145.471C146.144 146.198 145.991 146.838 145.686 147.391C145.384 147.94 144.928 148.367 144.317 148.673C143.71 148.978 142.946 149.131 142.025 149.131H138.817V147.588H141.863C142.443 147.588 142.915 147.505 143.278 147.339C143.646 147.172 143.915 146.93 144.085 146.613C144.255 146.296 144.34 145.915 144.34 145.471C144.34 145.022 144.253 144.633 144.079 144.305C143.909 143.976 143.64 143.724 143.273 143.55C142.909 143.372 142.432 143.284 141.84 143.284H139.589V153.627H137.796ZM143.661 148.267L146.597 153.627H144.555L141.677 148.267H143.661ZM150.118 141.746V153.627H148.325V141.746H150.118Z" fill="white"/>
<rect x="104.439" y="73.9348" width="69.4645" height="103.078" rx="15.247" stroke="url(#paint0_linear_104_1352)" stroke-opacity="0.7" stroke-width="2.17814"/>
<rect x="185.883" y="72.8457" width="71.6427" height="105.256" rx="16.336" fill="#D9D9D9" fill-opacity="0.06"/>
<path d="M217.93 85.6278V101.469H215.061V88.42H214.968L211.263 90.7869V88.1571L215.2 85.6278H217.93ZM222.533 101.469L229.27 88.1339V88.0256H221.45V85.6278H232.24V88.0797L225.511 101.469H222.533Z" fill="white"/>
<path d="M213.766 115.364H211.446V107.444H213.905C214.661 107.444 215.307 107.601 215.843 107.916C216.382 108.23 216.794 108.681 217.081 109.269C217.367 109.857 217.51 110.562 217.51 111.385C217.51 112.215 217.363 112.928 217.069 113.523C216.778 114.116 216.352 114.571 215.793 114.889C215.236 115.206 214.56 115.364 213.766 115.364ZM212.169 114.715H213.724C214.404 114.715 214.974 114.58 215.433 114.312C215.892 114.044 216.236 113.661 216.466 113.164C216.695 112.666 216.81 112.073 216.81 111.385C216.807 110.701 216.694 110.114 216.47 109.621C216.248 109.129 215.918 108.751 215.479 108.488C215.044 108.225 214.505 108.093 213.863 108.093H212.169V114.715ZM219.481 115.364V107.444H224.075V108.093H220.204V111.075H223.831V111.725H220.204V114.715H224.152V115.364H219.481ZM232.368 109.919H231.641C231.587 109.648 231.489 109.398 231.347 109.169C231.208 108.937 231.033 108.734 230.821 108.561C230.61 108.389 230.37 108.255 230.102 108.159C229.834 108.064 229.544 108.016 229.232 108.016C228.731 108.016 228.275 108.146 227.863 108.407C227.453 108.667 227.124 109.05 226.876 109.555C226.631 110.058 226.509 110.674 226.509 111.404C226.509 112.139 226.631 112.758 226.876 113.26C227.124 113.763 227.453 114.145 227.863 114.405C228.275 114.663 228.731 114.792 229.232 114.792C229.544 114.792 229.834 114.744 230.102 114.649C230.37 114.553 230.61 114.421 230.821 114.25C231.033 114.078 231.208 113.875 231.347 113.643C231.489 113.411 231.587 113.16 231.641 112.889H232.368C232.304 113.253 232.182 113.592 232.005 113.906C231.829 114.218 231.605 114.492 231.332 114.726C231.061 114.961 230.749 115.144 230.396 115.275C230.042 115.407 229.654 115.473 229.232 115.473C228.566 115.473 227.976 115.306 227.46 114.974C226.945 114.638 226.54 114.167 226.246 113.558C225.955 112.95 225.809 112.232 225.809 111.404C225.809 110.576 225.955 109.858 226.246 109.25C226.54 108.641 226.945 108.171 227.46 107.838C227.976 107.503 228.566 107.335 229.232 107.335C229.654 107.335 230.042 107.401 230.396 107.533C230.749 107.662 231.061 107.845 231.332 108.082C231.605 108.317 231.829 108.59 232.005 108.902C232.182 109.214 232.304 109.553 232.368 109.919Z" fill="white"/>
<path d="M213.943 144.867C213.881 144.318 213.626 143.893 213.178 143.591C212.729 143.285 212.164 143.133 211.484 143.133C210.996 143.133 210.575 143.21 210.219 143.365C209.863 143.516 209.587 143.724 209.389 143.991C209.196 144.254 209.099 144.554 209.099 144.89C209.099 145.173 209.165 145.416 209.297 145.621C209.432 145.826 209.608 145.998 209.824 146.138C210.045 146.273 210.281 146.387 210.532 146.48C210.784 146.569 211.025 146.642 211.257 146.7L212.418 147.002C212.797 147.095 213.185 147.221 213.584 147.379C213.982 147.538 214.351 147.747 214.692 148.006C215.032 148.265 215.307 148.586 215.515 148.969C215.728 149.352 215.834 149.81 215.834 150.344C215.834 151.016 215.66 151.614 215.312 152.136C214.968 152.658 214.467 153.07 213.81 153.372C213.156 153.673 212.365 153.824 211.437 153.824C210.548 153.824 209.778 153.683 209.128 153.401C208.479 153.118 207.97 152.718 207.603 152.2C207.235 151.678 207.032 151.059 206.994 150.344H208.792C208.827 150.773 208.966 151.131 209.21 151.417C209.457 151.699 209.772 151.91 210.155 152.049C210.542 152.184 210.965 152.252 211.426 152.252C211.932 152.252 212.383 152.173 212.777 152.014C213.176 151.852 213.489 151.627 213.717 151.341C213.945 151.051 214.059 150.713 214.059 150.326C214.059 149.974 213.959 149.686 213.758 149.462C213.56 149.237 213.292 149.052 212.951 148.905C212.615 148.758 212.234 148.628 211.808 148.516L210.405 148.133C209.453 147.874 208.699 147.493 208.142 146.99C207.589 146.488 207.313 145.822 207.313 144.995C207.313 144.31 207.498 143.713 207.869 143.202C208.241 142.692 208.744 142.295 209.378 142.013C210.012 141.727 210.728 141.584 211.524 141.584C212.329 141.584 213.038 141.725 213.653 142.007C214.272 142.29 214.759 142.678 215.115 143.173C215.471 143.664 215.657 144.229 215.672 144.867H213.943ZM218.884 153.627H216.982L221.257 141.746H223.328L227.604 153.627H225.701L222.342 143.904H222.249L218.884 153.627ZM219.203 148.974H225.376V150.483H219.203V148.974ZM227.329 143.289V141.746H236.524V143.289H232.817V153.627H231.031V143.289H227.329Z" fill="white"/>
<rect x="186.972" y="73.9348" width="69.4645" height="103.078" rx="15.247" stroke="url(#paint1_linear_104_1352)" stroke-opacity="0.7" stroke-width="2.17814"/>
<rect x="268.416" y="72.8457" width="71.6427" height="105.256" rx="16.336" fill="#D9D9D9" fill-opacity="0.06"/>
<path d="M299.825 85.6278V101.469H296.956V88.42H296.863L293.158 90.7869V88.1571L297.095 85.6278H299.825ZM309.479 101.685C308.329 101.685 307.308 101.492 306.416 101.105C305.529 100.718 304.832 100.19 304.327 99.5196C303.827 98.8441 303.579 98.0783 303.585 97.2223C303.579 96.5571 303.724 95.9461 304.018 95.3892C304.312 94.8322 304.709 94.3681 305.209 93.9969C305.714 93.6204 306.276 93.3807 306.895 93.2775V93.1692C306.08 92.9888 305.42 92.5737 304.915 91.9239C304.415 91.269 304.167 90.5136 304.172 89.6576C304.167 88.8429 304.394 88.1158 304.853 87.4764C305.312 86.837 305.941 86.3342 306.74 85.9681C307.54 85.5968 308.452 85.4112 309.479 85.4112C310.494 85.4112 311.399 85.5968 312.193 85.9681C312.993 86.3342 313.622 86.837 314.081 87.4764C314.545 88.1158 314.777 88.8429 314.777 89.6576C314.777 90.5136 314.522 91.269 314.011 91.9239C313.506 92.5737 312.854 92.9888 312.054 93.1692V93.2775C312.673 93.3807 313.23 93.6204 313.725 93.9969C314.225 94.3681 314.622 94.8322 314.916 95.3892C315.215 95.9461 315.365 96.5571 315.365 97.2223C315.365 98.0783 315.112 98.8441 314.607 99.5196C314.101 100.19 313.405 100.718 312.518 101.105C311.637 101.492 310.623 101.685 309.479 101.685ZM309.479 99.4732C310.072 99.4732 310.587 99.3726 311.026 99.1715C311.464 98.9652 311.804 98.6765 312.047 98.3052C312.289 97.9339 312.413 97.5059 312.418 97.0212C312.413 96.5159 312.281 96.0698 312.023 95.6831C311.771 95.2912 311.423 94.9844 310.979 94.7626C310.541 94.5409 310.041 94.43 309.479 94.43C308.911 94.43 308.406 94.5409 307.963 94.7626C307.519 94.9844 307.168 95.2912 306.911 95.6831C306.658 96.0698 306.534 96.5159 306.539 97.0212C306.534 97.5059 306.653 97.9339 306.895 98.3052C307.137 98.6713 307.478 98.9575 307.916 99.1638C308.36 99.37 308.88 99.4732 309.479 99.4732ZM309.479 92.2565C309.963 92.2565 310.391 92.1586 310.763 91.9626C311.139 91.7667 311.435 91.4934 311.652 91.1427C311.869 90.7921 311.979 90.3873 311.985 89.9283C311.979 89.4746 311.871 89.0775 311.66 88.7372C311.448 88.3917 311.154 88.1261 310.778 87.9405C310.402 87.7497 309.968 87.6543 309.479 87.6543C308.978 87.6543 308.537 87.7497 308.156 87.9405C307.779 88.1261 307.486 88.3917 307.274 88.7372C307.068 89.0775 306.967 89.4746 306.972 89.9283C306.967 90.3873 307.07 90.7921 307.282 91.1427C307.498 91.4882 307.795 91.7615 308.171 91.9626C308.553 92.1586 308.989 92.2565 309.479 92.2565Z" fill="white"/>
<path d="M296.299 115.364H293.979V107.444H296.439C297.194 107.444 297.84 107.601 298.376 107.916C298.915 108.23 299.328 108.681 299.614 109.269C299.9 109.857 300.043 110.562 300.043 111.385C300.043 112.215 299.896 112.928 299.602 113.523C299.311 114.116 298.885 114.571 298.326 114.889C297.769 115.206 297.093 115.364 296.299 115.364ZM294.702 114.715H296.257C296.938 114.715 297.507 114.58 297.966 114.312C298.425 114.044 298.769 113.661 298.999 113.164C299.228 112.666 299.343 112.073 299.343 111.385C299.34 110.701 299.227 110.114 299.003 109.621C298.781 109.129 298.451 108.751 298.013 108.488C297.577 108.225 297.038 108.093 296.396 108.093H294.702V114.715ZM302.014 115.364V107.444H306.608V108.093H302.737V111.075H306.365V111.725H302.737V114.715H306.686V115.364H302.014ZM314.901 109.919H314.174C314.12 109.648 314.022 109.398 313.88 109.169C313.741 108.937 313.566 108.734 313.354 108.561C313.143 108.389 312.903 108.255 312.635 108.159C312.367 108.064 312.077 108.016 311.765 108.016C311.265 108.016 310.808 108.146 310.396 108.407C309.986 108.667 309.657 109.05 309.41 109.555C309.165 110.058 309.042 110.674 309.042 111.404C309.042 112.139 309.165 112.758 309.41 113.26C309.657 113.763 309.986 114.145 310.396 114.405C310.808 114.663 311.265 114.792 311.765 114.792C312.077 114.792 312.367 114.744 312.635 114.649C312.903 114.553 313.143 114.421 313.354 114.25C313.566 114.078 313.741 113.875 313.88 113.643C314.022 113.411 314.12 113.16 314.174 112.889H314.901C314.837 113.253 314.716 113.592 314.538 113.906C314.362 114.218 314.138 114.492 313.865 114.726C313.594 114.961 313.282 115.144 312.929 115.275C312.576 115.407 312.188 115.473 311.765 115.473C311.1 115.473 310.509 115.306 309.994 114.974C309.478 114.638 309.073 114.167 308.779 113.558C308.488 112.95 308.342 112.232 308.342 111.404C308.342 110.576 308.488 109.858 308.779 109.25C309.073 108.641 309.478 108.171 309.994 107.838C310.509 107.503 311.1 107.335 311.765 107.335C312.188 107.335 312.576 107.401 312.929 107.533C313.282 107.662 313.594 107.845 313.865 108.082C314.138 108.317 314.362 108.59 314.538 108.902C314.716 109.214 314.837 109.553 314.901 109.919Z" fill="white"/>
<path d="M294.642 144.867C294.58 144.318 294.325 143.893 293.876 143.591C293.427 143.285 292.863 143.133 292.182 143.133C291.695 143.133 291.273 143.21 290.918 143.365C290.562 143.516 290.285 143.724 290.088 143.991C289.895 144.254 289.798 144.554 289.798 144.89C289.798 145.173 289.864 145.416 289.995 145.621C290.131 145.826 290.306 145.998 290.523 146.138C290.744 146.273 290.979 146.387 291.231 146.48C291.482 146.569 291.724 146.642 291.956 146.7L293.116 147.002C293.495 147.095 293.884 147.221 294.282 147.379C294.681 147.538 295.05 147.747 295.39 148.006C295.731 148.265 296.005 148.586 296.214 148.969C296.427 149.352 296.533 149.81 296.533 150.344C296.533 151.016 296.359 151.614 296.011 152.136C295.667 152.658 295.166 153.07 294.508 153.372C293.855 153.673 293.064 153.824 292.136 153.824C291.246 153.824 290.477 153.683 289.827 153.401C289.177 153.118 288.669 152.718 288.301 152.2C287.934 151.678 287.731 151.059 287.692 150.344H289.49C289.525 150.773 289.664 151.131 289.908 151.417C290.156 151.699 290.471 151.91 290.854 152.049C291.24 152.184 291.664 152.252 292.124 152.252C292.631 152.252 293.081 152.173 293.476 152.014C293.874 151.852 294.187 151.627 294.416 151.341C294.644 151.051 294.758 150.713 294.758 150.326C294.758 149.974 294.657 149.686 294.456 149.462C294.259 149.237 293.99 149.052 293.65 148.905C293.313 148.758 292.932 148.628 292.507 148.516L291.103 148.133C290.152 147.874 289.398 147.493 288.841 146.99C288.288 146.488 288.011 145.822 288.011 144.995C288.011 144.31 288.197 143.713 288.568 143.202C288.939 142.692 289.442 142.295 290.076 142.013C290.711 141.727 291.426 141.584 292.223 141.584C293.027 141.584 293.737 141.725 294.352 142.007C294.971 142.29 295.458 142.678 295.814 143.173C296.17 143.664 296.355 144.229 296.371 144.867H294.642ZM306.315 141.746H308.114V149.56C308.114 150.392 307.918 151.129 307.528 151.771C307.137 152.409 306.588 152.911 305.88 153.279C305.172 153.642 304.343 153.824 303.391 153.824C302.444 153.824 301.616 153.642 300.909 153.279C300.201 152.911 299.652 152.409 299.261 151.771C298.87 151.129 298.675 150.392 298.675 149.56V141.746H300.468V149.415C300.468 149.953 300.586 150.431 300.822 150.848C301.061 151.266 301.4 151.595 301.837 151.834C302.274 152.07 302.792 152.188 303.391 152.188C303.995 152.188 304.515 152.07 304.952 151.834C305.393 151.595 305.729 151.266 305.961 150.848C306.197 150.431 306.315 149.953 306.315 149.415V141.746ZM320.309 141.746V153.627H318.662L312.623 144.914H312.512V153.627H310.72V141.746H312.379L318.424 150.471H318.534V141.746H320.309Z" fill="white"/>
<rect x="269.505" y="73.9348" width="69.4645" height="103.078" rx="15.247" stroke="url(#paint2_linear_104_1352)" stroke-opacity="0.7" stroke-width="2.17814"/>
<rect x="350.95" y="72.8457" width="71.6427" height="105.256" rx="16.336" fill="#D9D9D9" fill-opacity="0.06"/>
<path d="M382.328 85.6278V101.469H379.458V88.42H379.365L375.66 90.7869V88.1571L379.597 85.6278H382.328ZM391.849 85.4112C392.607 85.4163 393.345 85.5504 394.062 85.8134C394.783 86.0712 395.433 86.4941 396.011 87.0819C396.588 87.6646 397.047 88.4458 397.387 89.4256C397.728 90.4053 397.898 91.6171 397.898 93.061C397.903 94.4223 397.759 95.6392 397.465 96.7118C397.176 97.7792 396.761 98.6816 396.22 99.419C395.678 100.156 395.026 100.718 394.263 101.105C393.499 101.492 392.641 101.685 391.687 101.685C390.687 101.685 389.8 101.489 389.026 101.097C388.258 100.706 387.636 100.169 387.162 99.4886C386.688 98.808 386.396 98.0293 386.288 97.1527H389.111C389.256 97.7818 389.55 98.282 389.993 98.6533C390.442 99.0194 391.006 99.2024 391.687 99.2024C392.785 99.2024 393.631 98.7255 394.224 97.7715C394.817 96.8175 395.113 95.4923 395.113 93.7958H395.005C394.752 94.2495 394.425 94.6414 394.023 94.9715C393.621 95.2963 393.164 95.5464 392.654 95.7217C392.148 95.8971 391.612 95.9847 391.045 95.9847C390.117 95.9847 389.281 95.763 388.539 95.3195C387.801 94.8761 387.216 94.2676 386.783 93.4941C386.355 92.7206 386.138 91.8363 386.133 90.8411C386.133 89.8097 386.37 88.8841 386.845 88.0642C387.324 87.2392 387.992 86.5895 388.848 86.1151C389.704 85.6355 390.705 85.4009 391.849 85.4112ZM391.857 87.7316C391.3 87.7316 390.797 87.8683 390.349 88.1416C389.905 88.4097 389.555 88.7758 389.297 89.2399C389.044 89.6989 388.918 90.212 388.918 90.7792C388.923 91.3412 389.049 91.8517 389.297 92.3107C389.55 92.7696 389.892 93.1331 390.326 93.4013C390.764 93.6694 391.264 93.8035 391.826 93.8035C392.244 93.8035 392.633 93.7236 392.994 93.5637C393.355 93.4039 393.67 93.1821 393.938 92.8985C394.211 92.6098 394.422 92.2823 394.572 91.9162C394.727 91.5501 394.801 91.1633 394.796 90.756C394.796 90.2145 394.667 89.7143 394.41 89.2554C394.157 88.7965 393.809 88.4278 393.365 88.1493C392.927 87.8709 392.424 87.7316 391.857 87.7316Z" fill="white"/>
<path d="M378.834 115.364H376.513V107.444H378.973C379.728 107.444 380.374 107.601 380.91 107.916C381.449 108.23 381.862 108.681 382.148 109.269C382.434 109.857 382.577 110.562 382.577 111.385C382.577 112.215 382.43 112.928 382.136 113.523C381.845 114.116 381.42 114.571 380.86 114.889C380.303 115.206 379.628 115.364 378.834 115.364ZM377.236 114.715H378.791C379.472 114.715 380.041 114.58 380.5 114.312C380.959 114.044 381.304 113.661 381.533 113.164C381.762 112.666 381.877 112.073 381.877 111.385C381.875 110.701 381.761 110.114 381.537 109.621C381.315 109.129 380.985 108.751 380.547 108.488C380.111 108.225 379.572 108.093 378.93 108.093H377.236V114.715ZM384.548 115.364V107.444H389.142V108.093H385.271V111.075H388.899V111.725H385.271V114.715H389.22V115.364H384.548ZM397.435 109.919H396.708C396.654 109.648 396.556 109.398 396.414 109.169C396.275 108.937 396.1 108.734 395.888 108.561C395.677 108.389 395.437 108.255 395.169 108.159C394.901 108.064 394.611 108.016 394.299 108.016C393.799 108.016 393.342 108.146 392.93 108.407C392.52 108.667 392.191 109.05 391.944 109.555C391.699 110.058 391.576 110.674 391.576 111.404C391.576 112.139 391.699 112.758 391.944 113.26C392.191 113.763 392.52 114.145 392.93 114.405C393.342 114.663 393.799 114.792 394.299 114.792C394.611 114.792 394.901 114.744 395.169 114.649C395.437 114.553 395.677 114.421 395.888 114.25C396.1 114.078 396.275 113.875 396.414 113.643C396.556 113.411 396.654 113.16 396.708 112.889H397.435C397.371 113.253 397.25 113.592 397.072 113.906C396.897 114.218 396.672 114.492 396.399 114.726C396.128 114.961 395.816 115.144 395.463 115.275C395.11 115.407 394.722 115.473 394.299 115.473C393.634 115.473 393.043 115.306 392.528 114.974C392.012 114.638 391.607 114.167 391.313 113.558C391.022 112.95 390.876 112.232 390.876 111.404C390.876 110.576 391.022 109.858 391.313 109.25C391.607 108.641 392.012 108.171 392.528 107.838C393.043 107.503 393.634 107.335 394.299 107.335C394.722 107.335 395.11 107.401 395.463 107.533C395.816 107.662 396.128 107.845 396.399 108.082C396.672 108.317 396.897 108.59 397.072 108.902C397.25 109.214 397.371 109.553 397.435 109.919Z" fill="white"/>
<path d="M368.367 141.746H370.542L374.325 150.982H374.464L378.246 141.746H380.422V153.627H378.716V145.03H378.606L375.102 153.61H373.687L370.183 145.024H370.073V153.627H368.367V141.746ZM393.348 147.687C393.348 148.955 393.116 150.046 392.652 150.958C392.188 151.867 391.552 152.567 390.743 153.058C389.939 153.546 389.024 153.789 388 153.789C386.971 153.789 386.052 153.546 385.244 153.058C384.44 152.567 383.805 151.865 383.341 150.953C382.877 150.04 382.645 148.951 382.645 147.687C382.645 146.418 382.877 145.329 383.341 144.421C383.805 143.508 384.44 142.808 385.244 142.321C386.052 141.829 386.971 141.584 388 141.584C389.024 141.584 389.939 141.829 390.743 142.321C391.552 142.808 392.188 143.508 392.652 144.421C393.116 145.329 393.348 146.418 393.348 147.687ZM391.573 147.687C391.573 146.72 391.416 145.906 391.103 145.244C390.794 144.579 390.368 144.076 389.827 143.736C389.289 143.392 388.68 143.22 388 143.22C387.315 143.22 386.704 143.392 386.166 143.736C385.629 144.076 385.203 144.579 384.89 145.244C384.581 145.906 384.426 146.72 384.426 147.687C384.426 148.653 384.581 149.469 384.89 150.135C385.203 150.796 385.629 151.299 386.166 151.643C386.704 151.983 387.315 152.153 388 152.153C388.68 152.153 389.289 151.983 389.827 151.643C390.368 151.299 390.794 150.796 391.103 150.135C391.416 149.469 391.573 148.653 391.573 147.687ZM405.172 141.746V153.627H403.525L397.486 144.914H397.376V153.627H395.583V141.746H397.242L403.287 150.471H403.397V141.746H405.172Z" fill="white"/>
<rect x="352.039" y="73.9348" width="69.4645" height="103.078" rx="15.247" stroke="black" stroke-opacity="0.2" stroke-width="2.17814"/>
<defs>
<linearGradient id="paint0_linear_104_1352" x1="139.171" y1="72.8457" x2="139.171" y2="178.102" gradientUnits="userSpaceOnUse">
<stop stop-color="#F995B2"/>
<stop offset="0.488884" stop-color="#E5A9CF"/>
<stop offset="1" stop-color="#8C7EF5"/>
</linearGradient>
<linearGradient id="paint1_linear_104_1352" x1="221.704" y1="72.8457" x2="221.704" y2="178.102" gradientUnits="userSpaceOnUse">
<stop stop-color="#F995B2"/>
<stop offset="0.488884" stop-color="#E5A9CF"/>
<stop offset="1" stop-color="#8C7EF5"/>
</linearGradient>
<linearGradient id="paint2_linear_104_1352" x1="304.237" y1="72.8457" x2="304.237" y2="178.102" gradientUnits="userSpaceOnUse">
<stop stop-color="#F995B2"/>
<stop offset="0.488884" stop-color="#E5A9CF"/>
<stop offset="1" stop-color="#8C7EF5"/>
</linearGradient>
</defs>
</svg>
