<svg width="557" height="164" viewBox="0 0 557 164" fill="none" xmlns="http://www.w3.org/2000/svg">
<rect x="0.355469" y="0.37207" width="556.472" height="149.927" rx="20" fill="#D9D9D9" fill-opacity="0.06"/>
<path d="M34.5156 32.6416C34.5156 34.5713 34.1562 36.1846 33.4375 37.4814C32.7188 38.7705 31.6758 39.7432 30.3086 40.3994C28.9414 41.0479 27.293 41.3721 25.3633 41.3721H20.6055V24.2393H25.8789C27.6523 24.2393 29.1836 24.5596 30.4727 25.2002C31.7617 25.833 32.7578 26.7744 33.4609 28.0244C34.1641 29.2666 34.5156 30.8057 34.5156 32.6416ZM31.5859 32.7236C31.5859 31.3174 31.3633 30.1611 30.918 29.2549C30.4805 28.3486 29.832 27.6768 28.9727 27.2393C28.1211 26.7939 27.0703 26.5713 25.8203 26.5713H23.418V39.0166H25.4102C27.4805 39.0166 29.0273 38.4893 30.0508 37.4346C31.0742 36.3799 31.5859 34.8096 31.5859 32.7236ZM43.0938 28.1533C44.25 28.1533 45.2422 28.3916 46.0703 28.8682C46.8984 29.3447 47.5352 30.0205 47.9805 30.8955C48.4258 31.7705 48.6484 32.8174 48.6484 34.0361V35.5127H39.9883C40.0195 36.7705 40.3555 37.7393 40.9961 38.4189C41.6445 39.0986 42.5508 39.4385 43.7148 39.4385C44.543 39.4385 45.2852 39.3604 45.9414 39.2041C46.6055 39.04 47.2891 38.8018 47.9922 38.4893V40.7275C47.3438 41.0322 46.6836 41.2549 46.0117 41.3955C45.3398 41.5361 44.5352 41.6064 43.5977 41.6064C42.3242 41.6064 41.2031 41.3604 40.2344 40.8682C39.2734 40.3682 38.5195 39.626 37.9727 38.6416C37.4336 37.6572 37.1641 36.4346 37.1641 34.9736C37.1641 33.5205 37.4102 32.2861 37.9023 31.2705C38.3945 30.2549 39.0859 29.4814 39.9766 28.9502C40.8672 28.4189 41.9062 28.1533 43.0938 28.1533ZM43.0938 30.2275C42.2266 30.2275 41.5234 30.5088 40.9844 31.0713C40.4531 31.6338 40.1406 32.458 40.0469 33.5439H45.9531C45.9453 32.8955 45.8359 32.3213 45.625 31.8213C45.4219 31.3213 45.1094 30.9307 44.6875 30.6494C44.2734 30.3682 43.7422 30.2275 43.0938 30.2275ZM56.9805 41.6064C55.7539 41.6064 54.6914 41.3682 53.793 40.8916C52.8945 40.415 52.2031 39.6846 51.7188 38.7002C51.2344 37.7158 50.9922 36.4658 50.9922 34.9502C50.9922 33.3721 51.2578 32.083 51.7891 31.083C52.3203 30.083 53.0547 29.3447 53.9922 28.8682C54.9375 28.3916 56.0195 28.1533 57.2383 28.1533C58.0117 28.1533 58.7109 28.2314 59.3359 28.3877C59.9688 28.5361 60.5039 28.7197 60.9414 28.9385L60.1211 31.1416C59.6445 30.9463 59.1562 30.7822 58.6562 30.6494C58.1562 30.5166 57.6758 30.4502 57.2148 30.4502C56.457 30.4502 55.8242 30.6182 55.3164 30.9541C54.8164 31.29 54.4414 31.79 54.1914 32.4541C53.9492 33.1182 53.8281 33.9424 53.8281 34.9268C53.8281 35.8799 53.9531 36.6846 54.2031 37.3408C54.4531 37.9893 54.8242 38.4814 55.3164 38.8174C55.8086 39.1455 56.4141 39.3096 57.1328 39.3096C57.8438 39.3096 58.4805 39.2236 59.043 39.0518C59.6055 38.8799 60.1367 38.6572 60.6367 38.3838V40.7744C60.1445 41.0557 59.6172 41.2627 59.0547 41.3955C58.4922 41.5361 57.8008 41.6064 56.9805 41.6064ZM68.8516 28.1533C70.0078 28.1533 71 28.3916 71.8281 28.8682C72.6562 29.3447 73.293 30.0205 73.7383 30.8955C74.1836 31.7705 74.4062 32.8174 74.4062 34.0361V35.5127H65.7461C65.7773 36.7705 66.1133 37.7393 66.7539 38.4189C67.4023 39.0986 68.3086 39.4385 69.4727 39.4385C70.3008 39.4385 71.043 39.3604 71.6992 39.2041C72.3633 39.04 73.0469 38.8018 73.75 38.4893V40.7275C73.1016 41.0322 72.4414 41.2549 71.7695 41.3955C71.0977 41.5361 70.293 41.6064 69.3555 41.6064C68.082 41.6064 66.9609 41.3604 65.9922 40.8682C65.0312 40.3682 64.2773 39.626 63.7305 38.6416C63.1914 37.6572 62.9219 36.4346 62.9219 34.9736C62.9219 33.5205 63.168 32.2861 63.6602 31.2705C64.1523 30.2549 64.8438 29.4814 65.7344 28.9502C66.625 28.4189 67.6641 28.1533 68.8516 28.1533ZM68.8516 30.2275C67.9844 30.2275 67.2812 30.5088 66.7422 31.0713C66.2109 31.6338 65.8984 32.458 65.8047 33.5439H71.7109C71.7031 32.8955 71.5938 32.3213 71.3828 31.8213C71.1797 31.3213 70.8672 30.9307 70.4453 30.6494C70.0312 30.3682 69.5 30.2275 68.8516 30.2275ZM92.1719 28.1533C93.625 28.1533 94.7188 28.5283 95.4531 29.2783C96.1953 30.0283 96.5664 31.2314 96.5664 32.8877V41.3721H93.8125V33.3799C93.8125 32.3955 93.6211 31.6533 93.2383 31.1533C92.8555 30.6533 92.2734 30.4033 91.4922 30.4033C90.3984 30.4033 89.6094 30.7549 89.125 31.458C88.6484 32.1533 88.4102 33.165 88.4102 34.4932V41.3721H85.6562V33.3799C85.6562 32.7236 85.5703 32.1768 85.3984 31.7393C85.2344 31.2939 84.9805 30.9619 84.6367 30.7432C84.293 30.5166 83.8594 30.4033 83.3359 30.4033C82.5781 30.4033 81.9727 30.5752 81.5195 30.9189C81.0742 31.2627 80.7539 31.7705 80.5586 32.4424C80.3633 33.1064 80.2656 33.9229 80.2656 34.8916V41.3721H77.5117V28.3994H79.6562L80.043 30.1455H80.1953C80.4609 29.6924 80.7891 29.3213 81.1797 29.0322C81.5781 28.7354 82.0195 28.5166 82.5039 28.376C82.9883 28.2275 83.4922 28.1533 84.0156 28.1533C84.9844 28.1533 85.8008 28.3252 86.4648 28.6689C87.1289 29.0049 87.625 29.5205 87.9531 30.2158H88.1641C88.5703 29.5127 89.1367 28.9932 89.8633 28.6572C90.5898 28.3213 91.3594 28.1533 92.1719 28.1533ZM103.164 23.1377V27.5322C103.164 28.04 103.148 28.54 103.117 29.0322C103.094 29.5166 103.07 29.8955 103.047 30.1689H103.164C103.516 29.6064 104.004 29.1338 104.629 28.751C105.262 28.3604 106.07 28.165 107.055 28.165C108.594 28.165 109.832 28.7314 110.77 29.8643C111.707 30.9893 112.176 32.6572 112.176 34.8682C112.176 36.3369 111.961 37.5713 111.531 38.5713C111.102 39.5713 110.496 40.3291 109.715 40.8447C108.941 41.3525 108.031 41.6064 106.984 41.6064C106 41.6064 105.203 41.4268 104.594 41.0674C103.992 40.7002 103.52 40.2744 103.176 39.79H102.977L102.473 41.3721H100.41V23.1377H103.164ZM106.328 30.4033C105.547 30.4033 104.926 30.5596 104.465 30.8721C104.012 31.1846 103.684 31.6533 103.48 32.2783C103.277 32.8955 103.172 33.6807 103.164 34.6338V34.8799C103.164 36.3252 103.391 37.4307 103.844 38.1963C104.305 38.9619 105.141 39.3447 106.352 39.3447C107.312 39.3447 108.051 38.958 108.566 38.1846C109.082 37.4033 109.34 36.2861 109.34 34.833C109.34 33.3643 109.082 32.2588 108.566 31.5166C108.059 30.7744 107.312 30.4033 106.328 30.4033ZM120.531 28.1533C121.688 28.1533 122.68 28.3916 123.508 28.8682C124.336 29.3447 124.973 30.0205 125.418 30.8955C125.863 31.7705 126.086 32.8174 126.086 34.0361V35.5127H117.426C117.457 36.7705 117.793 37.7393 118.434 38.4189C119.082 39.0986 119.988 39.4385 121.152 39.4385C121.98 39.4385 122.723 39.3604 123.379 39.2041C124.043 39.04 124.727 38.8018 125.43 38.4893V40.7275C124.781 41.0322 124.121 41.2549 123.449 41.3955C122.777 41.5361 121.973 41.6064 121.035 41.6064C119.762 41.6064 118.641 41.3604 117.672 40.8682C116.711 40.3682 115.957 39.626 115.41 38.6416C114.871 37.6572 114.602 36.4346 114.602 34.9736C114.602 33.5205 114.848 32.2861 115.34 31.2705C115.832 30.2549 116.523 29.4814 117.414 28.9502C118.305 28.4189 119.344 28.1533 120.531 28.1533ZM120.531 30.2275C119.664 30.2275 118.961 30.5088 118.422 31.0713C117.891 31.6338 117.578 32.458 117.484 33.5439H123.391C123.383 32.8955 123.273 32.3213 123.062 31.8213C122.859 31.3213 122.547 30.9307 122.125 30.6494C121.711 30.3682 121.18 30.2275 120.531 30.2275ZM135.766 28.1533C135.984 28.1533 136.223 28.165 136.48 28.1885C136.738 28.2119 136.961 28.2432 137.148 28.2822L136.891 30.8604C136.727 30.8135 136.523 30.7783 136.281 30.7549C136.047 30.7314 135.836 30.7197 135.648 30.7197C135.156 30.7197 134.688 30.8018 134.242 30.9658C133.797 31.1221 133.402 31.3643 133.059 31.6924C132.715 32.0127 132.445 32.415 132.25 32.8994C132.055 33.3838 131.957 33.9463 131.957 34.5869V41.3721H129.191V28.3994H131.348L131.723 30.6846H131.852C132.109 30.2236 132.43 29.8018 132.812 29.4189C133.195 29.0361 133.633 28.7314 134.125 28.5049C134.625 28.2705 135.172 28.1533 135.766 28.1533ZM142.328 38.583L142.492 38.8525C142.352 39.415 142.172 40.0205 141.953 40.6689C141.734 41.3174 141.496 41.9658 141.238 42.6143C140.98 43.2705 140.719 43.8877 140.453 44.4658H138.438C138.602 43.833 138.758 43.1689 138.906 42.4736C139.062 41.7861 139.203 41.1064 139.328 40.4346C139.461 39.7549 139.566 39.1377 139.645 38.583H142.328ZM163.035 41.3721H151.434V39.2979L155.875 34.7979C156.734 33.9229 157.441 33.1689 157.996 32.5361C158.551 31.8955 158.961 31.29 159.227 30.7197C159.5 30.1494 159.637 29.5283 159.637 28.8564C159.637 28.0283 159.398 27.4033 158.922 26.9814C158.445 26.5518 157.816 26.3369 157.035 26.3369C156.293 26.3369 155.605 26.4854 154.973 26.7822C154.348 27.0713 153.699 27.4854 153.027 28.0244L151.516 26.208C151.992 25.8018 152.5 25.4307 153.039 25.0947C153.586 24.7588 154.195 24.4932 154.867 24.2979C155.539 24.0947 156.305 23.9932 157.164 23.9932C158.25 23.9932 159.188 24.1885 159.977 24.5791C160.766 24.9619 161.371 25.4971 161.793 26.1846C162.223 26.8721 162.438 27.6729 162.438 28.5869C162.438 29.5088 162.254 30.3604 161.887 31.1416C161.52 31.9229 160.996 32.6963 160.316 33.4619C159.637 34.2197 158.828 35.0439 157.891 35.9346L154.926 38.8291V38.958H163.035V41.3721ZM176.77 32.7939C176.77 34.1768 176.66 35.415 176.441 36.5088C176.23 37.5947 175.895 38.5166 175.434 39.2744C174.973 40.0322 174.371 40.6104 173.629 41.0088C172.887 41.4072 171.988 41.6064 170.934 41.6064C169.613 41.6064 168.523 41.2588 167.664 40.5635C166.805 39.8604 166.168 38.8525 165.754 37.54C165.34 36.2197 165.133 34.6377 165.133 32.7939C165.133 30.9502 165.32 29.3721 165.695 28.0596C166.078 26.7393 166.695 25.7275 167.547 25.0244C168.398 24.3213 169.527 23.9697 170.934 23.9697C172.262 23.9697 173.355 24.3213 174.215 25.0244C175.082 25.7197 175.723 26.7275 176.137 28.0479C176.559 29.3604 176.77 30.9424 176.77 32.7939ZM167.91 32.7939C167.91 34.2393 168.004 35.4463 168.191 36.415C168.387 37.3838 168.707 38.1104 169.152 38.5947C169.598 39.0713 170.191 39.3096 170.934 39.3096C171.676 39.3096 172.27 39.0713 172.715 38.5947C173.16 38.1182 173.48 37.3955 173.676 36.4268C173.879 35.458 173.98 34.2471 173.98 32.7939C173.98 31.3564 173.883 30.1533 173.688 29.1846C173.492 28.2158 173.172 27.4893 172.727 27.0049C172.281 26.5127 171.684 26.2666 170.934 26.2666C170.184 26.2666 169.586 26.5127 169.141 27.0049C168.703 27.4893 168.387 28.2158 168.191 29.1846C168.004 30.1533 167.91 31.3564 167.91 32.7939ZM190.504 41.3721H178.902V39.2979L183.344 34.7979C184.203 33.9229 184.91 33.1689 185.465 32.5361C186.02 31.8955 186.43 31.29 186.695 30.7197C186.969 30.1494 187.105 29.5283 187.105 28.8564C187.105 28.0283 186.867 27.4033 186.391 26.9814C185.914 26.5518 185.285 26.3369 184.504 26.3369C183.762 26.3369 183.074 26.4854 182.441 26.7822C181.816 27.0713 181.168 27.4854 180.496 28.0244L178.984 26.208C179.461 25.8018 179.969 25.4307 180.508 25.0947C181.055 24.7588 181.664 24.4932 182.336 24.2979C183.008 24.0947 183.773 23.9932 184.633 23.9932C185.719 23.9932 186.656 24.1885 187.445 24.5791C188.234 24.9619 188.84 25.4971 189.262 26.1846C189.691 26.8721 189.906 27.6729 189.906 28.5869C189.906 29.5088 189.723 30.3604 189.355 31.1416C188.988 31.9229 188.465 32.6963 187.785 33.4619C187.105 34.2197 186.297 35.0439 185.359 35.9346L182.395 38.8291V38.958H190.504V41.3721ZM204.238 41.3721H192.637V39.2979L197.078 34.7979C197.938 33.9229 198.645 33.1689 199.199 32.5361C199.754 31.8955 200.164 31.29 200.43 30.7197C200.703 30.1494 200.84 29.5283 200.84 28.8564C200.84 28.0283 200.602 27.4033 200.125 26.9814C199.648 26.5518 199.02 26.3369 198.238 26.3369C197.496 26.3369 196.809 26.4854 196.176 26.7822C195.551 27.0713 194.902 27.4854 194.23 28.0244L192.719 26.208C193.195 25.8018 193.703 25.4307 194.242 25.0947C194.789 24.7588 195.398 24.4932 196.07 24.2979C196.742 24.0947 197.508 23.9932 198.367 23.9932C199.453 23.9932 200.391 24.1885 201.18 24.5791C201.969 24.9619 202.574 25.4971 202.996 26.1846C203.426 26.8721 203.641 27.6729 203.641 28.5869C203.641 29.5088 203.457 30.3604 203.09 31.1416C202.723 31.9229 202.199 32.6963 201.52 33.4619C200.84 34.2197 200.031 35.0439 199.094 35.9346L196.129 38.8291V38.958H204.238V41.3721Z" fill="white"/>
<line y1="-0.5" x2="520.48" y2="-0.5" transform="matrix(0.999984 0.00562458 -0.00659683 0.999978 18.3555 52.3721)" stroke="#F5F5F5" stroke-opacity="0.53"/>
<rect x="1.35547" y="1.37207" width="554.472" height="147.927" rx="19" stroke="black" stroke-opacity="0.2" stroke-width="2"/>
<rect x="18.3516" y="66.9189" width="65.7834" height="96.6481" rx="15" fill="#D9D9D9" fill-opacity="0.06"/>
<path d="M47.4388 78.3735V92.9189H44.8039V80.9374H44.7186L41.3166 83.1107V80.6959L44.9317 78.3735H47.4388ZM51.132 92.9189V91.0155L56.1817 86.0653C56.6647 85.5776 57.0671 85.1443 57.3891 84.7655C57.7111 84.3867 57.9525 84.0198 58.1135 83.6647C58.2745 83.3096 58.355 82.9308 58.355 82.5283C58.355 82.069 58.2508 81.676 58.0425 81.3493C57.8342 81.0179 57.5477 80.7622 57.1831 80.5823C56.8185 80.4024 56.4042 80.3124 55.9402 80.3124C55.462 80.3124 55.043 80.4118 54.6831 80.6107C54.3233 80.8048 54.0439 81.0818 53.8451 81.4417C53.6509 81.8015 53.5539 82.23 53.5539 82.7272H51.0468C51.0468 81.8039 51.2575 81.0013 51.6789 80.3195C52.1003 79.6377 52.6803 79.1098 53.4189 78.7357C54.1623 78.3617 55.0146 78.1746 55.9757 78.1746C56.9511 78.1746 57.8081 78.3569 58.5468 78.7215C59.2854 79.0861 59.8583 79.5856 60.2655 80.2201C60.6774 80.8546 60.8834 81.579 60.8834 82.3934C60.8834 82.9379 60.7792 83.4729 60.5709 83.9985C60.3626 84.5241 59.9956 85.1064 59.4701 85.7456C58.9492 86.3849 58.2177 87.159 57.2754 88.0681L54.7683 90.6178V90.7172H61.1036V92.9189H51.132Z" fill="white"/>
<path d="M43.9552 106.778H41.8245V99.5056H44.083C44.7767 99.5056 45.3697 99.65 45.8621 99.9388C46.3569 100.228 46.7357 100.642 46.9985 101.182C47.2613 101.722 47.3927 102.369 47.3927 103.124C47.3927 103.887 47.2577 104.541 46.9879 105.088C46.7203 105.632 46.3297 106.05 45.816 106.342C45.3046 106.633 44.6844 106.778 43.9552 106.778ZM42.4886 106.182H43.9161C44.5411 106.182 45.0643 106.059 45.4857 105.812C45.9071 105.566 46.2232 105.215 46.4339 104.758C46.6446 104.301 46.7499 103.756 46.7499 103.124C46.7476 102.497 46.6434 101.957 46.4374 101.505C46.2338 101.053 45.9308 100.706 45.5283 100.464C45.1282 100.223 44.6335 100.102 44.044 100.102H42.4886V106.182ZM49.2022 106.778V99.5056H53.421V100.102H49.8663V102.84H53.1973V103.437H49.8663V106.182H53.492V106.778H49.2022ZM61.0358 101.778H60.3681C60.3184 101.53 60.2285 101.3 60.0983 101.089C59.9704 100.876 59.8094 100.69 59.6153 100.532C59.4212 100.373 59.201 100.25 58.9548 100.163C58.7086 100.075 58.4422 100.031 58.1558 100.031C57.6965 100.031 57.2775 100.151 56.8987 100.39C56.5223 100.629 56.2204 100.98 55.9931 101.445C55.7682 101.906 55.6558 102.472 55.6558 103.142C55.6558 103.817 55.7682 104.385 55.9931 104.847C56.2204 105.308 56.5223 105.659 56.8987 105.898C57.2775 106.134 57.6965 106.253 58.1558 106.253C58.4422 106.253 58.7086 106.209 58.9548 106.121C59.201 106.034 59.4212 105.912 59.6153 105.756C59.8094 105.597 59.9704 105.411 60.0983 105.198C60.2285 104.985 60.3184 104.754 60.3681 104.506H61.0358C60.9766 104.839 60.8653 105.151 60.702 105.44C60.541 105.726 60.335 105.977 60.0841 106.192C59.8355 106.408 59.549 106.576 59.2247 106.697C58.9003 106.817 58.544 106.878 58.1558 106.878C57.545 106.878 57.0029 106.725 56.5294 106.42C56.0559 106.112 55.6842 105.679 55.4143 105.12C55.1468 104.561 55.013 103.902 55.013 103.142C55.013 102.382 55.1468 101.723 55.4143 101.164C55.6842 100.605 56.0559 100.173 56.5294 99.8678C57.0029 99.56 57.545 99.4062 58.1558 99.4062C58.544 99.4062 58.9003 99.4665 59.2247 99.5873C59.549 99.7056 59.8355 99.8737 60.0841 100.092C60.335 100.307 60.541 100.558 60.702 100.844C60.8653 101.131 60.9766 101.442 61.0358 101.778Z" fill="white"/>
<path d="M34.3437 129.493H36.3412L39.8142 137.973H39.942L43.415 129.493H45.4125V140.402H43.8465V132.508H43.7453L40.528 140.386H39.2282L36.0109 132.502H35.9097V140.402H34.3437V129.493ZM57.2818 134.947C57.2818 136.112 57.0687 137.114 56.6426 137.952C56.2164 138.786 55.6323 139.429 54.8901 139.88C54.1514 140.327 53.3116 140.551 52.3706 140.551C51.4259 140.551 50.5826 140.327 49.8404 139.88C49.1017 139.429 48.5193 138.784 48.0932 137.946C47.6671 137.108 47.454 136.109 47.454 134.947C47.454 133.783 47.6671 132.783 48.0932 131.948C48.5193 131.11 49.1017 130.468 49.8404 130.02C50.5826 129.569 51.4259 129.344 52.3706 129.344C53.3116 129.344 54.1514 129.569 54.8901 130.02C55.6323 130.468 56.2164 131.11 56.6426 131.948C57.0687 132.783 57.2818 133.783 57.2818 134.947ZM55.6518 134.947C55.6518 134.06 55.508 133.312 55.2203 132.705C54.9362 132.094 54.5456 131.632 54.0485 131.32C53.5549 131.004 52.9956 130.846 52.3706 130.846C51.742 130.846 51.1809 131.004 50.6873 131.32C50.1937 131.632 49.8031 132.094 49.5154 132.705C49.2313 133.312 49.0893 134.06 49.0893 134.947C49.0893 135.835 49.2313 136.584 49.5154 137.195C49.8031 137.802 50.1937 138.264 50.6873 138.58C51.1809 138.893 51.742 139.049 52.3706 139.049C52.9956 139.049 53.5549 138.893 54.0485 138.58C54.5456 138.264 54.9362 137.802 55.2203 137.195C55.508 136.584 55.6518 135.835 55.6518 134.947ZM68.1389 129.493V140.402H66.6261L61.081 132.401H60.9798V140.402H59.3339V129.493H60.8573L66.4077 137.504H66.509V129.493H68.1389Z" fill="white"/>
<rect x="19.3516" y="67.9189" width="63.7834" height="94.6481" rx="14" stroke="black" stroke-opacity="0.2" stroke-width="2"/>
<rect x="94.1367" y="66.9189" width="65.7834" height="96.6481" rx="15" fill="#D9D9D9" fill-opacity="0.06"/>
<path d="M122.921 78.3735V92.9189H120.286V80.9374H120.201L116.799 83.1107V80.6959L120.414 78.3735H122.921ZM131.835 93.1178C130.812 93.1178 129.903 92.9426 129.107 92.5922C128.317 92.2419 127.692 91.7542 127.232 91.1292C126.773 90.5042 126.529 89.7821 126.501 88.963H129.171C129.195 89.356 129.325 89.6992 129.562 89.9928C129.799 90.2816 130.113 90.5065 130.506 90.6675C130.899 90.8285 131.34 90.909 131.827 90.909C132.348 90.909 132.81 90.819 133.212 90.6391C133.615 90.4545 133.93 90.1988 134.157 89.8721C134.384 89.5454 134.496 89.1689 134.491 88.7428C134.496 88.3025 134.382 87.9142 134.15 87.578C133.918 87.2419 133.582 86.9791 133.141 86.7897C132.706 86.6003 132.18 86.5056 131.565 86.5056H130.279V84.4743H131.565C132.071 84.4743 132.514 84.3867 132.893 84.2116C133.276 84.0364 133.577 83.7902 133.795 83.4729C134.013 83.151 134.119 82.7793 134.114 82.3579C134.119 81.9459 134.027 81.5885 133.837 81.2854C133.653 80.9777 133.39 80.7385 133.049 80.5681C132.713 80.3976 132.318 80.3124 131.863 80.3124C131.418 80.3124 131.006 80.3929 130.627 80.5539C130.248 80.7149 129.943 80.9445 129.711 81.2428C129.479 81.5364 129.356 81.8867 129.342 82.2939H126.806C126.825 81.4796 127.059 80.7646 127.509 80.1491C127.964 79.5288 128.57 79.0458 129.327 78.7002C130.085 78.3498 130.935 78.1746 131.877 78.1746C132.848 78.1746 133.691 78.3569 134.406 78.7215C135.125 79.0813 135.682 79.5667 136.075 80.1775C136.468 80.7883 136.664 81.463 136.664 82.2016C136.669 83.0207 136.427 83.7073 135.94 84.2613C135.457 84.8153 134.822 85.1775 134.036 85.3479V85.4616C135.059 85.6036 135.843 85.9824 136.387 86.5979C136.936 87.2087 137.209 87.9687 137.204 88.8778C137.204 89.6921 136.972 90.4213 136.508 91.0653C136.049 91.7045 135.414 92.2064 134.604 92.5709C133.8 92.9355 132.876 93.1178 131.835 93.1178Z" fill="white"/>
<path d="M119.74 106.778H117.61V99.5056H119.868C120.562 99.5056 121.155 99.65 121.647 99.9388C122.142 100.228 122.521 100.642 122.784 101.182C123.046 101.722 123.178 102.369 123.178 103.124C123.178 103.887 123.043 104.541 122.773 105.088C122.505 105.632 122.115 106.05 121.601 106.342C121.09 106.633 120.47 106.778 119.74 106.778ZM118.274 106.182H119.701C120.326 106.182 120.849 106.059 121.271 105.812C121.692 105.566 122.008 105.215 122.219 104.758C122.43 104.301 122.535 103.756 122.535 103.124C122.533 102.497 122.429 101.957 122.223 101.505C122.019 101.053 121.716 100.706 121.313 100.464C120.913 100.223 120.419 100.102 119.829 100.102H118.274V106.182ZM124.987 106.778V99.5056H129.206V100.102H125.651V102.84H128.982V103.437H125.651V106.182H129.277V106.778H124.987ZM136.821 101.778H136.153C136.104 101.53 136.014 101.3 135.883 101.089C135.756 100.876 135.595 100.69 135.4 100.532C135.206 100.373 134.986 100.25 134.74 100.163C134.494 100.075 134.227 100.031 133.941 100.031C133.482 100.031 133.063 100.151 132.684 100.39C132.307 100.629 132.006 100.98 131.778 101.445C131.553 101.906 131.441 102.472 131.441 103.142C131.441 103.817 131.553 104.385 131.778 104.847C132.006 105.308 132.307 105.659 132.684 105.898C133.063 106.134 133.482 106.253 133.941 106.253C134.227 106.253 134.494 106.209 134.74 106.121C134.986 106.034 135.206 105.912 135.4 105.756C135.595 105.597 135.756 105.411 135.883 105.198C136.014 104.985 136.104 104.754 136.153 104.506H136.821C136.762 104.839 136.65 105.151 136.487 105.44C136.326 105.726 136.12 105.977 135.869 106.192C135.621 106.408 135.334 106.576 135.01 106.697C134.686 106.817 134.329 106.878 133.941 106.878C133.33 106.878 132.788 106.725 132.315 106.42C131.841 106.112 131.469 105.679 131.199 105.12C130.932 104.561 130.798 103.902 130.798 103.142C130.798 102.382 130.932 101.723 131.199 101.164C131.469 100.605 131.841 100.173 132.315 99.8678C132.788 99.56 133.33 99.4062 133.941 99.4062C134.329 99.4062 134.686 99.4665 135.01 99.5873C135.334 99.7056 135.621 99.8737 135.869 100.092C136.12 100.307 136.326 100.558 136.487 100.844C136.65 101.131 136.762 101.442 136.821 101.778Z" fill="white"/>
<path d="M107.928 130.91V129.493H116.371V130.91H112.967V140.402H111.327V130.91H107.928ZM125.252 129.493H126.903V136.668C126.903 137.431 126.724 138.108 126.365 138.697C126.007 139.283 125.502 139.745 124.852 140.082C124.203 140.416 123.441 140.583 122.567 140.583C121.697 140.583 120.937 140.416 120.287 140.082C119.638 139.745 119.133 139.283 118.775 138.697C118.416 138.108 118.237 137.431 118.237 136.668V129.493H119.883V136.535C119.883 137.028 119.991 137.467 120.208 137.85C120.428 138.234 120.738 138.536 121.14 138.756C121.541 138.973 122.017 139.081 122.567 139.081C123.121 139.081 123.599 138.973 124 138.756C124.405 138.536 124.714 138.234 124.927 137.85C125.144 137.467 125.252 137.028 125.252 136.535V129.493ZM129.296 140.402V129.493H136.136V130.91H130.942V134.234H135.779V135.645H130.942V138.985H136.2V140.402H129.296ZM144.284 132.359C144.227 131.854 143.993 131.464 143.581 131.187C143.169 130.906 142.651 130.766 142.026 130.766C141.578 130.766 141.191 130.837 140.865 130.979C140.538 131.117 140.284 131.309 140.103 131.554C139.925 131.796 139.837 132.071 139.837 132.38C139.837 132.639 139.897 132.863 140.018 133.051C140.142 133.239 140.303 133.397 140.502 133.525C140.705 133.649 140.921 133.754 141.152 133.839C141.383 133.921 141.605 133.989 141.818 134.042L142.883 134.319C143.231 134.404 143.588 134.519 143.954 134.665C144.32 134.811 144.659 135.002 144.971 135.24C145.284 135.478 145.536 135.773 145.728 136.125C145.923 136.476 146.021 136.897 146.021 137.387C146.021 138.005 145.861 138.553 145.541 139.033C145.225 139.512 144.765 139.89 144.162 140.167C143.562 140.444 142.835 140.583 141.983 140.583C141.166 140.583 140.46 140.453 139.863 140.194C139.267 139.935 138.8 139.567 138.462 139.091C138.125 138.612 137.938 138.044 137.903 137.387H139.554C139.586 137.781 139.714 138.11 139.938 138.372C140.165 138.632 140.454 138.825 140.806 138.953C141.161 139.077 141.55 139.139 141.973 139.139C142.438 139.139 142.851 139.067 143.214 138.921C143.579 138.772 143.867 138.566 144.077 138.303C144.286 138.037 144.391 137.726 144.391 137.371C144.391 137.048 144.299 136.783 144.114 136.577C143.933 136.371 143.686 136.201 143.373 136.066C143.064 135.931 142.715 135.812 142.324 135.709L141.035 135.357C140.161 135.12 139.469 134.77 138.958 134.308C138.45 133.846 138.196 133.236 138.196 132.476C138.196 131.847 138.366 131.299 138.707 130.83C139.048 130.361 139.51 129.997 140.092 129.738C140.675 129.475 141.332 129.344 142.063 129.344C142.802 129.344 143.453 129.473 144.018 129.732C144.586 129.992 145.034 130.349 145.36 130.803C145.687 131.254 145.857 131.773 145.872 132.359H144.284Z" fill="white"/>
<rect x="95.1367" y="67.9189" width="63.7834" height="94.6481" rx="14" stroke="black" stroke-opacity="0.2" stroke-width="2"/>
<rect x="169.918" y="66.9189" width="65.7834" height="96.6481" rx="15" fill="#D9D9D9" fill-opacity="0.06"/>
<path d="M198.556 78.3735V92.9189H195.921V80.9374H195.836L192.434 83.1107V80.6959L196.049 78.3735H198.556ZM201.986 90.2201V88.1249L208.158 78.3735H209.905V81.3564H208.84L204.685 87.9403V88.0539H213.3V90.2201H201.986ZM208.925 92.9189V89.5809L208.954 88.6434V78.3735H211.44V92.9189H208.925Z" fill="white"/>
<path d="M195.522 106.778H193.391V99.5056H195.649C196.343 99.5056 196.936 99.65 197.429 99.9388C197.923 100.228 198.302 100.642 198.565 101.182C198.828 101.722 198.959 102.369 198.959 103.124C198.959 103.887 198.824 104.541 198.554 105.088C198.287 105.632 197.896 106.05 197.382 106.342C196.871 106.633 196.251 106.778 195.522 106.778ZM194.055 106.182H195.483C196.108 106.182 196.631 106.059 197.052 105.812C197.474 105.566 197.79 105.215 198 104.758C198.211 104.301 198.316 103.756 198.316 103.124C198.314 102.497 198.21 101.957 198.004 101.505C197.8 101.053 197.497 100.706 197.095 100.464C196.695 100.223 196.2 100.102 195.61 100.102H194.055V106.182ZM200.769 106.778V99.5056H204.987V100.102H201.433V102.84H204.764V103.437H201.433V106.182H205.058V106.778H200.769ZM212.602 101.778H211.935C211.885 101.53 211.795 101.3 211.665 101.089C211.537 100.876 211.376 100.69 211.182 100.532C210.988 100.373 210.767 100.25 210.521 100.163C210.275 100.075 210.009 100.031 209.722 100.031C209.263 100.031 208.844 100.151 208.465 100.39C208.089 100.629 207.787 100.98 207.56 101.445C207.335 101.906 207.222 102.472 207.222 103.142C207.222 103.817 207.335 104.385 207.56 104.847C207.787 105.308 208.089 105.659 208.465 105.898C208.844 106.134 209.263 106.253 209.722 106.253C210.009 106.253 210.275 106.209 210.521 106.121C210.767 106.034 210.988 105.912 211.182 105.756C211.376 105.597 211.537 105.411 211.665 105.198C211.795 104.985 211.885 104.754 211.935 104.506H212.602C212.543 104.839 212.432 105.151 212.268 105.44C212.107 105.726 211.901 105.977 211.65 106.192C211.402 106.408 211.115 106.576 210.791 106.697C210.467 106.817 210.11 106.878 209.722 106.878C209.111 106.878 208.569 106.725 208.096 106.42C207.622 106.112 207.251 105.679 206.981 105.12C206.713 104.561 206.579 103.902 206.579 103.142C206.579 102.382 206.713 101.723 206.981 101.164C207.251 100.605 207.622 100.173 208.096 99.8678C208.569 99.56 209.111 99.4062 209.722 99.4062C210.11 99.4062 210.467 99.4665 210.791 99.5873C211.115 99.7056 211.402 99.8737 211.65 100.092C211.901 100.307 212.107 100.558 212.268 100.844C212.432 101.131 212.543 101.442 212.602 101.778Z" fill="white"/>
<path d="M188.881 140.402L185.855 129.493H187.587L189.712 137.941H189.813L192.024 129.493H193.739L195.95 137.946H196.051L198.171 129.493H199.907L196.876 140.402H195.22L192.924 132.231H192.839L190.543 140.402H188.881ZM201.408 140.402V129.493H208.248V130.91H203.054V134.234H207.891V135.645H203.054V138.985H208.312V140.402H201.408ZM213.978 140.402H210.446V129.493H214.09C215.159 129.493 216.077 129.711 216.844 130.148C217.611 130.581 218.198 131.204 218.607 132.018C219.019 132.827 219.225 133.799 219.225 134.931C219.225 136.068 219.017 137.044 218.601 137.861C218.189 138.678 217.593 139.306 216.812 139.747C216.03 140.183 215.086 140.402 213.978 140.402ZM212.092 138.964H213.887C214.718 138.964 215.409 138.807 215.959 138.495C216.51 138.179 216.922 137.723 217.195 137.126C217.469 136.526 217.605 135.794 217.605 134.931C217.605 134.076 217.469 133.349 217.195 132.753C216.925 132.156 216.522 131.703 215.986 131.394C215.45 131.085 214.784 130.931 213.988 130.931H212.092V138.964Z" fill="white"/>
<rect x="170.918" y="67.9189" width="63.7834" height="94.6481" rx="14" stroke="black" stroke-opacity="0.2" stroke-width="2"/>
<rect x="245.703" y="66.9189" width="65.7834" height="96.6481" rx="15" fill="#D9D9D9" fill-opacity="0.06"/>
<path d="M274.673 78.3735V92.9189H272.038V80.9374H271.953L268.551 83.1107V80.6959L272.166 78.3735H274.673ZM283.423 93.1178C282.476 93.1178 281.629 92.9403 280.881 92.5851C280.132 92.2253 279.538 91.7329 279.098 91.1079C278.662 90.4829 278.43 89.7679 278.402 88.963H280.959C281.006 89.5596 281.264 90.0473 281.733 90.426C282.202 90.8001 282.765 90.9871 283.423 90.9871C283.939 90.9871 284.399 90.8688 284.801 90.632C285.203 90.3953 285.521 90.0662 285.753 89.6448C285.985 89.2234 286.098 88.7428 286.094 88.203C286.098 87.6538 285.982 87.1661 285.746 86.74C285.509 86.3138 285.185 85.98 284.773 85.7385C284.361 85.4923 283.887 85.3692 283.352 85.3692C282.917 85.3645 282.488 85.445 282.067 85.6107C281.645 85.7764 281.311 85.9942 281.065 86.2641L278.686 85.8735L279.446 78.3735H287.883V80.5752H281.626L281.207 84.4317H281.292C281.562 84.1145 281.944 83.8517 282.436 83.6434C282.928 83.4303 283.468 83.3238 284.055 83.3238C284.936 83.3238 285.722 83.5321 286.413 83.9488C287.105 84.3607 287.649 84.9289 288.047 85.6533C288.444 86.3778 288.643 87.2064 288.643 88.1391C288.643 89.1003 288.421 89.9573 287.976 90.7101C287.535 91.4582 286.922 92.0477 286.136 92.4786C285.355 92.9047 284.451 93.1178 283.423 93.1178Z" fill="white"/>
<path d="M271.307 106.778H269.176V99.5056H271.435C272.128 99.5056 272.721 99.65 273.214 99.9388C273.709 100.228 274.087 100.642 274.35 101.182C274.613 101.722 274.744 102.369 274.744 103.124C274.744 103.887 274.609 104.541 274.339 105.088C274.072 105.632 273.681 106.05 273.168 106.342C272.656 106.633 272.036 106.778 271.307 106.778ZM269.84 106.182H271.268C271.893 106.182 272.416 106.059 272.837 105.812C273.259 105.566 273.575 105.215 273.785 104.758C273.996 104.301 274.101 103.756 274.101 103.124C274.099 102.497 273.995 101.957 273.789 101.505C273.585 101.053 273.282 100.706 272.88 100.464C272.48 100.223 271.985 100.102 271.396 100.102H269.84V106.182ZM276.554 106.778V99.5056H280.773V100.102H277.218V102.84H280.549V103.437H277.218V106.182H280.844V106.778H276.554ZM288.387 101.778H287.72C287.67 101.53 287.58 101.3 287.45 101.089C287.322 100.876 287.161 100.69 286.967 100.532C286.773 100.373 286.553 100.25 286.306 100.163C286.06 100.075 285.794 100.031 285.507 100.031C285.048 100.031 284.629 100.151 284.25 100.39C283.874 100.629 283.572 100.98 283.345 101.445C283.12 101.906 283.007 102.472 283.007 103.142C283.007 103.817 283.12 104.385 283.345 104.847C283.572 105.308 283.874 105.659 284.25 105.898C284.629 106.134 285.048 106.253 285.507 106.253C285.794 106.253 286.06 106.209 286.306 106.121C286.553 106.034 286.773 105.912 286.967 105.756C287.161 105.597 287.322 105.411 287.45 105.198C287.58 104.985 287.67 104.754 287.72 104.506H288.387C288.328 104.839 288.217 105.151 288.054 105.44C287.893 105.726 287.687 105.977 287.436 106.192C287.187 106.408 286.901 106.576 286.576 106.697C286.252 106.817 285.896 106.878 285.507 106.878C284.897 106.878 284.354 106.725 283.881 106.42C283.407 106.112 283.036 105.679 282.766 105.12C282.498 104.561 282.365 103.902 282.365 103.142C282.365 102.382 282.498 101.723 282.766 101.164C283.036 100.605 283.407 100.173 283.881 99.8678C284.354 99.56 284.897 99.4062 285.507 99.4062C285.896 99.4062 286.252 99.4665 286.576 99.5873C286.901 99.7056 287.187 99.8737 287.436 100.092C287.687 100.307 287.893 100.558 288.054 100.844C288.217 101.131 288.328 101.442 288.387 101.778Z" fill="white"/>
<path d="M258.44 130.91V129.493H266.883V130.91H263.479V140.402H261.838V130.91H258.44ZM268.748 140.402V129.493H270.394V134.234H275.833V129.493H277.484V140.402H275.833V135.645H270.394V140.402H268.748ZM286.897 129.493H288.548V136.668C288.548 137.431 288.368 138.108 288.01 138.697C287.651 139.283 287.147 139.745 286.497 140.082C285.847 140.416 285.085 140.583 284.212 140.583C283.342 140.583 282.582 140.416 281.932 140.082C281.282 139.745 280.778 139.283 280.419 138.697C280.061 138.108 279.881 137.431 279.881 136.668V129.493H281.527V136.535C281.527 137.028 281.636 137.467 281.852 137.85C282.072 138.234 282.383 138.536 282.784 138.756C283.186 138.973 283.661 139.081 284.212 139.081C284.766 139.081 285.243 138.973 285.645 138.756C286.05 138.536 286.359 138.234 286.572 137.85C286.788 137.467 286.897 137.028 286.897 136.535V129.493ZM290.941 140.402V129.493H294.829C295.674 129.493 296.376 129.638 296.933 129.93C297.494 130.221 297.913 130.624 298.19 131.139C298.467 131.65 298.606 132.241 298.606 132.913C298.606 133.58 298.466 134.168 298.185 134.676C297.908 135.18 297.489 135.572 296.928 135.853C296.371 136.133 295.669 136.274 294.824 136.274H291.878V134.857H294.675C295.208 134.857 295.641 134.78 295.975 134.628C296.312 134.475 296.559 134.253 296.715 133.962C296.871 133.671 296.949 133.321 296.949 132.913C296.949 132.501 296.869 132.144 296.71 131.842C296.553 131.54 296.307 131.309 295.969 131.149C295.635 130.986 295.197 130.904 294.654 130.904H292.587V140.402H290.941ZM296.326 135.48L299.021 140.402H297.146L294.504 135.48H296.326Z" fill="white"/>
<rect x="246.703" y="67.9189" width="63.7834" height="94.6481" rx="14" stroke="black" stroke-opacity="0.2" stroke-width="2"/>
<rect x="321.484" y="66.9189" width="65.7834" height="96.6481" rx="15" fill="#D9D9D9" fill-opacity="0.06"/>
<path d="M350.298 78.3735V92.9189H347.663V80.9374H347.578L344.176 83.1107V80.6959L347.791 78.3735H350.298ZM359.318 93.1178C358.622 93.1131 357.943 92.9923 357.28 92.7556C356.617 92.5141 356.02 92.1235 355.49 91.5837C354.96 91.0392 354.538 90.3171 354.226 89.4175C353.913 88.5132 353.759 87.3934 353.764 86.0581C353.764 84.8129 353.897 83.7026 354.162 82.7272C354.427 81.7518 354.808 80.9279 355.305 80.2556C355.802 79.5785 356.401 79.0624 357.102 78.7073C357.808 78.3522 358.596 78.1746 359.467 78.1746C360.381 78.1746 361.191 78.3546 361.896 78.7144C362.606 79.0742 363.179 79.5667 363.615 80.1917C364.051 80.8119 364.32 81.5127 364.425 82.2939H361.832C361.7 81.7352 361.427 81.2902 361.016 80.9587C360.608 80.6225 360.092 80.4545 359.467 80.4545C358.459 80.4545 357.682 80.8924 357.138 81.7684C356.598 82.6443 356.326 83.847 356.321 85.3763H356.42C356.652 84.9597 356.953 84.6022 357.322 84.3039C357.692 84.0056 358.108 83.776 358.572 83.615C359.041 83.4492 359.536 83.3664 360.057 83.3664C360.909 83.3664 361.674 83.57 362.351 83.9772C363.033 84.3844 363.572 84.9455 363.97 85.6604C364.368 86.3706 364.564 87.185 364.56 88.1036C364.564 89.06 364.346 89.9194 363.906 90.6817C363.466 91.4393 362.853 92.0359 362.067 92.4715C361.281 92.9071 360.364 93.1225 359.318 93.1178ZM359.304 90.9871C359.82 90.9871 360.282 90.8617 360.689 90.6107C361.096 90.3598 361.418 90.0212 361.655 89.5951C361.891 89.1689 362.007 88.6907 362.003 88.1604C362.007 87.6396 361.894 87.1685 361.662 86.7471C361.435 86.3257 361.12 85.9919 360.717 85.7456C360.315 85.4994 359.855 85.3763 359.339 85.3763C358.956 85.3763 358.598 85.4497 358.267 85.5965C357.935 85.7433 357.647 85.9469 357.4 86.2073C357.154 86.463 356.96 86.7613 356.818 87.1022C356.681 87.4384 356.61 87.7982 356.605 88.1817C356.61 88.6884 356.728 89.1547 356.96 89.5809C357.192 90.007 357.512 90.3479 357.919 90.6036C358.326 90.8593 358.788 90.9871 359.304 90.9871Z" fill="white"/>
<path d="M347.088 106.778H344.957V99.5056H347.216C347.909 99.5056 348.503 99.65 348.995 99.9388C349.49 100.228 349.869 100.642 350.131 101.182C350.394 101.722 350.525 102.369 350.525 103.124C350.525 103.887 350.391 104.541 350.121 105.088C349.853 105.632 349.463 106.05 348.949 106.342C348.437 106.633 347.817 106.778 347.088 106.778ZM345.621 106.182H347.049C347.674 106.182 348.197 106.059 348.619 105.812C349.04 105.566 349.356 105.215 349.567 104.758C349.777 104.301 349.883 103.756 349.883 103.124C349.88 102.497 349.776 101.957 349.57 101.505C349.367 101.053 349.064 100.706 348.661 100.464C348.261 100.223 347.766 100.102 347.177 100.102H345.621V106.182ZM352.335 106.778V99.5056H356.554V100.102H352.999V102.84H356.33V103.437H352.999V106.182H356.625V106.778H352.335ZM364.169 101.778H363.501C363.451 101.53 363.361 101.3 363.231 101.089C363.103 100.876 362.942 100.69 362.748 100.532C362.554 100.373 362.334 100.25 362.088 100.163C361.841 100.075 361.575 100.031 361.289 100.031C360.829 100.031 360.41 100.151 360.031 100.39C359.655 100.629 359.353 100.98 359.126 101.445C358.901 101.906 358.789 102.472 358.789 103.142C358.789 103.817 358.901 104.385 359.126 104.847C359.353 105.308 359.655 105.659 360.031 105.898C360.41 106.134 360.829 106.253 361.289 106.253C361.575 106.253 361.841 106.209 362.088 106.121C362.334 106.034 362.554 105.912 362.748 105.756C362.942 105.597 363.103 105.411 363.231 105.198C363.361 104.985 363.451 104.754 363.501 104.506H364.169C364.109 104.839 363.998 105.151 363.835 105.44C363.674 105.726 363.468 105.977 363.217 106.192C362.968 106.408 362.682 106.576 362.357 106.697C362.033 106.817 361.677 106.878 361.289 106.878C360.678 106.878 360.136 106.725 359.662 106.42C359.189 106.112 358.817 105.679 358.547 105.12C358.28 104.561 358.146 103.902 358.146 103.142C358.146 102.382 358.28 101.723 358.547 101.164C358.817 100.605 359.189 100.173 359.662 99.8678C360.136 99.56 360.678 99.4062 361.289 99.4062C361.677 99.4062 362.033 99.4665 362.357 99.5873C362.682 99.7056 362.968 99.8737 363.217 100.092C363.468 100.307 363.674 100.558 363.835 100.844C363.998 101.131 364.109 101.442 364.169 101.778Z" fill="white"/>
<path d="M344.325 140.402V129.493H351.09V130.91H345.971V134.234H350.605V135.645H345.971V140.402H344.325ZM353.114 140.402V129.493H357.002C357.847 129.493 358.549 129.638 359.106 129.93C359.667 130.221 360.086 130.624 360.363 131.139C360.64 131.65 360.779 132.241 360.779 132.913C360.779 133.58 360.639 134.168 360.358 134.676C360.081 135.18 359.662 135.572 359.101 135.853C358.543 136.133 357.842 136.274 356.997 136.274H354.051V134.857H356.848C357.38 134.857 357.814 134.78 358.147 134.628C358.485 134.475 358.732 134.253 358.888 133.962C359.044 133.671 359.122 133.321 359.122 132.913C359.122 132.501 359.042 132.144 358.882 131.842C358.726 131.54 358.479 131.309 358.142 131.149C357.808 130.986 357.37 130.904 356.826 130.904H354.76V140.402H353.114ZM358.499 135.48L361.194 140.402H359.319L356.677 135.48H358.499ZM364.428 129.493V140.402H362.782V129.493H364.428Z" fill="white"/>
<rect x="322.484" y="67.9189" width="63.7834" height="94.6481" rx="14" stroke="url(#paint0_linear_570_85)" stroke-opacity="0.7" stroke-width="2"/>
<rect x="397.27" y="66.9189" width="65.7834" height="96.6481" rx="15" fill="#D9D9D9" fill-opacity="0.06"/>
<path d="M426.699 78.3735V92.9189H424.064V80.9374H423.978L420.576 83.1107V80.6959L424.191 78.3735H426.699ZM430.924 92.9189L437.11 80.6746V80.5752H429.93V78.3735H439.838V80.6249L433.659 92.9189H430.924Z" fill="white"/>
<path d="M422.873 106.778H420.742V99.5056H423.001C423.695 99.5056 424.288 99.65 424.78 99.9388C425.275 100.228 425.654 100.642 425.916 101.182C426.179 101.722 426.311 102.369 426.311 103.124C426.311 103.887 426.176 104.541 425.906 105.088C425.638 105.632 425.248 106.05 424.734 106.342C424.223 106.633 423.602 106.778 422.873 106.778ZM421.407 106.182H422.834C423.459 106.182 423.982 106.059 424.404 105.812C424.825 105.566 425.141 105.215 425.352 104.758C425.563 104.301 425.668 103.756 425.668 103.124C425.666 102.497 425.561 101.957 425.355 101.505C425.152 101.053 424.849 100.706 424.446 100.464C424.046 100.223 423.551 100.102 422.962 100.102H421.407V106.182ZM428.12 106.778V99.5056H432.339V100.102H428.784V102.84H432.115V103.437H428.784V106.182H432.41V106.778H428.12ZM439.954 101.778H439.286C439.236 101.53 439.146 101.3 439.016 101.089C438.888 100.876 438.727 100.69 438.533 100.532C438.339 100.373 438.119 100.25 437.873 100.163C437.627 100.075 437.36 100.031 437.074 100.031C436.614 100.031 436.195 100.151 435.817 100.39C435.44 100.629 435.138 100.98 434.911 101.445C434.686 101.906 434.574 102.472 434.574 103.142C434.574 103.817 434.686 104.385 434.911 104.847C435.138 105.308 435.44 105.659 435.817 105.898C436.195 106.134 436.614 106.253 437.074 106.253C437.36 106.253 437.627 106.209 437.873 106.121C438.119 106.034 438.339 105.912 438.533 105.756C438.727 105.597 438.888 105.411 439.016 105.198C439.146 104.985 439.236 104.754 439.286 104.506H439.954C439.895 104.839 439.783 105.151 439.62 105.44C439.459 105.726 439.253 105.977 439.002 106.192C438.753 106.408 438.467 106.576 438.143 106.697C437.818 106.817 437.462 106.878 437.074 106.878C436.463 106.878 435.921 106.725 435.447 106.42C434.974 106.112 434.602 105.679 434.332 105.12C434.065 104.561 433.931 103.902 433.931 103.142C433.931 102.382 434.065 101.723 434.332 101.164C434.602 100.605 434.974 100.173 435.447 99.8678C435.921 99.56 436.463 99.4062 437.074 99.4062C437.462 99.4062 437.818 99.4665 438.143 99.5873C438.467 99.7056 438.753 99.8737 439.002 100.092C439.253 100.307 439.459 100.558 439.62 100.844C439.783 101.131 439.895 101.442 439.954 101.778Z" fill="white"/>
<path d="M423.035 132.359C422.978 131.854 422.744 131.464 422.332 131.187C421.92 130.906 421.401 130.766 420.776 130.766C420.329 130.766 419.942 130.837 419.615 130.979C419.288 131.117 419.034 131.309 418.853 131.554C418.676 131.796 418.587 132.071 418.587 132.38C418.587 132.639 418.647 132.863 418.768 133.051C418.892 133.239 419.054 133.397 419.253 133.525C419.455 133.649 419.672 133.754 419.903 133.839C420.134 133.921 420.355 133.989 420.569 134.042L421.634 134.319C421.982 134.404 422.339 134.519 422.705 134.665C423.07 134.811 423.409 135.002 423.722 135.24C424.034 135.478 424.287 135.773 424.478 136.125C424.674 136.476 424.771 136.897 424.771 137.387C424.771 138.005 424.611 138.553 424.292 139.033C423.976 139.512 423.516 139.89 422.912 140.167C422.312 140.444 421.586 140.583 420.734 140.583C419.917 140.583 419.21 140.453 418.614 140.194C418.017 139.935 417.55 139.567 417.213 139.091C416.875 138.612 416.689 138.044 416.653 137.387H418.305C418.337 137.781 418.464 138.11 418.688 138.372C418.915 138.632 419.205 138.825 419.556 138.953C419.912 139.077 420.3 139.139 420.723 139.139C421.188 139.139 421.602 139.067 421.964 138.921C422.33 138.772 422.618 138.566 422.827 138.303C423.037 138.037 423.141 137.726 423.141 137.371C423.141 137.048 423.049 136.783 422.864 136.577C422.683 136.371 422.436 136.201 422.124 136.066C421.815 135.931 421.465 135.812 421.075 135.709L419.786 135.357C418.912 135.12 418.219 134.77 417.708 134.308C417.2 133.846 416.946 133.236 416.946 132.476C416.946 131.847 417.117 131.299 417.458 130.83C417.799 130.361 418.26 129.997 418.843 129.738C419.425 129.475 420.082 129.344 420.814 129.344C421.552 129.344 422.204 129.473 422.768 129.732C423.337 129.992 423.784 130.349 424.111 130.803C424.437 131.254 424.608 131.773 424.622 132.359H423.035ZM427.572 140.402H425.825L429.75 129.493H431.652L435.578 140.402H433.831L430.747 131.474H430.661L427.572 140.402ZM427.865 136.13H433.532V137.515H427.865V136.13ZM435.326 130.91V129.493H443.769V130.91H440.365V140.402H438.725V130.91H435.326Z" fill="white"/>
<rect x="398.27" y="67.9189" width="63.7834" height="94.6481" rx="14" stroke="url(#paint1_linear_570_85)" stroke-opacity="0.7" stroke-width="2"/>
<rect x="473.051" y="66.9189" width="65.7834" height="96.6481" rx="15" fill="#D9D9D9" fill-opacity="0.06"/>
<path d="M501.894 78.3735V92.9189H499.259V80.9374H499.174L495.772 83.1107V80.6959L499.387 78.3735H501.894ZM510.758 93.1178C509.702 93.1178 508.764 92.9403 507.945 92.5851C507.131 92.23 506.491 91.7447 506.027 91.1292C505.568 90.5089 505.341 89.8058 505.346 89.0198C505.341 88.409 505.473 87.8479 505.743 87.3366C506.013 86.8252 506.378 86.3991 506.837 86.0581C507.301 85.7125 507.817 85.4923 508.385 85.3976V85.2982C507.637 85.1325 507.031 84.7513 506.567 84.1547C506.108 83.5534 505.881 82.8598 505.885 82.0738C505.881 81.3257 506.089 80.6581 506.51 80.0709C506.932 79.4838 507.509 79.0222 508.243 78.686C508.977 78.3451 509.815 78.1746 510.758 78.1746C511.69 78.1746 512.521 78.3451 513.25 78.686C513.984 79.0222 514.562 79.4838 514.983 80.0709C515.41 80.6581 515.623 81.3257 515.623 82.0738C515.623 82.8598 515.388 83.5534 514.919 84.1547C514.455 84.7513 513.856 85.1325 513.123 85.2982V85.3976C513.691 85.4923 514.202 85.7125 514.657 86.0581C515.116 86.3991 515.481 86.8252 515.75 87.3366C516.025 87.8479 516.162 88.409 516.162 89.0198C516.162 89.8058 515.93 90.5089 515.466 91.1292C515.002 91.7447 514.363 92.23 513.549 92.5851C512.739 92.9403 511.809 93.1178 510.758 93.1178ZM510.758 91.0866C511.302 91.0866 511.776 90.9942 512.178 90.8096C512.58 90.6202 512.893 90.355 513.115 90.0141C513.338 89.6732 513.452 89.2802 513.456 88.8351C513.452 88.3711 513.331 87.9616 513.094 87.6064C512.862 87.2466 512.543 86.9649 512.135 86.7613C511.733 86.5577 511.274 86.4559 510.758 86.4559C510.237 86.4559 509.773 86.5577 509.365 86.7613C508.958 86.9649 508.636 87.2466 508.4 87.6064C508.168 87.9616 508.054 88.3711 508.059 88.8351C508.054 89.2802 508.163 89.6732 508.385 90.0141C508.608 90.3503 508.92 90.6131 509.323 90.8025C509.73 90.9919 510.208 91.0866 510.758 91.0866ZM510.758 84.4601C511.203 84.4601 511.596 84.3702 511.936 84.1903C512.282 84.0103 512.554 83.7594 512.753 83.4374C512.952 83.1154 513.054 82.7438 513.059 82.3224C513.054 81.9057 512.954 81.5411 512.76 81.2286C512.566 80.9114 512.296 80.6675 511.951 80.4971C511.605 80.3219 511.207 80.2343 510.758 80.2343C510.298 80.2343 509.893 80.3219 509.543 80.4971C509.197 80.6675 508.927 80.9114 508.733 81.2286C508.544 81.5411 508.452 81.9057 508.456 82.3224C508.452 82.7438 508.546 83.1154 508.74 83.4374C508.939 83.7546 509.212 84.0056 509.557 84.1903C509.908 84.3702 510.308 84.4601 510.758 84.4601Z" fill="white"/>
<path d="M498.654 106.778H496.524V99.5056H498.782C499.476 99.5056 500.069 99.65 500.561 99.9388C501.056 100.228 501.435 100.642 501.698 101.182C501.961 101.722 502.092 102.369 502.092 103.124C502.092 103.887 501.957 104.541 501.687 105.088C501.42 105.632 501.029 106.05 500.515 106.342C500.004 106.633 499.384 106.778 498.654 106.778ZM497.188 106.182H498.615C499.24 106.182 499.764 106.059 500.185 105.812C500.606 105.566 500.922 105.215 501.133 104.758C501.344 104.301 501.449 103.756 501.449 103.124C501.447 102.497 501.343 101.957 501.137 101.505C500.933 101.053 500.63 100.706 500.228 100.464C499.827 100.223 499.333 100.102 498.743 100.102H497.188V106.182ZM503.901 106.778V99.5056H508.12V100.102H504.566V102.84H507.896V103.437H504.566V106.182H508.191V106.778H503.901ZM515.735 101.778H515.067C515.018 101.53 514.928 101.3 514.797 101.089C514.67 100.876 514.509 100.69 514.315 100.532C514.12 100.373 513.9 100.25 513.654 100.163C513.408 100.075 513.141 100.031 512.855 100.031C512.396 100.031 511.977 100.151 511.598 100.39C511.221 100.629 510.92 100.98 510.692 101.445C510.467 101.906 510.355 102.472 510.355 103.142C510.355 103.817 510.467 104.385 510.692 104.847C510.92 105.308 511.221 105.659 511.598 105.898C511.977 106.134 512.396 106.253 512.855 106.253C513.141 106.253 513.408 106.209 513.654 106.121C513.9 106.034 514.12 105.912 514.315 105.756C514.509 105.597 514.67 105.411 514.797 105.198C514.928 104.985 515.018 104.754 515.067 104.506H515.735C515.676 104.839 515.565 105.151 515.401 105.44C515.24 105.726 515.034 105.977 514.783 106.192C514.535 106.408 514.248 106.576 513.924 106.697C513.6 106.817 513.243 106.878 512.855 106.878C512.244 106.878 511.702 106.725 511.229 106.42C510.755 106.112 510.383 105.679 510.114 105.12C509.846 104.561 509.712 103.902 509.712 103.142C509.712 102.382 509.846 101.723 510.114 101.164C510.383 100.605 510.755 100.173 511.229 99.8678C511.702 99.56 512.244 99.4062 512.855 99.4062C513.243 99.4062 513.6 99.4665 513.924 99.5873C514.248 99.7056 514.535 99.8737 514.783 100.092C515.034 100.307 515.24 100.558 515.401 100.844C515.565 101.131 515.676 101.442 515.735 101.778Z" fill="white"/>
<path d="M497.131 132.359C497.075 131.854 496.84 131.464 496.428 131.187C496.016 130.906 495.498 130.766 494.873 130.766C494.426 130.766 494.038 130.837 493.712 130.979C493.385 131.117 493.131 131.309 492.95 131.554C492.772 131.796 492.684 132.071 492.684 132.38C492.684 132.639 492.744 132.863 492.865 133.051C492.989 133.239 493.151 133.397 493.35 133.525C493.552 133.649 493.769 133.754 493.999 133.839C494.23 133.921 494.452 133.989 494.665 134.042L495.731 134.319C496.079 134.404 496.435 134.519 496.801 134.665C497.167 134.811 497.506 135.002 497.819 135.24C498.131 135.478 498.383 135.773 498.575 136.125C498.77 136.476 498.868 136.897 498.868 137.387C498.868 138.005 498.708 138.553 498.389 139.033C498.073 139.512 497.613 139.89 497.009 140.167C496.409 140.444 495.683 140.583 494.83 140.583C494.014 140.583 493.307 140.453 492.71 140.194C492.114 139.935 491.647 139.567 491.309 139.091C490.972 138.612 490.786 138.044 490.75 137.387H492.401C492.433 137.781 492.561 138.11 492.785 138.372C493.012 138.632 493.302 138.825 493.653 138.953C494.008 139.077 494.397 139.139 494.82 139.139C495.285 139.139 495.699 139.067 496.061 138.921C496.427 138.772 496.714 138.566 496.924 138.303C497.133 138.037 497.238 137.726 497.238 137.371C497.238 137.048 497.146 136.783 496.961 136.577C496.78 136.371 496.533 136.201 496.221 136.066C495.912 135.931 495.562 135.812 495.171 135.709L493.882 135.357C493.009 135.12 492.316 134.77 491.805 134.308C491.297 133.846 491.043 133.236 491.043 132.476C491.043 131.847 491.214 131.299 491.554 130.83C491.895 130.361 492.357 129.997 492.939 129.738C493.522 129.475 494.179 129.344 494.91 129.344C495.649 129.344 496.301 129.473 496.865 129.732C497.433 129.992 497.881 130.349 498.207 130.803C498.534 131.254 498.705 131.773 498.719 132.359H497.131ZM507.85 129.493H509.501V136.668C509.501 137.431 509.322 138.108 508.963 138.697C508.605 139.283 508.1 139.745 507.451 140.082C506.801 140.416 506.039 140.583 505.165 140.583C504.295 140.583 503.536 140.416 502.886 140.082C502.236 139.745 501.732 139.283 501.373 138.697C501.014 138.108 500.835 137.431 500.835 136.668V129.493H502.481V136.535C502.481 137.028 502.589 137.467 502.806 137.85C503.026 138.234 503.337 138.536 503.738 138.756C504.139 138.973 504.615 139.081 505.165 139.081C505.719 139.081 506.197 138.973 506.598 138.756C507.003 138.536 507.312 138.234 507.525 137.85C507.742 137.467 507.85 137.028 507.85 136.535V129.493ZM520.699 129.493V140.402H519.187L513.642 132.401H513.54V140.402H511.894V129.493H513.418L518.968 137.504H519.07V129.493H520.699Z" fill="white"/>
<rect x="474.051" y="67.9189" width="63.7834" height="94.6481" rx="14" stroke="url(#paint2_linear_570_85)" stroke-opacity="0.7" stroke-width="2"/>
<defs>
<linearGradient id="paint0_linear_570_85" x1="354.376" y1="66.9189" x2="354.376" y2="163.567" gradientUnits="userSpaceOnUse">
<stop stop-color="#F993B1"/>
<stop offset="0.488884" stop-color="#E5A9CF"/>
<stop offset="1" stop-color="#8C7EF5"/>
</linearGradient>
<linearGradient id="paint1_linear_570_85" x1="430.161" y1="66.9189" x2="430.161" y2="163.567" gradientUnits="userSpaceOnUse">
<stop stop-color="#F993B1"/>
<stop offset="0.488884" stop-color="#E5A9CF"/>
<stop offset="1" stop-color="#8C7EF5"/>
</linearGradient>
<linearGradient id="paint2_linear_570_85" x1="505.943" y1="66.9189" x2="505.943" y2="163.567" gradientUnits="userSpaceOnUse">
<stop stop-color="#F993B1"/>
<stop offset="0.488884" stop-color="#E5A9CF"/>
<stop offset="1" stop-color="#8C7EF5"/>
</linearGradient>
</defs>
</svg>
